<svg width="1474" height="860" viewBox="0 0 1474 860" fill="none" xmlns="http://www.w3.org/2000/svg">
<rect x="2.5" y="92.5" width="195" height="195" fill="white" stroke="#376BC3" stroke-width="5"/>
<path d="M33.3121 199.288C30.9121 199.288 29.0401 198.624 27.6961 197.296C26.3681 195.968 25.7041 194.072 25.7041 191.608V182.2H29.5921V191.464C29.5921 194.472 30.8401 195.976 33.3361 195.976C34.5521 195.976 35.4801 195.616 36.1201 194.896C36.7601 194.16 37.0801 193.016 37.0801 191.464V182.2H40.9201V191.608C40.9201 194.072 40.2481 195.968 38.9041 197.296C37.5761 198.624 35.7121 199.288 33.3121 199.288Z" fill="black"/>
<path d="M61.3702 182.2V199H58.1782L49.8022 188.8V199H45.9622V182.2H49.1782L57.5302 192.4V182.2H61.3702Z" fill="black"/>
<path d="M66.281 186.088H70.025V199H66.281V186.088ZM68.153 184.288C67.465 184.288 66.905 184.088 66.473 183.688C66.041 183.288 65.825 182.792 65.825 182.2C65.825 181.608 66.041 181.112 66.473 180.712C66.905 180.312 67.465 180.112 68.153 180.112C68.841 180.112 69.401 180.304 69.833 180.688C70.265 181.072 70.481 181.552 70.481 182.128C70.481 182.752 70.265 183.272 69.833 183.688C69.401 184.088 68.841 184.288 68.153 184.288Z" fill="black"/>
<path d="M74.9637 182.2H82.5957C84.4197 182.2 86.0277 182.552 87.4197 183.256C88.8277 183.944 89.9157 184.92 90.6837 186.184C91.4677 187.448 91.8597 188.92 91.8597 190.6C91.8597 192.28 91.4677 193.752 90.6837 195.016C89.9157 196.28 88.8277 197.264 87.4197 197.968C86.0277 198.656 84.4197 199 82.5957 199H74.9637V182.2ZM82.4037 195.808C84.0837 195.808 85.4197 195.344 86.4117 194.416C87.4197 193.472 87.9237 192.2 87.9237 190.6C87.9237 189 87.4197 187.736 86.4117 186.808C85.4197 185.864 84.0837 185.392 82.4037 185.392H78.8517V195.808H82.4037Z" fill="black"/>
<path d="M116.997 195.88V199H103.989V182.2H116.685V185.32H107.853V188.968H115.653V191.992H107.853V195.88H116.997Z" fill="black"/>
<path d="M121.29 182.2H128.922C130.746 182.2 132.354 182.552 133.746 183.256C135.154 183.944 136.242 184.92 137.01 186.184C137.794 187.448 138.186 188.92 138.186 190.6C138.186 192.28 137.794 193.752 137.01 195.016C136.242 196.28 135.154 197.264 133.746 197.968C132.354 198.656 130.746 199 128.922 199H121.29V182.2ZM128.73 195.808C130.41 195.808 131.746 195.344 132.738 194.416C133.746 193.472 134.25 192.2 134.25 190.6C134.25 189 133.746 187.736 132.738 186.808C131.746 185.864 130.41 185.392 128.73 185.392H125.178V195.808H128.73Z" fill="black"/>
<path d="M153.67 190.336H157.222V197.152C156.31 197.84 155.254 198.368 154.054 198.736C152.854 199.104 151.646 199.288 150.43 199.288C148.686 199.288 147.118 198.92 145.726 198.184C144.334 197.432 143.238 196.4 142.438 195.088C141.654 193.76 141.262 192.264 141.262 190.6C141.262 188.936 141.654 187.448 142.438 186.136C143.238 184.808 144.342 183.776 145.75 183.04C147.158 182.288 148.742 181.912 150.502 181.912C151.974 181.912 153.31 182.16 154.51 182.656C155.71 183.152 156.718 183.872 157.534 184.816L155.038 187.12C153.838 185.856 152.39 185.224 150.694 185.224C149.622 185.224 148.67 185.448 147.838 185.896C147.006 186.344 146.358 186.976 145.894 187.792C145.43 188.608 145.198 189.544 145.198 190.6C145.198 191.64 145.43 192.568 145.894 193.384C146.358 194.2 146.998 194.84 147.814 195.304C148.646 195.752 149.59 195.976 150.646 195.976C151.766 195.976 152.774 195.736 153.67 195.256V190.336Z" fill="black"/>
<path d="M175.042 195.88V199H162.034V182.2H174.73V185.32H165.898V188.968H173.698V191.992H165.898V195.88H175.042Z" fill="black"/>
<path d="M43.1828 14.8801V18.0001H30.1748V1.20011H42.8708V4.32011H34.0388V7.96811H41.8388V10.9921H34.0388V14.8801H43.1828Z" fill="black"/>
<path d="M62.8844 1.20011V18.0001H59.6924L51.3164 7.80011V18.0001H47.4764V1.20011H50.6924L59.0444 11.4001V1.20011H62.8844Z" fill="black"/>
<path d="M68.0592 1.20011H75.6912C77.5152 1.20011 79.1232 1.55211 80.5152 2.25611C81.9232 2.94411 83.0112 3.92011 83.7792 5.18411C84.5632 6.44811 84.9552 7.92011 84.9552 9.60011C84.9552 11.2801 84.5632 12.7521 83.7792 14.0161C83.0112 15.2801 81.9232 16.2641 80.5152 16.9681C79.1232 17.6561 77.5152 18.0001 75.6912 18.0001H68.0592V1.20011ZM75.4992 14.8081C77.1792 14.8081 78.5152 14.3441 79.5072 13.4161C80.5152 12.4721 81.0192 11.2001 81.0192 9.60011C81.0192 8.00011 80.5152 6.73611 79.5072 5.80811C78.5152 4.86411 77.1792 4.39211 75.4992 4.39211H71.9472V14.8081H75.4992Z" fill="black"/>
<path d="M96.3593 1.20011C97.8473 1.20011 99.1353 1.44811 100.223 1.94411C101.327 2.44011 102.175 3.14411 102.767 4.05611C103.359 4.96811 103.655 6.04811 103.655 7.29611C103.655 8.52811 103.359 9.60811 102.767 10.5361C102.175 11.4481 101.327 12.1521 100.223 12.6481C99.1353 13.1281 97.8473 13.3681 96.3593 13.3681H92.9753V18.0001H89.0873V1.20011H96.3593ZM96.1433 10.2001C97.3113 10.2001 98.1993 9.95211 98.8073 9.45611C99.4153 8.94411 99.7193 8.22411 99.7193 7.29611C99.7193 6.35211 99.4153 5.63211 98.8073 5.13611C98.1993 4.62411 97.3113 4.36811 96.1433 4.36811H92.9753V10.2001H96.1433Z" fill="black"/>
<path d="M116.001 18.2881C114.257 18.2881 112.681 17.9121 111.273 17.1601C109.881 16.4081 108.785 15.3761 107.985 14.0641C107.201 12.7361 106.809 11.2481 106.809 9.60011C106.809 7.95211 107.201 6.47211 107.985 5.16011C108.785 3.83211 109.881 2.79211 111.273 2.04011C112.681 1.28811 114.257 0.912109 116.001 0.912109C117.745 0.912109 119.313 1.28811 120.705 2.04011C122.097 2.79211 123.193 3.83211 123.993 5.16011C124.793 6.47211 125.193 7.95211 125.193 9.60011C125.193 11.2481 124.793 12.7361 123.993 14.0641C123.193 15.3761 122.097 16.4081 120.705 17.1601C119.313 17.9121 117.745 18.2881 116.001 18.2881ZM116.001 14.9761C116.993 14.9761 117.889 14.7521 118.689 14.3041C119.489 13.8401 120.113 13.2001 120.561 12.3841C121.025 11.5681 121.257 10.6401 121.257 9.60011C121.257 8.56011 121.025 7.63211 120.561 6.81611C120.113 6.00011 119.489 5.36811 118.689 4.92011C117.889 4.45611 116.993 4.22411 116.001 4.22411C115.009 4.22411 114.113 4.45611 113.313 4.92011C112.513 5.36811 111.881 6.00011 111.417 6.81611C110.969 7.63211 110.745 8.56011 110.745 9.60011C110.745 10.6401 110.969 11.5681 111.417 12.3841C111.881 13.2001 112.513 13.8401 113.313 14.3041C114.113 14.7521 115.009 14.9761 116.001 14.9761Z" fill="black"/>
<path d="M129.315 1.20011H133.203V18.0001H129.315V1.20011Z" fill="black"/>
<path d="M153.798 1.20011V18.0001H150.606L142.23 7.80011V18.0001H138.39V1.20011H141.606L149.958 11.4001V1.20011H153.798Z" fill="black"/>
<path d="M162.453 4.36811H157.077V1.20011H171.717V4.36811H166.341V18.0001H162.453V4.36811Z" fill="black"/>
<path d="M43.3256 30.2001H50.9576C52.7816 30.2001 54.3896 30.5521 55.7816 31.2561C57.1896 31.9441 58.2776 32.9201 59.0456 34.1841C59.8296 35.4481 60.2216 36.9201 60.2216 38.6001C60.2216 40.2801 59.8296 41.7521 59.0456 43.0161C58.2776 44.2801 57.1896 45.2641 55.7816 45.9681C54.3896 46.6561 52.7816 47.0001 50.9576 47.0001H43.3256V30.2001ZM50.7656 43.8081C52.4456 43.8081 53.7816 43.3441 54.7736 42.4161C55.7816 41.4721 56.2856 40.2001 56.2856 38.6001C56.2856 37.0001 55.7816 35.7361 54.7736 34.8081C53.7816 33.8641 52.4456 33.3921 50.7656 33.3921H47.2136V43.8081H50.7656Z" fill="black"/>
<path d="M77.3617 43.8801V47.0001H64.3537V30.2001H77.0497V33.3201H68.2177V36.9681H76.0177V39.9921H68.2177V43.8801H77.3617Z" fill="black"/>
<path d="M97.5729 30.2001L90.3009 47.0001H86.4609L79.2129 30.2001H83.4129L88.5249 42.2001L93.7089 30.2001H97.5729Z" fill="black"/>
<path d="M100.176 30.2001H104.064V47.0001H100.176V30.2001Z" fill="black"/>
<path d="M117.291 47.2881C115.579 47.2881 114.027 46.9201 112.635 46.1841C111.259 45.4321 110.171 44.4001 109.371 43.0881C108.587 41.7601 108.195 40.2641 108.195 38.6001C108.195 36.9361 108.587 35.4481 109.371 34.1361C110.171 32.8081 111.259 31.7761 112.635 31.0401C114.027 30.2881 115.587 29.9121 117.315 29.9121C118.771 29.9121 120.083 30.1681 121.251 30.6801C122.435 31.1921 123.427 31.9281 124.227 32.8881L121.731 35.1921C120.595 33.8801 119.187 33.2241 117.507 33.2241C116.467 33.2241 115.539 33.4561 114.723 33.9201C113.907 34.3681 113.267 35.0001 112.803 35.8161C112.355 36.6321 112.131 37.5601 112.131 38.6001C112.131 39.6401 112.355 40.5681 112.803 41.3841C113.267 42.2001 113.907 42.8401 114.723 43.3041C115.539 43.7521 116.467 43.9761 117.507 43.9761C119.187 43.9761 120.595 43.3121 121.731 41.9841L124.227 44.2881C123.427 45.2641 122.435 46.0081 121.251 46.5201C120.067 47.0321 118.747 47.2881 117.291 47.2881Z" fill="black"/>
<path d="M141.06 43.8801V47.0001H128.052V30.2001H140.748V33.3201H131.916V36.9681H139.716V39.9921H131.916V43.8801H141.06Z" fill="black"/>
<path d="M150.874 47.2881C149.546 47.2881 148.258 47.1121 147.01 46.7601C145.778 46.3921 144.786 45.9201 144.034 45.3441L145.354 42.4161C146.074 42.9441 146.93 43.3681 147.922 43.6881C148.914 44.0081 149.906 44.1681 150.898 44.1681C152.002 44.1681 152.818 44.0081 153.346 43.6881C153.874 43.3521 154.138 42.9121 154.138 42.3681C154.138 41.9681 153.978 41.6401 153.658 41.3841C153.354 41.1121 152.954 40.8961 152.458 40.7361C151.978 40.5761 151.322 40.4001 150.49 40.2081C149.21 39.9041 148.162 39.6001 147.346 39.2961C146.53 38.9921 145.826 38.5041 145.234 37.8321C144.658 37.1601 144.37 36.2641 144.37 35.1441C144.37 34.1681 144.634 33.2881 145.162 32.5041C145.69 31.7041 146.482 31.0721 147.538 30.6081C148.61 30.1441 149.914 29.9121 151.45 29.9121C152.522 29.9121 153.57 30.0401 154.594 30.2961C155.618 30.5521 156.514 30.9201 157.282 31.4001L156.082 34.3521C154.53 33.4721 152.978 33.0321 151.426 33.0321C150.338 33.0321 149.53 33.2081 149.002 33.5601C148.49 33.9121 148.234 34.3761 148.234 34.9521C148.234 35.5281 148.53 35.9601 149.122 36.2481C149.73 36.5201 150.65 36.7921 151.882 37.0641C153.162 37.3681 154.21 37.6721 155.026 37.9761C155.842 38.2801 156.538 38.7601 157.114 39.4161C157.706 40.0721 158.002 40.9601 158.002 42.0801C158.002 43.0401 157.73 43.9201 157.186 44.7201C156.658 45.5041 155.858 46.1281 154.786 46.5921C153.714 47.0561 152.41 47.2881 150.874 47.2881Z" fill="black"/>
<path d="M242.839 450.88V454H229.831V437.2H242.527V440.32H233.695V443.968H241.495V446.992H233.695V450.88H242.839Z" fill="black"/>
<path d="M258.535 450.832V454H245.839V451.48L252.319 445.36C253.007 444.704 253.471 444.144 253.711 443.68C253.951 443.2 254.071 442.728 254.071 442.264C254.071 441.592 253.839 441.08 253.375 440.728C252.927 440.36 252.263 440.176 251.383 440.176C250.647 440.176 249.983 440.32 249.391 440.608C248.799 440.88 248.303 441.296 247.903 441.856L245.071 440.032C245.727 439.056 246.631 438.296 247.783 437.752C248.935 437.192 250.255 436.912 251.743 436.912C252.991 436.912 254.079 437.12 255.007 437.536C255.951 437.936 256.679 438.512 257.191 439.264C257.719 440 257.983 440.872 257.983 441.88C257.983 442.792 257.791 443.648 257.407 444.448C257.023 445.248 256.279 446.16 255.175 447.184L251.311 450.832H258.535Z" fill="black"/>
<path d="M275.403 450.88V454H262.395V437.2H275.091V440.32H266.259V443.968H274.059V446.992H266.259V450.88H275.403Z" fill="black"/>
<path d="M293.214 454.288C291.886 454.288 290.598 454.112 289.35 453.76C288.118 453.392 287.126 452.92 286.374 452.344L287.694 449.416C288.414 449.944 289.27 450.368 290.262 450.688C291.254 451.008 292.246 451.168 293.238 451.168C294.342 451.168 295.158 451.008 295.686 450.688C296.214 450.352 296.478 449.912 296.478 449.368C296.478 448.968 296.318 448.64 295.998 448.384C295.694 448.112 295.294 447.896 294.798 447.736C294.318 447.576 293.662 447.4 292.83 447.208C291.55 446.904 290.502 446.6 289.686 446.296C288.87 445.992 288.166 445.504 287.574 444.832C286.998 444.16 286.71 443.264 286.71 442.144C286.71 441.168 286.974 440.288 287.502 439.504C288.03 438.704 288.822 438.072 289.878 437.608C290.95 437.144 292.254 436.912 293.79 436.912C294.862 436.912 295.91 437.04 296.934 437.296C297.958 437.552 298.854 437.92 299.622 438.4L298.422 441.352C296.87 440.472 295.318 440.032 293.766 440.032C292.678 440.032 291.87 440.208 291.342 440.56C290.83 440.912 290.574 441.376 290.574 441.952C290.574 442.528 290.87 442.96 291.462 443.248C292.07 443.52 292.99 443.792 294.222 444.064C295.502 444.368 296.55 444.672 297.366 444.976C298.182 445.28 298.878 445.76 299.454 446.416C300.046 447.072 300.342 447.96 300.342 449.08C300.342 450.04 300.07 450.92 299.526 451.72C298.998 452.504 298.198 453.128 297.126 453.592C296.054 454.056 294.75 454.288 293.214 454.288Z" fill="black"/>
<path d="M316.582 447.592C316.582 447.64 316.558 447.976 316.51 448.6H306.742C306.918 449.4 307.334 450.032 307.99 450.496C308.646 450.96 309.462 451.192 310.438 451.192C311.11 451.192 311.702 451.096 312.214 450.904C312.742 450.696 313.23 450.376 313.678 449.944L315.67 452.104C314.454 453.496 312.678 454.192 310.342 454.192C308.886 454.192 307.598 453.912 306.478 453.352C305.358 452.776 304.494 451.984 303.886 450.976C303.278 449.968 302.974 448.824 302.974 447.544C302.974 446.28 303.27 445.144 303.862 444.136C304.47 443.112 305.294 442.32 306.334 441.76C307.39 441.184 308.566 440.896 309.862 440.896C311.126 440.896 312.27 441.168 313.294 441.712C314.318 442.256 315.118 443.04 315.694 444.064C316.286 445.072 316.582 446.248 316.582 447.592ZM309.886 443.728C309.038 443.728 308.326 443.968 307.75 444.448C307.174 444.928 306.822 445.584 306.694 446.416H313.054C312.926 445.6 312.574 444.952 311.998 444.472C311.422 443.976 310.718 443.728 309.886 443.728Z" fill="black"/>
<path d="M326.515 454.192C325.139 454.192 323.899 453.912 322.795 453.352C321.707 452.776 320.851 451.984 320.227 450.976C319.619 449.968 319.315 448.824 319.315 447.544C319.315 446.264 319.619 445.12 320.227 444.112C320.851 443.104 321.707 442.32 322.795 441.76C323.899 441.184 325.139 440.896 326.515 440.896C327.875 440.896 329.059 441.184 330.067 441.76C331.091 442.32 331.835 443.128 332.299 444.184L329.395 445.744C328.723 444.56 327.755 443.968 326.491 443.968C325.515 443.968 324.707 444.288 324.067 444.928C323.427 445.568 323.107 446.44 323.107 447.544C323.107 448.648 323.427 449.52 324.067 450.16C324.707 450.8 325.515 451.12 326.491 451.12C327.771 451.12 328.739 450.528 329.395 449.344L332.299 450.928C331.835 451.952 331.091 452.752 330.067 453.328C329.059 453.904 327.875 454.192 326.515 454.192Z" fill="black"/>
<path d="M348.663 441.088V454H345.111V452.464C344.615 453.024 344.023 453.456 343.335 453.76C342.647 454.048 341.903 454.192 341.103 454.192C339.407 454.192 338.063 453.704 337.071 452.728C336.079 451.752 335.583 450.304 335.583 448.384V441.088H339.327V447.832C339.327 449.912 340.199 450.952 341.943 450.952C342.839 450.952 343.559 450.664 344.103 450.088C344.647 449.496 344.919 448.624 344.919 447.472V441.088H348.663Z" fill="black"/>
<path d="M356.907 442.792C357.355 442.168 357.955 441.696 358.707 441.376C359.475 441.056 360.355 440.896 361.347 440.896V444.352C360.931 444.32 360.651 444.304 360.507 444.304C359.435 444.304 358.595 444.608 357.987 445.216C357.379 445.808 357.075 446.704 357.075 447.904V454H353.331V441.088H356.907V442.792Z" fill="black"/>
<path d="M377.304 447.592C377.304 447.64 377.28 447.976 377.232 448.6H367.464C367.64 449.4 368.056 450.032 368.712 450.496C369.368 450.96 370.184 451.192 371.16 451.192C371.832 451.192 372.424 451.096 372.936 450.904C373.464 450.696 373.952 450.376 374.4 449.944L376.392 452.104C375.176 453.496 373.4 454.192 371.064 454.192C369.608 454.192 368.32 453.912 367.2 453.352C366.08 452.776 365.216 451.984 364.608 450.976C364 449.968 363.696 448.824 363.696 447.544C363.696 446.28 363.992 445.144 364.584 444.136C365.192 443.112 366.016 442.32 367.056 441.76C368.112 441.184 369.288 440.896 370.584 440.896C371.848 440.896 372.992 441.168 374.016 441.712C375.04 442.256 375.84 443.04 376.416 444.064C377.008 445.072 377.304 446.248 377.304 447.592ZM370.608 443.728C369.76 443.728 369.048 443.968 368.472 444.448C367.896 444.928 367.544 445.584 367.416 446.416H373.776C373.648 445.6 373.296 444.952 372.72 444.472C372.144 443.976 371.44 443.728 370.608 443.728Z" fill="black"/>
<path d="M397.298 454.288C395.586 454.288 394.034 453.92 392.642 453.184C391.266 452.432 390.178 451.4 389.378 450.088C388.594 448.76 388.202 447.264 388.202 445.6C388.202 443.936 388.594 442.448 389.378 441.136C390.178 439.808 391.266 438.776 392.642 438.04C394.034 437.288 395.594 436.912 397.322 436.912C398.778 436.912 400.09 437.168 401.258 437.68C402.442 438.192 403.434 438.928 404.234 439.888L401.738 442.192C400.602 440.88 399.194 440.224 397.514 440.224C396.474 440.224 395.546 440.456 394.73 440.92C393.914 441.368 393.274 442 392.81 442.816C392.362 443.632 392.138 444.56 392.138 445.6C392.138 446.64 392.362 447.568 392.81 448.384C393.274 449.2 393.914 449.84 394.73 450.304C395.546 450.752 396.474 450.976 397.514 450.976C399.194 450.976 400.602 450.312 401.738 448.984L404.234 451.288C403.434 452.264 402.442 453.008 401.258 453.52C400.074 454.032 398.754 454.288 397.298 454.288Z" fill="black"/>
<path d="M415.643 440.896C417.243 440.896 418.531 441.376 419.507 442.336C420.499 443.296 420.995 444.72 420.995 446.608V454H417.251V447.184C417.251 446.16 417.027 445.4 416.579 444.904C416.131 444.392 415.483 444.136 414.635 444.136C413.691 444.136 412.939 444.432 412.379 445.024C411.819 445.6 411.539 446.464 411.539 447.616V454H407.795V436.192H411.539V442.432C412.035 441.936 412.635 441.56 413.339 441.304C414.043 441.032 414.811 440.896 415.643 440.896Z" fill="black"/>
<path d="M430.797 440.896C432.797 440.896 434.333 441.376 435.405 442.336C436.477 443.28 437.013 444.712 437.013 446.632V454H433.509V452.392C432.805 453.592 431.493 454.192 429.573 454.192C428.581 454.192 427.717 454.024 426.981 453.688C426.261 453.352 425.709 452.888 425.325 452.296C424.941 451.704 424.749 451.032 424.749 450.28C424.749 449.08 425.197 448.136 426.093 447.448C427.005 446.76 428.405 446.416 430.293 446.416H433.269C433.269 445.6 433.021 444.976 432.525 444.544C432.029 444.096 431.285 443.872 430.293 443.872C429.605 443.872 428.925 443.984 428.253 444.208C427.597 444.416 427.037 444.704 426.573 445.072L425.229 442.456C425.933 441.96 426.773 441.576 427.749 441.304C428.741 441.032 429.757 440.896 430.797 440.896ZM430.509 451.672C431.149 451.672 431.717 451.528 432.213 451.24C432.709 450.936 433.061 450.496 433.269 449.92V448.6H430.701C429.165 448.6 428.397 449.104 428.397 450.112C428.397 450.592 428.581 450.976 428.949 451.264C429.333 451.536 429.853 451.672 430.509 451.672Z" fill="black"/>
<path d="M449.449 440.896C451.049 440.896 452.337 441.376 453.313 442.336C454.305 443.296 454.801 444.72 454.801 446.608V454H451.057V447.184C451.057 446.16 450.833 445.4 450.385 444.904C449.937 444.392 449.289 444.136 448.441 444.136C447.497 444.136 446.745 444.432 446.185 445.024C445.625 445.6 445.345 446.464 445.345 447.616V454H441.601V441.088H445.177V442.6C445.673 442.056 446.289 441.64 447.025 441.352C447.761 441.048 448.569 440.896 449.449 440.896Z" fill="black"/>
<path d="M467.243 440.896C468.843 440.896 470.131 441.376 471.107 442.336C472.099 443.296 472.595 444.72 472.595 446.608V454H468.851V447.184C468.851 446.16 468.627 445.4 468.179 444.904C467.731 444.392 467.083 444.136 466.235 444.136C465.291 444.136 464.539 444.432 463.979 445.024C463.419 445.6 463.139 446.464 463.139 447.616V454H459.395V441.088H462.971V442.6C463.467 442.056 464.083 441.64 464.819 441.352C465.555 441.048 466.363 440.896 467.243 440.896Z" fill="black"/>
<path d="M489.978 447.592C489.978 447.64 489.954 447.976 489.906 448.6H480.138C480.314 449.4 480.73 450.032 481.386 450.496C482.042 450.96 482.858 451.192 483.834 451.192C484.506 451.192 485.098 451.096 485.61 450.904C486.138 450.696 486.626 450.376 487.074 449.944L489.066 452.104C487.85 453.496 486.074 454.192 483.738 454.192C482.282 454.192 480.994 453.912 479.874 453.352C478.754 452.776 477.89 451.984 477.282 450.976C476.674 449.968 476.37 448.824 476.37 447.544C476.37 446.28 476.666 445.144 477.258 444.136C477.866 443.112 478.69 442.32 479.73 441.76C480.786 441.184 481.962 440.896 483.258 440.896C484.522 440.896 485.666 441.168 486.69 441.712C487.714 442.256 488.514 443.04 489.09 444.064C489.682 445.072 489.978 446.248 489.978 447.592ZM483.282 443.728C482.434 443.728 481.722 443.968 481.146 444.448C480.57 444.928 480.218 445.584 480.09 446.416H486.45C486.322 445.6 485.97 444.952 485.394 444.472C484.818 443.976 484.114 443.728 483.282 443.728Z" fill="black"/>
<path d="M493.67 436.192H497.414V454H493.67V436.192Z" fill="black"/>
<path d="M1027.45 450.4H1019.65L1018.16 454H1014.18L1021.66 437.2H1025.5L1033.02 454H1028.94L1027.45 450.4ZM1026.22 447.448L1023.56 441.016L1020.9 447.448H1026.22Z" fill="black"/>
<path d="M1043.23 437.2C1044.72 437.2 1046.01 437.448 1047.1 437.944C1048.2 438.44 1049.05 439.144 1049.64 440.056C1050.23 440.968 1050.53 442.048 1050.53 443.296C1050.53 444.528 1050.23 445.608 1049.64 446.536C1049.05 447.448 1048.2 448.152 1047.1 448.648C1046.01 449.128 1044.72 449.368 1043.23 449.368H1039.85V454H1035.96V437.2H1043.23ZM1043.02 446.2C1044.18 446.2 1045.07 445.952 1045.68 445.456C1046.29 444.944 1046.59 444.224 1046.59 443.296C1046.59 442.352 1046.29 441.632 1045.68 441.136C1045.07 440.624 1044.18 440.368 1043.02 440.368H1039.85V446.2H1043.02Z" fill="black"/>
<path d="M1054.5 437.2H1058.39V454H1054.5V437.2Z" fill="black"/>
<path d="M1064.75 449.536C1065.43 449.536 1065.98 449.752 1066.41 450.184C1066.84 450.6 1067.06 451.152 1067.06 451.84C1067.06 452.16 1067.02 452.48 1066.94 452.8C1066.86 453.12 1066.68 453.6 1066.41 454.24L1065.04 457.696H1062.67L1063.72 453.88C1063.32 453.72 1063 453.464 1062.76 453.112C1062.54 452.744 1062.43 452.32 1062.43 451.84C1062.43 451.152 1062.64 450.6 1063.07 450.184C1063.52 449.752 1064.08 449.536 1064.75 449.536Z" fill="black"/>
<path d="M1104.45 437.2L1098.95 454H1094.78L1091.08 442.624L1087.26 454H1083.11L1077.59 437.2H1081.62L1085.42 449.008L1089.38 437.2H1092.98L1096.82 449.104L1100.73 437.2H1104.45Z" fill="black"/>
<path d="M1119.24 447.592C1119.24 447.64 1119.22 447.976 1119.17 448.6H1109.4C1109.58 449.4 1109.99 450.032 1110.65 450.496C1111.31 450.96 1112.12 451.192 1113.1 451.192C1113.77 451.192 1114.36 451.096 1114.87 450.904C1115.4 450.696 1115.89 450.376 1116.34 449.944L1118.33 452.104C1117.11 453.496 1115.34 454.192 1113 454.192C1111.55 454.192 1110.26 453.912 1109.14 453.352C1108.02 452.776 1107.15 451.984 1106.55 450.976C1105.94 449.968 1105.63 448.824 1105.63 447.544C1105.63 446.28 1105.93 445.144 1106.52 444.136C1107.13 443.112 1107.95 442.32 1108.99 441.76C1110.05 441.184 1111.23 440.896 1112.52 440.896C1113.79 440.896 1114.93 441.168 1115.95 441.712C1116.98 442.256 1117.78 443.04 1118.35 444.064C1118.95 445.072 1119.24 446.248 1119.24 447.592ZM1112.55 443.728C1111.7 443.728 1110.99 443.968 1110.41 444.448C1109.83 444.928 1109.48 445.584 1109.35 446.416H1115.71C1115.59 445.6 1115.23 444.952 1114.66 444.472C1114.08 443.976 1113.38 443.728 1112.55 443.728Z" fill="black"/>
<path d="M1130.57 440.896C1131.77 440.896 1132.85 441.176 1133.83 441.736C1134.82 442.28 1135.6 443.056 1136.16 444.064C1136.72 445.056 1137 446.216 1137 447.544C1137 448.872 1136.72 450.04 1136.16 451.048C1135.6 452.04 1134.82 452.816 1133.83 453.376C1132.85 453.92 1131.77 454.192 1130.57 454.192C1128.79 454.192 1127.44 453.632 1126.51 452.512V454H1122.93V436.192H1126.68V442.456C1127.62 441.416 1128.92 440.896 1130.57 440.896ZM1129.92 451.12C1130.88 451.12 1131.66 450.8 1132.27 450.16C1132.89 449.504 1133.21 448.632 1133.21 447.544C1133.21 446.456 1132.89 445.592 1132.27 444.952C1131.66 444.296 1130.88 443.968 1129.92 443.968C1128.96 443.968 1128.17 444.296 1127.54 444.952C1126.93 445.592 1126.63 446.456 1126.63 447.544C1126.63 448.632 1126.93 449.504 1127.54 450.16C1128.17 450.8 1128.96 451.12 1129.92 451.12Z" fill="black"/>
<path d="M1148.55 440.896C1150.15 440.896 1151.44 441.376 1152.42 442.336C1153.41 443.296 1153.9 444.72 1153.9 446.608V454H1150.16V447.184C1150.16 446.16 1149.94 445.4 1149.49 444.904C1149.04 444.392 1148.39 444.136 1147.54 444.136C1146.6 444.136 1145.85 444.432 1145.29 445.024C1144.73 445.6 1144.45 446.464 1144.45 447.616V454H1140.7V436.192H1144.45V442.432C1144.94 441.936 1145.54 441.56 1146.25 441.304C1146.95 441.032 1147.72 440.896 1148.55 440.896Z" fill="black"/>
<path d="M1164.78 454.192C1163.42 454.192 1162.2 453.912 1161.11 453.352C1160.04 452.776 1159.2 451.984 1158.59 450.976C1157.98 449.968 1157.68 448.824 1157.68 447.544C1157.68 446.264 1157.98 445.12 1158.59 444.112C1159.2 443.104 1160.04 442.32 1161.11 441.76C1162.2 441.184 1163.42 440.896 1164.78 440.896C1166.14 440.896 1167.36 441.184 1168.43 441.76C1169.5 442.32 1170.34 443.104 1170.95 444.112C1171.56 445.12 1171.86 446.264 1171.86 447.544C1171.86 448.824 1171.56 449.968 1170.95 450.976C1170.34 451.984 1169.5 452.776 1168.43 453.352C1167.36 453.912 1166.14 454.192 1164.78 454.192ZM1164.78 451.12C1165.74 451.12 1166.53 450.8 1167.14 450.16C1167.76 449.504 1168.07 448.632 1168.07 447.544C1168.07 446.456 1167.76 445.592 1167.14 444.952C1166.53 444.296 1165.74 443.968 1164.78 443.968C1163.82 443.968 1163.03 444.296 1162.41 444.952C1161.78 445.592 1161.47 446.456 1161.47 447.544C1161.47 448.632 1161.78 449.504 1162.41 450.16C1163.03 450.8 1163.82 451.12 1164.78 451.12Z" fill="black"/>
<path d="M1181.71 454.192C1180.35 454.192 1179.13 453.912 1178.04 453.352C1176.97 452.776 1176.13 451.984 1175.52 450.976C1174.91 449.968 1174.61 448.824 1174.61 447.544C1174.61 446.264 1174.91 445.12 1175.52 444.112C1176.13 443.104 1176.97 442.32 1178.04 441.76C1179.13 441.184 1180.35 440.896 1181.71 440.896C1183.07 440.896 1184.29 441.184 1185.36 441.76C1186.43 442.32 1187.27 443.104 1187.88 444.112C1188.49 445.12 1188.79 446.264 1188.79 447.544C1188.79 448.824 1188.49 449.968 1187.88 450.976C1187.27 451.984 1186.43 452.776 1185.36 453.352C1184.29 453.912 1183.07 454.192 1181.71 454.192ZM1181.71 451.12C1182.67 451.12 1183.45 450.8 1184.06 450.16C1184.69 449.504 1185 448.632 1185 447.544C1185 446.456 1184.69 445.592 1184.06 444.952C1183.45 444.296 1182.67 443.968 1181.71 443.968C1180.75 443.968 1179.96 444.296 1179.33 444.952C1178.71 445.592 1178.4 446.456 1178.4 447.544C1178.4 448.632 1178.71 449.504 1179.33 450.16C1179.96 450.8 1180.75 451.12 1181.71 451.12Z" fill="black"/>
<path d="M1198.04 448.936L1196.24 450.712V454H1192.49V436.192H1196.24V446.272L1201.71 441.088H1206.17L1200.8 446.56L1206.65 454H1202.12L1198.04 448.936Z" fill="black"/>
<path d="M258.989 198.641L257.295 201.261L246.372 194.197L255.496 180.09L266.156 186.985L264.462 189.604L257.046 184.808L255.065 187.871L261.614 192.107L259.972 194.646L253.422 190.41L251.311 193.675L258.989 198.641Z" fill="black"/>
<path d="M272.195 207.125L270.474 209.785L259.814 202.89L261.182 200.774L269.947 199.154C270.881 198.977 271.575 198.759 272.028 198.499C272.49 198.227 272.847 197.895 273.099 197.506C273.464 196.942 273.548 196.386 273.349 195.838C273.173 195.286 272.715 194.771 271.976 194.293C271.358 193.893 270.722 193.653 270.069 193.574C269.424 193.481 268.782 193.561 268.142 193.814L266.754 190.744C267.835 190.281 269.007 190.134 270.27 190.302C271.541 190.458 272.802 190.939 274.051 191.748C275.099 192.425 275.9 193.191 276.453 194.044C277.028 194.893 277.327 195.772 277.348 196.681C277.392 197.586 277.14 198.461 276.593 199.308C276.097 200.074 275.471 200.688 274.715 201.151C273.958 201.615 272.838 201.976 271.354 202.237L266.129 203.201L272.195 207.125Z" fill="black"/>
<path d="M286.333 216.325L284.638 218.945L273.716 211.881L282.839 197.774L293.5 204.669L291.806 207.289L284.389 202.493L282.408 205.556L288.958 209.792L287.316 212.331L280.766 208.095L278.655 211.36L286.333 216.325Z" fill="black"/>
<path d="M299.437 228.859C298.322 228.138 297.336 227.291 296.479 226.318C295.645 225.34 295.068 224.405 294.749 223.512L297.448 221.771C297.766 222.605 298.254 223.426 298.913 224.233C299.573 225.041 300.319 225.714 301.152 226.253C302.079 226.852 302.851 227.161 303.468 227.179C304.094 227.184 304.554 226.958 304.85 226.501C305.067 226.165 305.111 225.803 304.981 225.414C304.874 225.02 304.655 224.622 304.325 224.218C304.009 223.823 303.554 223.319 302.96 222.706C302.05 221.755 301.335 220.931 300.815 220.233C300.295 219.534 299.969 218.742 299.837 217.856C299.718 216.979 299.963 216.071 300.571 215.13C301.101 214.311 301.8 213.715 302.67 213.343C303.547 212.958 304.556 212.858 305.694 213.042C306.846 213.234 308.067 213.748 309.357 214.582C310.257 215.164 311.068 215.841 311.789 216.612C312.509 217.383 313.062 218.178 313.446 218.998L310.835 220.825C310.01 219.244 308.946 218.031 307.643 217.189C306.729 216.598 305.955 216.307 305.321 216.316C304.699 216.333 304.233 216.584 303.92 217.067C303.607 217.551 303.621 218.074 303.962 218.638C304.324 219.196 304.949 219.924 305.836 220.822C306.746 221.772 307.461 222.597 307.981 223.295C308.501 223.993 308.824 224.774 308.952 225.638C309.093 226.51 308.859 227.417 308.251 228.357C307.729 229.163 307.023 229.755 306.132 230.131C305.263 230.503 304.252 230.592 303.1 230.399C301.948 230.207 300.727 229.694 299.437 228.859Z" fill="black"/>
<path d="M322.696 235.928C322.67 235.968 322.467 236.237 322.088 236.735L313.886 231.43C313.599 232.198 313.605 232.954 313.904 233.7C314.203 234.446 314.762 235.084 315.582 235.614C316.146 235.979 316.695 236.22 317.23 236.337C317.786 236.449 318.369 236.445 318.98 236.326L319.48 239.221C317.703 239.73 315.834 239.349 313.872 238.081C312.65 237.29 311.72 236.356 311.084 235.277C310.456 234.185 310.161 233.051 310.198 231.874C310.234 230.698 310.6 229.572 311.296 228.497C311.982 227.436 312.847 226.643 313.892 226.118C314.959 225.588 316.081 225.371 317.258 225.465C318.458 225.555 319.601 225.952 320.69 226.656C321.751 227.342 322.564 228.192 323.128 229.205C323.693 230.218 323.939 231.31 323.866 232.483C323.816 233.651 323.426 234.799 322.696 235.928ZM319.172 229.047C318.46 228.586 317.732 228.401 316.987 228.491C316.243 228.582 315.591 228.941 315.032 229.57L320.372 233.024C320.708 232.27 320.764 231.534 320.541 230.818C320.327 230.089 319.87 229.499 319.172 229.047Z" fill="black"/>
<path d="M327.452 246.864C326.297 246.116 325.408 245.208 324.785 244.138C324.184 243.064 323.895 241.934 323.919 240.748C323.955 239.572 324.322 238.446 325.017 237.371C325.712 236.297 326.588 235.501 327.646 234.985C328.718 234.477 329.862 234.284 331.08 234.404C332.32 234.52 333.517 234.952 334.673 235.699C335.815 236.438 336.652 237.323 337.186 238.354C337.742 239.38 337.928 240.462 337.744 241.601L334.458 241.334C334.537 239.975 334.046 238.952 332.984 238.266C332.165 237.736 331.312 237.566 330.427 237.755C329.543 237.945 328.8 238.504 328.201 239.431C327.601 240.358 327.396 241.264 327.586 242.149C327.776 243.034 328.281 243.741 329.1 244.271C330.175 244.966 331.309 244.995 332.503 244.357L334.081 247.264C333.136 247.872 332.077 248.14 330.904 248.067C329.745 248.003 328.594 247.602 327.452 246.864Z" fill="black"/>
<path d="M353.166 247.888L346.154 258.73L343.171 256.801L344.005 255.511C343.284 255.712 342.553 255.754 341.81 255.635C341.076 255.503 340.373 255.22 339.701 254.786C338.277 253.865 337.414 252.725 337.111 251.367C336.808 250.009 337.178 248.523 338.22 246.911L342.182 240.785L345.326 242.818L341.664 248.481C340.534 250.227 340.702 251.574 342.166 252.521C342.918 253.008 343.679 253.157 344.449 252.969C345.227 252.767 345.929 252.183 346.555 251.215L350.022 245.855L353.166 247.888Z" fill="black"/>
<path d="M359.163 253.796C359.878 253.516 360.638 253.445 361.443 253.585C362.262 253.733 363.088 254.077 363.921 254.615L362.044 257.517C361.712 257.265 361.486 257.099 361.365 257.021C360.465 256.439 359.594 256.238 358.754 256.418C357.922 256.585 357.18 257.172 356.528 258.18L353.217 263.299L350.074 261.265L357.086 250.423L360.088 252.365L359.163 253.796Z" fill="black"/>
<path d="M373.683 268.904C373.657 268.944 373.455 269.213 373.076 269.711L364.874 264.406C364.587 265.174 364.593 265.93 364.892 266.676C365.191 267.422 365.75 268.06 366.569 268.59C367.134 268.955 367.683 269.196 368.217 269.313C368.773 269.425 369.357 269.421 369.968 269.302L370.467 272.197C368.69 272.706 366.821 272.326 364.86 271.057C363.637 270.266 362.708 269.332 362.071 268.253C361.444 267.161 361.148 266.027 361.185 264.85C361.222 263.674 361.588 262.548 362.283 261.473C362.97 260.412 363.835 259.619 364.879 259.094C365.946 258.564 367.068 258.347 368.246 258.441C369.445 258.531 370.589 258.928 371.677 259.632C372.739 260.318 373.551 261.168 374.116 262.181C374.68 263.194 374.926 264.286 374.854 265.459C374.803 266.627 374.413 267.775 373.683 268.904ZM370.159 262.023C369.447 261.562 368.719 261.377 367.975 261.467C367.23 261.558 366.579 261.917 366.019 262.546L371.36 266C371.695 265.246 371.752 264.51 371.529 263.794C371.314 263.065 370.858 262.475 370.159 262.023Z" fill="black"/>
<path d="M386.835 285.384C385.398 284.454 384.295 283.303 383.525 281.929C382.778 280.55 382.425 279.092 382.466 277.556C382.529 276.015 383.012 274.546 383.916 273.149C384.819 271.752 385.957 270.715 387.328 270.039C388.72 269.359 390.194 269.083 391.75 269.212C393.327 269.337 394.841 269.868 396.292 270.807C397.515 271.597 398.477 272.525 399.18 273.589C399.896 274.662 400.329 275.819 400.48 277.059L397.133 277.638C396.891 275.92 396.065 274.604 394.655 273.692C393.781 273.127 392.876 272.818 391.939 272.765C391.01 272.698 390.13 272.881 389.297 273.314C388.478 273.756 387.786 274.413 387.221 275.287C386.656 276.16 386.34 277.061 386.273 277.989C386.22 278.926 386.409 279.811 386.843 280.644C387.285 281.464 387.942 282.156 388.815 282.72C390.226 283.633 391.769 283.84 393.444 283.342L394.289 286.632C393.087 287.017 391.85 287.103 390.578 286.89C389.305 286.677 388.058 286.175 386.835 285.384Z" fill="black"/>
<path d="M409.513 284.102C410.856 284.971 411.677 286.073 411.975 287.409C412.287 288.754 411.93 290.219 410.905 291.805L406.89 298.012L403.747 295.978L407.448 290.255C408.004 289.395 408.229 288.635 408.122 287.976C408.024 287.302 407.619 286.736 406.907 286.275C406.114 285.762 405.322 285.603 404.53 285.796C403.747 285.975 403.043 286.549 402.417 287.516L398.95 292.876L395.807 290.843L405.477 275.89L408.621 277.923L405.233 283.163C405.918 283.016 406.626 283.026 407.357 283.193C408.095 283.347 408.814 283.65 409.513 284.102Z" fill="black"/>
<path d="M422.237 292.331C423.917 293.418 424.946 294.655 425.324 296.043C425.712 297.418 425.384 298.911 424.342 300.524L420.34 306.71L417.398 304.807L418.271 303.457C417.028 304.083 415.601 303.874 413.989 302.831C413.156 302.292 412.522 301.682 412.086 301C411.664 300.327 411.452 299.638 411.451 298.932C411.451 298.227 411.654 297.558 412.063 296.927C412.714 295.919 413.603 295.37 414.729 295.278C415.869 295.196 417.231 295.667 418.816 296.693L421.315 298.309C421.758 297.624 421.889 296.965 421.707 296.333C421.534 295.687 421.031 295.095 420.198 294.557C419.62 294.183 418.988 293.908 418.302 293.731C417.639 293.549 417.012 293.487 416.423 293.544L416.715 290.617C417.575 290.583 418.489 290.717 419.456 291.019C420.437 291.329 421.364 291.767 422.237 292.331ZM416.143 301.223C416.681 301.571 417.236 301.759 417.809 301.786C418.39 301.8 418.925 301.622 419.412 301.251L420.129 300.143L417.973 298.748C416.683 297.914 415.764 297.92 415.217 298.767C414.956 299.17 414.902 299.592 415.055 300.034C415.23 300.471 415.592 300.867 416.143 301.223Z" fill="black"/>
<path d="M437.899 302.461C439.243 303.33 440.064 304.432 440.362 305.769C440.674 307.113 440.317 308.578 439.291 310.164L435.277 316.371L432.133 314.337L435.835 308.614C436.391 307.754 436.616 306.995 436.509 306.335C436.411 305.662 436.006 305.095 435.294 304.634C434.501 304.121 433.709 303.962 432.917 304.155C432.134 304.334 431.43 304.908 430.804 305.875L427.337 311.235L424.193 309.202L431.205 298.36L434.208 300.302L433.387 301.572C434.099 301.384 434.842 301.37 435.616 301.527C436.4 301.672 437.161 301.983 437.899 302.461Z" fill="black"/>
<path d="M452.841 312.124C454.184 312.993 455.005 314.096 455.303 315.432C455.615 316.777 455.258 318.242 454.233 319.827L450.218 326.034L447.075 324.001L450.776 318.277C451.332 317.418 451.557 316.658 451.45 315.998C451.352 315.325 450.947 314.758 450.235 314.297C449.442 313.785 448.65 313.625 447.858 313.818C447.075 313.997 446.371 314.571 445.745 315.538L442.278 320.899L439.134 318.865L446.147 308.023L449.149 309.965L448.328 311.235C449.04 311.048 449.783 311.033 450.558 311.191C451.341 311.335 452.102 311.646 452.841 312.124Z" fill="black"/>
<path d="M468.294 330.093C468.268 330.133 468.065 330.402 467.686 330.9L459.484 325.596C459.197 326.363 459.204 327.12 459.502 327.865C459.801 328.611 460.36 329.249 461.18 329.779C461.744 330.144 462.294 330.385 462.828 330.502C463.384 330.614 463.968 330.61 464.578 330.491L465.078 333.386C463.301 333.895 461.432 333.515 459.47 332.246C458.248 331.456 457.318 330.521 456.682 329.442C456.054 328.351 455.759 327.216 455.796 326.04C455.833 324.863 456.199 323.737 456.894 322.663C457.58 321.601 458.446 320.808 459.49 320.283C460.557 319.754 461.679 319.536 462.856 319.631C464.056 319.72 465.2 320.117 466.288 320.821C467.349 321.507 468.162 322.357 468.726 323.37C469.291 324.383 469.537 325.476 469.464 326.648C469.414 327.816 469.024 328.964 468.294 330.093ZM464.77 323.212C464.058 322.752 463.33 322.566 462.585 322.657C461.841 322.747 461.189 323.107 460.63 323.736L465.97 327.19C466.306 326.435 466.362 325.7 466.139 324.984C465.925 324.254 465.469 323.664 464.77 323.212Z" fill="black"/>
<path d="M477.586 322.526L480.73 324.559L471.059 339.512L467.915 337.479L477.586 322.526Z" fill="black"/>
<path d="M1037.92 650.837L1031.37 646.601L1028.16 648.816L1024.82 646.652L1040.23 636.612L1043.45 638.697L1040.64 656.884L1037.21 654.668L1037.92 650.837ZM1038.49 647.694L1039.75 640.846L1034.02 644.8L1038.49 647.694Z" fill="black"/>
<path d="M1058.34 648.324C1059.59 649.133 1060.54 650.04 1061.18 651.048C1061.84 652.064 1062.17 653.115 1062.17 654.203C1062.17 655.29 1061.83 656.357 1061.16 657.405C1060.49 658.44 1059.65 659.186 1058.65 659.644C1057.66 660.088 1056.56 660.219 1055.37 660.036C1054.19 659.848 1052.98 659.35 1051.73 658.542L1048.89 656.704L1046.37 660.593L1043.11 658.482L1052.23 644.375L1058.34 648.324ZM1053.27 655.764C1054.25 656.399 1055.13 656.673 1055.91 656.586C1056.7 656.487 1057.35 656.047 1057.85 655.268C1058.36 654.475 1058.5 653.706 1058.26 652.959C1058.03 652.199 1057.42 651.502 1056.44 650.867L1053.78 649.147L1050.61 654.044L1053.27 655.764Z" fill="black"/>
<path d="M1067.8 654.446L1071.07 656.557L1061.95 670.664L1058.68 668.553L1067.8 654.446Z" fill="black"/>
<path d="M1069.71 670.371C1070.28 670.736 1070.62 671.217 1070.75 671.815C1070.89 672.399 1070.77 672.979 1070.4 673.557C1070.22 673.826 1070.02 674.073 1069.77 674.298C1069.53 674.523 1069.13 674.831 1068.55 675.22L1065.52 677.379L1063.53 676.089L1066.49 673.458C1066.24 673.107 1066.11 672.718 1066.1 672.292C1066.11 671.861 1066.25 671.445 1066.51 671.042C1066.88 670.464 1067.36 670.118 1067.95 670.003C1068.56 669.883 1069.15 670.006 1069.71 670.371Z" fill="black"/>
<path d="M1109.74 681.569L1096 692.691L1092.5 690.424L1095.57 678.864L1086.19 686.344L1082.7 684.089L1087.19 666.985L1090.58 669.174L1087.35 681.149L1097.09 673.384L1100.11 675.339L1096.87 687.42L1106.62 679.549L1109.74 681.569Z" fill="black"/>
<path d="M1116.52 698.329C1116.5 698.37 1116.29 698.639 1115.91 699.137L1107.71 693.832C1107.42 694.599 1107.43 695.356 1107.73 696.102C1108.03 696.848 1108.59 697.486 1109.41 698.016C1109.97 698.381 1110.52 698.621 1111.06 698.738C1111.61 698.85 1112.2 698.847 1112.81 698.727L1113.31 701.623C1111.53 702.131 1109.66 701.751 1107.7 700.483C1106.48 699.692 1105.55 698.757 1104.91 697.679C1104.28 696.587 1103.99 695.453 1104.02 694.276C1104.06 693.099 1104.43 691.974 1105.12 690.899C1105.81 689.838 1106.67 689.044 1107.72 688.52C1108.78 687.99 1109.91 687.772 1111.08 687.867C1112.28 687.957 1113.43 688.354 1114.52 689.057C1115.58 689.744 1116.39 690.593 1116.95 691.606C1117.52 692.619 1117.76 693.712 1117.69 694.885C1117.64 696.053 1117.25 697.201 1116.52 698.329ZM1113 691.448C1112.29 690.988 1111.56 690.803 1110.81 690.893C1110.07 690.983 1109.42 691.343 1108.86 691.972L1114.2 695.426C1114.53 694.671 1114.59 693.936 1114.37 693.22C1114.15 692.491 1113.7 691.9 1113 691.448Z" fill="black"/>
<path d="M1129.67 698.857C1130.67 699.508 1131.44 700.334 1131.95 701.335C1132.49 702.33 1132.72 703.403 1132.64 704.554C1132.57 705.691 1132.18 706.817 1131.46 707.932C1130.74 709.047 1129.87 709.876 1128.85 710.418C1127.84 710.947 1126.77 711.177 1125.63 711.109C1124.52 711.035 1123.45 710.673 1122.45 710.021C1120.96 709.057 1120.12 707.852 1119.95 706.408L1119.14 707.657L1116.14 705.715L1125.81 690.762L1128.96 692.795L1125.56 698.055C1126.91 697.695 1128.28 697.962 1129.67 698.857ZM1123.57 707.09C1124.38 707.611 1125.21 707.768 1126.07 707.561C1126.95 707.349 1127.68 706.786 1128.27 705.873C1128.86 704.959 1129.07 704.064 1128.9 703.188C1128.74 702.307 1128.26 701.606 1127.45 701.084C1126.65 700.563 1125.81 700.408 1124.93 700.62C1124.07 700.828 1123.34 701.388 1122.75 702.302C1122.16 703.215 1121.94 704.112 1122.1 704.993C1122.27 705.87 1122.76 706.569 1123.57 707.09Z" fill="black"/>
<path d="M1144.77 708.625C1146.11 709.493 1146.93 710.596 1147.23 711.932C1147.54 713.277 1147.19 714.742 1146.16 716.327L1142.15 722.534L1139 720.501L1142.71 714.778C1143.26 713.918 1143.49 713.158 1143.38 712.498C1143.28 711.825 1142.88 711.258 1142.16 710.798C1141.37 710.285 1140.58 710.125 1139.79 710.318C1139 710.498 1138.3 711.071 1137.67 712.039L1134.21 717.399L1131.06 715.366L1140.73 700.413L1143.88 702.446L1140.49 707.686C1141.18 707.538 1141.88 707.549 1142.61 707.716C1143.35 707.87 1144.07 708.173 1144.77 708.625Z" fill="black"/>
<path d="M1151.18 728.603C1150.04 727.865 1149.16 726.965 1148.55 725.904C1147.96 724.838 1147.69 723.717 1147.72 722.54C1147.76 721.364 1148.13 720.238 1148.82 719.163C1149.52 718.088 1150.39 717.293 1151.45 716.777C1152.51 716.26 1153.64 716.058 1154.85 716.17C1156.07 716.277 1157.26 716.7 1158.4 717.439C1159.54 718.177 1160.41 719.08 1160.99 720.145C1161.59 721.198 1161.87 722.312 1161.83 723.489C1161.79 724.665 1161.43 725.791 1160.73 726.866C1160.04 727.941 1159.16 728.736 1158.1 729.252C1157.05 729.769 1155.91 729.978 1154.7 729.879C1153.49 729.767 1152.32 729.342 1151.18 728.603ZM1152.85 726.024C1153.65 726.545 1154.48 726.702 1155.34 726.495C1156.22 726.283 1156.96 725.72 1157.55 724.807C1158.14 723.893 1158.35 722.998 1158.17 722.122C1158.02 721.241 1157.54 720.54 1156.73 720.018C1155.92 719.497 1155.08 719.342 1154.2 719.554C1153.33 719.753 1152.6 720.309 1152.01 721.222C1151.42 722.136 1151.2 723.038 1151.37 723.927C1151.55 724.804 1152.04 725.502 1152.85 726.024Z" fill="black"/>
<path d="M1165.39 737.796C1164.25 737.057 1163.37 736.157 1162.76 735.096C1162.18 734.03 1161.9 732.909 1161.94 731.732C1161.97 730.556 1162.34 729.43 1163.04 728.355C1163.73 727.281 1164.61 726.485 1165.67 725.969C1166.72 725.453 1167.85 725.25 1169.06 725.362C1170.29 725.47 1171.47 725.892 1172.61 726.631C1173.75 727.37 1174.62 728.272 1175.21 729.338C1175.8 730.39 1176.08 731.505 1176.04 732.681C1176.01 733.858 1175.64 734.983 1174.95 736.058C1174.25 737.133 1173.37 737.929 1172.32 738.445C1171.26 738.961 1170.12 739.17 1168.91 739.071C1167.71 738.959 1166.53 738.534 1165.39 737.796ZM1167.06 735.216C1167.87 735.737 1168.7 735.894 1169.56 735.687C1170.44 735.475 1171.17 734.912 1171.76 733.999C1172.35 733.085 1172.56 732.19 1172.38 731.314C1172.23 730.433 1171.75 729.732 1170.94 729.211C1170.14 728.689 1169.29 728.535 1168.41 728.746C1167.54 728.945 1166.81 729.501 1166.22 730.415C1165.63 731.328 1165.42 732.23 1165.59 733.12C1165.76 733.996 1166.25 734.695 1167.06 735.216Z" fill="black"/>
<path d="M1181.95 742.249L1179.48 742.762L1177.69 745.523L1174.55 743.49L1184.22 728.537L1187.36 730.57L1181.89 739.034L1189.3 737.653L1193.05 740.077L1185.56 741.752L1186.44 751.18L1182.63 748.716L1181.95 742.249Z" fill="black"/>
<path d="M265.671 759.698L267.376 762.311L256.483 769.421L247.301 755.352L257.933 748.413L259.638 751.026L252.242 755.853L254.236 758.908L260.768 754.645L262.421 757.177L255.889 761.44L258.014 764.696L265.671 759.698Z" fill="black"/>
<path d="M278.789 751.079L280.52 753.732L269.889 760.671L268.511 758.561L270.593 749.894C270.81 748.969 270.893 748.246 270.84 747.727C270.779 747.193 270.621 746.733 270.367 746.344C270 745.781 269.526 745.479 268.945 745.438C268.369 745.375 267.712 745.584 266.975 746.065C266.359 746.467 265.882 746.951 265.543 747.515C265.196 748.067 265.008 748.686 264.979 749.374L261.611 749.394C261.627 748.218 261.968 747.088 262.636 746.003C263.294 744.904 264.247 743.948 265.493 743.135C266.538 742.453 267.563 742.032 268.567 741.873C269.576 741.692 270.501 741.777 271.34 742.127C272.185 742.454 272.883 743.04 273.433 743.884C273.932 744.648 274.239 745.47 274.355 746.35C274.47 747.229 274.346 748.4 273.981 749.861L272.739 755.028L278.789 751.079Z" fill="black"/>
<path d="M292.941 741.899L294.646 744.512L283.753 751.622L274.57 737.554L285.202 730.614L286.907 733.227L279.511 738.054L281.505 741.109L288.037 736.846L289.69 739.378L283.158 743.642L285.283 746.897L292.941 741.899Z" fill="black"/>
<path d="M309.718 735.019C308.606 735.744 307.431 736.301 306.194 736.688C304.961 737.054 303.872 737.201 302.927 737.129L302.432 733.956C303.324 734.004 304.273 733.892 305.278 733.617C306.284 733.343 307.202 732.935 308.033 732.393C308.957 731.789 309.553 731.209 309.82 730.653C310.079 730.083 310.059 729.57 309.762 729.114C309.543 728.78 309.23 728.592 308.822 728.553C308.419 728.491 307.966 728.529 307.463 728.666C306.974 728.794 306.328 729.006 305.527 729.3C304.289 729.745 303.245 730.063 302.395 730.254C301.546 730.446 300.69 730.422 299.826 730.183C298.977 729.935 298.246 729.342 297.634 728.404C297.1 727.587 296.84 726.705 296.854 725.76C296.859 724.802 297.177 723.84 297.807 722.874C298.451 721.899 299.417 720.992 300.703 720.153C301.601 719.567 302.548 719.101 303.546 718.756C304.543 718.411 305.494 718.229 306.4 718.211L307.009 721.339C305.228 721.451 303.688 721.93 302.388 722.779C301.477 723.373 300.897 723.962 300.647 724.546C300.41 725.12 300.45 725.649 300.765 726.131C301.079 726.614 301.563 726.814 302.217 726.731C302.874 726.627 303.793 726.352 304.974 725.906C306.212 725.461 307.256 725.143 308.105 724.951C308.955 724.76 309.8 724.781 310.641 725.016C311.495 725.242 312.228 725.823 312.84 726.761C313.365 727.565 313.618 728.451 313.6 729.418C313.586 730.363 313.258 731.323 312.613 732.298C311.969 733.272 311.004 734.179 309.718 735.019Z" fill="black"/>
<path d="M325.627 716.638C325.653 716.679 325.817 716.973 326.118 717.522L317.938 722.861C318.523 723.435 319.216 723.736 320.019 723.766C320.822 723.796 321.632 723.545 322.45 723.011C323.013 722.644 323.456 722.24 323.78 721.799C324.108 721.337 324.342 720.802 324.481 720.195L327.33 720.915C327.072 722.746 325.965 724.299 324.009 725.576C322.79 726.372 321.558 726.841 320.314 726.985C319.062 727.114 317.905 726.923 316.845 726.412C315.785 725.9 314.905 725.108 314.205 724.036C313.515 722.978 313.142 721.865 313.086 720.697C313.036 719.507 313.293 718.393 313.858 717.356C314.427 716.296 315.255 715.413 316.34 714.704C317.398 714.013 318.505 713.616 319.66 713.512C320.815 713.407 321.913 713.627 322.955 714.169C324.002 714.69 324.893 715.513 325.627 716.638ZM317.908 717.063C317.198 717.526 316.733 718.116 316.513 718.833C316.293 719.55 316.357 720.292 316.704 721.058L322.03 717.582C321.477 716.969 320.828 716.618 320.083 716.531C319.33 716.431 318.605 716.608 317.908 717.063Z" fill="black"/>
<path d="M337.552 716.736C336.4 717.488 335.209 717.932 333.978 718.066C332.752 718.179 331.602 717.983 330.529 717.48C329.469 716.968 328.589 716.177 327.889 715.105C327.19 714.033 326.819 712.909 326.777 711.732C326.749 710.547 327.037 709.423 327.642 708.359C328.252 707.273 329.133 706.354 330.285 705.602C331.424 704.859 332.573 704.453 333.732 704.384C334.895 704.294 335.96 704.564 336.926 705.194L335.346 708.088C334.137 707.464 333.002 707.497 331.944 708.188C331.127 708.721 330.625 709.431 330.439 710.317C330.253 711.202 330.461 712.108 331.065 713.032C331.668 713.957 332.413 714.512 333.298 714.698C334.184 714.884 335.036 714.71 335.853 714.177C336.925 713.477 337.412 712.453 337.314 711.102L340.612 710.842C340.783 711.953 340.597 713.029 340.054 714.071C339.525 715.105 338.691 715.993 337.552 716.736Z" fill="black"/>
<path d="M348.937 693.658L355.994 704.47L353.019 706.412L352.18 705.125C352.071 705.865 351.811 706.551 351.401 707.181C350.982 707.799 350.438 708.326 349.768 708.763C348.348 709.69 346.956 710.016 345.591 709.741C344.227 709.466 343.02 708.524 341.971 706.917L337.983 700.807L341.118 698.76L344.805 704.408C345.941 706.15 347.24 706.544 348.701 705.591C349.451 705.101 349.896 704.466 350.037 703.687C350.169 702.894 349.92 702.015 349.291 701.05L345.801 695.704L348.937 693.658Z" fill="black"/>
<path d="M356.772 690.578C356.806 689.811 357.05 689.088 357.505 688.409C357.974 687.721 358.623 687.106 359.454 686.564L361.343 689.458C360.977 689.658 360.734 689.798 360.613 689.877C359.715 690.463 359.178 691.176 359.001 692.018C358.816 692.846 359.051 693.762 359.707 694.767L363.039 699.872L359.903 701.918L352.846 691.106L355.841 689.151L356.772 690.578Z" fill="black"/>
<path d="M376.476 683.449C376.502 683.489 376.666 683.784 376.967 684.333L368.787 689.672C369.372 690.245 370.065 690.547 370.868 690.577C371.671 690.607 372.481 690.356 373.299 689.822C373.862 689.455 374.305 689.051 374.629 688.61C374.957 688.147 375.191 687.613 375.33 687.006L378.179 687.726C377.921 689.556 376.814 691.11 374.858 692.387C373.639 693.183 372.407 693.652 371.163 693.795C369.911 693.925 368.754 693.734 367.694 693.222C366.634 692.711 365.754 691.919 365.054 690.847C364.364 689.788 363.991 688.675 363.935 687.508C363.885 686.318 364.142 685.204 364.707 684.167C365.276 683.107 366.104 682.223 367.189 681.515C368.247 680.824 369.354 680.427 370.509 680.322C371.664 680.218 372.762 680.438 373.804 680.98C374.851 681.501 375.742 682.324 376.476 683.449ZM368.757 683.873C368.047 684.337 367.582 684.927 367.362 685.644C367.142 686.361 367.206 687.102 367.553 687.869L372.879 684.393C372.326 683.779 371.677 683.429 370.932 683.342C370.179 683.241 369.454 683.419 368.757 683.873Z" fill="black"/>
<path d="M396.879 678.128C395.445 679.064 393.944 679.604 392.376 679.749C390.813 679.871 389.338 679.602 387.951 678.94C386.568 678.257 385.423 677.218 384.513 675.825C383.603 674.431 383.118 672.971 383.058 671.444C383.002 669.894 383.349 668.436 384.099 667.067C384.854 665.677 385.954 664.509 387.401 663.565C388.621 662.769 389.859 662.266 391.117 662.056C392.389 661.838 393.622 661.912 394.816 662.279L393.985 665.572C392.317 665.095 390.779 665.315 389.373 666.233C388.502 666.802 387.851 667.503 387.422 668.338C386.983 669.159 386.793 670.038 386.85 670.975C386.921 671.903 387.241 672.803 387.809 673.673C388.377 674.544 389.072 675.199 389.893 675.637C390.728 676.067 391.614 676.253 392.551 676.196C393.479 676.125 394.378 675.805 395.249 675.237C396.656 674.319 397.472 672.993 397.698 671.26L401.047 671.825C400.911 673.08 400.487 674.245 399.775 675.321C399.063 676.397 398.098 677.333 396.879 678.128Z" fill="black"/>
<path d="M404.922 656.887C406.262 656.012 407.602 655.71 408.944 655.981C410.3 656.242 411.494 657.164 412.526 658.745L416.566 664.935L413.431 666.981L409.705 661.273C409.145 660.416 408.542 659.902 407.896 659.731C407.241 659.547 406.559 659.687 405.848 660.151C405.058 660.667 404.59 661.326 404.445 662.127C404.291 662.916 404.528 663.792 405.158 664.757L408.647 670.103L405.512 672.15L395.779 657.237L398.914 655.191L402.324 660.416C402.469 659.73 402.766 659.087 403.215 658.488C403.656 657.875 404.225 657.341 404.922 656.887Z" fill="black"/>
<path d="M417.612 648.604C419.286 647.511 420.835 647.073 422.257 647.291C423.671 647.496 424.903 648.402 425.952 650.01L429.979 656.18L427.045 658.095L426.166 656.748C426.232 658.138 425.462 659.358 423.854 660.407C423.023 660.949 422.208 661.281 421.408 661.402C420.621 661.514 419.905 661.427 419.26 661.141C418.615 660.855 418.087 660.398 417.676 659.768C417.02 658.763 416.879 657.728 417.254 656.662C417.641 655.587 418.626 654.534 420.207 653.502L422.699 651.875C422.253 651.192 421.704 650.805 421.053 650.714C420.392 650.61 419.647 650.829 418.816 651.372C418.24 651.748 417.732 652.213 417.291 652.768C416.856 653.301 416.544 653.848 416.357 654.41L413.802 652.954C414.12 652.153 414.614 651.373 415.282 650.612C415.964 649.842 416.741 649.172 417.612 648.604ZM423.26 657.785C423.796 657.435 424.193 657.004 424.451 656.492C424.7 655.966 424.755 655.406 424.614 654.81L423.892 653.704L421.742 655.108C420.456 655.947 420.088 656.789 420.639 657.633C420.901 658.035 421.265 658.256 421.731 658.296C422.201 658.314 422.711 658.144 423.26 657.785Z" fill="black"/>
<path d="M433.231 638.409C434.571 637.534 435.912 637.232 437.254 637.503C438.61 637.764 439.803 638.686 440.835 640.267L444.875 646.457L441.74 648.503L438.015 642.796C437.455 641.938 436.852 641.424 436.206 641.254C435.551 641.07 434.868 641.21 434.158 641.673C433.368 642.189 432.9 642.848 432.754 643.65C432.6 644.438 432.838 645.315 433.468 646.279L436.957 651.625L433.822 653.672L426.764 642.859L429.759 640.905L430.585 642.171C430.703 641.444 430.992 640.759 431.451 640.116C431.901 639.459 432.494 638.89 433.231 638.409Z" fill="black"/>
<path d="M448.132 628.683C449.472 627.809 450.813 627.507 452.155 627.777C453.51 628.039 454.704 628.96 455.736 630.541L459.776 636.731L456.641 638.778L452.915 633.07C452.356 632.212 451.753 631.698 451.106 631.528C450.451 631.344 449.769 631.484 449.059 631.947C448.268 632.463 447.8 633.122 447.655 633.924C447.501 634.712 447.739 635.589 448.368 636.554L451.858 641.9L448.722 643.946L441.665 633.134L444.659 631.179L445.486 632.445C445.604 631.718 445.892 631.033 446.351 630.39C446.801 629.733 447.395 629.164 448.132 628.683Z" fill="black"/>
<path d="M470.83 621.864C470.856 621.905 471.02 622.199 471.32 622.748L463.141 628.087C463.725 628.661 464.419 628.962 465.222 628.992C466.025 629.022 466.835 628.771 467.652 628.237C468.215 627.87 468.658 627.466 468.982 627.025C469.311 626.563 469.544 626.028 469.684 625.421L472.532 626.141C472.275 627.972 471.168 629.525 469.212 630.802C467.992 631.598 466.761 632.067 465.517 632.21C464.264 632.34 463.108 632.149 462.048 631.638C460.988 631.126 460.108 630.334 459.408 629.262C458.717 628.204 458.344 627.09 458.289 625.923C458.238 624.733 458.496 623.619 459.06 622.582C459.63 621.522 460.457 620.638 461.543 619.93C462.601 619.239 463.708 618.842 464.863 618.738C466.017 618.633 467.116 618.853 468.158 619.395C469.205 619.916 470.095 620.739 470.83 621.864ZM463.111 622.289C462.4 622.752 461.935 623.342 461.715 624.059C461.495 624.776 461.559 625.517 461.907 626.284L467.233 622.808C466.679 622.195 466.03 621.844 465.286 621.757C464.532 621.657 463.807 621.834 463.111 622.289Z" fill="black"/>
<path d="M467.691 610.3L470.826 608.253L480.56 623.166L477.425 625.212L467.691 610.3Z" fill="black"/>
<path d="M1044.78 306.74L1038.25 311.003L1038.97 314.831L1035.64 317.009L1032.72 298.847L1035.94 296.748L1051.41 306.711L1048 308.941L1044.78 306.74ZM1042.14 304.937L1036.4 301.007L1037.68 307.849L1042.14 304.937Z" fill="black"/>
<path d="M1050.78 287.059C1052.03 286.246 1053.24 285.75 1054.43 285.57C1055.62 285.382 1056.72 285.508 1057.71 285.948C1058.71 286.389 1059.54 287.131 1060.23 288.176C1060.9 289.208 1061.24 290.274 1061.25 291.375C1061.26 292.462 1060.93 293.515 1060.28 294.534C1059.63 295.531 1058.68 296.435 1057.43 297.249L1054.6 299.098L1057.13 302.977L1053.88 305.102L1044.69 291.034L1050.78 287.059ZM1055.52 294.714C1056.5 294.076 1057.11 293.383 1057.35 292.635C1057.58 291.874 1057.44 291.105 1056.93 290.328C1056.41 289.537 1055.77 289.1 1054.99 289.017C1054.2 288.921 1053.31 289.192 1052.33 289.83L1049.68 291.562L1052.87 296.446L1055.52 294.714Z" fill="black"/>
<path d="M1060.22 280.898L1063.48 278.773L1072.66 292.842L1069.41 294.967L1060.22 280.898Z" fill="black"/>
<path d="M1075.55 285.626C1076.11 285.258 1076.69 285.138 1077.29 285.263C1077.88 285.375 1078.36 285.72 1078.74 286.296C1078.91 286.564 1079.05 286.854 1079.16 287.165C1079.27 287.477 1079.39 287.975 1079.51 288.66L1080.25 292.301L1078.26 293.6L1077.06 289.827C1076.64 289.912 1076.23 289.873 1075.84 289.709C1075.45 289.523 1075.12 289.229 1074.86 288.827C1074.48 288.251 1074.36 287.671 1074.5 287.087C1074.64 286.48 1074.99 285.993 1075.55 285.626Z" fill="black"/>
<path d="M1102.05 253.599L1106.63 270.672L1103.13 272.954L1093.82 265.448L1096.84 277.06L1093.36 279.33L1079.56 268.278L1082.93 266.075L1092.56 273.89L1089.43 261.837L1092.44 259.87L1102.16 267.739L1098.93 255.633L1102.05 253.599Z" fill="black"/>
<path d="M1120.12 254.216C1120.14 254.256 1120.31 254.551 1120.61 255.099L1112.43 260.438C1113.01 261.012 1113.7 261.314 1114.51 261.344C1115.31 261.374 1116.12 261.122 1116.94 260.589C1117.5 260.221 1117.94 259.818 1118.27 259.377C1118.6 258.914 1118.83 258.379 1118.97 257.773L1121.82 258.493C1121.56 260.323 1120.45 261.877 1118.5 263.153C1117.28 263.949 1116.05 264.419 1114.8 264.562C1113.55 264.692 1112.39 264.501 1111.33 263.989C1110.27 263.477 1109.39 262.685 1108.69 261.614C1108 260.555 1107.63 259.442 1107.57 258.274C1107.52 257.084 1107.78 255.971 1108.35 254.933C1108.92 253.874 1109.74 252.99 1110.83 252.282C1111.89 251.591 1112.99 251.193 1114.15 251.089C1115.3 250.985 1116.4 251.204 1117.44 251.747C1118.49 252.267 1119.38 253.09 1120.12 254.216ZM1112.4 254.64C1111.69 255.104 1111.22 255.694 1111 256.41C1110.78 257.127 1110.84 257.869 1111.19 258.636L1116.52 255.159C1115.97 254.546 1115.32 254.196 1114.57 254.109C1113.82 254.008 1113.09 254.185 1112.4 254.64Z" fill="black"/>
<path d="M1125.94 242.419C1126.94 241.763 1128.01 241.403 1129.13 241.338C1130.26 241.252 1131.33 241.477 1132.35 242.015C1133.36 242.54 1134.23 243.358 1134.96 244.47C1135.68 245.582 1136.09 246.714 1136.17 247.864C1136.24 249.001 1136.02 250.075 1135.49 251.086C1134.97 252.075 1134.21 252.897 1133.21 253.553C1131.72 254.524 1130.28 254.794 1128.89 254.363L1129.7 255.609L1126.71 257.564L1116.98 242.651L1120.11 240.605L1123.54 245.85C1123.76 244.463 1124.56 243.32 1125.94 242.419ZM1130.98 251.335C1131.79 250.81 1132.27 250.113 1132.43 249.245C1132.59 248.355 1132.38 247.454 1131.78 246.543C1131.19 245.632 1130.46 245.079 1129.58 244.884C1128.72 244.667 1127.88 244.821 1127.08 245.346C1126.27 245.87 1125.79 246.578 1125.62 247.468C1125.46 248.336 1125.68 249.226 1126.28 250.137C1126.87 251.048 1127.6 251.612 1128.47 251.829C1129.34 252.024 1130.18 251.859 1130.98 251.335Z" fill="black"/>
<path d="M1141 232.588C1142.34 231.713 1143.68 231.411 1145.02 231.682C1146.38 231.944 1147.57 232.865 1148.6 234.446L1152.64 240.636L1149.51 242.682L1145.78 236.975C1145.22 236.117 1144.62 235.603 1143.98 235.433C1143.32 235.249 1142.64 235.389 1141.93 235.852C1141.14 236.368 1140.67 237.027 1140.52 237.829C1140.37 238.617 1140.61 239.494 1141.24 240.458L1144.73 245.804L1141.59 247.851L1131.86 232.938L1134.99 230.892L1138.4 236.117C1138.55 235.431 1138.84 234.788 1139.29 234.189C1139.74 233.576 1140.3 233.043 1141 232.588Z" fill="black"/>
<path d="M1161.86 234.851C1160.72 235.594 1159.54 236.029 1158.33 236.155C1157.11 236.258 1155.98 236.054 1154.92 235.542C1153.86 235.03 1152.98 234.239 1152.28 233.167C1151.58 232.095 1151.21 230.971 1151.16 229.794C1151.12 228.618 1151.4 227.502 1151.99 226.447C1152.59 225.37 1153.45 224.46 1154.59 223.717C1155.73 222.973 1156.91 222.55 1158.12 222.446C1159.32 222.329 1160.46 222.527 1161.52 223.039C1162.58 223.55 1163.46 224.342 1164.15 225.414C1164.85 226.486 1165.23 227.61 1165.27 228.787C1165.31 229.963 1165.04 231.085 1164.46 232.154C1163.86 233.208 1163 234.108 1161.86 234.851ZM1160.18 232.278C1160.98 231.754 1161.47 231.057 1161.63 230.189C1161.79 229.299 1161.57 228.398 1160.98 227.487C1160.38 226.576 1159.65 226.023 1158.78 225.828C1157.91 225.611 1157.08 225.765 1156.27 226.289C1155.47 226.814 1154.98 227.522 1154.82 228.412C1154.65 229.289 1154.86 230.183 1155.45 231.094C1156.05 232.005 1156.79 232.565 1157.67 232.773C1158.54 232.968 1159.38 232.803 1160.18 232.278Z" fill="black"/>
<path d="M1176.03 225.599C1174.9 226.343 1173.72 226.777 1172.5 226.903C1171.29 227.006 1170.15 226.802 1169.09 226.291C1168.03 225.779 1167.15 224.987 1166.45 223.915C1165.75 222.843 1165.38 221.719 1165.34 220.543C1165.3 219.366 1165.57 218.251 1166.16 217.196C1166.76 216.119 1167.63 215.208 1168.77 214.465C1169.91 213.722 1171.08 213.298 1172.29 213.195C1173.5 213.078 1174.63 213.275 1175.69 213.787C1176.75 214.299 1177.63 215.091 1178.33 216.162C1179.03 217.234 1179.4 218.358 1179.44 219.535C1179.48 220.711 1179.21 221.834 1178.63 222.902C1178.04 223.957 1177.17 224.856 1176.03 225.599ZM1174.35 223.027C1175.16 222.502 1175.64 221.806 1175.8 220.937C1175.96 220.047 1175.75 219.146 1175.15 218.235C1174.56 217.324 1173.83 216.771 1172.95 216.576C1172.09 216.359 1171.25 216.513 1170.45 217.038C1169.64 217.562 1169.16 218.27 1168.99 219.16C1168.82 220.037 1169.03 220.931 1169.63 221.842C1170.22 222.754 1170.96 223.313 1171.84 223.521C1172.71 223.716 1173.55 223.551 1174.35 223.027Z" fill="black"/>
<path d="M1186.83 212.274L1186.3 214.745L1188.09 217.499L1184.96 219.545L1175.23 204.632L1178.36 202.586L1183.87 211.027L1185.62 203.695L1189.36 201.255L1187.85 208.776L1196.82 211.805L1193.02 214.285L1186.83 212.274Z" fill="black"/>
<path d="M1336.23 33.2881C1334.52 33.2881 1332.97 32.9201 1331.58 32.1841C1330.2 31.4321 1329.11 30.4001 1328.31 29.0881C1327.53 27.7601 1327.14 26.2641 1327.14 24.6001C1327.14 22.9361 1327.53 21.4481 1328.31 20.1361C1329.11 18.8081 1330.2 17.7761 1331.58 17.0401C1332.97 16.2881 1334.53 15.9121 1336.26 15.9121C1337.71 15.9121 1339.03 16.1681 1340.19 16.6801C1341.38 17.1921 1342.37 17.9281 1343.17 18.8881L1340.67 21.1921C1339.54 19.8801 1338.13 19.2241 1336.45 19.2241C1335.41 19.2241 1334.48 19.4561 1333.67 19.9201C1332.85 20.3681 1332.21 21.0001 1331.75 21.8161C1331.3 22.6321 1331.07 23.5601 1331.07 24.6001C1331.07 25.6401 1331.3 26.5681 1331.75 27.3841C1332.21 28.2001 1332.85 28.8401 1333.67 29.3041C1334.48 29.7521 1335.41 29.9761 1336.45 29.9761C1338.13 29.9761 1339.54 29.3121 1340.67 27.9841L1343.17 30.2881C1342.37 31.2641 1341.38 32.0081 1340.19 32.5201C1339.01 33.0321 1337.69 33.2881 1336.23 33.2881Z" fill="black"/>
<path d="M1347 16.2001H1350.88V29.8321H1359.31V33.0001H1347V16.2001Z" fill="black"/>
<path d="M1370.53 33.2881C1368.79 33.2881 1367.21 32.9121 1365.81 32.1601C1364.41 31.4081 1363.32 30.3761 1362.52 29.0641C1361.73 27.7361 1361.34 26.2481 1361.34 24.6001C1361.34 22.9521 1361.73 21.4721 1362.52 20.1601C1363.32 18.8321 1364.41 17.7921 1365.81 17.0401C1367.21 16.2881 1368.79 15.9121 1370.53 15.9121C1372.28 15.9121 1373.85 16.2881 1375.24 17.0401C1376.63 17.7921 1377.73 18.8321 1378.53 20.1601C1379.33 21.4721 1379.73 22.9521 1379.73 24.6001C1379.73 26.2481 1379.33 27.7361 1378.53 29.0641C1377.73 30.3761 1376.63 31.4081 1375.24 32.1601C1373.85 32.9121 1372.28 33.2881 1370.53 33.2881ZM1370.53 29.9761C1371.53 29.9761 1372.42 29.7521 1373.22 29.3041C1374.02 28.8401 1374.65 28.2001 1375.09 27.3841C1375.56 26.5681 1375.79 25.6401 1375.79 24.6001C1375.79 23.5601 1375.56 22.6321 1375.09 21.8161C1374.65 21.0001 1374.02 20.3681 1373.22 19.9201C1372.42 19.4561 1371.53 19.2241 1370.53 19.2241C1369.54 19.2241 1368.65 19.4561 1367.85 19.9201C1367.05 20.3681 1366.41 21.0001 1365.95 21.8161C1365.5 22.6321 1365.28 23.5601 1365.28 24.6001C1365.28 25.6401 1365.5 26.5681 1365.95 27.3841C1366.41 28.2001 1367.05 28.8401 1367.85 29.3041C1368.65 29.7521 1369.54 29.9761 1370.53 29.9761Z" fill="black"/>
<path d="M1391.31 33.2881C1388.91 33.2881 1387.04 32.6241 1385.7 31.2961C1384.37 29.9681 1383.7 28.0721 1383.7 25.6081V16.2001H1387.59V25.4641C1387.59 28.4721 1388.84 29.9761 1391.34 29.9761C1392.55 29.9761 1393.48 29.6161 1394.12 28.8961C1394.76 28.1601 1395.08 27.0161 1395.08 25.4641V16.2001H1398.92V25.6081C1398.92 28.0721 1398.25 29.9681 1396.9 31.2961C1395.58 32.6241 1393.71 33.2881 1391.31 33.2881Z" fill="black"/>
<path d="M1403.96 16.2001H1411.59C1413.42 16.2001 1415.03 16.5521 1416.42 17.2561C1417.83 17.9441 1418.91 18.9201 1419.68 20.1841C1420.47 21.4481 1420.86 22.9201 1420.86 24.6001C1420.86 26.2801 1420.47 27.7521 1419.68 29.0161C1418.91 30.2801 1417.83 31.2641 1416.42 31.9681C1415.03 32.6561 1413.42 33.0001 1411.59 33.0001H1403.96V16.2001ZM1411.4 29.8081C1413.08 29.8081 1414.42 29.3441 1415.41 28.4161C1416.42 27.4721 1416.92 26.2001 1416.92 24.6001C1416.92 23.0001 1416.42 21.7361 1415.41 20.8081C1414.42 19.8641 1413.08 19.3921 1411.4 19.3921H1407.85V29.8081H1411.4Z" fill="black"/>
<rect x="2.5" y="377.5" width="195" height="195" fill="white" stroke="#376BC3" stroke-width="5"/>
<path d="M33.3121 484.288C30.9121 484.288 29.0401 483.624 27.6961 482.296C26.3681 480.968 25.7041 479.072 25.7041 476.608V467.2H29.5921V476.464C29.5921 479.472 30.8401 480.976 33.3361 480.976C34.5521 480.976 35.4801 480.616 36.1201 479.896C36.7601 479.16 37.0801 478.016 37.0801 476.464V467.2H40.9201V476.608C40.9201 479.072 40.2481 480.968 38.9041 482.296C37.5761 483.624 35.7121 484.288 33.3121 484.288Z" fill="black"/>
<path d="M61.3702 467.2V484H58.1782L49.8022 473.8V484H45.9622V467.2H49.1782L57.5302 477.4V467.2H61.3702Z" fill="black"/>
<path d="M66.281 471.088H70.025V484H66.281V471.088ZM68.153 469.288C67.465 469.288 66.905 469.088 66.473 468.688C66.041 468.288 65.825 467.792 65.825 467.2C65.825 466.608 66.041 466.112 66.473 465.712C66.905 465.312 67.465 465.112 68.153 465.112C68.841 465.112 69.401 465.304 69.833 465.688C70.265 466.072 70.481 466.552 70.481 467.128C70.481 467.752 70.265 468.272 69.833 468.688C69.401 469.088 68.841 469.288 68.153 469.288Z" fill="black"/>
<path d="M74.9637 467.2H82.5957C84.4197 467.2 86.0277 467.552 87.4197 468.256C88.8277 468.944 89.9157 469.92 90.6837 471.184C91.4677 472.448 91.8597 473.92 91.8597 475.6C91.8597 477.28 91.4677 478.752 90.6837 480.016C89.9157 481.28 88.8277 482.264 87.4197 482.968C86.0277 483.656 84.4197 484 82.5957 484H74.9637V467.2ZM82.4037 480.808C84.0837 480.808 85.4197 480.344 86.4117 479.416C87.4197 478.472 87.9237 477.2 87.9237 475.6C87.9237 474 87.4197 472.736 86.4117 471.808C85.4197 470.864 84.0837 470.392 82.4037 470.392H78.8517V480.808H82.4037Z" fill="black"/>
<path d="M116.997 480.88V484H103.989V467.2H116.685V470.32H107.853V473.968H115.653V476.992H107.853V480.88H116.997Z" fill="black"/>
<path d="M121.29 467.2H128.922C130.746 467.2 132.354 467.552 133.746 468.256C135.154 468.944 136.242 469.92 137.01 471.184C137.794 472.448 138.186 473.92 138.186 475.6C138.186 477.28 137.794 478.752 137.01 480.016C136.242 481.28 135.154 482.264 133.746 482.968C132.354 483.656 130.746 484 128.922 484H121.29V467.2ZM128.73 480.808C130.41 480.808 131.746 480.344 132.738 479.416C133.746 478.472 134.25 477.2 134.25 475.6C134.25 474 133.746 472.736 132.738 471.808C131.746 470.864 130.41 470.392 128.73 470.392H125.178V480.808H128.73Z" fill="black"/>
<path d="M153.67 475.336H157.222V482.152C156.31 482.84 155.254 483.368 154.054 483.736C152.854 484.104 151.646 484.288 150.43 484.288C148.686 484.288 147.118 483.92 145.726 483.184C144.334 482.432 143.238 481.4 142.438 480.088C141.654 478.76 141.262 477.264 141.262 475.6C141.262 473.936 141.654 472.448 142.438 471.136C143.238 469.808 144.342 468.776 145.75 468.04C147.158 467.288 148.742 466.912 150.502 466.912C151.974 466.912 153.31 467.16 154.51 467.656C155.71 468.152 156.718 468.872 157.534 469.816L155.038 472.12C153.838 470.856 152.39 470.224 150.694 470.224C149.622 470.224 148.67 470.448 147.838 470.896C147.006 471.344 146.358 471.976 145.894 472.792C145.43 473.608 145.198 474.544 145.198 475.6C145.198 476.64 145.43 477.568 145.894 478.384C146.358 479.2 146.998 479.84 147.814 480.304C148.646 480.752 149.59 480.976 150.646 480.976C151.766 480.976 152.774 480.736 153.67 480.256V475.336Z" fill="black"/>
<path d="M175.042 480.88V484H162.034V467.2H174.73V470.32H165.898V473.968H173.698V476.992H165.898V480.88H175.042Z" fill="black"/>
<rect x="639.5" y="377.5" width="195" height="195" fill="white" stroke="#376BC3" stroke-width="5"/>
<path d="M677.861 484.288C675.461 484.288 673.589 483.624 672.245 482.296C670.917 480.968 670.253 479.072 670.253 476.608V467.2H674.141V476.464C674.141 479.472 675.389 480.976 677.885 480.976C679.101 480.976 680.029 480.616 680.669 479.896C681.309 479.16 681.629 478.016 681.629 476.464V467.2H685.469V476.608C685.469 479.072 684.797 480.968 683.453 482.296C682.125 483.624 680.261 484.288 677.861 484.288Z" fill="black"/>
<path d="M705.919 467.2V484H702.727L694.351 473.8V484H690.511V467.2H693.727L702.079 477.4V467.2H705.919Z" fill="black"/>
<path d="M710.83 471.088H714.574V484H710.83V471.088ZM712.702 469.288C712.014 469.288 711.454 469.088 711.022 468.688C710.59 468.288 710.374 467.792 710.374 467.2C710.374 466.608 710.59 466.112 711.022 465.712C711.454 465.312 712.014 465.112 712.702 465.112C713.39 465.112 713.95 465.304 714.382 465.688C714.814 466.072 715.03 466.552 715.03 467.128C715.03 467.752 714.814 468.272 714.382 468.688C713.95 469.088 713.39 469.288 712.702 469.288Z" fill="black"/>
<path d="M719.513 467.2H727.145C728.969 467.2 730.577 467.552 731.969 468.256C733.377 468.944 734.465 469.92 735.233 471.184C736.017 472.448 736.409 473.92 736.409 475.6C736.409 477.28 736.017 478.752 735.233 480.016C734.465 481.28 733.377 482.264 731.969 482.968C730.577 483.656 728.969 484 727.145 484H719.513V467.2ZM726.953 480.808C728.633 480.808 729.969 480.344 730.961 479.416C731.969 478.472 732.473 477.2 732.473 475.6C732.473 474 731.969 472.736 730.961 471.808C729.969 470.864 728.633 470.392 726.953 470.392H723.401V480.808H726.953Z" fill="black"/>
<path d="M763.946 467.2V484H760.058V477.112H752.426V484H748.538V467.2H752.426V473.824H760.058V467.2H763.946Z" fill="black"/>
<path d="M776.585 484.288C774.185 484.288 772.313 483.624 770.969 482.296C769.641 480.968 768.977 479.072 768.977 476.608V467.2H772.865V476.464C772.865 479.472 774.113 480.976 776.609 480.976C777.825 480.976 778.753 480.616 779.393 479.896C780.033 479.16 780.353 478.016 780.353 476.464V467.2H784.193V476.608C784.193 479.072 783.521 480.968 782.177 482.296C780.849 483.624 778.985 484.288 776.585 484.288Z" fill="black"/>
<path d="M801.571 475.264C802.531 475.568 803.283 476.08 803.827 476.8C804.371 477.504 804.643 478.376 804.643 479.416C804.643 480.888 804.067 482.024 802.915 482.824C801.779 483.608 800.115 484 797.923 484H789.235V467.2H797.443C799.491 467.2 801.059 467.592 802.147 468.376C803.251 469.16 803.803 470.224 803.803 471.568C803.803 472.384 803.603 473.112 803.203 473.752C802.819 474.392 802.275 474.896 801.571 475.264ZM793.099 470.128V474.088H796.963C797.923 474.088 798.651 473.92 799.147 473.584C799.643 473.248 799.891 472.752 799.891 472.096C799.891 471.44 799.643 470.952 799.147 470.632C798.651 470.296 797.923 470.128 796.963 470.128H793.099ZM797.635 481.072C798.659 481.072 799.427 480.904 799.939 480.568C800.467 480.232 800.731 479.712 800.731 479.008C800.731 477.616 799.699 476.92 797.635 476.92H793.099V481.072H797.635Z" fill="black"/>
<rect x="2.5" y="662.5" width="195" height="195" fill="white" stroke="#376BC3" stroke-width="5"/>
<path d="M33.3121 769.288C30.9121 769.288 29.0401 768.624 27.6961 767.296C26.3681 765.968 25.7041 764.072 25.7041 761.608V752.2H29.5921V761.464C29.5921 764.472 30.8401 765.976 33.3361 765.976C34.5521 765.976 35.4801 765.616 36.1201 764.896C36.7601 764.16 37.0801 763.016 37.0801 761.464V752.2H40.9201V761.608C40.9201 764.072 40.2481 765.968 38.9041 767.296C37.5761 768.624 35.7121 769.288 33.3121 769.288Z" fill="black"/>
<path d="M61.3702 752.2V769H58.1782L49.8022 758.8V769H45.9622V752.2H49.1782L57.5302 762.4V752.2H61.3702Z" fill="black"/>
<path d="M66.281 756.088H70.025V769H66.281V756.088ZM68.153 754.288C67.465 754.288 66.905 754.088 66.473 753.688C66.041 753.288 65.825 752.792 65.825 752.2C65.825 751.608 66.041 751.112 66.473 750.712C66.905 750.312 67.465 750.112 68.153 750.112C68.841 750.112 69.401 750.304 69.833 750.688C70.265 751.072 70.481 751.552 70.481 752.128C70.481 752.752 70.265 753.272 69.833 753.688C69.401 754.088 68.841 754.288 68.153 754.288Z" fill="black"/>
<path d="M74.9637 752.2H82.5957C84.4197 752.2 86.0277 752.552 87.4197 753.256C88.8277 753.944 89.9157 754.92 90.6837 756.184C91.4677 757.448 91.8597 758.92 91.8597 760.6C91.8597 762.28 91.4677 763.752 90.6837 765.016C89.9157 766.28 88.8277 767.264 87.4197 767.968C86.0277 768.656 84.4197 769 82.5957 769H74.9637V752.2ZM82.4037 765.808C84.0837 765.808 85.4197 765.344 86.4117 764.416C87.4197 763.472 87.9237 762.2 87.9237 760.6C87.9237 759 87.4197 757.736 86.4117 756.808C85.4197 755.864 84.0837 755.392 82.4037 755.392H78.8517V765.808H82.4037Z" fill="black"/>
<path d="M116.997 765.88V769H103.989V752.2H116.685V755.32H107.853V758.968H115.653V761.992H107.853V765.88H116.997Z" fill="black"/>
<path d="M121.29 752.2H128.922C130.746 752.2 132.354 752.552 133.746 753.256C135.154 753.944 136.242 754.92 137.01 756.184C137.794 757.448 138.186 758.92 138.186 760.6C138.186 762.28 137.794 763.752 137.01 765.016C136.242 766.28 135.154 767.264 133.746 767.968C132.354 768.656 130.746 769 128.922 769H121.29V752.2ZM128.73 765.808C130.41 765.808 131.746 765.344 132.738 764.416C133.746 763.472 134.25 762.2 134.25 760.6C134.25 759 133.746 757.736 132.738 756.808C131.746 755.864 130.41 755.392 128.73 755.392H125.178V765.808H128.73Z" fill="black"/>
<path d="M153.67 760.336H157.222V767.152C156.31 767.84 155.254 768.368 154.054 768.736C152.854 769.104 151.646 769.288 150.43 769.288C148.686 769.288 147.118 768.92 145.726 768.184C144.334 767.432 143.238 766.4 142.438 765.088C141.654 763.76 141.262 762.264 141.262 760.6C141.262 758.936 141.654 757.448 142.438 756.136C143.238 754.808 144.342 753.776 145.75 753.04C147.158 752.288 148.742 751.912 150.502 751.912C151.974 751.912 153.31 752.16 154.51 752.656C155.71 753.152 156.718 753.872 157.534 754.816L155.038 757.12C153.838 755.856 152.39 755.224 150.694 755.224C149.622 755.224 148.67 755.448 147.838 755.896C147.006 756.344 146.358 756.976 145.894 757.792C145.43 758.608 145.198 759.544 145.198 760.6C145.198 761.64 145.43 762.568 145.894 763.384C146.358 764.2 146.998 764.84 147.814 765.304C148.646 765.752 149.59 765.976 150.646 765.976C151.766 765.976 152.774 765.736 153.67 765.256V760.336Z" fill="black"/>
<path d="M175.042 765.88V769H162.034V752.2H174.73V755.32H165.898V758.968H173.698V761.992H165.898V765.88H175.042Z" fill="black"/>
<rect x="1276.5" y="92.5" width="195" height="195" fill="white" stroke="#376BC3" stroke-width="5"/>
<path d="M1348.38 184.288C1345.98 184.288 1344.11 183.624 1342.77 182.296C1341.44 180.968 1340.78 179.072 1340.78 176.608V167.2H1344.66V176.464C1344.66 179.472 1345.91 180.976 1348.41 180.976C1349.62 180.976 1350.55 180.616 1351.19 179.896C1351.83 179.16 1352.15 178.016 1352.15 176.464V167.2H1355.99V176.608C1355.99 179.072 1355.32 180.968 1353.98 182.296C1352.65 183.624 1350.78 184.288 1348.38 184.288Z" fill="black"/>
<path d="M1376.44 167.2V184H1373.25L1364.87 173.8V184H1361.03V167.2H1364.25L1372.6 177.4V167.2H1376.44Z" fill="black"/>
<path d="M1381.35 171.088H1385.1V184H1381.35V171.088ZM1383.22 169.288C1382.54 169.288 1381.98 169.088 1381.54 168.688C1381.11 168.288 1380.9 167.792 1380.9 167.2C1380.9 166.608 1381.11 166.112 1381.54 165.712C1381.98 165.312 1382.54 165.112 1383.22 165.112C1383.91 165.112 1384.47 165.304 1384.9 165.688C1385.34 166.072 1385.55 166.552 1385.55 167.128C1385.55 167.752 1385.34 168.272 1384.9 168.688C1384.47 169.088 1383.91 169.288 1383.22 169.288Z" fill="black"/>
<path d="M1390.04 167.2H1397.67C1399.49 167.2 1401.1 167.552 1402.49 168.256C1403.9 168.944 1404.99 169.92 1405.76 171.184C1406.54 172.448 1406.93 173.92 1406.93 175.6C1406.93 177.28 1406.54 178.752 1405.76 180.016C1404.99 181.28 1403.9 182.264 1402.49 182.968C1401.1 183.656 1399.49 184 1397.67 184H1390.04V167.2ZM1397.48 180.808C1399.16 180.808 1400.49 180.344 1401.48 179.416C1402.49 178.472 1403 177.2 1403 175.6C1403 174 1402.49 172.736 1401.48 171.808C1400.49 170.864 1399.16 170.392 1397.48 170.392H1393.92V180.808H1397.48Z" fill="black"/>
<path d="M1330.27 213.288C1328.94 213.288 1327.65 213.112 1326.4 212.76C1325.17 212.392 1324.18 211.92 1323.43 211.344L1324.75 208.416C1325.47 208.944 1326.32 209.368 1327.31 209.688C1328.31 210.008 1329.3 210.168 1330.29 210.168C1331.39 210.168 1332.21 210.008 1332.74 209.688C1333.27 209.352 1333.53 208.912 1333.53 208.368C1333.53 207.968 1333.37 207.64 1333.05 207.384C1332.75 207.112 1332.35 206.896 1331.85 206.736C1331.37 206.576 1330.71 206.4 1329.88 206.208C1328.6 205.904 1327.55 205.6 1326.74 205.296C1325.92 204.992 1325.22 204.504 1324.63 203.832C1324.05 203.16 1323.76 202.264 1323.76 201.144C1323.76 200.168 1324.03 199.288 1324.55 198.504C1325.08 197.704 1325.87 197.072 1326.93 196.608C1328 196.144 1329.31 195.912 1330.84 195.912C1331.91 195.912 1332.96 196.04 1333.99 196.296C1335.01 196.552 1335.91 196.92 1336.67 197.4L1335.47 200.352C1333.92 199.472 1332.37 199.032 1330.82 199.032C1329.73 199.032 1328.92 199.208 1328.39 199.56C1327.88 199.912 1327.63 200.376 1327.63 200.952C1327.63 201.528 1327.92 201.96 1328.51 202.248C1329.12 202.52 1330.04 202.792 1331.27 203.064C1332.55 203.368 1333.6 203.672 1334.42 203.976C1335.23 204.28 1335.93 204.76 1336.51 205.416C1337.1 206.072 1337.39 206.96 1337.39 208.08C1337.39 209.04 1337.12 209.92 1336.58 210.72C1336.05 211.504 1335.25 212.128 1334.18 212.592C1333.11 213.056 1331.8 213.288 1330.27 213.288Z" fill="black"/>
<path d="M1344.5 199.368H1339.12V196.2H1353.76V199.368H1348.38V213H1344.5V199.368Z" fill="black"/>
<path d="M1364.23 213.288C1361.83 213.288 1359.96 212.624 1358.62 211.296C1357.29 209.968 1356.63 208.072 1356.63 205.608V196.2H1360.51V205.464C1360.51 208.472 1361.76 209.976 1364.26 209.976C1365.47 209.976 1366.4 209.616 1367.04 208.896C1367.68 208.16 1368 207.016 1368 205.464V196.2H1371.84V205.608C1371.84 208.072 1371.17 209.968 1369.83 211.296C1368.5 212.624 1366.63 213.288 1364.23 213.288Z" fill="black"/>
<path d="M1376.88 196.2H1384.52C1386.34 196.2 1387.95 196.552 1389.34 197.256C1390.75 197.944 1391.84 198.92 1392.6 200.184C1393.39 201.448 1393.78 202.92 1393.78 204.6C1393.78 206.28 1393.39 207.752 1392.6 209.016C1391.84 210.28 1390.75 211.264 1389.34 211.968C1387.95 212.656 1386.34 213 1384.52 213H1376.88V196.2ZM1384.32 209.808C1386 209.808 1387.34 209.344 1388.33 208.416C1389.34 207.472 1389.84 206.2 1389.84 204.6C1389.84 203 1389.34 201.736 1388.33 200.808C1387.34 199.864 1386 199.392 1384.32 199.392H1380.77V209.808H1384.32Z" fill="black"/>
<path d="M1397.91 196.2H1401.8V213H1397.91V196.2Z" fill="black"/>
<path d="M1415.12 213.288C1413.38 213.288 1411.8 212.912 1410.4 212.16C1409 211.408 1407.91 210.376 1407.11 209.064C1406.32 207.736 1405.93 206.248 1405.93 204.6C1405.93 202.952 1406.32 201.472 1407.11 200.16C1407.91 198.832 1409 197.792 1410.4 197.04C1411.8 196.288 1413.38 195.912 1415.12 195.912C1416.87 195.912 1418.44 196.288 1419.83 197.04C1421.22 197.792 1422.32 198.832 1423.12 200.16C1423.92 201.472 1424.32 202.952 1424.32 204.6C1424.32 206.248 1423.92 207.736 1423.12 209.064C1422.32 210.376 1421.22 211.408 1419.83 212.16C1418.44 212.912 1416.87 213.288 1415.12 213.288ZM1415.12 209.976C1416.12 209.976 1417.01 209.752 1417.81 209.304C1418.61 208.84 1419.24 208.2 1419.68 207.384C1420.15 206.568 1420.38 205.64 1420.38 204.6C1420.38 203.56 1420.15 202.632 1419.68 201.816C1419.24 201 1418.61 200.368 1417.81 199.92C1417.01 199.456 1416.12 199.224 1415.12 199.224C1414.13 199.224 1413.24 199.456 1412.44 199.92C1411.64 200.368 1411 201 1410.54 201.816C1410.09 202.632 1409.87 203.56 1409.87 204.6C1409.87 205.64 1410.09 206.568 1410.54 207.384C1411 208.2 1411.64 208.84 1412.44 209.304C1413.24 209.752 1414.13 209.976 1415.12 209.976Z" fill="black"/>
<rect x="1276.5" y="377.5" width="195" height="195" fill="white" stroke="#63646D" stroke-width="5"/>
<path d="M1336.23 469.288C1334.52 469.288 1332.97 468.92 1331.58 468.184C1330.2 467.432 1329.11 466.4 1328.31 465.088C1327.53 463.76 1327.14 462.264 1327.14 460.6C1327.14 458.936 1327.53 457.448 1328.31 456.136C1329.11 454.808 1330.2 453.776 1331.58 453.04C1332.97 452.288 1334.53 451.912 1336.26 451.912C1337.71 451.912 1339.03 452.168 1340.19 452.68C1341.38 453.192 1342.37 453.928 1343.17 454.888L1340.67 457.192C1339.54 455.88 1338.13 455.224 1336.45 455.224C1335.41 455.224 1334.48 455.456 1333.67 455.92C1332.85 456.368 1332.21 457 1331.75 457.816C1331.3 458.632 1331.07 459.56 1331.07 460.6C1331.07 461.64 1331.3 462.568 1331.75 463.384C1332.21 464.2 1332.85 464.84 1333.67 465.304C1334.48 465.752 1335.41 465.976 1336.45 465.976C1338.13 465.976 1339.54 465.312 1340.67 463.984L1343.17 466.288C1342.37 467.264 1341.38 468.008 1340.19 468.52C1339.01 469.032 1337.69 469.288 1336.23 469.288Z" fill="black"/>
<path d="M1346.99 452.2H1350.88V465.832H1359.31V469H1346.99V452.2Z" fill="black"/>
<path d="M1370.53 469.288C1368.79 469.288 1367.21 468.912 1365.81 468.16C1364.41 467.408 1363.32 466.376 1362.52 465.064C1361.73 463.736 1361.34 462.248 1361.34 460.6C1361.34 458.952 1361.73 457.472 1362.52 456.16C1363.32 454.832 1364.41 453.792 1365.81 453.04C1367.21 452.288 1368.79 451.912 1370.53 451.912C1372.28 451.912 1373.85 452.288 1375.24 453.04C1376.63 453.792 1377.73 454.832 1378.53 456.16C1379.33 457.472 1379.73 458.952 1379.73 460.6C1379.73 462.248 1379.33 463.736 1378.53 465.064C1377.73 466.376 1376.63 467.408 1375.24 468.16C1373.85 468.912 1372.28 469.288 1370.53 469.288ZM1370.53 465.976C1371.53 465.976 1372.42 465.752 1373.22 465.304C1374.02 464.84 1374.65 464.2 1375.09 463.384C1375.56 462.568 1375.79 461.64 1375.79 460.6C1375.79 459.56 1375.56 458.632 1375.09 457.816C1374.65 457 1374.02 456.368 1373.22 455.92C1372.42 455.456 1371.53 455.224 1370.53 455.224C1369.54 455.224 1368.65 455.456 1367.85 455.92C1367.05 456.368 1366.41 457 1365.95 457.816C1365.5 458.632 1365.28 459.56 1365.28 460.6C1365.28 461.64 1365.5 462.568 1365.95 463.384C1366.41 464.2 1367.05 464.84 1367.85 465.304C1368.65 465.752 1369.54 465.976 1370.53 465.976Z" fill="black"/>
<path d="M1391.31 469.288C1388.91 469.288 1387.04 468.624 1385.7 467.296C1384.37 465.968 1383.7 464.072 1383.7 461.608V452.2H1387.59V461.464C1387.59 464.472 1388.84 465.976 1391.34 465.976C1392.55 465.976 1393.48 465.616 1394.12 464.896C1394.76 464.16 1395.08 463.016 1395.08 461.464V452.2H1398.92V461.608C1398.92 464.072 1398.25 465.968 1396.9 467.296C1395.58 468.624 1393.71 469.288 1391.31 469.288Z" fill="black"/>
<path d="M1403.96 452.2H1411.59C1413.42 452.2 1415.03 452.552 1416.42 453.256C1417.83 453.944 1418.91 454.92 1419.68 456.184C1420.47 457.448 1420.86 458.92 1420.86 460.6C1420.86 462.28 1420.47 463.752 1419.68 465.016C1418.91 466.28 1417.83 467.264 1416.42 467.968C1415.03 468.656 1413.42 469 1411.59 469H1403.96V452.2ZM1411.4 465.808C1413.08 465.808 1414.42 465.344 1415.41 464.416C1416.42 463.472 1416.92 462.2 1416.92 460.6C1416.92 459 1416.42 457.736 1415.41 456.808C1414.42 455.864 1413.08 455.392 1411.4 455.392H1407.85V465.808H1411.4Z" fill="black"/>
<path d="M1315.57 498.288C1314.24 498.288 1312.95 498.112 1311.7 497.76C1310.47 497.392 1309.48 496.92 1308.73 496.344L1310.05 493.416C1310.77 493.944 1311.62 494.368 1312.61 494.688C1313.61 495.008 1314.6 495.168 1315.59 495.168C1316.69 495.168 1317.51 495.008 1318.04 494.688C1318.57 494.352 1318.83 493.912 1318.83 493.368C1318.83 492.968 1318.67 492.64 1318.35 492.384C1318.05 492.112 1317.65 491.896 1317.15 491.736C1316.67 491.576 1316.01 491.4 1315.18 491.208C1313.9 490.904 1312.85 490.6 1312.04 490.296C1311.22 489.992 1310.52 489.504 1309.93 488.832C1309.35 488.16 1309.06 487.264 1309.06 486.144C1309.06 485.168 1309.33 484.288 1309.85 483.504C1310.38 482.704 1311.17 482.072 1312.23 481.608C1313.3 481.144 1314.61 480.912 1316.14 480.912C1317.21 480.912 1318.26 481.04 1319.29 481.296C1320.31 481.552 1321.21 481.92 1321.97 482.4L1320.77 485.352C1319.22 484.472 1317.67 484.032 1316.12 484.032C1315.03 484.032 1314.22 484.208 1313.69 484.56C1313.18 484.912 1312.93 485.376 1312.93 485.952C1312.93 486.528 1313.22 486.96 1313.81 487.248C1314.42 487.52 1315.34 487.792 1316.57 488.064C1317.85 488.368 1318.9 488.672 1319.72 488.976C1320.53 489.28 1321.23 489.76 1321.81 490.416C1322.4 491.072 1322.69 491.96 1322.69 493.08C1322.69 494.04 1322.42 494.92 1321.88 495.72C1321.35 496.504 1320.55 497.128 1319.48 497.592C1318.41 498.056 1317.1 498.288 1315.57 498.288Z" fill="black"/>
<path d="M1339.56 494.88V498H1326.55V481.2H1339.25V484.32H1330.41V487.968H1338.21V490.992H1330.41V494.88H1339.56Z" fill="black"/>
<path d="M1354.56 498L1351.32 493.32H1351.12H1347.74V498H1343.85V481.2H1351.12C1352.61 481.2 1353.9 481.448 1354.99 481.944C1356.09 482.44 1356.94 483.144 1357.53 484.056C1358.12 484.968 1358.42 486.048 1358.42 487.296C1358.42 488.544 1358.12 489.624 1357.51 490.536C1356.92 491.432 1356.07 492.12 1354.96 492.6L1358.73 498H1354.56ZM1354.48 487.296C1354.48 486.352 1354.18 485.632 1353.57 485.136C1352.96 484.624 1352.08 484.368 1350.91 484.368H1347.74V490.224H1350.91C1352.08 490.224 1352.96 489.968 1353.57 489.456C1354.18 488.944 1354.48 488.224 1354.48 487.296Z" fill="black"/>
<path d="M1378.85 481.2L1371.58 498H1367.74L1360.49 481.2H1364.69L1369.8 493.2L1374.99 481.2H1378.85Z" fill="black"/>
<path d="M1381.45 481.2H1385.34V498H1381.45V481.2Z" fill="black"/>
<path d="M1398.57 498.288C1396.86 498.288 1395.31 497.92 1393.91 497.184C1392.54 496.432 1391.45 495.4 1390.65 494.088C1389.87 492.76 1389.47 491.264 1389.47 489.6C1389.47 487.936 1389.87 486.448 1390.65 485.136C1391.45 483.808 1392.54 482.776 1393.91 482.04C1395.31 481.288 1396.87 480.912 1398.59 480.912C1400.05 480.912 1401.36 481.168 1402.53 481.68C1403.71 482.192 1404.71 482.928 1405.51 483.888L1403.01 486.192C1401.87 484.88 1400.47 484.224 1398.79 484.224C1397.75 484.224 1396.82 484.456 1396 484.92C1395.19 485.368 1394.55 486 1394.08 486.816C1393.63 487.632 1393.41 488.56 1393.41 489.6C1393.41 490.64 1393.63 491.568 1394.08 492.384C1394.55 493.2 1395.19 493.84 1396 494.304C1396.82 494.752 1397.75 494.976 1398.79 494.976C1400.47 494.976 1401.87 494.312 1403.01 492.984L1405.51 495.288C1404.71 496.264 1403.71 497.008 1402.53 497.52C1401.35 498.032 1400.03 498.288 1398.57 498.288Z" fill="black"/>
<path d="M1422.34 494.88V498H1409.33V481.2H1422.03V484.32H1413.2V487.968H1421V490.992H1413.2V494.88H1422.34Z" fill="black"/>
<path d="M1432.15 498.288C1430.83 498.288 1429.54 498.112 1428.29 497.76C1427.06 497.392 1426.07 496.92 1425.31 496.344L1426.63 493.416C1427.35 493.944 1428.21 494.368 1429.2 494.688C1430.19 495.008 1431.19 495.168 1432.18 495.168C1433.28 495.168 1434.1 495.008 1434.63 494.688C1435.15 494.352 1435.42 493.912 1435.42 493.368C1435.42 492.968 1435.26 492.64 1434.94 492.384C1434.63 492.112 1434.23 491.896 1433.74 491.736C1433.26 491.576 1432.6 491.4 1431.77 491.208C1430.49 490.904 1429.44 490.6 1428.63 490.296C1427.81 489.992 1427.11 489.504 1426.51 488.832C1425.94 488.16 1425.65 487.264 1425.65 486.144C1425.65 485.168 1425.91 484.288 1426.44 483.504C1426.97 482.704 1427.76 482.072 1428.82 481.608C1429.89 481.144 1431.19 480.912 1432.73 480.912C1433.8 480.912 1434.85 481.04 1435.87 481.296C1436.9 481.552 1437.79 481.92 1438.56 482.4L1437.36 485.352C1435.81 484.472 1434.26 484.032 1432.71 484.032C1431.62 484.032 1430.81 484.208 1430.28 484.56C1429.77 484.912 1429.51 485.376 1429.51 485.952C1429.51 486.528 1429.81 486.96 1430.4 487.248C1431.01 487.52 1431.93 487.792 1433.16 488.064C1434.44 488.368 1435.49 488.672 1436.31 488.976C1437.12 489.28 1437.82 489.76 1438.39 490.416C1438.99 491.072 1439.28 491.96 1439.28 493.08C1439.28 494.04 1439.01 494.92 1438.47 495.72C1437.94 496.504 1437.14 497.128 1436.07 497.592C1434.99 498.056 1433.69 498.288 1432.15 498.288Z" fill="black"/>
<rect x="1276.5" y="662.5" width="195" height="195" fill="white" stroke="#63646D" stroke-width="5"/>
<path d="M1353.43 737.2H1357.32V754H1353.43V737.2Z" fill="black"/>
<path d="M1370.64 754.288C1368.9 754.288 1367.32 753.912 1365.91 753.16C1364.52 752.408 1363.42 751.376 1362.62 750.064C1361.84 748.736 1361.45 747.248 1361.45 745.6C1361.45 743.952 1361.84 742.472 1362.62 741.16C1363.42 739.832 1364.52 738.792 1365.91 738.04C1367.32 737.288 1368.9 736.912 1370.64 736.912C1372.38 736.912 1373.95 737.288 1375.34 738.04C1376.74 738.792 1377.83 739.832 1378.63 741.16C1379.43 742.472 1379.83 743.952 1379.83 745.6C1379.83 747.248 1379.43 748.736 1378.63 750.064C1377.83 751.376 1376.74 752.408 1375.34 753.16C1373.95 753.912 1372.38 754.288 1370.64 754.288ZM1370.64 750.976C1371.63 750.976 1372.53 750.752 1373.33 750.304C1374.13 749.84 1374.75 749.2 1375.2 748.384C1375.66 747.568 1375.9 746.64 1375.9 745.6C1375.9 744.56 1375.66 743.632 1375.2 742.816C1374.75 742 1374.13 741.368 1373.33 740.92C1372.53 740.456 1371.63 740.224 1370.64 740.224C1369.65 740.224 1368.75 740.456 1367.95 740.92C1367.15 741.368 1366.52 742 1366.06 742.816C1365.61 743.632 1365.38 744.56 1365.38 745.6C1365.38 746.64 1365.61 747.568 1366.06 748.384C1366.52 749.2 1367.15 749.84 1367.95 750.304C1368.75 750.752 1369.65 750.976 1370.64 750.976Z" fill="black"/>
<path d="M1387.2 740.368H1381.82V737.2H1396.46V740.368H1391.09V754H1387.2V740.368Z" fill="black"/>
<path d="M1308.9 766.2C1310.39 766.2 1311.68 766.448 1312.77 766.944C1313.87 767.44 1314.72 768.144 1315.31 769.056C1315.9 769.968 1316.2 771.048 1316.2 772.296C1316.2 773.528 1315.9 774.608 1315.31 775.536C1314.72 776.448 1313.87 777.152 1312.77 777.648C1311.68 778.128 1310.39 778.368 1308.9 778.368H1305.52V783H1301.63V766.2H1308.9ZM1308.69 775.2C1309.86 775.2 1310.74 774.952 1311.35 774.456C1311.96 773.944 1312.26 773.224 1312.26 772.296C1312.26 771.352 1311.96 770.632 1311.35 770.136C1310.74 769.624 1309.86 769.368 1308.69 769.368H1305.52V775.2H1308.69Z" fill="black"/>
<path d="M1320.18 766.2H1324.06V779.832H1332.49V783H1320.18V766.2Z" fill="black"/>
<path d="M1347.06 779.4H1339.26L1337.78 783H1333.79L1341.28 766.2H1345.12L1352.63 783H1348.55L1347.06 779.4ZM1345.84 776.448L1343.18 770.016L1340.51 776.448H1345.84Z" fill="black"/>
<path d="M1358.21 769.368H1352.84V766.2H1367.48V769.368H1362.1V783H1358.21V769.368Z" fill="black"/>
<path d="M1374.66 769.32V773.76H1382.43V776.88H1374.66V783H1370.77V766.2H1383.46V769.32H1374.66Z" fill="black"/>
<path d="M1395.27 783.288C1393.52 783.288 1391.95 782.912 1390.54 782.16C1389.15 781.408 1388.05 780.376 1387.25 779.064C1386.47 777.736 1386.08 776.248 1386.08 774.6C1386.08 772.952 1386.47 771.472 1387.25 770.16C1388.05 768.832 1389.15 767.792 1390.54 767.04C1391.95 766.288 1393.52 765.912 1395.27 765.912C1397.01 765.912 1398.58 766.288 1399.97 767.04C1401.36 767.792 1402.46 768.832 1403.26 770.16C1404.06 771.472 1404.46 772.952 1404.46 774.6C1404.46 776.248 1404.06 777.736 1403.26 779.064C1402.46 780.376 1401.36 781.408 1399.97 782.16C1398.58 782.912 1397.01 783.288 1395.27 783.288ZM1395.27 779.976C1396.26 779.976 1397.16 779.752 1397.96 779.304C1398.76 778.84 1399.38 778.2 1399.83 777.384C1400.29 776.568 1400.52 775.64 1400.52 774.6C1400.52 773.56 1400.29 772.632 1399.83 771.816C1399.38 771 1398.76 770.368 1397.96 769.92C1397.16 769.456 1396.26 769.224 1395.27 769.224C1394.28 769.224 1393.38 769.456 1392.58 769.92C1391.78 770.368 1391.15 771 1390.68 771.816C1390.24 772.632 1390.01 773.56 1390.01 774.6C1390.01 775.64 1390.24 776.568 1390.68 777.384C1391.15 778.2 1391.78 778.84 1392.58 779.304C1393.38 779.752 1394.28 779.976 1395.27 779.976Z" fill="black"/>
<path d="M1419.29 783L1416.05 778.32H1415.85H1412.47V783H1408.58V766.2H1415.85C1417.34 766.2 1418.63 766.448 1419.72 766.944C1420.82 767.44 1421.67 768.144 1422.26 769.056C1422.85 769.968 1423.15 771.048 1423.15 772.296C1423.15 773.544 1422.85 774.624 1422.24 775.536C1421.65 776.432 1420.8 777.12 1419.69 777.6L1423.46 783H1419.29ZM1419.21 772.296C1419.21 771.352 1418.91 770.632 1418.3 770.136C1417.69 769.624 1416.81 769.368 1415.64 769.368H1412.47V775.224H1415.64C1416.81 775.224 1417.69 774.968 1418.3 774.456C1418.91 773.944 1419.21 773.224 1419.21 772.296Z" fill="black"/>
<path d="M1442.72 783L1442.69 772.92L1437.75 781.224H1436L1431.08 773.136V783H1427.43V766.2H1430.65L1436.93 776.64L1443.13 766.2H1446.32L1446.37 783H1442.72Z" fill="black"/>
<line x1="200" y1="473.5" x2="637" y2="473.5" stroke="black" stroke-width="3"/>
<path d="M240.939 21.9393C240.354 22.5251 240.354 23.4749 240.939 24.0607L250.485 33.6066C251.071 34.1924 252.021 34.1924 252.607 33.6066C253.192 33.0208 253.192 32.0711 252.607 31.4853L244.121 23L252.607 14.5147C253.192 13.9289 253.192 12.9792 252.607 12.3934C252.021 11.8076 251.071 11.8076 250.485 12.3934L240.939 21.9393ZM1233.06 24.0607C1233.65 23.4749 1233.65 22.5251 1233.06 21.9393L1223.51 12.3934C1222.93 11.8076 1221.98 11.8076 1221.39 12.3934C1220.81 12.9792 1220.81 13.9289 1221.39 14.5147L1229.88 23L1221.39 31.4853C1220.81 32.0711 1220.81 33.0208 1221.39 33.6066C1221.98 34.1924 1222.93 34.1924 1223.51 33.6066L1233.06 24.0607ZM242 24.5H1232V21.5H242V24.5Z" fill="black"/>
<line x1="197.815" y1="188.741" x2="637.815" y2="473.741" stroke="black" stroke-width="3"/>
<line x1="196.185" y1="758.741" x2="636.185" y2="473.741" stroke="black" stroke-width="3"/>
<line y1="-1.5" x2="437" y2="-1.5" transform="matrix(-1 8.74228e-08 8.74228e-08 1 1274 475)" stroke="black" stroke-width="3"/>
<line y1="-1.5" x2="524.238" y2="-1.5" transform="matrix(-0.839314 0.543647 0.543647 0.839314 1277 190)" stroke="black" stroke-width="3"/>
<line x1="1276.18" y1="761.259" x2="836.185" y2="476.259" stroke="black" stroke-width="3"/>
</svg>
