<svg width="1007" height="861" viewBox="0 0 1007 861" fill="none" xmlns="http://www.w3.org/2000/svg">
<rect x="100" y="723" width="270" height="138" rx="20" fill="#376BC3"/>
<path d="M163.298 802.336C160.498 802.336 158.314 801.561 156.746 800.012C155.196 798.463 154.422 796.251 154.422 793.376V782.4H158.958V793.208C158.958 796.717 160.414 798.472 163.326 798.472C164.744 798.472 165.827 798.052 166.574 797.212C167.32 796.353 167.694 795.019 167.694 793.208V782.4H172.174V793.376C172.174 796.251 171.39 798.463 169.822 800.012C168.272 801.561 166.098 802.336 163.298 802.336ZM194.632 782.4V802H190.908L181.136 790.1V802H176.656V782.4H180.408L190.152 794.3V782.4H194.632ZM198.961 786.936H203.329V802H198.961V786.936ZM201.145 784.836C200.343 784.836 199.689 784.603 199.185 784.136C198.681 783.669 198.429 783.091 198.429 782.4C198.429 781.709 198.681 781.131 199.185 780.664C199.689 780.197 200.343 779.964 201.145 779.964C201.948 779.964 202.601 780.188 203.105 780.636C203.609 781.084 203.861 781.644 203.861 782.316C203.861 783.044 203.609 783.651 203.105 784.136C202.601 784.603 201.948 784.836 201.145 784.836ZM207.691 782.4H216.595C218.723 782.4 220.599 782.811 222.223 783.632C223.866 784.435 225.135 785.573 226.031 787.048C226.946 788.523 227.403 790.24 227.403 792.2C227.403 794.16 226.946 795.877 226.031 797.352C225.135 798.827 223.866 799.975 222.223 800.796C220.599 801.599 218.723 802 216.595 802H207.691V782.4ZM216.371 798.276C218.331 798.276 219.89 797.735 221.047 796.652C222.223 795.551 222.811 794.067 222.811 792.2C222.811 790.333 222.223 788.859 221.047 787.776C219.89 786.675 218.331 786.124 216.371 786.124H212.227V798.276H216.371ZM253.93 798.36V802H238.754V782.4H253.566V786.04H243.262V790.296H252.362V793.824H243.262V798.36H253.93ZM257.539 782.4H266.443C268.571 782.4 270.447 782.811 272.071 783.632C273.714 784.435 274.983 785.573 275.879 787.048C276.794 788.523 277.251 790.24 277.251 792.2C277.251 794.16 276.794 795.877 275.879 797.352C274.983 798.827 273.714 799.975 272.071 800.796C270.447 801.599 268.571 802 266.443 802H257.539V782.4ZM266.219 798.276C268.179 798.276 269.738 797.735 270.895 796.652C272.071 795.551 272.659 794.067 272.659 792.2C272.659 790.333 272.071 788.859 270.895 787.776C269.738 786.675 268.179 786.124 266.219 786.124H262.075V798.276H266.219ZM293.916 791.892H298.06V799.844C296.996 800.647 295.764 801.263 294.364 801.692C292.964 802.121 291.554 802.336 290.136 802.336C288.101 802.336 286.272 801.907 284.648 801.048C283.024 800.171 281.745 798.967 280.812 797.436C279.897 795.887 279.44 794.141 279.44 792.2C279.44 790.259 279.897 788.523 280.812 786.992C281.745 785.443 283.033 784.239 284.676 783.38C286.318 782.503 288.166 782.064 290.22 782.064C291.937 782.064 293.496 782.353 294.896 782.932C296.296 783.511 297.472 784.351 298.424 785.452L295.512 788.14C294.112 786.665 292.422 785.928 290.444 785.928C289.193 785.928 288.082 786.189 287.112 786.712C286.141 787.235 285.385 787.972 284.844 788.924C284.302 789.876 284.032 790.968 284.032 792.2C284.032 793.413 284.302 794.496 284.844 795.448C285.385 796.4 286.132 797.147 287.084 797.688C288.054 798.211 289.156 798.472 290.388 798.472C291.694 798.472 292.87 798.192 293.916 797.632V791.892ZM317.449 798.36V802H302.273V782.4H317.085V786.04H306.781V790.296H315.881V793.824H306.781V798.36H317.449Z" fill="white"/>
<rect x="420" y="362" width="270" height="138" rx="20" fill="#376BC3"/>
<path d="M491.405 441.336C488.605 441.336 486.421 440.561 484.853 439.012C483.304 437.463 482.529 435.251 482.529 432.376V421.4H487.065V432.208C487.065 435.717 488.521 437.472 491.433 437.472C492.852 437.472 493.934 437.052 494.681 436.212C495.428 435.353 495.801 434.019 495.801 432.208V421.4H500.281V432.376C500.281 435.251 499.497 437.463 497.929 439.012C496.38 440.561 494.205 441.336 491.405 441.336ZM522.739 421.4V441H519.015L509.243 429.1V441H504.763V421.4H508.515L518.259 433.3V421.4H522.739ZM527.069 425.936H531.437V441H527.069V425.936ZM529.253 423.836C528.45 423.836 527.797 423.603 527.293 423.136C526.789 422.669 526.537 422.091 526.537 421.4C526.537 420.709 526.789 420.131 527.293 419.664C527.797 419.197 528.45 418.964 529.253 418.964C530.055 418.964 530.709 419.188 531.213 419.636C531.717 420.084 531.969 420.644 531.969 421.316C531.969 422.044 531.717 422.651 531.213 423.136C530.709 423.603 530.055 423.836 529.253 423.836ZM535.799 421.4H544.703C546.831 421.4 548.707 421.811 550.331 422.632C551.973 423.435 553.243 424.573 554.139 426.048C555.053 427.523 555.511 429.24 555.511 431.2C555.511 433.16 555.053 434.877 554.139 436.352C553.243 437.827 551.973 438.975 550.331 439.796C548.707 440.599 546.831 441 544.703 441H535.799V421.4ZM544.479 437.276C546.439 437.276 547.997 436.735 549.155 435.652C550.331 434.551 550.919 433.067 550.919 431.2C550.919 429.333 550.331 427.859 549.155 426.776C547.997 425.675 546.439 425.124 544.479 425.124H540.335V437.276H544.479ZM584.837 421.4V441H580.301V432.964H571.397V441H566.861V421.4H571.397V429.128H580.301V421.4H584.837ZM598.182 441.336C595.382 441.336 593.198 440.561 591.63 439.012C590.081 437.463 589.306 435.251 589.306 432.376V421.4H593.842V432.208C593.842 435.717 595.298 437.472 598.21 437.472C599.629 437.472 600.712 437.052 601.458 436.212C602.205 435.353 602.578 434.019 602.578 432.208V421.4H607.058V432.376C607.058 435.251 606.274 437.463 604.706 439.012C603.157 440.561 600.982 441.336 598.182 441.336ZM625.933 430.808C627.053 431.163 627.93 431.76 628.565 432.6C629.199 433.421 629.517 434.439 629.517 435.652C629.517 437.369 628.845 438.695 627.501 439.628C626.175 440.543 624.234 441 621.677 441H611.541V421.4H621.117C623.506 421.4 625.335 421.857 626.605 422.772C627.893 423.687 628.537 424.928 628.537 426.496C628.537 427.448 628.303 428.297 627.837 429.044C627.389 429.791 626.754 430.379 625.933 430.808ZM616.049 424.816V429.436H620.557C621.677 429.436 622.526 429.24 623.105 428.848C623.683 428.456 623.973 427.877 623.973 427.112C623.973 426.347 623.683 425.777 623.105 425.404C622.526 425.012 621.677 424.816 620.557 424.816H616.049ZM621.341 437.584C622.535 437.584 623.431 437.388 624.029 436.996C624.645 436.604 624.953 435.997 624.953 435.176C624.953 433.552 623.749 432.74 621.341 432.74H616.049V437.584H621.341Z" fill="white"/>
<rect x="419" y="723" width="270" height="138" rx="20" fill="#376BC3"/>
<path d="M482.298 802.336C479.498 802.336 477.314 801.561 475.746 800.012C474.196 798.463 473.422 796.251 473.422 793.376V782.4H477.958V793.208C477.958 796.717 479.414 798.472 482.326 798.472C483.744 798.472 484.827 798.052 485.574 797.212C486.32 796.353 486.694 795.019 486.694 793.208V782.4H491.174V793.376C491.174 796.251 490.39 798.463 488.822 800.012C487.272 801.561 485.098 802.336 482.298 802.336ZM513.632 782.4V802H509.908L500.136 790.1V802H495.656V782.4H499.408L509.152 794.3V782.4H513.632ZM517.961 786.936H522.329V802H517.961V786.936ZM520.145 784.836C519.343 784.836 518.689 784.603 518.185 784.136C517.681 783.669 517.429 783.091 517.429 782.4C517.429 781.709 517.681 781.131 518.185 780.664C518.689 780.197 519.343 779.964 520.145 779.964C520.948 779.964 521.601 780.188 522.105 780.636C522.609 781.084 522.861 781.644 522.861 782.316C522.861 783.044 522.609 783.651 522.105 784.136C521.601 784.603 520.948 784.836 520.145 784.836ZM526.691 782.4H535.595C537.723 782.4 539.599 782.811 541.223 783.632C542.866 784.435 544.135 785.573 545.031 787.048C545.946 788.523 546.403 790.24 546.403 792.2C546.403 794.16 545.946 795.877 545.031 797.352C544.135 798.827 542.866 799.975 541.223 800.796C539.599 801.599 537.723 802 535.595 802H526.691V782.4ZM535.371 798.276C537.331 798.276 538.89 797.735 540.047 796.652C541.223 795.551 541.811 794.067 541.811 792.2C541.811 790.333 541.223 788.859 540.047 787.776C538.89 786.675 537.331 786.124 535.371 786.124H531.227V798.276H535.371ZM572.93 798.36V802H557.754V782.4H572.566V786.04H562.262V790.296H571.362V793.824H562.262V798.36H572.93ZM576.539 782.4H585.443C587.571 782.4 589.447 782.811 591.071 783.632C592.714 784.435 593.983 785.573 594.879 787.048C595.794 788.523 596.251 790.24 596.251 792.2C596.251 794.16 595.794 795.877 594.879 797.352C593.983 798.827 592.714 799.975 591.071 800.796C589.447 801.599 587.571 802 585.443 802H576.539V782.4ZM585.219 798.276C587.179 798.276 588.738 797.735 589.895 796.652C591.071 795.551 591.659 794.067 591.659 792.2C591.659 790.333 591.071 788.859 589.895 787.776C588.738 786.675 587.179 786.124 585.219 786.124H581.075V798.276H585.219ZM612.916 791.892H617.06V799.844C615.996 800.647 614.764 801.263 613.364 801.692C611.964 802.121 610.554 802.336 609.136 802.336C607.101 802.336 605.272 801.907 603.648 801.048C602.024 800.171 600.745 798.967 599.812 797.436C598.897 795.887 598.44 794.141 598.44 792.2C598.44 790.259 598.897 788.523 599.812 786.992C600.745 785.443 602.033 784.239 603.676 783.38C605.318 782.503 607.166 782.064 609.22 782.064C610.937 782.064 612.496 782.353 613.896 782.932C615.296 783.511 616.472 784.351 617.424 785.452L614.512 788.14C613.112 786.665 611.422 785.928 609.444 785.928C608.193 785.928 607.082 786.189 606.112 786.712C605.141 787.235 604.385 787.972 603.844 788.924C603.302 789.876 603.032 790.968 603.032 792.2C603.032 793.413 603.302 794.496 603.844 795.448C604.385 796.4 605.132 797.147 606.084 797.688C607.054 798.211 608.156 798.472 609.388 798.472C610.694 798.472 611.87 798.192 612.916 797.632V791.892ZM636.449 798.36V802H621.273V782.4H636.085V786.04H625.781V790.296H634.881V793.824H625.781V798.36H636.449Z" fill="white"/>
<rect x="737" y="723" width="270" height="138" rx="20" fill="#376BC3"/>
<path d="M800.298 802.336C797.498 802.336 795.314 801.561 793.746 800.012C792.196 798.463 791.422 796.251 791.422 793.376V782.4H795.958V793.208C795.958 796.717 797.414 798.472 800.326 798.472C801.744 798.472 802.827 798.052 803.574 797.212C804.32 796.353 804.694 795.019 804.694 793.208V782.4H809.174V793.376C809.174 796.251 808.39 798.463 806.822 800.012C805.272 801.561 803.098 802.336 800.298 802.336ZM831.632 782.4V802H827.908L818.136 790.1V802H813.656V782.4H817.408L827.152 794.3V782.4H831.632ZM835.961 786.936H840.329V802H835.961V786.936ZM838.145 784.836C837.343 784.836 836.689 784.603 836.185 784.136C835.681 783.669 835.429 783.091 835.429 782.4C835.429 781.709 835.681 781.131 836.185 780.664C836.689 780.197 837.343 779.964 838.145 779.964C838.948 779.964 839.601 780.188 840.105 780.636C840.609 781.084 840.861 781.644 840.861 782.316C840.861 783.044 840.609 783.651 840.105 784.136C839.601 784.603 838.948 784.836 838.145 784.836ZM844.691 782.4H853.595C855.723 782.4 857.599 782.811 859.223 783.632C860.866 784.435 862.135 785.573 863.031 787.048C863.946 788.523 864.403 790.24 864.403 792.2C864.403 794.16 863.946 795.877 863.031 797.352C862.135 798.827 860.866 799.975 859.223 800.796C857.599 801.599 855.723 802 853.595 802H844.691V782.4ZM853.371 798.276C855.331 798.276 856.89 797.735 858.047 796.652C859.223 795.551 859.811 794.067 859.811 792.2C859.811 790.333 859.223 788.859 858.047 787.776C856.89 786.675 855.331 786.124 853.371 786.124H849.227V798.276H853.371ZM890.93 798.36V802H875.754V782.4H890.566V786.04H880.262V790.296H889.362V793.824H880.262V798.36H890.93ZM894.539 782.4H903.443C905.571 782.4 907.447 782.811 909.071 783.632C910.714 784.435 911.983 785.573 912.879 787.048C913.794 788.523 914.251 790.24 914.251 792.2C914.251 794.16 913.794 795.877 912.879 797.352C911.983 798.827 910.714 799.975 909.071 800.796C907.447 801.599 905.571 802 903.443 802H894.539V782.4ZM903.219 798.276C905.179 798.276 906.738 797.735 907.895 796.652C909.071 795.551 909.659 794.067 909.659 792.2C909.659 790.333 909.071 788.859 907.895 787.776C906.738 786.675 905.179 786.124 903.219 786.124H899.075V798.276H903.219ZM930.916 791.892H935.06V799.844C933.996 800.647 932.764 801.263 931.364 801.692C929.964 802.121 928.554 802.336 927.136 802.336C925.101 802.336 923.272 801.907 921.648 801.048C920.024 800.171 918.745 798.967 917.812 797.436C916.897 795.887 916.44 794.141 916.44 792.2C916.44 790.259 916.897 788.523 917.812 786.992C918.745 785.443 920.033 784.239 921.676 783.38C923.318 782.503 925.166 782.064 927.22 782.064C928.937 782.064 930.496 782.353 931.896 782.932C933.296 783.511 934.472 784.351 935.424 785.452L932.512 788.14C931.112 786.665 929.422 785.928 927.444 785.928C926.193 785.928 925.082 786.189 924.112 786.712C923.141 787.235 922.385 787.972 921.844 788.924C921.302 789.876 921.032 790.968 921.032 792.2C921.032 793.413 921.302 794.496 921.844 795.448C922.385 796.4 923.132 797.147 924.084 797.688C925.054 798.211 926.156 798.472 927.388 798.472C928.694 798.472 929.87 798.192 930.916 797.632V791.892ZM954.449 798.36V802H939.273V782.4H954.085V786.04H943.781V790.296H952.881V793.824H943.781V798.36H954.449Z" fill="white"/>
<rect x="100" width="270" height="138" rx="20" fill="#376BC3"/>
<path d="M156.249 79.336C153.449 79.336 151.265 78.5613 149.697 77.012C148.147 75.4627 147.373 73.2507 147.373 70.376V59.4H151.909V70.208C151.909 73.7173 153.365 75.472 156.277 75.472C157.695 75.472 158.778 75.052 159.525 74.212C160.271 73.3533 160.645 72.0187 160.645 70.208V59.4H165.125V70.376C165.125 73.2507 164.341 75.4627 162.773 77.012C161.223 78.5613 159.049 79.336 156.249 79.336ZM187.583 59.4V79H183.859L174.087 67.1V79H169.607V59.4H173.359L183.103 71.3V59.4H187.583ZM191.912 63.936H196.28V79H191.912V63.936ZM194.096 61.836C193.294 61.836 192.64 61.6027 192.136 61.136C191.632 60.6693 191.38 60.0907 191.38 59.4C191.38 58.7093 191.632 58.1307 192.136 57.664C192.64 57.1973 193.294 56.964 194.096 56.964C194.899 56.964 195.552 57.188 196.056 57.636C196.56 58.084 196.812 58.644 196.812 59.316C196.812 60.044 196.56 60.6507 196.056 61.136C195.552 61.6027 194.899 61.836 194.096 61.836ZM200.642 59.4H209.546C211.674 59.4 213.55 59.8107 215.174 60.632C216.817 61.4347 218.086 62.5733 218.982 64.048C219.897 65.5227 220.354 67.24 220.354 69.2C220.354 71.16 219.897 72.8773 218.982 74.352C218.086 75.8267 216.817 76.9747 215.174 77.796C213.55 78.5987 211.674 79 209.546 79H200.642V59.4ZM209.322 75.276C211.282 75.276 212.841 74.7347 213.998 73.652C215.174 72.5507 215.762 71.0667 215.762 69.2C215.762 67.3333 215.174 65.8587 213.998 64.776C212.841 63.6747 211.282 63.124 209.322 63.124H205.178V75.276H209.322ZM238.145 79.336C236.596 79.336 235.093 79.1307 233.637 78.72C232.2 78.2907 231.042 77.74 230.165 77.068L231.705 73.652C232.545 74.268 233.544 74.7627 234.701 75.136C235.858 75.5093 237.016 75.696 238.173 75.696C239.461 75.696 240.413 75.5093 241.029 75.136C241.645 74.744 241.953 74.2307 241.953 73.596C241.953 73.1293 241.766 72.7467 241.393 72.448C241.038 72.1307 240.572 71.8787 239.993 71.692C239.433 71.5053 238.668 71.3 237.697 71.076C236.204 70.7213 234.981 70.3667 234.029 70.012C233.077 69.6573 232.256 69.088 231.565 68.304C230.893 67.52 230.557 66.4747 230.557 65.168C230.557 64.0293 230.865 63.0027 231.481 62.088C232.097 61.1547 233.021 60.4173 234.253 59.876C235.504 59.3347 237.025 59.064 238.817 59.064C240.068 59.064 241.29 59.2133 242.485 59.512C243.68 59.8107 244.725 60.24 245.621 60.8L244.221 64.244C242.41 63.2173 240.6 62.704 238.789 62.704C237.52 62.704 236.577 62.9093 235.961 63.32C235.364 63.7307 235.065 64.272 235.065 64.944C235.065 65.616 235.41 66.12 236.101 66.456C236.81 66.7733 237.884 67.0907 239.321 67.408C240.814 67.7627 242.037 68.1173 242.989 68.472C243.941 68.8267 244.753 69.3867 245.425 70.152C246.116 70.9173 246.461 71.9533 246.461 73.26C246.461 74.38 246.144 75.4067 245.509 76.34C244.893 77.2547 243.96 77.9827 242.709 78.524C241.458 79.0653 239.937 79.336 238.145 79.336ZM258.968 78.272C258.539 78.5893 258.007 78.832 257.372 79C256.756 79.1493 256.103 79.224 255.412 79.224C253.62 79.224 252.23 78.7667 251.24 77.852C250.27 76.9373 249.784 75.5933 249.784 73.82V67.632H247.46V64.272H249.784V60.604H254.152V64.272H257.904V67.632H254.152V73.764C254.152 74.3987 254.311 74.8933 254.628 75.248C254.964 75.584 255.431 75.752 256.028 75.752C256.719 75.752 257.307 75.5653 257.792 75.192L258.968 78.272ZM276.596 63.936V79H272.452V77.208C271.874 77.8613 271.183 78.3653 270.38 78.72C269.578 79.056 268.71 79.224 267.776 79.224C265.798 79.224 264.23 78.6547 263.072 77.516C261.915 76.3773 261.336 74.688 261.336 72.448V63.936H265.704V71.804C265.704 74.2307 266.722 75.444 268.756 75.444C269.802 75.444 270.642 75.108 271.276 74.436C271.911 73.7453 272.228 72.728 272.228 71.384V63.936H276.596ZM295.987 58.224V79H291.815V77.264C290.732 78.5707 289.164 79.224 287.111 79.224C285.692 79.224 284.404 78.9067 283.247 78.272C282.108 77.6373 281.212 76.732 280.559 75.556C279.906 74.38 279.579 73.0173 279.579 71.468C279.579 69.9187 279.906 68.556 280.559 67.38C281.212 66.204 282.108 65.2987 283.247 64.664C284.404 64.0293 285.692 63.712 287.111 63.712C289.034 63.712 290.536 64.3187 291.619 65.532V58.224H295.987ZM287.867 75.64C288.968 75.64 289.883 75.2667 290.611 74.52C291.339 73.7547 291.703 72.7373 291.703 71.468C291.703 70.1987 291.339 69.1907 290.611 68.444C289.883 67.6787 288.968 67.296 287.867 67.296C286.747 67.296 285.823 67.6787 285.095 68.444C284.367 69.1907 284.003 70.1987 284.003 71.468C284.003 72.7373 284.367 73.7547 285.095 74.52C285.823 75.2667 286.747 75.64 287.867 75.64ZM300.03 63.936H304.398V79H300.03V63.936ZM302.214 61.836C301.411 61.836 300.758 61.6027 300.254 61.136C299.75 60.6693 299.498 60.0907 299.498 59.4C299.498 58.7093 299.75 58.1307 300.254 57.664C300.758 57.1973 301.411 56.964 302.214 56.964C303.016 56.964 303.67 57.188 304.174 57.636C304.678 58.084 304.93 58.644 304.93 59.316C304.93 60.044 304.678 60.6507 304.174 61.136C303.67 61.6027 303.016 61.836 302.214 61.836ZM315.62 79.224C314.033 79.224 312.605 78.8973 311.336 78.244C310.085 77.572 309.105 76.648 308.396 75.472C307.686 74.296 307.332 72.9613 307.332 71.468C307.332 69.9747 307.686 68.64 308.396 67.464C309.105 66.288 310.085 65.3733 311.336 64.72C312.605 64.048 314.033 63.712 315.62 63.712C317.206 63.712 318.625 64.048 319.876 64.72C321.126 65.3733 322.106 66.288 322.816 67.464C323.525 68.64 323.88 69.9747 323.88 71.468C323.88 72.9613 323.525 74.296 322.816 75.472C322.106 76.648 321.126 77.572 319.876 78.244C318.625 78.8973 317.206 79.224 315.62 79.224ZM315.62 75.64C316.74 75.64 317.654 75.2667 318.364 74.52C319.092 73.7547 319.456 72.7373 319.456 71.468C319.456 70.1987 319.092 69.1907 318.364 68.444C317.654 67.6787 316.74 67.296 315.62 67.296C314.5 67.296 313.576 67.6787 312.848 68.444C312.12 69.1907 311.756 70.1987 311.756 71.468C311.756 72.7373 312.12 73.7547 312.848 74.52C313.576 75.2667 314.5 75.64 315.62 75.64Z" fill="white"/>
<rect x="422" width="270" height="138" rx="20" fill="#F6F6F6"/>
<path d="M476.953 32.4C479.492 32.4 481.489 33.0067 482.945 34.22C484.401 35.4333 485.129 37.104 485.129 39.232C485.129 41.36 484.401 43.0307 482.945 44.244C481.489 45.4573 479.492 46.064 476.953 46.064H472.109V52H469.309V32.4H476.953ZM476.869 43.628C478.642 43.628 479.996 43.2547 480.929 42.508C481.862 41.7427 482.329 40.6507 482.329 39.232C482.329 37.8133 481.862 36.7307 480.929 35.984C479.996 35.2187 478.642 34.836 476.869 34.836H472.109V43.628H476.869ZM502.956 37.16V52H500.408V49.76C499.867 50.5253 499.148 51.1227 498.252 51.552C497.375 51.9627 496.414 52.168 495.368 52.168C493.39 52.168 491.831 51.6267 490.692 50.544C489.554 49.4427 488.984 47.828 488.984 45.7V37.16H491.672V45.392C491.672 46.8293 492.018 47.9213 492.708 48.668C493.399 49.396 494.388 49.76 495.676 49.76C497.095 49.76 498.215 49.3307 499.036 48.472C499.858 47.6133 500.268 46.4 500.268 44.832V37.16H502.956ZM515.941 37.02C517.379 37.02 518.667 37.3373 519.805 37.972C520.944 38.6067 521.831 39.4933 522.465 40.632C523.119 41.7707 523.445 43.0867 523.445 44.58C523.445 46.0733 523.119 47.3987 522.465 48.556C521.831 49.6947 520.944 50.5813 519.805 51.216C518.667 51.8507 517.379 52.168 515.941 52.168C514.84 52.168 513.832 51.9533 512.917 51.524C512.003 51.0947 511.247 50.4693 510.649 49.648V52H508.073V31.224H510.761V39.4C511.359 38.616 512.105 38.028 513.001 37.636C513.897 37.2253 514.877 37.02 515.941 37.02ZM515.717 49.816C516.669 49.816 517.519 49.6013 518.265 49.172C519.031 48.724 519.628 48.108 520.057 47.324C520.505 46.5213 520.729 45.6067 520.729 44.58C520.729 43.5533 520.505 42.648 520.057 41.864C519.628 41.0613 519.031 40.4453 518.265 40.016C517.519 39.5867 516.669 39.372 515.717 39.372C514.784 39.372 513.935 39.5867 513.169 40.016C512.404 40.4453 511.807 41.0613 511.377 41.864C510.948 42.648 510.733 43.5533 510.733 44.58C510.733 45.6067 510.948 46.5213 511.377 47.324C511.807 48.108 512.404 48.724 513.169 49.172C513.935 49.6013 514.784 49.816 515.717 49.816ZM527.159 31.224H529.847V52H527.159V31.224ZM534.98 37.16H537.668V52H534.98V37.16ZM536.324 34.304C535.801 34.304 535.362 34.136 535.008 33.8C534.672 33.464 534.504 33.0533 534.504 32.568C534.504 32.0827 534.672 31.672 535.008 31.336C535.362 30.9813 535.801 30.804 536.324 30.804C536.846 30.804 537.276 30.972 537.612 31.308C537.966 31.6253 538.144 32.0267 538.144 32.512C538.144 33.016 537.966 33.4453 537.612 33.8C537.276 34.136 536.846 34.304 536.324 34.304ZM549.268 52.168C547.756 52.168 546.403 51.8413 545.208 51.188C544.032 50.5347 543.108 49.6387 542.436 48.5C541.764 47.3427 541.428 46.036 541.428 44.58C541.428 43.124 541.764 41.8267 542.436 40.688C543.108 39.5307 544.032 38.6347 545.208 38C546.403 37.3467 547.756 37.02 549.268 37.02C550.612 37.02 551.807 37.2907 552.852 37.832C553.916 38.3733 554.737 39.1573 555.316 40.184L553.272 41.5C552.805 40.7907 552.227 40.2587 551.536 39.904C550.845 39.5493 550.08 39.372 549.24 39.372C548.269 39.372 547.392 39.5867 546.608 40.016C545.843 40.4453 545.236 41.0613 544.788 41.864C544.359 42.648 544.144 43.5533 544.144 44.58C544.144 45.6253 544.359 46.5493 544.788 47.352C545.236 48.136 545.843 48.7427 546.608 49.172C547.392 49.6013 548.269 49.816 549.24 49.816C550.08 49.816 550.845 49.6387 551.536 49.284C552.227 48.9293 552.805 48.3973 553.272 47.688L555.316 48.976C554.737 50.0027 553.916 50.796 552.852 51.356C551.807 51.8973 550.612 52.168 549.268 52.168ZM575.472 52.224C573.512 52.224 571.738 51.7947 570.152 50.936C568.584 50.0587 567.352 48.864 566.456 47.352C565.56 45.8213 565.112 44.104 565.112 42.2C565.112 40.296 565.56 38.588 566.456 37.076C567.352 35.5453 568.593 34.3507 570.18 33.492C571.766 32.6147 573.54 32.176 575.5 32.176C577.03 32.176 578.43 32.4373 579.7 32.96C580.969 33.464 582.052 34.22 582.948 35.228L581.128 36.992C579.653 35.4427 577.814 34.668 575.612 34.668C574.156 34.668 572.84 34.9947 571.664 35.648C570.488 36.3013 569.564 37.2067 568.892 38.364C568.238 39.5027 567.912 40.7813 567.912 42.2C567.912 43.6187 568.238 44.9067 568.892 46.064C569.564 47.2027 570.488 48.0987 571.664 48.752C572.84 49.4053 574.156 49.732 575.612 49.732C577.796 49.732 579.634 48.948 581.128 47.38L582.948 49.144C582.052 50.152 580.96 50.9173 579.672 51.44C578.402 51.9627 577.002 52.224 575.472 52.224ZM586.55 31.224H589.238V52H586.55V31.224ZM600.726 52.168C599.252 52.168 597.926 51.8413 596.75 51.188C595.574 50.5347 594.65 49.6387 593.978 48.5C593.325 47.3427 592.998 46.036 592.998 44.58C592.998 43.124 593.325 41.8267 593.978 40.688C594.65 39.5307 595.574 38.6347 596.75 38C597.926 37.3467 599.252 37.02 600.726 37.02C602.201 37.02 603.517 37.3467 604.674 38C605.85 38.6347 606.765 39.5307 607.418 40.688C608.09 41.8267 608.426 43.124 608.426 44.58C608.426 46.036 608.09 47.3427 607.418 48.5C606.765 49.6387 605.85 50.5347 604.674 51.188C603.517 51.8413 602.201 52.168 600.726 52.168ZM600.726 49.816C601.678 49.816 602.528 49.6013 603.274 49.172C604.04 48.724 604.637 48.108 605.066 47.324C605.496 46.5213 605.71 45.6067 605.71 44.58C605.71 43.5533 605.496 42.648 605.066 41.864C604.637 41.0613 604.04 40.4453 603.274 40.016C602.528 39.5867 601.678 39.372 600.726 39.372C599.774 39.372 598.916 39.5867 598.15 40.016C597.404 40.4453 596.806 41.0613 596.358 41.864C595.929 42.648 595.714 43.5533 595.714 44.58C595.714 45.6067 595.929 46.5213 596.358 47.324C596.806 48.108 597.404 48.724 598.15 49.172C598.916 49.6013 599.774 49.816 600.726 49.816ZM625.976 37.16V52H623.428V49.76C622.886 50.5253 622.168 51.1227 621.272 51.552C620.394 51.9627 619.433 52.168 618.388 52.168C616.409 52.168 614.85 51.6267 613.712 50.544C612.573 49.4427 612.004 47.828 612.004 45.7V37.16H614.692V45.392C614.692 46.8293 615.037 47.9213 615.728 48.668C616.418 49.396 617.408 49.76 618.696 49.76C620.114 49.76 621.234 49.3307 622.056 48.472C622.877 47.6133 623.288 46.4 623.288 44.832V37.16H625.976ZM645.093 31.224V52H642.517V49.648C641.92 50.4693 641.164 51.0947 640.249 51.524C639.334 51.9533 638.326 52.168 637.225 52.168C635.788 52.168 634.5 51.8507 633.361 51.216C632.222 50.5813 631.326 49.6947 630.673 48.556C630.038 47.3987 629.721 46.0733 629.721 44.58C629.721 43.0867 630.038 41.7707 630.673 40.632C631.326 39.4933 632.222 38.6067 633.361 37.972C634.5 37.3373 635.788 37.02 637.225 37.02C638.289 37.02 639.269 37.2253 640.165 37.636C641.061 38.028 641.808 38.616 642.405 39.4V31.224H645.093ZM637.449 49.816C638.382 49.816 639.232 49.6013 639.997 49.172C640.762 48.724 641.36 48.108 641.789 47.324C642.218 46.5213 642.433 45.6067 642.433 44.58C642.433 43.5533 642.218 42.648 641.789 41.864C641.36 41.0613 640.762 40.4453 639.997 40.016C639.232 39.5867 638.382 39.372 637.449 39.372C636.497 39.372 635.638 39.5867 634.873 40.016C634.126 40.4453 633.529 41.0613 633.081 41.864C632.652 42.648 632.437 43.5533 632.437 44.58C632.437 45.6067 632.652 46.5213 633.081 47.324C633.529 48.108 634.126 48.724 634.873 49.172C635.638 49.6013 636.497 49.816 637.449 49.816ZM481.439 111.432C480.375 109.715 479.554 107.745 478.975 105.524C478.397 103.284 478.107 100.885 478.107 98.328C478.107 95.7707 478.397 93.372 478.975 91.132C479.554 88.8733 480.375 86.904 481.439 85.224H483.987C482.867 87.184 482.046 89.2373 481.523 91.384C481.001 93.5307 480.739 95.8453 480.739 98.328C480.739 100.811 481.001 103.125 481.523 105.272C482.046 107.419 482.867 109.472 483.987 111.432H481.439ZM500.309 101.1H489.893L487.737 106H484.853L493.729 86.4H496.501L505.405 106H502.465L500.309 101.1ZM499.329 98.86L495.101 89.256L490.873 98.86H499.329ZM534.982 86.4L528.43 106H525.49L520.142 90.348L514.794 106H511.798L505.246 86.4H508.13L513.422 102.332L518.938 86.4H521.514L526.918 102.416L532.322 86.4H534.982ZM544.119 106.224C542.644 106.224 541.216 106 539.835 105.552C538.472 105.085 537.399 104.488 536.615 103.76L537.651 101.576C538.397 102.248 539.349 102.799 540.507 103.228C541.683 103.639 542.887 103.844 544.119 103.844C545.743 103.844 546.956 103.573 547.759 103.032C548.561 102.472 548.963 101.735 548.963 100.82C548.963 100.148 548.739 99.6067 548.291 99.196C547.861 98.7667 547.32 98.44 546.667 98.216C546.032 97.992 545.127 97.74 543.951 97.46C542.476 97.1053 541.281 96.7507 540.367 96.396C539.471 96.0413 538.696 95.5 538.043 94.772C537.408 94.0253 537.091 93.0267 537.091 91.776C537.091 90.7307 537.361 89.788 537.903 88.948C538.463 88.108 539.303 87.436 540.423 86.932C541.543 86.428 542.933 86.176 544.595 86.176C545.752 86.176 546.891 86.3253 548.011 86.624C549.131 86.9227 550.092 87.352 550.895 87.912L549.971 90.152C549.149 89.6293 548.272 89.2373 547.339 88.976C546.405 88.696 545.491 88.556 544.595 88.556C543.008 88.556 541.813 88.8453 541.011 89.424C540.227 90.0027 539.835 90.7493 539.835 91.664C539.835 92.336 540.059 92.8867 540.507 93.316C540.955 93.7267 541.505 94.0533 542.159 94.296C542.831 94.52 543.736 94.7627 544.875 95.024C546.349 95.3787 547.535 95.7333 548.431 96.088C549.327 96.4427 550.092 96.984 550.727 97.712C551.38 98.44 551.707 99.42 551.707 100.652C551.707 101.679 551.427 102.621 550.867 103.48C550.307 104.32 549.457 104.992 548.319 105.496C547.18 105.981 545.78 106.224 544.119 106.224ZM556.624 102.332C557.147 102.332 557.576 102.519 557.912 102.892C558.267 103.247 558.444 103.695 558.444 104.236C558.444 104.516 558.407 104.787 558.332 105.048C558.276 105.309 558.155 105.711 557.968 106.252L556.652 110.144H554.888L555.924 105.972C555.57 105.841 555.28 105.627 555.056 105.328C554.851 105.011 554.748 104.647 554.748 104.236C554.748 103.676 554.926 103.219 555.28 102.864C555.635 102.509 556.083 102.332 556.624 102.332ZM583.788 96.088H586.476V103.732C585.505 104.535 584.376 105.151 583.088 105.58C581.8 106.009 580.456 106.224 579.056 106.224C577.077 106.224 575.294 105.795 573.708 104.936C572.121 104.059 570.87 102.864 569.956 101.352C569.06 99.8213 568.612 98.104 568.612 96.2C568.612 94.296 569.06 92.5787 569.956 91.048C570.87 89.5173 572.121 88.3227 573.708 87.464C575.313 86.6053 577.114 86.176 579.112 86.176C580.68 86.176 582.098 86.4373 583.368 86.96C584.656 87.464 585.748 88.2107 586.644 89.2L584.908 90.936C583.34 89.424 581.445 88.668 579.224 88.668C577.73 88.668 576.386 88.9947 575.192 89.648C574.016 90.2827 573.092 91.1787 572.42 92.336C571.748 93.4747 571.412 94.7627 571.412 96.2C571.412 97.6187 571.748 98.9067 572.42 100.064C573.092 101.203 574.016 102.099 575.192 102.752C576.386 103.405 577.721 103.732 579.196 103.732C580.95 103.732 582.481 103.312 583.788 102.472V96.088ZM600.6 106.224C598.64 106.224 596.867 105.795 595.28 104.936C593.712 104.059 592.48 102.864 591.584 101.352C590.688 99.8213 590.24 98.104 590.24 96.2C590.24 94.296 590.688 92.588 591.584 91.076C592.48 89.5453 593.722 88.3507 595.308 87.492C596.895 86.6147 598.668 86.176 600.628 86.176C602.159 86.176 603.559 86.4373 604.828 86.96C606.098 87.464 607.18 88.22 608.076 89.228L606.256 90.992C604.782 89.4427 602.943 88.668 600.74 88.668C599.284 88.668 597.968 88.9947 596.792 89.648C595.616 90.3013 594.692 91.2067 594.02 92.364C593.367 93.5027 593.04 94.7813 593.04 96.2C593.04 97.6187 593.367 98.9067 594.02 100.064C594.692 101.203 595.616 102.099 596.792 102.752C597.968 103.405 599.284 103.732 600.74 103.732C602.924 103.732 604.763 102.948 606.256 101.38L608.076 103.144C607.18 104.152 606.088 104.917 604.8 105.44C603.531 105.963 602.131 106.224 600.6 106.224ZM619.715 86.4C622.254 86.4 624.251 87.0067 625.707 88.22C627.163 89.4333 627.891 91.104 627.891 93.232C627.891 95.36 627.163 97.0307 625.707 98.244C624.251 99.4573 622.254 100.064 619.715 100.064H614.871V106H612.071V86.4H619.715ZM619.631 97.628C621.404 97.628 622.758 97.2547 623.691 96.508C624.624 95.7427 625.091 94.6507 625.091 93.232C625.091 91.8133 624.624 90.7307 623.691 89.984C622.758 89.2187 621.404 88.836 619.631 88.836H614.871V97.628H619.631ZM629.988 111.432C631.108 109.472 631.929 107.419 632.452 105.272C632.993 103.125 633.264 100.811 633.264 98.328C633.264 95.8453 632.993 93.5307 632.452 91.384C631.929 89.2373 631.108 87.184 629.988 85.224H632.536C633.618 86.904 634.449 88.864 635.028 91.104C635.606 93.344 635.896 95.752 635.896 98.328C635.896 100.885 635.606 103.284 635.028 105.524C634.449 107.764 633.618 109.733 632.536 111.432H629.988Z" fill="black"/>
<rect x="737" width="270" height="138" rx="20" fill="#F6F6F6"/>
<path d="M789.102 59.4H791.902V79H789.102V59.4ZM803.734 79.168C802.259 79.168 800.934 78.8413 799.758 78.188C798.582 77.5347 797.658 76.6387 796.986 75.5C796.333 74.3427 796.006 73.036 796.006 71.58C796.006 70.124 796.333 68.8267 796.986 67.688C797.658 66.5307 798.582 65.6347 799.758 65C800.934 64.3467 802.259 64.02 803.734 64.02C805.209 64.02 806.525 64.3467 807.682 65C808.858 65.6347 809.773 66.5307 810.426 67.688C811.098 68.8267 811.434 70.124 811.434 71.58C811.434 73.036 811.098 74.3427 810.426 75.5C809.773 76.6387 808.858 77.5347 807.682 78.188C806.525 78.8413 805.209 79.168 803.734 79.168ZM803.734 76.816C804.686 76.816 805.535 76.6013 806.282 76.172C807.047 75.724 807.645 75.108 808.074 74.324C808.503 73.5213 808.718 72.6067 808.718 71.58C808.718 70.5533 808.503 69.648 808.074 68.864C807.645 68.0613 807.047 67.4453 806.282 67.016C805.535 66.5867 804.686 66.372 803.734 66.372C802.782 66.372 801.923 66.5867 801.158 67.016C800.411 67.4453 799.814 68.0613 799.366 68.864C798.937 69.648 798.722 70.5533 798.722 71.58C798.722 72.6067 798.937 73.5213 799.366 74.324C799.814 75.108 800.411 75.724 801.158 76.172C801.923 76.6013 802.782 76.816 803.734 76.816ZM817.166 61.836H810.446V59.4H826.658V61.836H819.938V79H817.166V61.836ZM844.871 59.4C847.41 59.4 849.407 60.0067 850.863 61.22C852.319 62.4333 853.047 64.104 853.047 66.232C853.047 68.36 852.319 70.0307 850.863 71.244C849.407 72.4573 847.41 73.064 844.871 73.064H840.027V79H837.227V59.4H844.871ZM844.787 70.628C846.56 70.628 847.914 70.2547 848.847 69.508C849.78 68.7427 850.247 67.6507 850.247 66.232C850.247 64.8133 849.78 63.7307 848.847 62.984C847.914 62.2187 846.56 61.836 844.787 61.836H840.027V70.628H844.787ZM857.042 58.224H859.73V79H857.042V58.224ZM870.266 64.02C872.32 64.02 873.888 64.524 874.97 65.532C876.072 66.54 876.622 68.0427 876.622 70.04V79H874.074V77.04C873.626 77.7307 872.982 78.2627 872.142 78.636C871.321 78.9907 870.341 79.168 869.202 79.168C867.541 79.168 866.206 78.7667 865.198 77.964C864.209 77.1613 863.714 76.1067 863.714 74.8C863.714 73.4933 864.19 72.448 865.142 71.664C866.094 70.8613 867.606 70.46 869.678 70.46H873.934V69.928C873.934 68.7707 873.598 67.884 872.926 67.268C872.254 66.652 871.265 66.344 869.958 66.344C869.081 66.344 868.222 66.4933 867.382 66.792C866.542 67.072 865.833 67.4547 865.254 67.94L864.134 65.924C864.9 65.308 865.814 64.8413 866.878 64.524C867.942 64.188 869.072 64.02 870.266 64.02ZM869.65 77.096C870.677 77.096 871.564 76.872 872.31 76.424C873.057 75.9573 873.598 75.304 873.934 74.464V72.392H869.79C867.513 72.392 866.374 73.1573 866.374 74.688C866.374 75.4347 866.664 76.0227 867.242 76.452C867.821 76.8813 868.624 77.096 869.65 77.096ZM884.173 66.652C884.639 65.7933 885.33 65.14 886.245 64.692C887.159 64.244 888.27 64.02 889.577 64.02V66.624C889.427 66.6053 889.222 66.596 888.961 66.596C887.505 66.596 886.357 67.0347 885.517 67.912C884.695 68.7707 884.285 70.0027 884.285 71.608V79H881.597V64.16H884.173V66.652ZM898.513 60.268C896.908 60.268 896.105 61.136 896.105 62.872V64.16H900.417V66.372H896.161V79H893.473V66.372H890.953V64.16H893.473V62.844C893.473 61.3693 893.903 60.2027 894.761 59.344C895.62 58.4853 896.824 58.056 898.373 58.056C898.971 58.056 899.531 58.1307 900.053 58.28C900.576 58.4293 901.024 58.644 901.397 58.924L900.585 60.968C899.969 60.5013 899.279 60.268 898.513 60.268ZM909.09 79.168C907.615 79.168 906.29 78.8413 905.114 78.188C903.938 77.5347 903.014 76.6387 902.342 75.5C901.688 74.3427 901.362 73.036 901.362 71.58C901.362 70.124 901.688 68.8267 902.342 67.688C903.014 66.5307 903.938 65.6347 905.114 65C906.29 64.3467 907.615 64.02 909.09 64.02C910.564 64.02 911.88 64.3467 913.038 65C914.214 65.6347 915.128 66.5307 915.782 67.688C916.454 68.8267 916.79 70.124 916.79 71.58C916.79 73.036 916.454 74.3427 915.782 75.5C915.128 76.6387 914.214 77.5347 913.038 78.188C911.88 78.8413 910.564 79.168 909.09 79.168ZM909.09 76.816C910.042 76.816 910.891 76.6013 911.638 76.172C912.403 75.724 913 75.108 913.43 74.324C913.859 73.5213 914.074 72.6067 914.074 71.58C914.074 70.5533 913.859 69.648 913.43 68.864C913 68.0613 912.403 67.4453 911.638 67.016C910.891 66.5867 910.042 66.372 909.09 66.372C908.138 66.372 907.279 66.5867 906.514 67.016C905.767 67.4453 905.17 68.0613 904.722 68.864C904.292 69.648 904.078 70.5533 904.078 71.58C904.078 72.6067 904.292 73.5213 904.722 74.324C905.17 75.108 905.767 75.724 906.514 76.172C907.279 76.6013 908.138 76.816 909.09 76.816ZM923.083 66.652C923.55 65.7933 924.24 65.14 925.155 64.692C926.07 64.244 927.18 64.02 928.487 64.02V66.624C928.338 66.6053 928.132 66.596 927.871 66.596C926.415 66.596 925.267 67.0347 924.427 67.912C923.606 68.7707 923.195 70.0027 923.195 71.608V79H920.507V64.16H923.083V66.652ZM950.364 64.02C952.231 64.02 953.705 64.5613 954.788 65.644C955.889 66.7267 956.44 68.332 956.44 70.46V79H953.752V70.768C953.752 69.3307 953.416 68.248 952.744 67.52C952.091 66.792 951.148 66.428 949.916 66.428C948.553 66.428 947.471 66.8573 946.668 67.716C945.865 68.556 945.464 69.7693 945.464 71.356V79H942.776V70.768C942.776 69.3307 942.44 68.248 941.768 67.52C941.115 66.792 940.172 66.428 938.94 66.428C937.577 66.428 936.495 66.8573 935.692 67.716C934.889 68.556 934.488 69.7693 934.488 71.356V79H931.8V64.16H934.376V66.372C934.917 65.6067 935.627 65.028 936.504 64.636C937.381 64.2253 938.38 64.02 939.5 64.02C940.657 64.02 941.684 64.2533 942.58 64.72C943.476 65.1867 944.167 65.868 944.652 66.764C945.212 65.9053 945.987 65.2333 946.976 64.748C947.984 64.2627 949.113 64.02 950.364 64.02Z" fill="black"/>
<path d="M557.855 137.65C557.661 137.454 557.344 137.453 557.148 137.647L553.952 140.815C553.756 141.009 553.754 141.326 553.949 141.522C554.143 141.718 554.46 141.719 554.656 141.525L557.497 138.709L560.313 141.55C560.507 141.746 560.824 141.748 561.02 141.553C561.216 141.359 561.217 141.043 561.023 140.846L557.855 137.65ZM556.145 362.354C556.339 362.55 556.656 362.552 556.852 362.357L560.048 359.19C560.244 358.995 560.246 358.679 560.051 358.482C559.857 358.286 559.54 358.285 559.344 358.479L556.503 361.295L553.687 358.454C553.493 358.258 553.176 358.257 552.98 358.451C552.784 358.645 552.783 358.962 552.977 359.158L556.145 362.354ZM557 138L556 362L557 362.004L558 138.004L557 138Z" fill="#7E7E7E"/>
<path d="M557.855 499.65C557.661 499.454 557.344 499.453 557.148 499.647L553.952 502.815C553.756 503.009 553.754 503.326 553.949 503.522C554.143 503.718 554.46 503.719 554.656 503.525L557.497 500.709L560.313 503.55C560.507 503.746 560.824 503.748 561.02 503.553C561.216 503.359 561.217 503.043 561.023 502.846L557.855 499.65ZM556.145 724.354C556.339 724.55 556.656 724.552 556.852 724.357L560.048 721.19C560.244 720.995 560.246 720.679 560.051 720.482C559.857 720.286 559.54 720.285 559.344 720.479L556.503 723.295L553.687 720.454C553.493 720.258 553.176 720.257 552.98 720.451C552.784 720.645 552.783 720.962 552.977 721.158L556.145 724.354ZM557 500L556 724L557 724.004L558 500.004L557 500Z" fill="#646464"/>
<path d="M235.854 137.646C235.658 137.451 235.342 137.451 235.146 137.646L231.964 140.828C231.769 141.024 231.769 141.34 231.964 141.536C232.16 141.731 232.476 141.731 232.672 141.536L235.5 138.707L238.328 141.536C238.524 141.731 238.84 141.731 239.036 141.536C239.231 141.34 239.231 141.024 239.036 140.828L235.854 137.646ZM235 138L235 250L236 250L236 138L235 138Z" fill="#7E7E7E"/>
<path d="M235.146 724.354C235.342 724.549 235.658 724.549 235.854 724.354L239.036 721.172C239.231 720.976 239.231 720.66 239.036 720.464C238.84 720.269 238.524 720.269 238.328 720.464L235.5 723.293L232.672 720.464C232.476 720.269 232.16 720.269 231.964 720.464C231.769 720.66 231.769 720.976 231.964 721.172L235.146 724.354ZM235 612L235 724L236 724L236 612L235 612Z" fill="#646464"/>
<line x1="235" y1="611.5" x2="873" y2="611.5" stroke="#646464"/>
<path d="M873.146 724.354C873.342 724.549 873.658 724.549 873.854 724.354L877.036 721.172C877.231 720.976 877.231 720.66 877.036 720.464C876.84 720.269 876.524 720.269 876.328 720.464L873.5 723.293L870.672 720.464C870.476 720.269 870.16 720.269 869.964 720.464C869.769 720.66 869.769 720.976 869.964 721.172L873.146 724.354ZM873 612L873 724L874 724L874 612L873 612Z" fill="#646464"/>
<line x1="872" y1="250.5" x2="235" y2="250.5" stroke="#7E7E7E"/>
<path d="M873.854 137.646C873.658 137.451 873.342 137.451 873.146 137.646L869.964 140.828C869.769 141.024 869.769 141.34 869.964 141.536C870.16 141.731 870.476 141.731 870.672 141.536L873.5 138.707L876.328 141.536C876.524 141.731 876.84 141.731 877.036 141.536C877.231 141.34 877.231 141.024 877.036 140.828L873.854 137.646ZM873 138L873 250L874 250L874 138L873 138Z" fill="#7E7E7E"/>
<path d="M25.208 816.948L27 816.948L27 830.808L7.4 830.808L7.4 817.368L9.192 817.368L9.192 828.736L16.164 828.736L16.164 818.6L17.928 818.6L17.928 828.736L25.208 828.736L25.208 816.948ZM7.4 812.078L7.4 804.098C7.4 802.026 7.82 800.196 8.66 798.61C9.48133 797.023 10.6387 795.791 12.132 794.914C13.6067 794.036 15.296 793.598 17.2 793.598C19.104 793.598 20.8027 794.036 22.296 794.914C23.7707 795.791 24.928 797.023 25.768 798.61C26.5893 800.196 27 802.026 27 804.098L27 812.078L7.4 812.078ZM25.208 804.21C25.208 802.492 24.872 800.99 24.2 799.702C23.5093 798.414 22.5667 797.415 21.372 796.706C20.1587 795.996 18.768 795.642 17.2 795.642C15.632 795.642 14.2507 795.996 13.056 796.706C11.8427 797.415 10.9 798.414 10.228 799.702C9.53733 800.99 9.192 802.492 9.192 804.21L9.192 810.006L25.208 810.006L25.208 804.21ZM17.2 775.141L17.2 773.153L24.676 773.153C25.4787 774.067 26.0947 775.15 26.524 776.401C26.9533 777.651 27.168 778.967 27.168 780.349C27.168 782.309 26.7387 784.073 25.88 785.641C25.0213 787.209 23.836 788.441 22.324 789.337C20.7933 790.233 19.0853 790.681 17.2 790.681C15.3147 790.681 13.616 790.233 12.104 789.337C10.5733 788.441 9.37866 787.209 8.52 785.641C7.66133 784.073 7.232 782.299 7.232 780.321C7.232 778.827 7.47466 777.455 7.96 776.205C8.42666 774.954 9.12666 773.899 10.06 773.041L11.376 774.329C9.84533 775.878 9.08 777.847 9.08 780.237C9.08 781.823 9.43466 783.261 10.144 784.549C10.8347 785.818 11.8053 786.817 13.056 787.545C14.288 788.273 15.6693 788.637 17.2 788.637C18.7307 788.637 20.112 788.273 21.344 787.545C22.576 786.817 23.5467 785.818 24.256 784.549C24.9653 783.279 25.32 781.851 25.32 780.265C25.32 778.249 24.816 776.541 23.808 775.141L17.2 775.141ZM25.208 753.428L27 753.428L27 767.288L7.4 767.288L7.4 753.848L9.192 753.848L9.192 765.216L16.164 765.216L16.164 755.08L17.928 755.08L17.928 765.216L25.208 765.216L25.208 753.428Z" fill="black"/>
<path d="M27.668 110.296C27.668 112.237 27.2387 113.992 26.38 115.56C25.5213 117.109 24.336 118.332 22.824 119.228C21.2933 120.105 19.5853 120.544 17.7 120.544C15.8147 120.544 14.116 120.105 12.604 119.228C11.0733 118.332 9.87867 117.1 9.02 115.532C8.16133 113.964 7.732 112.209 7.732 110.268C7.732 108.812 7.97467 107.468 8.46 106.236C8.94533 105.004 9.65466 103.959 10.588 103.1L11.904 104.416C10.3547 105.947 9.58 107.879 9.58 110.212C9.58 111.761 9.93466 113.171 10.644 114.44C11.3533 115.709 12.324 116.708 13.556 117.436C14.788 118.145 16.1693 118.5 17.7 118.5C19.2307 118.5 20.612 118.145 21.844 117.436C23.076 116.708 24.0467 115.709 24.756 114.44C25.4653 113.171 25.82 111.761 25.82 110.212C25.82 107.86 25.036 105.928 23.468 104.416L24.784 103.1C25.7173 103.959 26.436 105.013 26.94 106.264C27.4253 107.496 27.668 108.84 27.668 110.296ZM7.9 98.683L7.9 96.611L25.708 96.611L25.708 85.635L27.5 85.635L27.5 98.683L7.9 98.683ZM27.668 74.0095C27.668 75.9509 27.2387 77.7149 26.38 79.3015C25.5027 80.8695 24.308 82.1015 22.796 82.9975C21.284 83.8749 19.5853 84.3135 17.7 84.3135C15.8147 84.3135 14.116 83.8749 12.604 82.9975C11.092 82.1015 9.90666 80.8695 9.048 79.3015C8.17066 77.7149 7.732 75.9509 7.732 74.0095C7.732 72.0682 8.16133 70.3229 9.02 68.7735C9.87866 67.2055 11.0733 65.9735 12.604 65.0775C14.116 64.1815 15.8147 63.7335 17.7 63.7335C19.5853 63.7335 21.2933 64.1815 22.824 65.0775C24.336 65.9735 25.5213 67.2055 26.38 68.7735C27.2387 70.3229 27.668 72.0682 27.668 74.0095ZM25.82 74.0095C25.82 72.4602 25.4747 71.0602 24.784 69.8095C24.0747 68.5589 23.104 67.5789 21.872 66.8695C20.6213 66.1602 19.2307 65.8055 17.7 65.8055C16.1693 65.8055 14.788 66.1602 13.556 66.8695C12.3053 67.5789 11.3347 68.5589 10.644 69.8095C9.93466 71.0602 9.58 72.4602 9.58 74.0095C9.58 75.5589 9.93466 76.9682 10.644 78.2375C11.3347 79.4882 12.3053 80.4775 13.556 81.2055C14.788 81.9149 16.1693 82.2695 17.7 82.2695C19.2307 82.2695 20.6213 81.9149 21.872 81.2055C23.104 80.4775 24.0747 79.4882 24.784 78.2375C25.4747 76.9682 25.82 75.5589 25.82 74.0095ZM27.668 51.1932C27.668 53.7319 26.94 55.7106 25.484 57.1292C24.028 58.5479 21.9093 59.2572 19.128 59.2572L7.9 59.2572L7.9 57.1852L19.044 57.1852C21.3213 57.1852 23.02 56.6719 24.14 55.6452C25.26 54.6186 25.82 53.1346 25.82 51.1932C25.82 49.2332 25.26 47.7399 24.14 46.7132C23.02 45.6866 21.3213 45.1732 19.044 45.1732L7.9 45.1732L7.9 43.1572L19.128 43.1572C21.9093 43.1572 24.028 43.8666 25.484 45.2852C26.94 46.6852 27.668 48.6546 27.668 51.1932ZM7.89999 36.9135L7.89999 28.9335C7.89999 26.8615 8.31999 25.0321 9.15999 23.4455C9.98133 21.8588 11.1387 20.6268 12.632 19.7495C14.1067 18.8721 15.796 18.4335 17.7 18.4335C19.604 18.4335 21.3027 18.8721 22.796 19.7495C24.2707 20.6268 25.428 21.8588 26.268 23.4455C27.0893 25.0321 27.5 26.8615 27.5 28.9335L27.5 36.9135L7.89999 36.9135ZM25.708 29.0455C25.708 27.3281 25.372 25.8255 24.7 24.5375C24.0093 23.2495 23.0667 22.2508 21.872 21.5415C20.6587 20.8321 19.268 20.4775 17.7 20.4775C16.132 20.4775 14.7507 20.8321 13.556 21.5415C12.3427 22.2508 11.4 23.2495 10.728 24.5375C10.0373 25.8255 9.69199 27.3281 9.69199 29.0455L9.692 34.8415L25.708 34.8415L25.708 29.0455Z" fill="black"/>
<path d="M17.8536 171.646C17.6583 171.451 17.3417 171.451 17.1464 171.646L13.9645 174.828C13.7692 175.024 13.7692 175.34 13.9645 175.536C14.1597 175.731 14.4763 175.731 14.6716 175.536L17.5 172.707L20.3284 175.536C20.5237 175.731 20.8403 175.731 21.0355 175.536C21.2308 175.34 21.2308 175.024 21.0355 174.828L17.8536 171.646ZM17.1465 701.354C17.3417 701.549 17.6583 701.549 17.8536 701.354L21.0356 698.172C21.2308 697.976 21.2308 697.66 21.0356 697.464C20.8403 697.269 20.5237 697.269 20.3285 697.464L17.5 700.293L14.6716 697.464C14.4763 697.269 14.1598 697.269 13.9645 697.464C13.7692 697.66 13.7692 697.976 13.9645 698.172L17.1465 701.354ZM17 172L17 701L18 701L18 172L17 172Z" fill="black"/>
<path d="M604.484 310.764H593.564L591.212 316H589.056L598.016 296.4H600.06L609.02 316H606.836L604.484 310.764ZM603.728 309.084L599.024 298.556L594.32 309.084H603.728ZM619.598 296.4C622.1 296.4 624.06 296.997 625.478 298.192C626.897 299.387 627.606 301.029 627.606 303.12C627.606 305.211 626.897 306.853 625.478 308.048C624.06 309.224 622.1 309.812 619.598 309.812H614.334V316H612.262V296.4H619.598ZM619.542 307.992C621.484 307.992 622.968 307.572 623.994 306.732C625.021 305.873 625.534 304.669 625.534 303.12C625.534 301.533 625.021 300.32 623.994 299.48C622.968 298.621 621.484 298.192 619.542 298.192H614.334V307.992H619.542ZM632.087 296.4H634.159V316H632.087V296.4ZM653.212 292.424H655.032L645.792 318.8H643.972L653.212 292.424ZM691.479 296.4L684.871 316H682.687L676.947 299.284L671.179 316H669.023L662.415 296.4H664.543L670.199 313.256L676.051 296.4H677.983L683.751 313.34L689.491 296.4H691.479ZM706.561 309.252H694.241C694.353 310.783 694.941 312.024 696.005 312.976C697.069 313.909 698.413 314.376 700.037 314.376C700.952 314.376 701.792 314.217 702.557 313.9C703.322 313.564 703.985 313.079 704.545 312.444L705.665 313.732C705.012 314.516 704.19 315.113 703.201 315.524C702.23 315.935 701.157 316.14 699.981 316.14C698.469 316.14 697.125 315.823 695.949 315.188C694.792 314.535 693.886 313.639 693.233 312.5C692.58 311.361 692.253 310.073 692.253 308.636C692.253 307.199 692.561 305.911 693.177 304.772C693.812 303.633 694.67 302.747 695.753 302.112C696.854 301.477 698.086 301.16 699.449 301.16C700.812 301.16 702.034 301.477 703.117 302.112C704.2 302.747 705.049 303.633 705.665 304.772C706.281 305.892 706.589 307.18 706.589 308.636L706.561 309.252ZM699.449 302.868C698.03 302.868 696.836 303.325 695.865 304.24C694.913 305.136 694.372 306.312 694.241 307.768H704.685C704.554 306.312 704.004 305.136 703.033 304.24C702.081 303.325 700.886 302.868 699.449 302.868ZM718.223 301.16C719.605 301.16 720.855 301.477 721.975 302.112C723.095 302.728 723.973 303.605 724.607 304.744C725.242 305.883 725.559 307.18 725.559 308.636C725.559 310.092 725.242 311.389 724.607 312.528C723.973 313.667 723.095 314.553 721.975 315.188C720.855 315.823 719.605 316.14 718.223 316.14C716.991 316.14 715.881 315.879 714.891 315.356C713.921 314.833 713.137 314.077 712.539 313.088V316H710.635V295.224H712.623V304.072C713.239 303.12 714.023 302.401 714.975 301.916C715.946 301.412 717.029 301.16 718.223 301.16ZM718.083 314.376C719.11 314.376 720.043 314.143 720.883 313.676C721.723 313.191 722.377 312.509 722.843 311.632C723.329 310.755 723.571 309.756 723.571 308.636C723.571 307.516 723.329 306.517 722.843 305.64C722.377 304.763 721.723 304.091 720.883 303.624C720.043 303.139 719.11 302.896 718.083 302.896C717.038 302.896 716.095 303.139 715.255 303.624C714.434 304.091 713.781 304.763 713.295 305.64C712.829 306.517 712.595 307.516 712.595 308.636C712.595 309.756 712.829 310.755 713.295 311.632C713.781 312.509 714.434 313.191 715.255 313.676C716.095 314.143 717.038 314.376 718.083 314.376ZM737.116 301.16C738.964 301.16 740.429 301.701 741.512 302.784C742.613 303.848 743.164 305.407 743.164 307.46V316H741.176V307.656C741.176 306.125 740.793 304.959 740.028 304.156C739.263 303.353 738.171 302.952 736.752 302.952C735.165 302.952 733.905 303.428 732.972 304.38C732.057 305.313 731.6 306.611 731.6 308.272V316H729.612V295.224H731.6V303.848C732.141 302.989 732.888 302.327 733.84 301.86C734.792 301.393 735.884 301.16 737.116 301.16ZM754.636 316.14C753.217 316.14 751.938 315.823 750.8 315.188C749.661 314.535 748.765 313.639 748.112 312.5C747.458 311.361 747.132 310.073 747.132 308.636C747.132 307.199 747.458 305.911 748.112 304.772C748.765 303.633 749.661 302.747 750.8 302.112C751.938 301.477 753.217 301.16 754.636 301.16C756.054 301.16 757.333 301.477 758.472 302.112C759.61 302.747 760.497 303.633 761.132 304.772C761.785 305.911 762.112 307.199 762.112 308.636C762.112 310.073 761.785 311.361 761.132 312.5C760.497 313.639 759.61 314.535 758.472 315.188C757.333 315.823 756.054 316.14 754.636 316.14ZM754.636 314.376C755.681 314.376 756.614 314.143 757.436 313.676C758.276 313.191 758.929 312.509 759.396 311.632C759.862 310.755 760.096 309.756 760.096 308.636C760.096 307.516 759.862 306.517 759.396 305.64C758.929 304.763 758.276 304.091 757.436 303.624C756.614 303.139 755.681 302.896 754.636 302.896C753.59 302.896 752.648 303.139 751.808 303.624C750.986 304.091 750.333 304.763 749.848 305.64C749.381 306.517 749.148 307.516 749.148 308.636C749.148 309.756 749.381 310.755 749.848 311.632C750.333 312.509 750.986 313.191 751.808 313.676C752.648 314.143 753.59 314.376 754.636 314.376ZM772.19 316.14C770.772 316.14 769.493 315.823 768.354 315.188C767.216 314.535 766.32 313.639 765.666 312.5C765.013 311.361 764.686 310.073 764.686 308.636C764.686 307.199 765.013 305.911 765.666 304.772C766.32 303.633 767.216 302.747 768.354 302.112C769.493 301.477 770.772 301.16 772.19 301.16C773.609 301.16 774.888 301.477 776.026 302.112C777.165 302.747 778.052 303.633 778.686 304.772C779.34 305.911 779.666 307.199 779.666 308.636C779.666 310.073 779.34 311.361 778.686 312.5C778.052 313.639 777.165 314.535 776.026 315.188C774.888 315.823 773.609 316.14 772.19 316.14ZM772.19 314.376C773.236 314.376 774.169 314.143 774.99 313.676C775.83 313.191 776.484 312.509 776.95 311.632C777.417 310.755 777.65 309.756 777.65 308.636C777.65 307.516 777.417 306.517 776.95 305.64C776.484 304.763 775.83 304.091 774.99 303.624C774.169 303.139 773.236 302.896 772.19 302.896C771.145 302.896 770.202 303.139 769.362 303.624C768.541 304.091 767.888 304.763 767.402 305.64C766.936 306.517 766.702 307.516 766.702 308.636C766.702 309.756 766.936 310.755 767.402 311.632C767.888 312.509 768.541 313.191 769.362 313.676C770.202 314.143 771.145 314.376 772.19 314.376ZM789.185 308.608L785.713 311.8V316H783.725V295.224H785.713V309.308L794.505 301.272H796.969L790.669 307.292L797.557 316H795.121L789.185 308.608Z" fill="black"/>
<path d="M606.052 564.208V566H592.192V546.4H605.632V548.192H594.264V555.164H604.4V556.928H594.264V564.208H606.052ZM622.352 564.208V566H608.604V564.572L616.752 556.592C617.778 555.584 618.469 554.716 618.824 553.988C619.197 553.241 619.384 552.495 619.384 551.748C619.384 550.591 618.982 549.695 618.18 549.06C617.396 548.407 616.266 548.08 614.792 548.08C612.496 548.08 610.713 548.808 609.444 550.264L608.016 549.032C608.781 548.136 609.752 547.445 610.928 546.96C612.122 546.475 613.466 546.232 614.96 546.232C616.957 546.232 618.534 546.708 619.692 547.66C620.868 548.593 621.456 549.881 621.456 551.524C621.456 552.532 621.232 553.503 620.784 554.436C620.336 555.369 619.486 556.443 618.236 557.656L611.572 564.208H622.352ZM640.478 564.208V566H626.618V546.4H640.058V548.192H628.69V555.164H638.826V556.928H628.69V564.208H640.478ZM658.08 566.168C656.624 566.168 655.224 565.935 653.88 565.468C652.555 565.001 651.528 564.385 650.8 563.62L651.612 562.024C652.322 562.733 653.264 563.312 654.44 563.76C655.616 564.189 656.83 564.404 658.08 564.404C659.835 564.404 661.151 564.087 662.028 563.452C662.906 562.799 663.344 561.959 663.344 560.932C663.344 560.148 663.102 559.523 662.616 559.056C662.15 558.589 661.571 558.235 660.88 557.992C660.19 557.731 659.228 557.451 657.996 557.152C656.522 556.779 655.346 556.424 654.468 556.088C653.591 555.733 652.835 555.201 652.2 554.492C651.584 553.783 651.276 552.821 651.276 551.608C651.276 550.619 651.538 549.723 652.06 548.92C652.583 548.099 653.386 547.445 654.468 546.96C655.551 546.475 656.895 546.232 658.5 546.232C659.62 546.232 660.712 546.391 661.776 546.708C662.859 547.007 663.792 547.427 664.576 547.968L663.876 549.62C663.055 549.079 662.178 548.677 661.244 548.416C660.311 548.136 659.396 547.996 658.5 547.996C656.783 547.996 655.486 548.332 654.608 549.004C653.75 549.657 653.32 550.507 653.32 551.552C653.32 552.336 653.554 552.971 654.02 553.456C654.506 553.923 655.103 554.287 655.812 554.548C656.54 554.791 657.511 555.061 658.724 555.36C660.162 555.715 661.319 556.069 662.196 556.424C663.092 556.76 663.848 557.283 664.464 557.992C665.08 558.683 665.388 559.625 665.388 560.82C665.388 561.809 665.118 562.715 664.576 563.536C664.054 564.339 663.242 564.983 662.14 565.468C661.039 565.935 659.686 566.168 658.08 566.168ZM682.307 559.252H669.987C670.099 560.783 670.687 562.024 671.751 562.976C672.815 563.909 674.159 564.376 675.783 564.376C676.698 564.376 677.538 564.217 678.303 563.9C679.068 563.564 679.731 563.079 680.291 562.444L681.411 563.732C680.758 564.516 679.936 565.113 678.947 565.524C677.976 565.935 676.903 566.14 675.727 566.14C674.215 566.14 672.871 565.823 671.695 565.188C670.538 564.535 669.632 563.639 668.979 562.5C668.326 561.361 667.999 560.073 667.999 558.636C667.999 557.199 668.307 555.911 668.923 554.772C669.558 553.633 670.416 552.747 671.499 552.112C672.6 551.477 673.832 551.16 675.195 551.16C676.558 551.16 677.78 551.477 678.863 552.112C679.946 552.747 680.795 553.633 681.411 554.772C682.027 555.892 682.335 557.18 682.335 558.636L682.307 559.252ZM675.195 552.868C673.776 552.868 672.582 553.325 671.611 554.24C670.659 555.136 670.118 556.312 669.987 557.768H680.431C680.3 556.312 679.75 555.136 678.779 554.24C677.827 553.325 676.632 552.868 675.195 552.868ZM692.485 566.14C691.029 566.14 689.723 565.823 688.565 565.188C687.427 564.553 686.531 563.667 685.877 562.528C685.224 561.371 684.897 560.073 684.897 558.636C684.897 557.199 685.224 555.911 685.877 554.772C686.531 553.633 687.427 552.747 688.565 552.112C689.723 551.477 691.029 551.16 692.485 551.16C693.755 551.16 694.884 551.412 695.873 551.916C696.881 552.401 697.675 553.12 698.253 554.072L696.769 555.08C696.284 554.352 695.668 553.811 694.921 553.456C694.175 553.083 693.363 552.896 692.485 552.896C691.421 552.896 690.46 553.139 689.601 553.624C688.761 554.091 688.099 554.763 687.613 555.64C687.147 556.517 686.913 557.516 686.913 558.636C686.913 559.775 687.147 560.783 687.613 561.66C688.099 562.519 688.761 563.191 689.601 563.676C690.46 564.143 691.421 564.376 692.485 564.376C693.363 564.376 694.175 564.199 694.921 563.844C695.668 563.489 696.284 562.948 696.769 562.22L698.253 563.228C697.675 564.18 696.881 564.908 695.873 565.412C694.865 565.897 693.736 566.14 692.485 566.14ZM715.431 551.272V566H713.527V563.312C713.004 564.208 712.285 564.908 711.371 565.412C710.456 565.897 709.411 566.14 708.235 566.14C706.312 566.14 704.791 565.608 703.671 564.544C702.569 563.461 702.019 561.884 702.019 559.812V551.272H704.007V559.616C704.007 561.165 704.389 562.341 705.155 563.144C705.92 563.947 707.012 564.348 708.431 564.348C709.98 564.348 711.203 563.881 712.099 562.948C712.995 561.996 713.443 560.68 713.443 559V551.272H715.431ZM722.903 554.156C723.369 553.167 724.06 552.42 724.975 551.916C725.908 551.412 727.056 551.16 728.419 551.16V553.092L727.943 553.064C726.393 553.064 725.18 553.54 724.303 554.492C723.425 555.444 722.987 556.779 722.987 558.496V566H720.999V551.272H722.903V554.156ZM744.705 559.252H732.385C732.497 560.783 733.085 562.024 734.149 562.976C735.213 563.909 736.557 564.376 738.181 564.376C739.096 564.376 739.936 564.217 740.701 563.9C741.467 563.564 742.129 563.079 742.689 562.444L743.809 563.732C743.156 564.516 742.335 565.113 741.345 565.524C740.375 565.935 739.301 566.14 738.125 566.14C736.613 566.14 735.269 565.823 734.093 565.188C732.936 564.535 732.031 563.639 731.377 562.5C730.724 561.361 730.397 560.073 730.397 558.636C730.397 557.199 730.705 555.911 731.321 554.772C731.956 553.633 732.815 552.747 733.897 552.112C734.999 551.477 736.231 551.16 737.593 551.16C738.956 551.16 740.179 551.477 741.261 552.112C742.344 552.747 743.193 553.633 743.809 554.772C744.425 555.892 744.733 557.18 744.733 558.636L744.705 559.252ZM737.593 552.868C736.175 552.868 734.98 553.325 734.009 554.24C733.057 555.136 732.516 556.312 732.385 557.768H742.829C742.699 556.312 742.148 555.136 741.177 554.24C740.225 553.325 739.031 552.868 737.593 552.868ZM765.04 566.168C763.099 566.168 761.344 565.739 759.776 564.88C758.227 564.021 757.004 562.836 756.108 561.324C755.231 559.793 754.792 558.085 754.792 556.2C754.792 554.315 755.231 552.616 756.108 551.104C757.004 549.573 758.236 548.379 759.804 547.52C761.372 546.661 763.127 546.232 765.068 546.232C766.524 546.232 767.868 546.475 769.1 546.96C770.332 547.445 771.377 548.155 772.236 549.088L770.92 550.404C769.389 548.855 767.457 548.08 765.124 548.08C763.575 548.08 762.165 548.435 760.896 549.144C759.627 549.853 758.628 550.824 757.9 552.056C757.191 553.288 756.836 554.669 756.836 556.2C756.836 557.731 757.191 559.112 757.9 560.344C758.628 561.576 759.627 562.547 760.896 563.256C762.165 563.965 763.575 564.32 765.124 564.32C767.476 564.32 769.408 563.536 770.92 561.968L772.236 563.284C771.377 564.217 770.323 564.936 769.072 565.44C767.84 565.925 766.496 566.168 765.04 566.168ZM783.737 551.16C785.585 551.16 787.05 551.701 788.133 552.784C789.234 553.848 789.785 555.407 789.785 557.46V566H787.797V557.656C787.797 556.125 787.414 554.959 786.649 554.156C785.884 553.353 784.792 552.952 783.373 552.952C781.786 552.952 780.526 553.428 779.593 554.38C778.678 555.313 778.221 556.611 778.221 558.272V566H776.233V545.224H778.221V553.848C778.762 552.989 779.509 552.327 780.461 551.86C781.413 551.393 782.505 551.16 783.737 551.16ZM800.334 551.16C802.257 551.16 803.731 551.645 804.758 552.616C805.785 553.568 806.298 554.987 806.298 556.872V566H804.394V563.704C803.946 564.469 803.283 565.067 802.406 565.496C801.547 565.925 800.521 566.14 799.326 566.14C797.683 566.14 796.377 565.748 795.406 564.964C794.435 564.18 793.95 563.144 793.95 561.856C793.95 560.605 794.398 559.597 795.294 558.832C796.209 558.067 797.655 557.684 799.634 557.684H804.31V556.788C804.31 555.519 803.955 554.557 803.246 553.904C802.537 553.232 801.501 552.896 800.138 552.896C799.205 552.896 798.309 553.055 797.45 553.372C796.591 553.671 795.854 554.091 795.238 554.632L794.342 553.148C795.089 552.513 795.985 552.028 797.03 551.692C798.075 551.337 799.177 551.16 800.334 551.16ZM799.634 564.572C800.754 564.572 801.715 564.32 802.518 563.816C803.321 563.293 803.918 562.547 804.31 561.576V559.168H799.69C797.17 559.168 795.91 560.045 795.91 561.8C795.91 562.659 796.237 563.34 796.89 563.844C797.543 564.329 798.458 564.572 799.634 564.572ZM819.202 551.16C821.05 551.16 822.515 551.701 823.598 552.784C824.699 553.848 825.25 555.407 825.25 557.46V566H823.262V557.656C823.262 556.125 822.879 554.959 822.114 554.156C821.348 553.353 820.256 552.952 818.838 552.952C817.251 552.952 815.991 553.428 815.058 554.38C814.143 555.313 813.686 556.611 813.686 558.272V566H811.698V551.272H813.602V553.988C814.143 553.092 814.89 552.401 815.842 551.916C816.812 551.412 817.932 551.16 819.202 551.16ZM838.151 551.16C839.999 551.16 841.464 551.701 842.547 552.784C843.648 553.848 844.199 555.407 844.199 557.46V566H842.211V557.656C842.211 556.125 841.828 554.959 841.063 554.156C840.298 553.353 839.206 552.952 837.787 552.952C836.2 552.952 834.94 553.428 834.007 554.38C833.092 555.313 832.635 556.611 832.635 558.272V566H830.647V551.272H832.551V553.988C833.092 553.092 833.839 552.401 834.791 551.916C835.762 551.412 836.882 551.16 838.151 551.16ZM862.475 559.252H850.155C850.267 560.783 850.855 562.024 851.919 562.976C852.983 563.909 854.327 564.376 855.951 564.376C856.866 564.376 857.706 564.217 858.471 563.9C859.236 563.564 859.899 563.079 860.459 562.444L861.579 563.732C860.926 564.516 860.104 565.113 859.115 565.524C858.144 565.935 857.071 566.14 855.895 566.14C854.383 566.14 853.039 565.823 851.863 565.188C850.706 564.535 849.8 563.639 849.147 562.5C848.494 561.361 848.167 560.073 848.167 558.636C848.167 557.199 848.475 555.911 849.091 554.772C849.726 553.633 850.584 552.747 851.667 552.112C852.768 551.477 854 551.16 855.363 551.16C856.726 551.16 857.948 551.477 859.031 552.112C860.114 552.747 860.963 553.633 861.579 554.772C862.195 555.892 862.503 557.18 862.503 558.636L862.475 559.252ZM855.363 552.868C853.944 552.868 852.75 553.325 851.779 554.24C850.827 555.136 850.286 556.312 850.155 557.768H860.599C860.468 556.312 859.918 555.136 858.947 554.24C857.995 553.325 856.8 552.868 855.363 552.868ZM866.549 545.224H868.537V566H866.549V545.224Z" fill="black"/>
</svg>
