<svg width="830" height="410" viewBox="0 0 830 410" fill="none" xmlns="http://www.w3.org/2000/svg">
<path d="M25.0997 187.996C24.8109 188 24.5357 188.122 24.3345 188.334C24.1333 188.546 24.0225 188.831 24.0265 189.126V190.241V192.471H26.2069V190.241V189.126C26.2089 188.977 26.1816 188.829 26.1267 188.691C26.0717 188.552 25.9902 188.427 25.8869 188.321C25.7837 188.216 25.6608 188.133 25.5256 188.077C25.3904 188.021 25.2455 187.993 25.0997 187.996ZM31.641 187.996C31.3522 188 31.077 188.122 30.8758 188.334C30.6746 188.546 30.5638 188.831 30.5678 189.126V190.241V192.471H32.7482V190.241V189.126C32.7502 188.977 32.7229 188.829 32.668 188.691C32.613 188.552 32.5315 188.427 32.4282 188.321C32.325 188.216 32.2021 188.133 32.0669 188.077C31.9317 188.021 31.7868 187.993 31.641 187.996ZM38.1823 187.996C37.8935 188 37.6183 188.122 37.4171 188.334C37.2159 188.546 37.1052 188.831 37.1091 189.126V190.241V192.471H39.2896V190.241V189.126C39.2916 188.977 39.2643 188.829 39.2093 188.691C39.1543 188.552 39.0728 188.427 38.9696 188.321C38.8663 188.216 38.7434 188.133 38.6082 188.077C38.473 188.021 38.3282 187.993 38.1823 187.996ZM44.7236 187.996C44.4348 188 44.1597 188.122 43.9585 188.334C43.7573 188.546 43.6465 188.831 43.6504 189.126V190.241V192.471H45.8309V190.241V189.126C45.8329 188.977 45.8056 188.829 45.7506 188.691C45.6956 188.552 45.6141 188.427 45.5109 188.321C45.4076 188.216 45.2848 188.133 45.1495 188.077C45.0143 188.021 44.8695 187.993 44.7236 187.996ZM51.2649 187.996C50.9762 188 50.701 188.122 50.4998 188.334C50.2986 188.546 50.1878 188.831 50.1917 189.126V190.241V192.471H52.3722V190.241V189.126C52.3742 188.977 52.3469 188.829 52.2919 188.691C52.237 188.552 52.1554 188.427 52.0522 188.321C51.9489 188.216 51.8261 188.133 51.6908 188.077C51.5556 188.021 51.4108 187.993 51.2649 187.996ZM20.7558 193.586C18.9493 193.586 17.4852 195.083 17.4852 196.931V232.611C17.4852 234.458 18.9493 235.956 20.7558 235.956H55.6428C57.4493 235.956 58.9135 234.458 58.9135 232.611V196.931C58.9135 195.083 57.4493 193.586 55.6428 193.586H20.7558ZM13.1243 200.276C12.9798 200.274 12.8364 200.301 12.7023 200.356C12.5683 200.411 12.4463 200.493 12.3434 200.597C12.2405 200.701 12.1588 200.824 12.103 200.961C12.0473 201.097 12.0186 201.243 12.0186 201.391C12.0186 201.539 12.0473 201.685 12.103 201.821C12.1588 201.958 12.2405 202.081 12.3434 202.185C12.4463 202.289 12.5683 202.371 12.7023 202.426C12.8364 202.481 12.9798 202.508 13.1243 202.506H14.2145H16.395V200.276H14.2145H13.1243ZM60.0037 200.276V202.506H62.1842H63.2744C63.4188 202.508 63.5623 202.481 63.6963 202.426C63.8304 202.371 63.9524 202.289 64.0553 202.185C64.1582 202.081 64.2399 201.958 64.2956 201.821C64.3514 201.685 64.3801 201.539 64.3801 201.391C64.3801 201.243 64.3514 201.097 64.2956 200.961C64.2399 200.824 64.1582 200.701 64.0553 200.597C63.9524 200.493 63.8304 200.411 63.6963 200.356C63.5623 200.301 63.4188 200.274 63.2744 200.276H62.1842H60.0037ZM13.1243 206.966C12.9798 206.964 12.8364 206.991 12.7023 207.046C12.5683 207.101 12.4463 207.183 12.3434 207.287C12.2405 207.391 12.1588 207.514 12.103 207.651C12.0473 207.787 12.0186 207.933 12.0186 208.081C12.0186 208.229 12.0473 208.375 12.103 208.511C12.1588 208.648 12.2405 208.771 12.3434 208.875C12.4463 208.979 12.5683 209.061 12.7023 209.116C12.8364 209.171 12.9798 209.198 13.1243 209.196H14.2145H16.395V206.966H14.2145H13.1243ZM28.3874 206.966H48.0113V222.576H28.3874V206.966ZM60.0037 206.966V209.196H62.1842H63.2744C63.4188 209.198 63.5623 209.171 63.6963 209.116C63.8304 209.061 63.9524 208.979 64.0553 208.875C64.1582 208.771 64.2399 208.648 64.2956 208.511C64.3514 208.375 64.3801 208.229 64.3801 208.081C64.3801 207.933 64.3514 207.787 64.2956 207.651C64.2399 207.514 64.1582 207.391 64.0553 207.287C63.9524 207.183 63.8304 207.101 63.6963 207.046C63.5623 206.991 63.4188 206.964 63.2744 206.966H62.1842H60.0037ZM13.1243 213.656C12.9798 213.654 12.8364 213.681 12.7023 213.736C12.5683 213.791 12.4463 213.873 12.3434 213.977C12.2405 214.081 12.1588 214.204 12.103 214.341C12.0473 214.477 12.0186 214.623 12.0186 214.771C12.0186 214.919 12.0473 215.065 12.103 215.201C12.1588 215.338 12.2405 215.461 12.3434 215.565C12.4463 215.669 12.5683 215.75 12.7023 215.806C12.8364 215.861 12.9798 215.888 13.1243 215.886H14.2145H16.395V213.656H14.2145H13.1243ZM60.0037 213.656V215.886H62.1842H63.2744C63.4188 215.888 63.5623 215.861 63.6963 215.806C63.8304 215.75 63.9524 215.669 64.0553 215.565C64.1582 215.461 64.2399 215.338 64.2956 215.201C64.3514 215.065 64.3801 214.919 64.3801 214.771C64.3801 214.623 64.3514 214.477 64.2956 214.341C64.2399 214.204 64.1582 214.081 64.0553 213.977C63.9524 213.873 63.8304 213.791 63.6963 213.736C63.5623 213.681 63.4188 213.654 63.2744 213.656H62.1842H60.0037ZM13.1243 220.346C12.9798 220.344 12.8364 220.371 12.7023 220.426C12.5683 220.481 12.4463 220.563 12.3434 220.667C12.2405 220.771 12.1588 220.894 12.103 221.031C12.0473 221.167 12.0186 221.313 12.0186 221.461C12.0186 221.609 12.0473 221.755 12.103 221.891C12.1588 222.028 12.2405 222.151 12.3434 222.255C12.4463 222.359 12.5683 222.44 12.7023 222.496C12.8364 222.551 12.9798 222.578 13.1243 222.576H14.2145H16.395V220.346H14.2145H13.1243ZM60.0037 220.346V222.576H62.1842H63.2744C63.4188 222.578 63.5623 222.551 63.6963 222.496C63.8304 222.44 63.9524 222.359 64.0553 222.255C64.1582 222.151 64.2399 222.028 64.2956 221.891C64.3514 221.755 64.3801 221.609 64.3801 221.461C64.3801 221.313 64.3514 221.167 64.2956 221.031C64.2399 220.894 64.1582 220.771 64.0553 220.667C63.9524 220.563 63.8304 220.481 63.6963 220.426C63.5623 220.371 63.4188 220.344 63.2744 220.346H62.1842H60.0037ZM13.1243 227.036C12.9798 227.034 12.8364 227.061 12.7023 227.116C12.5683 227.171 12.4463 227.253 12.3434 227.357C12.2405 227.461 12.1588 227.584 12.103 227.72C12.0473 227.857 12.0186 228.003 12.0186 228.151C12.0186 228.299 12.0473 228.445 12.103 228.581C12.1588 228.718 12.2405 228.841 12.3434 228.945C12.4463 229.049 12.5683 229.13 12.7023 229.186C12.8364 229.241 12.9798 229.268 13.1243 229.266H14.2145H16.395V227.036H14.2145H13.1243ZM60.0037 227.036V229.266H62.1842H63.2744C63.4188 229.268 63.5623 229.241 63.6963 229.186C63.8304 229.13 63.9524 229.049 64.0553 228.945C64.1582 228.841 64.2399 228.718 64.2956 228.581C64.3514 228.445 64.3801 228.299 64.3801 228.151C64.3801 228.003 64.3514 227.857 64.2956 227.72C64.2399 227.584 64.1582 227.461 64.0553 227.357C63.9524 227.253 63.8304 227.171 63.6963 227.116C63.5623 227.061 63.4188 227.034 63.2744 227.036H62.1842H60.0037ZM24.0265 237.071V239.301V240.416C24.0244 240.564 24.0511 240.71 24.105 240.847C24.1589 240.984 24.2389 241.109 24.3403 241.214C24.4417 241.32 24.5626 241.403 24.6959 241.46C24.8292 241.517 24.9722 241.547 25.1167 241.547C25.2612 241.547 25.4042 241.517 25.5375 241.46C25.6708 241.403 25.7917 241.32 25.8931 241.214C25.9946 241.109 26.0745 240.984 26.1284 240.847C26.1823 240.71 26.209 240.564 26.2069 240.416V239.301V237.071H24.0265ZM30.5678 237.071V239.301V240.416C30.5658 240.564 30.5925 240.71 30.6463 240.847C30.7002 240.984 30.7802 241.109 30.8816 241.214C30.9831 241.32 31.1039 241.403 31.2372 241.46C31.3705 241.517 31.5135 241.547 31.658 241.547C31.8025 241.547 31.9455 241.517 32.0788 241.46C32.2121 241.403 32.333 241.32 32.4344 241.214C32.5359 241.109 32.6159 240.984 32.6697 240.847C32.7236 240.71 32.7503 240.564 32.7482 240.416V239.301V237.071H30.5678ZM37.1091 237.071V239.301V240.416C37.1071 240.564 37.1338 240.71 37.1876 240.847C37.2415 240.984 37.3215 241.109 37.4229 241.214C37.5244 241.32 37.6452 241.403 37.7785 241.46C37.9118 241.517 38.0549 241.547 38.1993 241.547C38.3438 241.547 38.4869 241.517 38.6201 241.46C38.7534 241.403 38.8743 241.32 38.9757 241.214C39.0772 241.109 39.1572 240.984 39.211 240.847C39.2649 240.71 39.2916 240.564 39.2896 240.416V239.301V237.071H37.1091ZM43.6504 237.071V239.301V240.416C43.6484 240.564 43.6751 240.71 43.7289 240.847C43.7828 240.984 43.8628 241.109 43.9642 241.214C44.0657 241.32 44.1866 241.403 44.3198 241.46C44.4531 241.517 44.5962 241.547 44.7407 241.547C44.8851 241.547 45.0282 241.517 45.1615 241.46C45.2947 241.403 45.4156 241.32 45.5171 241.214C45.6185 241.109 45.6985 240.984 45.7523 240.847C45.8062 240.71 45.8329 240.564 45.8309 240.416V239.301V237.071H43.6504ZM50.1917 237.071V239.301V240.416C50.1897 240.564 50.2164 240.71 50.2703 240.847C50.3241 240.984 50.4041 241.109 50.5056 241.214C50.607 241.32 50.7279 241.403 50.8612 241.46C50.9944 241.517 51.1375 241.547 51.282 241.547C51.4264 241.547 51.5695 241.517 51.7028 241.46C51.8361 241.403 51.9569 241.32 52.0584 241.214C52.1598 241.109 52.2398 240.984 52.2937 240.847C52.3475 240.71 52.3742 240.564 52.3722 240.416V239.301V237.071H50.1917Z" fill="#376BC3"/>
<path d="M81.1747 215.005C80.7842 215.396 80.7842 216.029 81.1747 216.42L87.5387 222.783C87.9292 223.174 88.5624 223.174 88.9529 222.783C89.3434 222.393 89.3434 221.76 88.9529 221.369L83.296 215.712L88.9529 210.056C89.3434 209.665 89.3434 209.032 88.9529 208.641C88.5624 208.251 87.9292 208.251 87.5387 208.641L81.1747 215.005ZM359.049 216.419C359.44 216.029 359.44 215.396 359.049 215.005L352.685 208.641C352.295 208.251 351.661 208.251 351.271 208.641C350.88 209.032 350.88 209.665 351.271 210.056L356.928 215.712L351.271 221.369C350.88 221.76 350.88 222.393 351.271 222.783C351.661 223.174 352.295 223.174 352.685 222.783L359.049 216.419ZM81.8818 216.712L358.342 216.712L358.342 214.712L81.8818 214.712L81.8818 216.712Z" fill="#C4C4C4"/>
<path d="M469.325 215.005C468.935 215.396 468.935 216.029 469.325 216.42L475.689 222.783C476.08 223.174 476.713 223.174 477.103 222.783C477.494 222.393 477.494 221.76 477.103 221.369L471.446 215.712L477.103 210.056C477.494 209.665 477.494 209.032 477.103 208.641C476.713 208.251 476.08 208.251 475.689 208.641L469.325 215.005ZM747.199 216.42C747.59 216.029 747.59 215.396 747.199 215.005L740.836 208.641C740.445 208.251 739.812 208.251 739.421 208.641C739.031 209.032 739.031 209.665 739.421 210.056L745.078 215.712L739.421 221.369C739.031 221.76 739.031 222.393 739.421 222.783C739.812 223.174 740.445 223.174 740.836 222.783L747.199 216.42ZM470.032 216.712H746.492V214.712H470.032V216.712Z" fill="#C4C4C4"/>
<path d="M413.237 141.707C413.628 142.098 414.261 142.098 414.651 141.707L421.015 135.343C421.406 134.953 421.406 134.319 421.015 133.929C420.625 133.538 419.992 133.538 419.601 133.929L413.944 139.586L408.287 133.929C407.897 133.538 407.264 133.538 406.873 133.929C406.483 134.319 406.483 134.953 406.873 135.343L413.237 141.707ZM414.651 56.2929C414.261 55.9024 413.628 55.9024 413.237 56.2929L406.873 62.6569C406.483 63.0474 406.483 63.6805 406.873 64.0711C407.264 64.4616 407.897 64.4616 408.287 64.0711L413.944 58.4142L419.601 64.0711C419.992 64.4616 420.625 64.4616 421.015 64.0711C421.406 63.6805 421.406 63.0474 421.015 62.6569L414.651 56.2929ZM414.944 141L414.944 57L412.944 57L412.944 141L414.944 141Z" fill="#C4C4C4"/>
<path d="M148.954 185.48V186.872H140.944V175.672H148.733V177.064H142.521V180.504H148.055V181.864H142.521V185.48H148.954Z" fill="black"/>
<path d="M158.257 185.48V186.872H150.327V185.784L154.82 181.384C155.367 180.851 155.734 180.392 155.924 180.008C156.113 179.613 156.207 179.219 156.207 178.824C156.207 178.237 156.002 177.784 155.592 177.464C155.193 177.133 154.615 176.968 153.858 176.968C152.639 176.968 151.698 177.373 151.036 178.184L149.964 177.24C150.395 176.707 150.957 176.291 151.651 175.992C152.355 175.693 153.138 175.544 154 175.544C155.156 175.544 156.076 175.827 156.759 176.392C157.442 176.947 157.784 177.704 157.784 178.664C157.784 179.261 157.658 179.827 157.406 180.36C157.153 180.893 156.675 181.501 155.971 182.184L152.597 185.48H158.257Z" fill="black"/>
<path d="M168.461 185.48V186.872H160.452V175.672H168.24V177.064H162.029V180.504H167.562V181.864H162.029V185.48H168.461Z" fill="black"/>
<path d="M178.464 187C177.634 187 176.83 186.872 176.052 186.616C175.285 186.349 174.681 186.008 174.239 185.592L174.822 184.344C175.243 184.728 175.779 185.043 176.431 185.288C177.093 185.523 177.771 185.64 178.464 185.64C179.379 185.64 180.062 185.485 180.514 185.176C180.966 184.856 181.192 184.435 181.192 183.912C181.192 183.528 181.066 183.219 180.814 182.984C180.572 182.739 180.267 182.552 179.899 182.424C179.542 182.296 179.032 182.152 178.37 181.992C177.54 181.789 176.867 181.587 176.352 181.384C175.847 181.181 175.411 180.872 175.043 180.456C174.686 180.029 174.507 179.459 174.507 178.744C174.507 178.147 174.66 177.608 174.964 177.128C175.28 176.648 175.753 176.264 176.383 175.976C177.014 175.688 177.797 175.544 178.732 175.544C179.384 175.544 180.025 175.629 180.656 175.8C181.287 175.971 181.828 176.216 182.28 176.536L181.76 177.816C181.297 177.517 180.803 177.293 180.278 177.144C179.752 176.984 179.237 176.904 178.732 176.904C177.839 176.904 177.166 177.069 176.714 177.4C176.273 177.731 176.052 178.157 176.052 178.68C176.052 179.064 176.178 179.379 176.431 179.624C176.683 179.859 176.993 180.045 177.361 180.184C177.739 180.312 178.249 180.451 178.89 180.6C179.721 180.803 180.388 181.005 180.892 181.208C181.397 181.411 181.828 181.72 182.185 182.136C182.553 182.552 182.737 183.112 182.737 183.816C182.737 184.403 182.579 184.941 182.264 185.432C181.949 185.912 181.471 186.296 180.829 186.584C180.188 186.861 179.4 187 178.464 187Z" fill="black"/>
<path d="M192.372 182.68C192.372 182.797 192.361 182.952 192.34 183.144H185.561C185.655 183.891 185.976 184.493 186.522 184.952C187.08 185.4 187.768 185.624 188.588 185.624C189.586 185.624 190.39 185.283 191 184.6L191.836 185.592C191.457 186.04 190.984 186.381 190.417 186.616C189.86 186.851 189.234 186.968 188.541 186.968C187.658 186.968 186.875 186.787 186.191 186.424C185.508 186.051 184.977 185.533 184.599 184.872C184.231 184.211 184.047 183.464 184.047 182.632C184.047 181.811 184.226 181.069 184.583 180.408C184.951 179.747 185.45 179.235 186.081 178.872C186.722 178.499 187.442 178.312 188.241 178.312C189.04 178.312 189.749 178.499 190.369 178.872C191 179.235 191.489 179.747 191.836 180.408C192.193 181.069 192.372 181.827 192.372 182.68ZM188.241 179.608C187.516 179.608 186.906 179.832 186.412 180.28C185.929 180.728 185.645 181.315 185.561 182.04H190.921C190.837 181.325 190.548 180.744 190.054 180.296C189.571 179.837 188.966 179.608 188.241 179.608Z" fill="black"/>
<path d="M198.115 186.968C197.264 186.968 196.502 186.781 195.829 186.408C195.167 186.035 194.647 185.523 194.268 184.872C193.89 184.211 193.701 183.464 193.701 182.632C193.701 181.8 193.89 181.059 194.268 180.408C194.647 179.747 195.167 179.235 195.829 178.872C196.502 178.499 197.264 178.312 198.115 178.312C198.872 178.312 199.545 178.467 200.134 178.776C200.733 179.085 201.195 179.533 201.521 180.12L200.37 180.872C200.107 180.467 199.781 180.163 199.392 179.96C199.004 179.757 198.573 179.656 198.1 179.656C197.553 179.656 197.059 179.779 196.618 180.024C196.187 180.269 195.845 180.621 195.593 181.08C195.351 181.528 195.23 182.045 195.23 182.632C195.23 183.229 195.351 183.757 195.593 184.216C195.845 184.664 196.187 185.011 196.618 185.256C197.059 185.501 197.553 185.624 198.1 185.624C198.573 185.624 199.004 185.523 199.392 185.32C199.781 185.117 200.107 184.813 200.37 184.408L201.521 185.144C201.195 185.731 200.733 186.184 200.134 186.504C199.545 186.813 198.872 186.968 198.115 186.968Z" fill="black"/>
<path d="M211.269 178.392V186.872H209.834V185.592C209.529 186.029 209.125 186.371 208.62 186.616C208.126 186.851 207.585 186.968 206.996 186.968C205.882 186.968 205.005 186.659 204.363 186.04C203.722 185.411 203.402 184.488 203.402 183.272V178.392H204.915V183.096C204.915 183.917 205.11 184.541 205.499 184.968C205.887 185.384 206.445 185.592 207.17 185.592C207.969 185.592 208.599 185.347 209.062 184.856C209.524 184.365 209.755 183.672 209.755 182.776V178.392H211.269Z" fill="black"/>
<path d="M215.601 179.816C215.864 179.325 216.253 178.952 216.768 178.696C217.283 178.44 217.908 178.312 218.644 178.312V179.8C218.56 179.789 218.444 179.784 218.297 179.784C217.477 179.784 216.831 180.035 216.358 180.536C215.895 181.027 215.664 181.731 215.664 182.648V186.872H214.15V178.392H215.601V179.816Z" fill="black"/>
<path d="M227.984 182.68C227.984 182.797 227.974 182.952 227.953 183.144H221.173C221.268 183.891 221.588 184.493 222.135 184.952C222.692 185.4 223.381 185.624 224.2 185.624C225.199 185.624 226.003 185.283 226.613 184.6L227.448 185.592C227.07 186.04 226.597 186.381 226.029 186.616C225.472 186.851 224.847 186.968 224.153 186.968C223.27 186.968 222.487 186.787 221.804 186.424C221.121 186.051 220.59 185.533 220.212 184.872C219.844 184.211 219.66 183.464 219.66 182.632C219.66 181.811 219.838 181.069 220.196 180.408C220.564 179.747 221.063 179.235 221.694 178.872C222.335 178.499 223.055 178.312 223.854 178.312C224.652 178.312 225.362 178.499 225.982 178.872C226.613 179.235 227.101 179.747 227.448 180.408C227.806 181.069 227.984 181.827 227.984 182.68ZM223.854 179.608C223.128 179.608 222.519 179.832 222.025 180.28C221.541 180.728 221.257 181.315 221.173 182.04H226.534C226.45 181.325 226.161 180.744 225.667 180.296C225.183 179.837 224.579 179.608 223.854 179.608Z" fill="black"/>
<path d="M239.476 187C238.372 187 237.373 186.755 236.48 186.264C235.597 185.763 234.903 185.08 234.399 184.216C233.894 183.341 233.642 182.36 233.642 181.272C233.642 180.184 233.894 179.208 234.399 178.344C234.903 177.469 235.602 176.787 236.496 176.296C237.389 175.795 238.388 175.544 239.491 175.544C240.353 175.544 241.142 175.693 241.856 175.992C242.571 176.28 243.181 176.712 243.685 177.288L242.66 178.296C241.83 177.411 240.795 176.968 239.554 176.968C238.735 176.968 237.994 177.155 237.331 177.528C236.669 177.901 236.149 178.419 235.771 179.08C235.403 179.731 235.219 180.461 235.219 181.272C235.219 182.083 235.403 182.819 235.771 183.48C236.149 184.131 236.669 184.643 237.331 185.016C237.994 185.389 238.735 185.576 239.554 185.576C240.784 185.576 241.82 185.128 242.66 184.232L243.685 185.24C243.181 185.816 242.566 186.253 241.841 186.552C241.126 186.851 240.337 187 239.476 187Z" fill="black"/>
<path d="M250.175 178.312C251.237 178.312 252.078 178.627 252.698 179.256C253.329 179.875 253.644 180.787 253.644 181.992V186.872H252.13V182.168C252.13 181.347 251.936 180.728 251.547 180.312C251.158 179.896 250.601 179.688 249.876 179.688C249.056 179.688 248.41 179.933 247.937 180.424C247.464 180.904 247.227 181.597 247.227 182.504V186.872H245.714V175H247.227V179.592C247.542 179.187 247.952 178.872 248.457 178.648C248.972 178.424 249.545 178.312 250.175 178.312Z" fill="black"/>
<path d="M259.488 178.312C260.644 178.312 261.527 178.6 262.137 179.176C262.757 179.752 263.067 180.611 263.067 181.752V186.872H261.632V185.752C261.38 186.147 261.017 186.451 260.544 186.664C260.082 186.867 259.53 186.968 258.889 186.968C257.953 186.968 257.202 186.739 256.634 186.28C256.077 185.821 255.799 185.219 255.799 184.472C255.799 183.725 256.067 183.128 256.603 182.68C257.139 182.221 257.99 181.992 259.157 181.992H261.553V181.688C261.553 181.027 261.364 180.52 260.986 180.168C260.607 179.816 260.05 179.64 259.315 179.64C258.821 179.64 258.337 179.725 257.864 179.896C257.391 180.056 256.992 180.275 256.666 180.552L256.035 179.4C256.466 179.048 256.981 178.781 257.58 178.6C258.179 178.408 258.815 178.312 259.488 178.312ZM259.141 185.784C259.719 185.784 260.218 185.656 260.639 185.4C261.059 185.133 261.364 184.76 261.553 184.28V183.096H259.22C257.938 183.096 257.296 183.533 257.296 184.408C257.296 184.835 257.459 185.171 257.785 185.416C258.111 185.661 258.563 185.784 259.141 185.784Z" fill="black"/>
<path d="M270.33 178.312C271.391 178.312 272.232 178.627 272.852 179.256C273.483 179.875 273.798 180.787 273.798 181.992V186.872H272.285V182.168C272.285 181.347 272.09 180.728 271.701 180.312C271.312 179.896 270.755 179.688 270.03 179.688C269.21 179.688 268.564 179.933 268.091 180.424C267.618 180.904 267.381 181.597 267.381 182.504V186.872H265.868V178.392H267.318V179.672C267.623 179.235 268.033 178.899 268.548 178.664C269.074 178.429 269.668 178.312 270.33 178.312Z" fill="black"/>
<path d="M281.061 178.312C282.123 178.312 282.964 178.627 283.584 179.256C284.214 179.875 284.53 180.787 284.53 181.992V186.872H283.016V182.168C283.016 181.347 282.822 180.728 282.433 180.312C282.044 179.896 281.487 179.688 280.762 179.688C279.942 179.688 279.295 179.933 278.822 180.424C278.349 180.904 278.113 181.597 278.113 182.504V186.872H276.599V178.392H278.05V179.672C278.355 179.235 278.765 178.899 279.28 178.664C279.805 178.429 280.399 178.312 281.061 178.312Z" fill="black"/>
<path d="M294.929 182.68C294.929 182.797 294.919 182.952 294.898 183.144H288.118C288.213 183.891 288.533 184.493 289.08 184.952C289.637 185.4 290.325 185.624 291.145 185.624C292.144 185.624 292.948 185.283 293.557 184.6L294.393 185.592C294.015 186.04 293.542 186.381 292.974 186.616C292.417 186.851 291.792 186.968 291.098 186.968C290.215 186.968 289.432 186.787 288.749 186.424C288.066 186.051 287.535 185.533 287.156 184.872C286.788 184.211 286.604 183.464 286.604 182.632C286.604 181.811 286.783 181.069 287.141 180.408C287.508 179.747 288.008 179.235 288.638 178.872C289.279 178.499 289.999 178.312 290.798 178.312C291.597 178.312 292.307 178.499 292.927 178.872C293.557 179.235 294.046 179.747 294.393 180.408C294.75 181.069 294.929 181.827 294.929 182.68ZM290.798 179.608C290.073 179.608 289.463 179.832 288.969 180.28C288.486 180.728 288.202 181.315 288.118 182.04H293.479C293.394 181.325 293.105 180.744 292.611 180.296C292.128 179.837 291.524 179.608 290.798 179.608Z" fill="black"/>
<path d="M297.031 175H298.544V186.872H297.031V175Z" fill="black"/>
<path d="M540.954 186.48V187.872H532.944V176.672H540.733V178.064H534.521V181.504H540.055V182.864H534.521V186.48H540.954Z" fill="black"/>
<path d="M550.257 186.48V187.872H542.327V186.784L546.82 182.384C547.367 181.851 547.734 181.392 547.924 181.008C548.113 180.613 548.207 180.219 548.207 179.824C548.207 179.237 548.002 178.784 547.592 178.464C547.193 178.133 546.615 177.968 545.858 177.968C544.639 177.968 543.698 178.373 543.036 179.184L541.964 178.24C542.395 177.707 542.957 177.291 543.651 176.992C544.355 176.693 545.138 176.544 546 176.544C547.156 176.544 548.076 176.827 548.759 177.392C549.442 177.947 549.784 178.704 549.784 179.664C549.784 180.261 549.658 180.827 549.406 181.36C549.153 181.893 548.675 182.501 547.971 183.184L544.597 186.48H550.257Z" fill="black"/>
<path d="M560.461 186.48V187.872H552.452V176.672H560.24V178.064H554.029V181.504H559.562V182.864H554.029V186.48H560.461Z" fill="black"/>
<path d="M570.464 188C569.634 188 568.83 187.872 568.052 187.616C567.285 187.349 566.681 187.008 566.239 186.592L566.822 185.344C567.243 185.728 567.779 186.043 568.431 186.288C569.093 186.523 569.771 186.64 570.464 186.64C571.379 186.64 572.062 186.485 572.514 186.176C572.966 185.856 573.192 185.435 573.192 184.912C573.192 184.528 573.066 184.219 572.814 183.984C572.572 183.739 572.267 183.552 571.899 183.424C571.542 183.296 571.032 183.152 570.37 182.992C569.54 182.789 568.867 182.587 568.352 182.384C567.847 182.181 567.411 181.872 567.043 181.456C566.686 181.029 566.507 180.459 566.507 179.744C566.507 179.147 566.66 178.608 566.964 178.128C567.28 177.648 567.753 177.264 568.383 176.976C569.014 176.688 569.797 176.544 570.732 176.544C571.384 176.544 572.025 176.629 572.656 176.8C573.287 176.971 573.828 177.216 574.28 177.536L573.76 178.816C573.297 178.517 572.803 178.293 572.278 178.144C571.752 177.984 571.237 177.904 570.732 177.904C569.839 177.904 569.166 178.069 568.714 178.4C568.273 178.731 568.052 179.157 568.052 179.68C568.052 180.064 568.178 180.379 568.431 180.624C568.683 180.859 568.993 181.045 569.361 181.184C569.739 181.312 570.249 181.451 570.89 181.6C571.721 181.803 572.388 182.005 572.892 182.208C573.397 182.411 573.828 182.72 574.185 183.136C574.553 183.552 574.737 184.112 574.737 184.816C574.737 185.403 574.579 185.941 574.264 186.432C573.949 186.912 573.471 187.296 572.829 187.584C572.188 187.861 571.4 188 570.464 188Z" fill="black"/>
<path d="M584.372 183.68C584.372 183.797 584.361 183.952 584.34 184.144H577.561C577.655 184.891 577.976 185.493 578.522 185.952C579.08 186.4 579.768 186.624 580.588 186.624C581.586 186.624 582.39 186.283 583 185.6L583.836 186.592C583.457 187.04 582.984 187.381 582.417 187.616C581.86 187.851 581.234 187.968 580.541 187.968C579.658 187.968 578.875 187.787 578.191 187.424C577.508 187.051 576.977 186.533 576.599 185.872C576.231 185.211 576.047 184.464 576.047 183.632C576.047 182.811 576.226 182.069 576.583 181.408C576.951 180.747 577.45 180.235 578.081 179.872C578.722 179.499 579.442 179.312 580.241 179.312C581.04 179.312 581.749 179.499 582.369 179.872C583 180.235 583.489 180.747 583.836 181.408C584.193 182.069 584.372 182.827 584.372 183.68ZM580.241 180.608C579.516 180.608 578.906 180.832 578.412 181.28C577.929 181.728 577.645 182.315 577.561 183.04H582.921C582.837 182.325 582.548 181.744 582.054 181.296C581.571 180.837 580.966 180.608 580.241 180.608Z" fill="black"/>
<path d="M590.115 187.968C589.264 187.968 588.502 187.781 587.829 187.408C587.167 187.035 586.647 186.523 586.268 185.872C585.89 185.211 585.701 184.464 585.701 183.632C585.701 182.8 585.89 182.059 586.268 181.408C586.647 180.747 587.167 180.235 587.829 179.872C588.502 179.499 589.264 179.312 590.115 179.312C590.872 179.312 591.545 179.467 592.134 179.776C592.733 180.085 593.195 180.533 593.521 181.12L592.37 181.872C592.107 181.467 591.781 181.163 591.392 180.96C591.004 180.757 590.573 180.656 590.1 180.656C589.553 180.656 589.059 180.779 588.618 181.024C588.187 181.269 587.845 181.621 587.593 182.08C587.351 182.528 587.23 183.045 587.23 183.632C587.23 184.229 587.351 184.757 587.593 185.216C587.845 185.664 588.187 186.011 588.618 186.256C589.059 186.501 589.553 186.624 590.1 186.624C590.573 186.624 591.004 186.523 591.392 186.32C591.781 186.117 592.107 185.813 592.37 185.408L593.521 186.144C593.195 186.731 592.733 187.184 592.134 187.504C591.545 187.813 590.872 187.968 590.115 187.968Z" fill="black"/>
<path d="M603.269 179.392V187.872H601.834V186.592C601.529 187.029 601.125 187.371 600.62 187.616C600.126 187.851 599.585 187.968 598.996 187.968C597.882 187.968 597.005 187.659 596.363 187.04C595.722 186.411 595.402 185.488 595.402 184.272V179.392H596.915V184.096C596.915 184.917 597.11 185.541 597.499 185.968C597.887 186.384 598.445 186.592 599.17 186.592C599.969 186.592 600.599 186.347 601.062 185.856C601.524 185.365 601.755 184.672 601.755 183.776V179.392H603.269Z" fill="black"/>
<path d="M607.601 180.816C607.864 180.325 608.253 179.952 608.768 179.696C609.283 179.44 609.908 179.312 610.644 179.312V180.8C610.56 180.789 610.444 180.784 610.297 180.784C609.477 180.784 608.831 181.035 608.358 181.536C607.895 182.027 607.664 182.731 607.664 183.648V187.872H606.15V179.392H607.601V180.816Z" fill="black"/>
<path d="M619.984 183.68C619.984 183.797 619.974 183.952 619.953 184.144H613.173C613.268 184.891 613.588 185.493 614.135 185.952C614.692 186.4 615.381 186.624 616.2 186.624C617.199 186.624 618.003 186.283 618.613 185.6L619.448 186.592C619.07 187.04 618.597 187.381 618.029 187.616C617.472 187.851 616.847 187.968 616.153 187.968C615.27 187.968 614.487 187.787 613.804 187.424C613.121 187.051 612.59 186.533 612.212 185.872C611.844 185.211 611.66 184.464 611.66 183.632C611.66 182.811 611.838 182.069 612.196 181.408C612.564 180.747 613.063 180.235 613.694 179.872C614.335 179.499 615.055 179.312 615.854 179.312C616.652 179.312 617.362 179.499 617.982 179.872C618.613 180.235 619.101 180.747 619.448 181.408C619.806 182.069 619.984 182.827 619.984 183.68ZM615.854 180.608C615.128 180.608 614.519 180.832 614.025 181.28C613.541 181.728 613.257 182.315 613.173 183.04H618.534C618.45 182.325 618.161 181.744 617.667 181.296C617.183 180.837 616.579 180.608 615.854 180.608Z" fill="black"/>
<path d="M631.476 188C630.372 188 629.373 187.755 628.48 187.264C627.597 186.763 626.903 186.08 626.399 185.216C625.894 184.341 625.642 183.36 625.642 182.272C625.642 181.184 625.894 180.208 626.399 179.344C626.903 178.469 627.602 177.787 628.496 177.296C629.389 176.795 630.388 176.544 631.491 176.544C632.353 176.544 633.142 176.693 633.856 176.992C634.571 177.28 635.181 177.712 635.685 178.288L634.66 179.296C633.83 178.411 632.795 177.968 631.554 177.968C630.735 177.968 629.994 178.155 629.331 178.528C628.669 178.901 628.149 179.419 627.771 180.08C627.403 180.731 627.219 181.461 627.219 182.272C627.219 183.083 627.403 183.819 627.771 184.48C628.149 185.131 628.669 185.643 629.331 186.016C629.994 186.389 630.735 186.576 631.554 186.576C632.784 186.576 633.82 186.128 634.66 185.232L635.685 186.24C635.181 186.816 634.566 187.253 633.841 187.552C633.126 187.851 632.337 188 631.476 188Z" fill="black"/>
<path d="M642.175 179.312C643.237 179.312 644.078 179.627 644.698 180.256C645.329 180.875 645.644 181.787 645.644 182.992V187.872H644.13V183.168C644.13 182.347 643.936 181.728 643.547 181.312C643.158 180.896 642.601 180.688 641.876 180.688C641.056 180.688 640.41 180.933 639.937 181.424C639.464 181.904 639.227 182.597 639.227 183.504V187.872H637.714V176H639.227V180.592C639.542 180.187 639.952 179.872 640.457 179.648C640.972 179.424 641.545 179.312 642.175 179.312Z" fill="black"/>
<path d="M651.488 179.312C652.644 179.312 653.527 179.6 654.137 180.176C654.757 180.752 655.067 181.611 655.067 182.752V187.872H653.632V186.752C653.38 187.147 653.017 187.451 652.544 187.664C652.082 187.867 651.53 187.968 650.889 187.968C649.953 187.968 649.202 187.739 648.634 187.28C648.077 186.821 647.799 186.219 647.799 185.472C647.799 184.725 648.067 184.128 648.603 183.68C649.139 183.221 649.99 182.992 651.157 182.992H653.553V182.688C653.553 182.027 653.364 181.52 652.986 181.168C652.607 180.816 652.05 180.64 651.315 180.64C650.821 180.64 650.337 180.725 649.864 180.896C649.391 181.056 648.992 181.275 648.666 181.552L648.035 180.4C648.466 180.048 648.981 179.781 649.58 179.6C650.179 179.408 650.815 179.312 651.488 179.312ZM651.141 186.784C651.719 186.784 652.218 186.656 652.639 186.4C653.059 186.133 653.364 185.76 653.553 185.28V184.096H651.22C649.938 184.096 649.296 184.533 649.296 185.408C649.296 185.835 649.459 186.171 649.785 186.416C650.111 186.661 650.563 186.784 651.141 186.784Z" fill="black"/>
<path d="M662.33 179.312C663.391 179.312 664.232 179.627 664.852 180.256C665.483 180.875 665.798 181.787 665.798 182.992V187.872H664.285V183.168C664.285 182.347 664.09 181.728 663.701 181.312C663.312 180.896 662.755 180.688 662.03 180.688C661.21 180.688 660.564 180.933 660.091 181.424C659.618 181.904 659.381 182.597 659.381 183.504V187.872H657.868V179.392H659.318V180.672C659.623 180.235 660.033 179.899 660.548 179.664C661.074 179.429 661.668 179.312 662.33 179.312Z" fill="black"/>
<path d="M673.061 179.312C674.123 179.312 674.964 179.627 675.584 180.256C676.214 180.875 676.53 181.787 676.53 182.992V187.872H675.016V183.168C675.016 182.347 674.822 181.728 674.433 181.312C674.044 180.896 673.487 180.688 672.762 180.688C671.942 180.688 671.295 180.933 670.822 181.424C670.349 181.904 670.113 182.597 670.113 183.504V187.872H668.599V179.392H670.05V180.672C670.355 180.235 670.765 179.899 671.28 179.664C671.805 179.429 672.399 179.312 673.061 179.312Z" fill="black"/>
<path d="M686.929 183.68C686.929 183.797 686.919 183.952 686.898 184.144H680.118C680.213 184.891 680.533 185.493 681.08 185.952C681.637 186.4 682.325 186.624 683.145 186.624C684.144 186.624 684.948 186.283 685.557 185.6L686.393 186.592C686.015 187.04 685.542 187.381 684.974 187.616C684.417 187.851 683.792 187.968 683.098 187.968C682.215 187.968 681.432 187.787 680.749 187.424C680.066 187.051 679.535 186.533 679.156 185.872C678.788 185.211 678.604 184.464 678.604 183.632C678.604 182.811 678.783 182.069 679.141 181.408C679.508 180.747 680.008 180.235 680.638 179.872C681.279 179.499 681.999 179.312 682.798 179.312C683.597 179.312 684.307 179.499 684.927 179.872C685.557 180.235 686.046 180.747 686.393 181.408C686.75 182.069 686.929 182.827 686.929 183.68ZM682.798 180.608C682.073 180.608 681.463 180.832 680.969 181.28C680.486 181.728 680.202 182.315 680.118 183.04H685.479C685.394 182.325 685.105 181.744 684.611 181.296C684.128 180.837 683.524 180.608 682.798 180.608Z" fill="black"/>
<path d="M689.031 176H690.544V187.872H689.031V176Z" fill="black"/>
<path d="M780.616 187.996C780.32 188 780.039 188.122 779.833 188.334C779.627 188.546 779.514 188.831 779.518 189.126V190.241V192.471H781.748V190.241V189.126C781.75 188.977 781.722 188.829 781.666 188.691C781.61 188.552 781.526 188.427 781.421 188.321C781.315 188.216 781.19 188.133 781.051 188.077C780.913 188.021 780.765 187.993 780.616 187.996ZM787.306 187.996C787.01 188 786.729 188.122 786.523 188.334C786.317 188.546 786.204 188.831 786.208 189.126V190.241V192.471H788.438V190.241V189.126C788.44 188.977 788.412 188.829 788.356 188.691C788.3 188.552 788.216 188.427 788.111 188.321C788.005 188.216 787.88 188.133 787.741 188.077C787.603 188.021 787.455 187.993 787.306 187.996ZM793.996 187.996C793.7 188 793.419 188.122 793.213 188.334C793.007 188.546 792.894 188.831 792.898 189.126V190.241V192.471H795.128V190.241V189.126C795.13 188.977 795.102 188.829 795.046 188.691C794.99 188.552 794.906 188.427 794.801 188.321C794.695 188.216 794.57 188.133 794.431 188.077C794.293 188.021 794.145 187.993 793.996 187.996ZM800.686 187.996C800.39 188 800.109 188.122 799.903 188.334C799.697 188.546 799.584 188.831 799.588 189.126V190.241V192.471H801.818V190.241V189.126C801.82 188.977 801.792 188.829 801.736 188.691C801.68 188.552 801.596 188.427 801.491 188.321C801.385 188.216 801.26 188.133 801.121 188.077C800.983 188.021 800.835 187.993 800.686 187.996ZM807.376 187.996C807.08 188 806.799 188.122 806.593 188.334C806.387 188.546 806.274 188.831 806.278 189.126V190.241V192.471H808.508V190.241V189.126C808.51 188.977 808.482 188.829 808.426 188.691C808.37 188.552 808.286 188.427 808.181 188.321C808.075 188.216 807.95 188.133 807.811 188.077C807.673 188.021 807.525 187.993 807.376 187.996ZM776.173 193.586C774.326 193.586 772.828 195.083 772.828 196.931V232.611C772.828 234.458 774.326 235.956 776.173 235.956H811.853C813.701 235.956 815.198 234.458 815.198 232.611V196.931C815.198 195.083 813.701 193.586 811.853 193.586H776.173ZM768.368 200.276C768.22 200.274 768.074 200.301 767.937 200.356C767.8 200.411 767.675 200.493 767.57 200.597C767.464 200.701 767.381 200.824 767.324 200.961C767.267 201.097 767.237 201.243 767.237 201.391C767.237 201.539 767.267 201.685 767.324 201.821C767.381 201.958 767.464 202.081 767.57 202.185C767.675 202.289 767.8 202.371 767.937 202.426C768.074 202.481 768.22 202.508 768.368 202.506H769.483H771.713V200.276H769.483H768.368ZM816.313 200.276V202.506H818.543H819.658C819.806 202.508 819.952 202.481 820.09 202.426C820.227 202.371 820.351 202.289 820.457 202.185C820.562 202.081 820.645 201.958 820.703 201.821C820.76 201.685 820.789 201.539 820.789 201.391C820.789 201.243 820.76 201.097 820.703 200.961C820.645 200.824 820.562 200.701 820.457 200.597C820.351 200.493 820.227 200.411 820.09 200.356C819.952 200.301 819.806 200.274 819.658 200.276H818.543H816.313ZM768.368 206.966C768.22 206.964 768.074 206.991 767.937 207.046C767.8 207.101 767.675 207.183 767.57 207.287C767.464 207.391 767.381 207.514 767.324 207.651C767.267 207.787 767.237 207.933 767.237 208.081C767.237 208.229 767.267 208.375 767.324 208.511C767.381 208.648 767.464 208.771 767.57 208.875C767.675 208.979 767.8 209.061 767.937 209.116C768.074 209.171 768.22 209.198 768.368 209.196H769.483H771.713V206.966H769.483H768.368ZM783.978 206.966H804.048V222.576H783.978V206.966ZM816.313 206.966V209.196H818.543H819.658C819.806 209.198 819.952 209.171 820.09 209.116C820.227 209.061 820.351 208.979 820.457 208.875C820.562 208.771 820.645 208.648 820.703 208.511C820.76 208.375 820.789 208.229 820.789 208.081C820.789 207.933 820.76 207.787 820.703 207.651C820.645 207.514 820.562 207.391 820.457 207.287C820.351 207.183 820.227 207.101 820.09 207.046C819.952 206.991 819.806 206.964 819.658 206.966H818.543H816.313ZM768.368 213.656C768.22 213.654 768.074 213.681 767.937 213.736C767.8 213.791 767.675 213.873 767.57 213.977C767.464 214.081 767.381 214.204 767.324 214.341C767.267 214.477 767.237 214.623 767.237 214.771C767.237 214.919 767.267 215.065 767.324 215.201C767.381 215.338 767.464 215.461 767.57 215.565C767.675 215.669 767.8 215.75 767.937 215.806C768.074 215.861 768.22 215.888 768.368 215.886H769.483H771.713V213.656H769.483H768.368ZM816.313 213.656V215.886H818.543H819.658C819.806 215.888 819.952 215.861 820.09 215.806C820.227 215.75 820.351 215.669 820.457 215.565C820.562 215.461 820.645 215.338 820.703 215.201C820.76 215.065 820.789 214.919 820.789 214.771C820.789 214.623 820.76 214.477 820.703 214.341C820.645 214.204 820.562 214.081 820.457 213.977C820.351 213.873 820.227 213.791 820.09 213.736C819.952 213.681 819.806 213.654 819.658 213.656H818.543H816.313ZM768.368 220.346C768.22 220.344 768.074 220.371 767.937 220.426C767.8 220.481 767.675 220.563 767.57 220.667C767.464 220.771 767.381 220.894 767.324 221.031C767.267 221.167 767.237 221.313 767.237 221.461C767.237 221.609 767.267 221.755 767.324 221.891C767.381 222.028 767.464 222.151 767.57 222.255C767.675 222.359 767.8 222.44 767.937 222.496C768.074 222.551 768.22 222.578 768.368 222.576H769.483H771.713V220.346H769.483H768.368ZM816.313 220.346V222.576H818.543H819.658C819.806 222.578 819.952 222.551 820.09 222.496C820.227 222.44 820.351 222.359 820.457 222.255C820.562 222.151 820.645 222.028 820.703 221.891C820.76 221.755 820.789 221.609 820.789 221.461C820.789 221.313 820.76 221.167 820.703 221.031C820.645 220.894 820.562 220.771 820.457 220.667C820.351 220.563 820.227 220.481 820.09 220.426C819.952 220.371 819.806 220.344 819.658 220.346H818.543H816.313ZM768.368 227.036C768.22 227.034 768.074 227.061 767.937 227.116C767.8 227.171 767.675 227.253 767.57 227.357C767.464 227.461 767.381 227.584 767.324 227.72C767.267 227.857 767.237 228.003 767.237 228.151C767.237 228.299 767.267 228.445 767.324 228.581C767.381 228.718 767.464 228.841 767.57 228.945C767.675 229.049 767.8 229.13 767.937 229.186C768.074 229.241 768.22 229.268 768.368 229.266H769.483H771.713V227.036H769.483H768.368ZM816.313 227.036V229.266H818.543H819.658C819.806 229.268 819.952 229.241 820.09 229.186C820.227 229.13 820.351 229.049 820.457 228.945C820.562 228.841 820.645 228.718 820.703 228.581C820.76 228.445 820.789 228.299 820.789 228.151C820.789 228.003 820.76 227.857 820.703 227.72C820.645 227.584 820.562 227.461 820.457 227.357C820.351 227.253 820.227 227.171 820.09 227.116C819.952 227.061 819.806 227.034 819.658 227.036H818.543H816.313ZM779.518 237.071V239.301V240.416C779.516 240.564 779.543 240.71 779.598 240.847C779.654 240.984 779.735 241.109 779.839 241.214C779.943 241.32 780.066 241.403 780.203 241.46C780.339 241.517 780.485 241.547 780.633 241.547C780.781 241.547 780.927 241.517 781.064 241.46C781.2 241.403 781.323 241.32 781.427 241.214C781.531 241.109 781.613 240.984 781.668 240.847C781.723 240.71 781.75 240.564 781.748 240.416V239.301V237.071H779.518ZM786.208 237.071V239.301V240.416C786.206 240.564 786.233 240.71 786.288 240.847C786.344 240.984 786.425 241.109 786.529 241.214C786.633 241.32 786.756 241.403 786.893 241.46C787.029 241.517 787.175 241.547 787.323 241.547C787.471 241.547 787.617 241.517 787.753 241.46C787.89 241.403 788.013 241.32 788.117 241.214C788.221 241.109 788.303 240.984 788.358 240.847C788.413 240.71 788.44 240.564 788.438 240.416V239.301V237.071H786.208ZM792.898 237.071V239.301V240.416C792.896 240.564 792.923 240.71 792.978 240.847C793.034 240.984 793.115 241.109 793.219 241.214C793.323 241.32 793.446 241.403 793.583 241.46C793.719 241.517 793.865 241.547 794.013 241.547C794.161 241.547 794.307 241.517 794.443 241.46C794.58 241.403 794.703 241.32 794.807 241.214C794.911 241.109 794.993 240.984 795.048 240.847C795.103 240.71 795.13 240.564 795.128 240.416V239.301V237.071H792.898ZM799.588 237.071V239.301V240.416C799.586 240.564 799.613 240.71 799.668 240.847C799.723 240.984 799.805 241.109 799.909 241.214C800.013 241.32 800.136 241.403 800.273 241.46C800.409 241.517 800.555 241.547 800.703 241.547C800.851 241.547 800.997 241.517 801.133 241.46C801.27 241.403 801.393 241.32 801.497 241.214C801.601 241.109 801.683 240.984 801.738 240.847C801.793 240.71 801.82 240.564 801.818 240.416V239.301V237.071H799.588ZM806.278 237.071V239.301V240.416C806.276 240.564 806.303 240.71 806.358 240.847C806.413 240.984 806.495 241.109 806.599 241.214C806.703 241.32 806.826 241.403 806.963 241.46C807.099 241.517 807.245 241.547 807.393 241.547C807.541 241.547 807.687 241.517 807.823 241.46C807.96 241.403 808.083 241.32 808.187 241.214C808.291 241.109 808.373 240.984 808.428 240.847C808.483 240.71 808.51 240.564 808.508 240.416V239.301V237.071H806.278Z" fill="#376BC3"/>
<rect x="0.5" y="357.708" width="828.888" height="51.7919" rx="9.5" fill="white" stroke="#376BC3"/>
<path d="M236.944 378.227H242.253C243.548 378.227 244.699 378.477 245.705 378.977C246.711 379.465 247.491 380.164 248.047 381.073C248.602 381.97 248.879 383.009 248.879 384.191C248.879 385.372 248.602 386.417 248.047 387.326C247.491 388.224 246.711 388.922 245.705 389.422C244.699 389.911 243.548 390.155 242.253 390.155H236.944V378.227ZM242.148 388.281C243.039 388.281 243.82 388.116 244.49 387.786C245.173 387.446 245.693 386.968 246.052 386.355C246.422 385.73 246.607 385.009 246.607 384.191C246.607 383.373 246.422 382.657 246.052 382.044C245.693 381.419 245.173 380.942 244.49 380.612C243.82 380.272 243.039 380.101 242.148 380.101H239.199V388.281H242.148Z" fill="#376BC3"/>
<path d="M259.776 385.656C259.776 385.804 259.765 386.014 259.741 386.287H252.473C252.6 386.957 252.93 387.491 253.462 387.889C254.005 388.275 254.676 388.468 255.474 388.468C256.492 388.468 257.33 388.139 257.989 387.48L259.152 388.792C258.735 389.28 258.209 389.649 257.573 389.899C256.937 390.149 256.22 390.274 255.422 390.274C254.404 390.274 253.508 390.075 252.733 389.678C251.958 389.28 251.357 388.729 250.929 388.025C250.513 387.309 250.305 386.503 250.305 385.605C250.305 384.719 250.507 383.924 250.912 383.22C251.328 382.504 251.901 381.947 252.629 381.55C253.358 381.152 254.179 380.953 255.092 380.953C255.994 380.953 256.798 381.152 257.504 381.55C258.221 381.936 258.776 382.487 259.169 383.203C259.574 383.907 259.776 384.725 259.776 385.656ZM255.092 382.657C254.399 382.657 253.809 382.862 253.323 383.271C252.849 383.668 252.56 384.202 252.456 384.873H257.712C257.619 384.214 257.336 383.68 256.862 383.271C256.388 382.862 255.798 382.657 255.092 382.657Z" fill="#376BC3"/>
<path d="M266.109 390.274C265.149 390.274 264.288 390.075 263.524 389.678C262.761 389.28 262.166 388.729 261.738 388.025C261.31 387.309 261.096 386.503 261.096 385.605C261.096 384.708 261.31 383.907 261.738 383.203C262.166 382.498 262.755 381.947 263.507 381.55C264.27 381.152 265.138 380.953 266.109 380.953C267.023 380.953 267.821 381.135 268.503 381.499C269.197 381.862 269.717 382.385 270.064 383.066L268.399 384.021C268.133 383.6 267.798 383.288 267.393 383.083C267 382.867 266.566 382.76 266.092 382.76C265.282 382.76 264.611 383.021 264.079 383.543C263.548 384.055 263.282 384.742 263.282 385.605C263.282 386.469 263.542 387.162 264.062 387.684C264.594 388.195 265.271 388.451 266.092 388.451C266.566 388.451 267 388.349 267.393 388.144C267.798 387.928 268.133 387.61 268.399 387.19L270.064 388.144C269.706 388.826 269.18 389.354 268.486 389.729C267.803 390.092 267.011 390.274 266.109 390.274Z" fill="#376BC3"/>
<path d="M280.511 385.656C280.511 385.804 280.5 386.014 280.477 386.287H273.208C273.335 386.957 273.665 387.491 274.197 387.889C274.741 388.275 275.411 388.468 276.209 388.468C277.227 388.468 278.065 388.139 278.725 387.48L279.887 388.792C279.471 389.28 278.944 389.649 278.308 389.899C277.672 390.149 276.955 390.274 276.157 390.274C275.14 390.274 274.243 390.075 273.468 389.678C272.694 389.28 272.092 388.729 271.664 388.025C271.248 387.309 271.04 386.503 271.04 385.605C271.04 384.719 271.242 383.924 271.647 383.22C272.063 382.504 272.636 381.947 273.364 381.55C274.093 381.152 274.914 380.953 275.828 380.953C276.73 380.953 277.534 381.152 278.239 381.55C278.956 381.936 279.511 382.487 279.904 383.203C280.309 383.907 280.511 384.725 280.511 385.656ZM275.828 382.657C275.134 382.657 274.544 382.862 274.058 383.271C273.584 383.668 273.295 384.202 273.191 384.873H278.447C278.355 384.214 278.071 383.68 277.597 383.271C277.123 382.862 276.533 382.657 275.828 382.657Z" fill="#376BC3"/>
<path d="M287.851 380.953C289.019 380.953 289.955 381.288 290.661 381.959C291.366 382.629 291.719 383.623 291.719 384.941V390.155H289.551V385.213C289.551 384.418 289.36 383.822 288.978 383.424C288.596 383.015 288.053 382.811 287.347 382.811C286.549 382.811 285.919 383.049 285.457 383.526C284.994 383.992 284.763 384.668 284.763 385.554V390.155H282.594V381.056H284.659V382.231C285.017 381.811 285.468 381.493 286.012 381.277C286.555 381.061 287.168 380.953 287.851 380.953Z" fill="#376BC3"/>
<path d="M300.038 389.661C299.784 389.865 299.471 390.019 299.101 390.121C298.743 390.223 298.361 390.274 297.956 390.274C296.939 390.274 296.152 390.013 295.597 389.49C295.042 388.968 294.765 388.207 294.765 387.207V382.828H293.238V381.124H294.765V379.045H296.933V381.124H299.414V382.828H296.933V387.156C296.933 387.599 297.043 387.94 297.263 388.178C297.482 388.405 297.8 388.519 298.217 388.519C298.702 388.519 299.107 388.394 299.431 388.144L300.038 389.661Z" fill="#376BC3"/>
<path d="M303.886 382.385C304.511 381.43 305.609 380.953 307.182 380.953V382.981C306.997 382.947 306.829 382.93 306.679 382.93C305.835 382.93 305.176 383.174 304.701 383.663C304.227 384.14 303.99 384.833 303.99 385.742V390.155H301.822V381.056H303.886V382.385Z" fill="#376BC3"/>
<path d="M312.51 380.953C313.874 380.953 314.915 381.277 315.632 381.925C316.361 382.561 316.725 383.526 316.725 384.821V390.155H314.678V389.047C314.412 389.445 314.03 389.752 313.533 389.968C313.047 390.172 312.458 390.274 311.764 390.274C311.07 390.274 310.463 390.161 309.942 389.933C309.422 389.695 309.017 389.371 308.728 388.962C308.45 388.542 308.312 388.07 308.312 387.548C308.312 386.73 308.618 386.077 309.231 385.588C309.855 385.088 310.833 384.838 312.163 384.838H314.557V384.702C314.557 384.066 314.36 383.577 313.967 383.237C313.585 382.896 313.013 382.725 312.249 382.725C311.729 382.725 311.214 382.805 310.706 382.964C310.208 383.123 309.786 383.345 309.439 383.629L308.589 382.078C309.075 381.714 309.659 381.436 310.341 381.243C311.024 381.05 311.746 380.953 312.51 380.953ZM312.215 388.724C312.758 388.724 313.238 388.604 313.655 388.366C314.082 388.116 314.383 387.764 314.557 387.309V386.253H312.319C311.07 386.253 310.445 386.656 310.445 387.463C310.445 387.849 310.601 388.156 310.914 388.383C311.226 388.61 311.66 388.724 312.215 388.724Z" fill="#376BC3"/>
<path d="M319.508 377.511H321.676V390.155H319.508V377.511Z" fill="#376BC3"/>
<path d="M324.522 381.056H326.691V390.155H324.522V381.056ZM325.615 379.556C325.222 379.556 324.892 379.437 324.626 379.198C324.36 378.948 324.227 378.642 324.227 378.278C324.227 377.914 324.36 377.613 324.626 377.375C324.892 377.125 325.222 377 325.615 377C326.008 377 326.338 377.119 326.604 377.358C326.87 377.585 327.003 377.875 327.003 378.227C327.003 378.602 326.87 378.92 326.604 379.181C326.349 379.431 326.02 379.556 325.615 379.556Z" fill="#376BC3"/>
<path d="M336.77 388.451V390.155H328.773V388.809L333.856 382.76H328.877V381.056H336.632V382.402L331.532 388.451H336.77Z" fill="#376BC3"/>
<path d="M347.342 385.656C347.342 385.804 347.33 386.014 347.307 386.287H340.039C340.166 386.957 340.496 387.491 341.028 387.889C341.571 388.275 342.242 388.468 343.04 388.468C344.058 388.468 344.896 388.139 345.555 387.48L346.718 388.792C346.301 389.28 345.775 389.649 345.139 389.899C344.503 390.149 343.786 390.274 342.988 390.274C341.97 390.274 341.074 390.075 340.299 389.678C339.524 389.28 338.923 388.729 338.495 388.025C338.079 387.309 337.87 386.503 337.87 385.605C337.87 384.719 338.073 383.924 338.478 383.22C338.894 382.504 339.466 381.947 340.195 381.55C340.924 381.152 341.745 380.953 342.658 380.953C343.56 380.953 344.364 381.152 345.07 381.55C345.787 381.936 346.342 382.487 346.735 383.203C347.14 383.907 347.342 384.725 347.342 385.656ZM342.658 382.657C341.964 382.657 341.375 382.862 340.889 383.271C340.415 383.668 340.126 384.202 340.022 384.873H345.278C345.185 384.214 344.902 383.68 344.428 383.271C343.954 382.862 343.364 382.657 342.658 382.657Z" fill="#376BC3"/>
<path d="M358.497 377.511V390.155H356.416V388.979C356.057 389.411 355.612 389.735 355.08 389.95C354.56 390.166 353.981 390.274 353.345 390.274C352.455 390.274 351.651 390.081 350.934 389.695C350.229 389.309 349.674 388.763 349.269 388.059C348.864 387.343 348.662 386.525 348.662 385.605C348.662 384.685 348.864 383.873 349.269 383.169C349.674 382.464 350.229 381.919 350.934 381.533C351.651 381.146 352.455 380.953 353.345 380.953C353.958 380.953 354.519 381.056 355.028 381.26C355.537 381.465 355.971 381.771 356.329 382.18V377.511H358.497ZM353.606 388.451C354.126 388.451 354.594 388.337 355.011 388.11C355.427 387.872 355.757 387.536 355.999 387.105C356.242 386.673 356.364 386.173 356.364 385.605C356.364 385.037 356.242 384.537 355.999 384.106C355.757 383.674 355.427 383.345 355.011 383.117C354.594 382.879 354.126 382.76 353.606 382.76C353.085 382.76 352.617 382.879 352.2 383.117C351.784 383.345 351.455 383.674 351.212 384.106C350.969 384.537 350.847 385.037 350.847 385.605C350.847 386.173 350.969 386.673 351.212 387.105C351.455 387.536 351.784 387.872 352.2 388.11C352.617 388.337 353.085 388.451 353.606 388.451Z" fill="#376BC3"/>
<path d="M371.332 378.227C372.385 378.227 373.298 378.397 374.073 378.738C374.86 379.079 375.461 379.567 375.877 380.204C376.294 380.84 376.502 381.595 376.502 382.47C376.502 383.333 376.294 384.089 375.877 384.736C375.461 385.372 374.86 385.861 374.073 386.202C373.298 386.542 372.385 386.713 371.332 386.713H368.592V390.155H366.336V378.227H371.332ZM371.228 384.838C372.211 384.838 372.957 384.634 373.466 384.225C373.975 383.816 374.229 383.231 374.229 382.47C374.229 381.709 373.975 381.124 373.466 380.715C372.957 380.306 372.211 380.101 371.228 380.101H368.592V384.838H371.228Z" fill="#376BC3"/>
<path d="M387.684 381.056V390.155H385.619V388.996C385.272 389.405 384.839 389.723 384.318 389.95C383.798 390.166 383.237 390.274 382.636 390.274C381.398 390.274 380.421 389.939 379.704 389.269C378.998 388.587 378.646 387.582 378.646 386.253V381.056H380.814V385.963C380.814 386.781 380.999 387.394 381.369 387.803C381.751 388.201 382.289 388.4 382.983 388.4C383.757 388.4 384.37 388.167 384.821 387.701C385.284 387.224 385.515 386.542 385.515 385.656V381.056H387.684Z" fill="#376BC3"/>
<path d="M395.658 380.953C396.56 380.953 397.363 381.146 398.069 381.533C398.786 381.919 399.347 382.464 399.751 383.169C400.156 383.873 400.359 384.685 400.359 385.605C400.359 386.525 400.156 387.343 399.751 388.059C399.347 388.763 398.786 389.309 398.069 389.695C397.363 390.081 396.56 390.274 395.658 390.274C395.021 390.274 394.437 390.166 393.905 389.95C393.385 389.735 392.946 389.411 392.587 388.979V390.155H390.523V377.511H392.691V382.163C393.061 381.766 393.495 381.465 393.992 381.26C394.501 381.056 395.056 380.953 395.658 380.953ZM395.415 388.451C396.213 388.451 396.866 388.19 397.375 387.667C397.895 387.145 398.156 386.457 398.156 385.605C398.156 384.753 397.895 384.066 397.375 383.543C396.866 383.021 396.213 382.76 395.415 382.76C394.894 382.76 394.426 382.879 394.01 383.117C393.593 383.345 393.264 383.674 393.021 384.106C392.778 384.537 392.656 385.037 392.656 385.605C392.656 386.173 392.778 386.673 393.021 387.105C393.264 387.536 393.593 387.872 394.01 388.11C394.426 388.337 394.894 388.451 395.415 388.451Z" fill="#376BC3"/>
<path d="M402.415 377.511H404.583V390.155H402.415V377.511Z" fill="#376BC3"/>
<path d="M407.429 381.056H409.598V390.155H407.429V381.056ZM408.522 379.556C408.129 379.556 407.799 379.437 407.534 379.198C407.268 378.948 407.135 378.642 407.135 378.278C407.135 377.914 407.268 377.613 407.534 377.375C407.799 377.125 408.129 377 408.522 377C408.915 377 409.245 377.119 409.511 377.358C409.777 377.585 409.91 377.875 409.91 378.227C409.91 378.602 409.777 378.92 409.511 379.181C409.257 379.431 408.927 379.556 408.522 379.556Z" fill="#376BC3"/>
<path d="M416.694 390.274C415.734 390.274 414.872 390.075 414.109 389.678C413.346 389.28 412.75 388.729 412.322 388.025C411.895 387.309 411.681 386.503 411.681 385.605C411.681 384.708 411.895 383.907 412.322 383.203C412.75 382.498 413.34 381.947 414.092 381.55C414.855 381.152 415.722 380.953 416.694 380.953C417.608 380.953 418.405 381.135 419.088 381.499C419.782 381.862 420.302 382.385 420.649 383.066L418.984 384.021C418.718 383.6 418.382 383.288 417.978 383.083C417.584 382.867 417.151 382.76 416.677 382.76C415.867 382.76 415.196 383.021 414.664 383.543C414.132 384.055 413.866 384.742 413.866 385.605C413.866 386.469 414.127 387.162 414.647 387.684C415.179 388.195 415.855 388.451 416.677 388.451C417.151 388.451 417.584 388.349 417.978 388.144C418.382 387.928 418.718 387.61 418.984 387.19L420.649 388.144C420.291 388.826 419.764 389.354 419.07 389.729C418.388 390.092 417.596 390.274 416.694 390.274Z" fill="#376BC3"/>
<path d="M431.706 385.162L429.781 387.105V390.155H427.526V378.227H429.781V384.344L435.783 378.227H438.316L433.216 383.56L438.628 390.155H435.991L431.706 385.162Z" fill="#376BC3"/>
<path d="M448.257 385.656C448.257 385.804 448.245 386.014 448.222 386.287H440.954C441.081 386.957 441.411 387.491 441.943 387.889C442.486 388.275 443.157 388.468 443.955 388.468C444.973 388.468 445.811 388.139 446.47 387.48L447.633 388.792C447.216 389.28 446.69 389.649 446.054 389.899C445.418 390.149 444.701 390.274 443.903 390.274C442.885 390.274 441.989 390.075 441.214 389.678C440.439 389.28 439.838 388.729 439.41 388.025C438.994 387.309 438.786 386.503 438.786 385.605C438.786 384.719 438.988 383.924 439.393 383.22C439.809 382.504 440.381 381.947 441.11 381.55C441.839 381.152 442.66 380.953 443.573 380.953C444.475 380.953 445.279 381.152 445.985 381.55C446.702 381.936 447.257 382.487 447.65 383.203C448.055 383.907 448.257 384.725 448.257 385.656ZM443.573 382.657C442.879 382.657 442.29 382.862 441.804 383.271C441.33 383.668 441.041 384.202 440.937 384.873H446.193C446.1 384.214 445.817 383.68 445.343 383.271C444.869 382.862 444.279 382.657 443.573 382.657Z" fill="#376BC3"/>
<path d="M458.844 381.056L454.507 390.888C454.103 391.876 453.611 392.569 453.033 392.967C452.455 393.376 451.755 393.58 450.934 393.58C450.471 393.58 450.014 393.506 449.563 393.358C449.112 393.211 448.742 393.006 448.453 392.745L449.321 391.177C449.529 391.37 449.772 391.524 450.049 391.637C450.338 391.751 450.627 391.808 450.916 391.808C451.298 391.808 451.61 391.711 451.853 391.518C452.108 391.325 452.339 391.001 452.547 390.547L452.703 390.189L448.661 381.056H450.916L453.831 387.786L456.762 381.056H458.844Z" fill="#376BC3"/>
<path d="M465.202 378.227H467.457V390.155H465.202V378.227Z" fill="#376BC3"/>
<path d="M475.789 380.953C476.957 380.953 477.894 381.288 478.6 381.959C479.305 382.629 479.658 383.623 479.658 384.941V390.155H477.489V385.213C477.489 384.418 477.298 383.822 476.917 383.424C476.535 383.015 475.992 382.811 475.286 382.811C474.488 382.811 473.858 383.049 473.395 383.526C472.933 383.992 472.701 384.668 472.701 385.554V390.155H470.533V381.056H472.597V382.231C472.956 381.811 473.407 381.493 473.95 381.277C474.494 381.061 475.107 380.953 475.789 380.953Z" fill="#376BC3"/>
<path d="M486.173 379.113C485.259 379.113 484.802 379.601 484.802 380.578V381.124H487.352V382.828H484.872V390.155H482.703V382.828H481.177V381.124H482.703V380.544C482.703 379.567 482.992 378.801 483.571 378.244C484.149 377.676 484.964 377.392 486.017 377.392C486.849 377.392 487.503 377.557 487.977 377.886L487.37 379.488C487 379.238 486.601 379.113 486.173 379.113Z" fill="#376BC3"/>
<path d="M492.265 382.385C492.89 381.43 493.989 380.953 495.561 380.953V382.981C495.376 382.947 495.209 382.93 495.058 382.93C494.214 382.93 493.555 383.174 493.081 383.663C492.607 384.14 492.37 384.833 492.37 385.742V390.155H490.201V381.056H492.265V382.385Z" fill="#376BC3"/>
<path d="M500.889 380.953C502.253 380.953 503.294 381.277 504.011 381.925C504.74 382.561 505.104 383.526 505.104 384.821V390.155H503.057V389.047C502.791 389.445 502.41 389.752 501.912 389.968C501.427 390.172 500.837 390.274 500.143 390.274C499.449 390.274 498.842 390.161 498.321 389.933C497.801 389.695 497.396 389.371 497.107 388.962C496.83 388.542 496.691 388.07 496.691 387.548C496.691 386.73 496.997 386.077 497.61 385.588C498.235 385.088 499.212 384.838 500.542 384.838H502.936V384.702C502.936 384.066 502.739 383.577 502.346 383.237C501.964 382.896 501.392 382.725 500.629 382.725C500.108 382.725 499.594 382.805 499.085 382.964C498.587 383.123 498.165 383.345 497.818 383.629L496.968 382.078C497.454 381.714 498.038 381.436 498.72 381.243C499.403 381.05 500.126 380.953 500.889 380.953ZM500.594 388.724C501.137 388.724 501.617 388.604 502.034 388.366C502.462 388.116 502.762 387.764 502.936 387.309V386.253H500.698C499.449 386.253 498.825 386.656 498.825 387.463C498.825 387.849 498.981 388.156 499.293 388.383C499.605 388.61 500.039 388.724 500.594 388.724Z" fill="#376BC3"/>
<path d="M510.749 390.274C509.998 390.274 509.263 390.178 508.546 389.985C507.829 389.791 507.257 389.547 506.829 389.252L507.662 387.633C508.078 387.906 508.575 388.127 509.153 388.298C509.743 388.457 510.321 388.536 510.888 388.536C512.183 388.536 512.831 388.201 512.831 387.531C512.831 387.213 512.663 386.991 512.328 386.866C512.004 386.741 511.478 386.622 510.749 386.508C509.986 386.395 509.362 386.264 508.876 386.116C508.402 385.969 507.985 385.713 507.627 385.35C507.28 384.975 507.106 384.458 507.106 383.799C507.106 382.936 507.471 382.248 508.199 381.737C508.939 381.215 509.934 380.953 511.183 380.953C511.819 380.953 512.455 381.027 513.091 381.175C513.727 381.311 514.248 381.499 514.652 381.737L513.82 383.356C513.033 382.902 512.149 382.674 511.166 382.674C510.53 382.674 510.044 382.771 509.709 382.964C509.385 383.146 509.223 383.39 509.223 383.697C509.223 384.038 509.396 384.282 509.743 384.429C510.102 384.566 510.651 384.696 511.391 384.821C512.131 384.935 512.738 385.066 513.213 385.213C513.687 385.361 514.092 385.611 514.427 385.963C514.774 386.315 514.947 386.815 514.947 387.463C514.947 388.315 514.572 388.996 513.82 389.507C513.068 390.019 512.045 390.274 510.749 390.274Z" fill="#376BC3"/>
<path d="M522.383 389.661C522.129 389.865 521.816 390.019 521.446 390.121C521.088 390.223 520.706 390.274 520.302 390.274C519.284 390.274 518.497 390.013 517.942 389.49C517.387 388.968 517.11 388.207 517.11 387.207V382.828H515.583V381.124H517.11V379.045H519.278V381.124H521.759V382.828H519.278V387.156C519.278 387.599 519.388 387.94 519.608 388.178C519.827 388.405 520.145 388.519 520.562 388.519C521.047 388.519 521.452 388.394 521.776 388.144L522.383 389.661Z" fill="#376BC3"/>
<path d="M526.231 382.385C526.856 381.43 527.954 380.953 529.527 380.953V382.981C529.342 382.947 529.174 382.93 529.024 382.93C528.18 382.93 527.521 383.174 527.047 383.663C526.572 384.14 526.335 384.833 526.335 385.742V390.155H524.167V381.056H526.231V382.385Z" fill="#376BC3"/>
<path d="M540.42 381.056V390.155H538.356V388.996C538.009 389.405 537.575 389.723 537.055 389.95C536.534 390.166 535.973 390.274 535.372 390.274C534.134 390.274 533.157 389.939 532.44 389.269C531.735 388.587 531.382 387.582 531.382 386.253V381.056H533.55V385.963C533.55 386.781 533.735 387.394 534.106 387.803C534.487 388.201 535.025 388.4 535.719 388.4C536.494 388.4 537.107 388.167 537.558 387.701C538.02 387.224 538.251 386.542 538.251 385.656V381.056H540.42Z" fill="#376BC3"/>
<path d="M547.509 390.274C546.549 390.274 545.688 390.075 544.924 389.678C544.161 389.28 543.565 388.729 543.138 388.025C542.71 387.309 542.496 386.503 542.496 385.605C542.496 384.708 542.71 383.907 543.138 383.203C543.565 382.498 544.155 381.947 544.907 381.55C545.67 381.152 546.538 380.953 547.509 380.953C548.423 380.953 549.221 381.135 549.903 381.499C550.597 381.862 551.117 382.385 551.464 383.066L549.799 384.021C549.533 383.6 549.198 383.288 548.793 383.083C548.4 382.867 547.966 382.76 547.492 382.76C546.682 382.76 546.011 383.021 545.479 383.543C544.947 384.055 544.681 384.742 544.681 385.605C544.681 386.469 544.942 387.162 545.462 387.684C545.994 388.195 546.671 388.451 547.492 388.451C547.966 388.451 548.4 388.349 548.793 388.144C549.198 387.928 549.533 387.61 549.799 387.19L551.464 388.144C551.106 388.826 550.579 389.354 549.886 389.729C549.203 390.092 548.411 390.274 547.509 390.274Z" fill="#376BC3"/>
<path d="M559.026 389.661C558.771 389.865 558.459 390.019 558.089 390.121C557.73 390.223 557.349 390.274 556.944 390.274C555.926 390.274 555.14 390.013 554.585 389.49C554.03 388.968 553.752 388.207 553.752 387.207V382.828H552.226V381.124H553.752V379.045H555.921V381.124H558.401V382.828H555.921V387.156C555.921 387.599 556.03 387.94 556.25 388.178C556.47 388.405 556.788 388.519 557.204 388.519C557.69 388.519 558.095 388.394 558.419 388.144L559.026 389.661Z" fill="#376BC3"/>
<path d="M569.778 381.056V390.155H567.714V388.996C567.367 389.405 566.933 389.723 566.413 389.95C565.892 390.166 565.331 390.274 564.73 390.274C563.492 390.274 562.515 389.939 561.798 389.269C561.093 388.587 560.74 387.582 560.74 386.253V381.056H562.908V385.963C562.908 386.781 563.093 387.394 563.464 387.803C563.845 388.201 564.383 388.4 565.077 388.4C565.852 388.4 566.465 388.167 566.916 387.701C567.378 387.224 567.609 386.542 567.609 385.656V381.056H569.778Z" fill="#376BC3"/>
<path d="M574.681 382.385C575.306 381.43 576.404 380.953 577.977 380.953V382.981C577.792 382.947 577.625 382.93 577.474 382.93C576.63 382.93 575.971 383.174 575.497 383.663C575.022 384.14 574.785 384.833 574.785 385.742V390.155H572.617V381.056H574.681V382.385Z" fill="#376BC3"/>
<path d="M588.44 385.656C588.44 385.804 588.429 386.014 588.406 386.287H581.137C581.264 386.957 581.594 387.491 582.126 387.889C582.669 388.275 583.34 388.468 584.138 388.468C585.156 388.468 585.994 388.139 586.654 387.48L587.816 388.792C587.4 389.28 586.873 389.649 586.237 389.899C585.601 390.149 584.884 390.274 584.086 390.274C583.068 390.274 582.172 390.075 581.397 389.678C580.623 389.28 580.021 388.729 579.593 388.025C579.177 387.309 578.969 386.503 578.969 385.605C578.969 384.719 579.171 383.924 579.576 383.22C579.992 382.504 580.565 381.947 581.293 381.55C582.022 381.152 582.843 380.953 583.757 380.953C584.659 380.953 585.462 381.152 586.168 381.55C586.885 381.936 587.44 382.487 587.833 383.203C588.238 383.907 588.44 384.725 588.44 385.656ZM583.757 382.657C583.063 382.657 582.473 382.862 581.987 383.271C581.513 383.668 581.224 384.202 581.12 384.873H586.376C586.284 384.214 586 383.68 585.526 383.271C585.052 382.862 584.462 382.657 583.757 382.657Z" fill="#376BC3"/>
<path d="M38.9063 257.252C38.5158 256.862 37.8826 256.862 37.4921 257.252L31.1282 263.616C30.7376 264.007 30.7376 264.64 31.1282 265.031C31.5187 265.421 32.1518 265.421 32.5424 265.031L38.1992 259.374L43.8561 265.031C44.2466 265.421 44.8798 265.421 45.2703 265.031C45.6608 264.64 45.6608 264.007 45.2703 263.616L38.9063 257.252ZM37.4921 340.433C37.8826 340.824 38.5158 340.824 38.9063 340.433L45.2703 334.069C45.6608 333.679 45.6608 333.045 45.2703 332.655C44.8798 332.264 44.2466 332.264 43.8561 332.655L38.1992 338.312L32.5424 332.655C32.1518 332.264 31.5187 332.264 31.1282 332.655C30.7376 333.045 30.7376 333.679 31.1282 334.069L37.4921 340.433ZM37.1992 257.959L37.1992 339.726L39.1992 339.726L39.1992 257.959L37.1992 257.959Z" fill="#C4C4C4"/>
<path d="M414.828 257.252C414.438 256.862 413.805 256.862 413.414 257.252L407.05 263.616C406.66 264.007 406.66 264.64 407.05 265.031C407.441 265.421 408.074 265.421 408.464 265.031L414.121 259.374L419.778 265.031C420.168 265.421 420.802 265.421 421.192 265.031C421.583 264.64 421.583 264.007 421.192 263.616L414.828 257.252ZM413.414 340.433C413.805 340.824 414.438 340.824 414.828 340.433L421.192 334.069C421.583 333.679 421.583 333.045 421.192 332.655C420.802 332.264 420.168 332.264 419.778 332.655L414.121 338.312L408.464 332.655C408.074 332.264 407.441 332.264 407.05 332.655C406.66 333.045 406.66 333.679 407.05 334.069L413.414 340.433ZM413.121 257.959L413.121 339.726L415.121 339.726L415.121 257.959L413.121 257.959Z" fill="#C4C4C4"/>
<g clip-path="url(#clip0_302_433)">
<path d="M419.394 9.08496C416.654 9.08747 413.969 9.8302 411.633 11.2311C409.298 12.6321 407.404 14.6368 406.161 17.0238C405.052 16.5824 403.866 16.3546 402.669 16.3531C400.421 16.3558 398.251 17.1553 396.56 18.6033C394.868 20.0513 393.771 22.0497 393.472 24.2281C391.278 24.965 389.373 26.3529 388.024 28.1984C386.675 30.0438 385.948 32.2548 385.944 34.5234C385.944 37.4148 387.119 40.1878 389.21 42.2324C391.301 44.277 394.137 45.4256 397.094 45.4256H430.544C433.501 45.4256 436.337 44.277 438.428 42.2324C440.519 40.1878 441.694 37.4148 441.694 34.5234C441.691 32.2658 440.971 30.0649 439.633 28.2246C438.296 26.3843 436.407 24.9953 434.228 24.2494C434.244 24.0402 434.255 23.8308 434.261 23.6212C434.261 19.766 432.695 16.0686 429.907 13.3425C427.118 10.6165 423.337 9.08496 419.394 9.08496Z" fill="#376BC3"/>
<path d="M398.909 40.5918C397.929 40.5918 397.043 40.3771 396.249 39.9478C395.465 39.5091 394.849 38.9118 394.401 38.1558C393.953 37.3905 393.729 36.5318 393.729 35.5798C393.729 34.6278 393.953 33.7738 394.401 33.0178C394.849 32.2525 395.47 31.6551 396.263 31.2258C397.057 30.7871 397.943 30.5678 398.923 30.5678C399.689 30.5678 400.389 30.6985 401.023 30.9598C401.658 31.2118 402.199 31.5898 402.647 32.0938L401.737 32.9758C401 32.2011 400.081 31.8138 398.979 31.8138C398.251 31.8138 397.593 31.9771 397.005 32.3038C396.417 32.6305 395.955 33.0831 395.619 33.6618C395.293 34.2311 395.129 34.8705 395.129 35.5798C395.129 36.2891 395.293 36.9331 395.619 37.5118C395.955 38.0811 396.417 38.5291 397.005 38.8558C397.593 39.1825 398.251 39.3458 398.979 39.3458C400.071 39.3458 400.991 38.9538 401.737 38.1698L402.647 39.0518C402.199 39.5558 401.653 39.9385 401.009 40.1998C400.375 40.4611 399.675 40.5918 398.909 40.5918Z" fill="white"/>
<path d="M404.449 30.0918H405.793V40.4798H404.449V30.0918Z" fill="white"/>
<path d="M411.537 40.5638C410.8 40.5638 410.137 40.4005 409.549 40.0738C408.961 39.7471 408.499 39.2991 408.163 38.7298C407.836 38.1511 407.673 37.4978 407.673 36.7698C407.673 36.0418 407.836 35.3931 408.163 34.8238C408.499 34.2451 408.961 33.7971 409.549 33.4798C410.137 33.1531 410.8 32.9898 411.537 32.9898C412.274 32.9898 412.932 33.1531 413.511 33.4798C414.099 33.7971 414.556 34.2451 414.883 34.8238C415.219 35.3931 415.387 36.0418 415.387 36.7698C415.387 37.4978 415.219 38.1511 414.883 38.7298C414.556 39.2991 414.099 39.7471 413.511 40.0738C412.932 40.4005 412.274 40.5638 411.537 40.5638ZM411.537 39.3878C412.013 39.3878 412.438 39.2805 412.811 39.0658C413.194 38.8418 413.492 38.5338 413.707 38.1418C413.922 37.7405 414.029 37.2831 414.029 36.7698C414.029 36.2565 413.922 35.8038 413.707 35.4118C413.492 35.0105 413.194 34.7025 412.811 34.4878C412.438 34.2731 412.013 34.1658 411.537 34.1658C411.061 34.1658 410.632 34.2731 410.249 34.4878C409.876 34.7025 409.577 35.0105 409.353 35.4118C409.138 35.8038 409.031 36.2565 409.031 36.7698C409.031 37.2831 409.138 37.7405 409.353 38.1418C409.577 38.5338 409.876 38.8418 410.249 39.0658C410.632 39.2805 411.061 39.3878 411.537 39.3878Z" fill="white"/>
<path d="M424.162 33.0598V40.4798H422.888V39.3598C422.617 39.7425 422.258 40.0411 421.81 40.2558C421.371 40.4611 420.89 40.5638 420.368 40.5638C419.378 40.5638 418.599 40.2931 418.03 39.7518C417.46 39.2011 417.176 38.3938 417.176 37.3298V33.0598H418.52V37.1758C418.52 37.8945 418.692 38.4405 419.038 38.8138C419.383 39.1778 419.878 39.3598 420.522 39.3598C421.231 39.3598 421.791 39.1451 422.202 38.7158C422.612 38.2865 422.818 37.6798 422.818 36.8958V33.0598H424.162Z" fill="white"/>
<path d="M433.72 30.0918V40.4798H432.432V39.3038C432.133 39.7145 431.755 40.0271 431.298 40.2418C430.841 40.4565 430.337 40.5638 429.786 40.5638C429.067 40.5638 428.423 40.4051 427.854 40.0878C427.285 39.7705 426.837 39.3271 426.51 38.7578C426.193 38.1791 426.034 37.5165 426.034 36.7698C426.034 36.0231 426.193 35.3651 426.51 34.7958C426.837 34.2265 427.285 33.7831 427.854 33.4658C428.423 33.1485 429.067 32.9898 429.786 32.9898C430.318 32.9898 430.808 33.0925 431.256 33.2978C431.704 33.4938 432.077 33.7878 432.376 34.1798V30.0918H433.72ZM429.898 39.3878C430.365 39.3878 430.789 39.2805 431.172 39.0658C431.555 38.8418 431.853 38.5338 432.068 38.1418C432.283 37.7405 432.39 37.2831 432.39 36.7698C432.39 36.2565 432.283 35.8038 432.068 35.4118C431.853 35.0105 431.555 34.7025 431.172 34.4878C430.789 34.2731 430.365 34.1658 429.898 34.1658C429.422 34.1658 428.993 34.2731 428.61 34.4878C428.237 34.7025 427.938 35.0105 427.714 35.4118C427.499 35.8038 427.392 36.2565 427.392 36.7698C427.392 37.2831 427.499 37.7405 427.714 38.1418C427.938 38.5338 428.237 38.8418 428.61 39.0658C428.993 39.2805 429.422 39.3878 429.898 39.3878Z" fill="white"/>
</g>
<g clip-path="url(#clip1_302_433)">
<path d="M435.15 211.69C435.159 211.478 435.182 211.27 435.182 211.054C435.182 202.844 428.525 196.188 420.315 196.188C414.536 196.188 409.537 199.493 407.078 204.31C405.999 203.874 404.826 203.621 403.59 203.621C398.889 203.621 395.044 207.124 394.425 211.656C390.03 213.152 386.865 217.304 386.865 222.204C386.865 228.363 391.857 233.354 398.015 233.354H431.465C437.624 233.354 442.615 228.363 442.615 222.204C442.615 217.339 439.495 213.213 435.15 211.69ZM415.285 215.315L420.86 209.74C421.222 209.378 421.698 209.196 422.173 209.196C422.649 209.196 423.125 209.378 423.487 209.74L429.062 215.315C429.789 216.042 429.789 217.216 429.062 217.943C428.336 218.67 427.161 218.67 426.435 217.943L424.032 215.54V225.921C424.032 226.947 423.201 227.779 422.173 227.779C421.146 227.779 420.315 226.947 420.315 225.921V215.54L417.912 217.943C417.186 218.67 416.011 218.67 415.285 217.943C414.558 217.216 414.558 216.042 415.285 215.315ZM412.337 221.66L406.762 227.235C406.4 227.597 405.924 227.779 405.449 227.779C404.973 227.779 404.497 227.597 404.135 227.235L398.56 221.66C397.833 220.933 397.833 219.759 398.56 219.032C399.286 218.305 400.461 218.305 401.187 219.032L403.59 221.435V211.054C403.59 210.028 404.421 209.196 405.449 209.196C406.476 209.196 407.307 210.028 407.307 211.054V221.435L409.71 219.032C410.436 218.305 411.611 218.305 412.337 219.032C413.064 219.759 413.064 220.933 412.337 221.66Z" fill="#376BC3"/>
</g>
<path d="M795.34 257.252C794.949 256.862 794.316 256.862 793.926 257.252L787.562 263.616C787.171 264.007 787.171 264.64 787.562 265.031C787.952 265.421 788.585 265.421 788.976 265.031L794.633 259.374L800.29 265.031C800.68 265.421 801.313 265.421 801.704 265.031C802.094 264.64 802.094 264.007 801.704 263.616L795.34 257.252ZM793.926 340.433C794.316 340.824 794.949 340.824 795.34 340.433L801.704 334.069C802.094 333.679 802.094 333.045 801.704 332.655C801.313 332.264 800.68 332.264 800.29 332.655L794.633 338.312L788.976 332.655C788.585 332.264 787.952 332.264 787.562 332.655C787.171 333.045 787.171 333.679 787.562 334.069L793.926 340.433ZM793.633 257.959L793.633 339.726L795.633 339.726L795.633 257.959L793.633 257.959Z" fill="#C4C4C4"/>
<path d="M12.085 158.8H16.805C17.989 158.8 19.0396 159.035 19.957 159.504C20.8743 159.974 21.5836 160.635 22.085 161.488C22.597 162.331 22.853 163.302 22.853 164.4C22.853 165.499 22.597 166.475 22.085 167.328C21.5836 168.171 20.8743 168.827 19.957 169.296C19.0396 169.766 17.989 170 16.805 170H12.085V158.8ZM16.709 168.608C17.6156 168.608 18.4103 168.432 19.093 168.08C19.7863 167.728 20.3196 167.238 20.693 166.608C21.0663 165.968 21.253 165.232 21.253 164.4C21.253 163.568 21.0663 162.838 20.693 162.208C20.3196 161.568 19.7863 161.072 19.093 160.72C18.4103 160.368 17.6156 160.192 16.709 160.192H13.685V168.608H16.709Z" fill="black"/>
<path d="M32.7437 165.808C32.7437 165.926 32.733 166.08 32.7117 166.272H25.8317C25.9277 167.019 26.253 167.622 26.8077 168.08C27.373 168.528 28.0717 168.752 28.9037 168.752C29.917 168.752 30.733 168.411 31.3517 167.728L32.1997 168.72C31.8157 169.168 31.3357 169.51 30.7597 169.744C30.1944 169.979 29.5597 170.096 28.8557 170.096C27.9597 170.096 27.165 169.915 26.4717 169.552C25.7784 169.179 25.2397 168.662 24.8557 168C24.4824 167.339 24.2957 166.592 24.2957 165.76C24.2957 164.939 24.477 164.198 24.8397 163.536C25.213 162.875 25.7197 162.363 26.3597 162C27.0104 161.627 27.741 161.44 28.5517 161.44C29.3624 161.44 30.0824 161.627 30.7117 162C31.3517 162.363 31.8477 162.875 32.1997 163.536C32.5624 164.198 32.7437 164.955 32.7437 165.808ZM28.5517 162.736C27.8157 162.736 27.197 162.96 26.6957 163.408C26.205 163.856 25.917 164.443 25.8317 165.168H31.2717C31.1864 164.454 30.893 163.872 30.3917 163.424C29.901 162.966 29.2877 162.736 28.5517 162.736Z" fill="black"/>
<path d="M42.2243 161.52L38.5123 170H36.9443L33.2323 161.52H34.8323L37.7443 168.32L40.7203 161.52H42.2243Z" fill="black"/>
<path d="M43.6578 161.52H45.1938V170H43.6578V161.52ZM44.4258 159.888C44.1272 159.888 43.8765 159.792 43.6738 159.6C43.4818 159.408 43.3858 159.174 43.3858 158.896C43.3858 158.619 43.4818 158.384 43.6738 158.192C43.8765 157.99 44.1272 157.888 44.4258 157.888C44.7245 157.888 44.9698 157.984 45.1618 158.176C45.3645 158.358 45.4658 158.587 45.4658 158.864C45.4658 159.152 45.3645 159.398 45.1618 159.6C44.9698 159.792 44.7245 159.888 44.4258 159.888Z" fill="black"/>
<path d="M51.8226 170.096C50.9586 170.096 50.1853 169.91 49.5026 169.536C48.8306 169.163 48.3026 168.651 47.9186 168C47.5346 167.339 47.3426 166.592 47.3426 165.76C47.3426 164.928 47.5346 164.187 47.9186 163.536C48.3026 162.875 48.8306 162.363 49.5026 162C50.1853 161.627 50.9586 161.44 51.8226 161.44C52.5906 161.44 53.2733 161.595 53.8706 161.904C54.4786 162.214 54.9479 162.662 55.2786 163.248L54.1106 164C53.8439 163.595 53.5133 163.291 53.1186 163.088C52.7239 162.886 52.2866 162.784 51.8066 162.784C51.2519 162.784 50.7506 162.907 50.3026 163.152C49.8653 163.398 49.5186 163.75 49.2626 164.208C49.0173 164.656 48.8946 165.174 48.8946 165.76C48.8946 166.358 49.0173 166.886 49.2626 167.344C49.5186 167.792 49.8653 168.139 50.3026 168.384C50.7506 168.63 51.2519 168.752 51.8066 168.752C52.2866 168.752 52.7239 168.651 53.1186 168.448C53.5133 168.246 53.8439 167.942 54.1106 167.536L55.2786 168.272C54.9479 168.859 54.4786 169.312 53.8706 169.632C53.2733 169.942 52.5906 170.096 51.8226 170.096Z" fill="black"/>
<path d="M64.8062 165.808C64.8062 165.926 64.7955 166.08 64.7742 166.272H57.8942C57.9902 167.019 58.3155 167.622 58.8702 168.08C59.4355 168.528 60.1342 168.752 60.9662 168.752C61.9795 168.752 62.7955 168.411 63.4142 167.728L64.2622 168.72C63.8782 169.168 63.3982 169.51 62.8222 169.744C62.2569 169.979 61.6222 170.096 60.9182 170.096C60.0222 170.096 59.2275 169.915 58.5342 169.552C57.8409 169.179 57.3022 168.662 56.9182 168C56.5449 167.339 56.3582 166.592 56.3582 165.76C56.3582 164.939 56.5395 164.198 56.9022 163.536C57.2755 162.875 57.7822 162.363 58.4222 162C59.0729 161.627 59.8035 161.44 60.6142 161.44C61.4249 161.44 62.1449 161.627 62.7742 162C63.4142 162.363 63.9102 162.875 64.2622 163.536C64.6249 164.198 64.8062 164.955 64.8062 165.808ZM60.6142 162.736C59.8782 162.736 59.2595 162.96 58.7582 163.408C58.2675 163.856 57.9795 164.443 57.8942 165.168H63.3342C63.2489 164.454 62.9555 163.872 62.4542 163.424C61.9635 162.966 61.3502 162.736 60.6142 162.736Z" fill="black"/>
<path d="M405.381 158.8V170H403.781V165.008H397.349V170H395.749V158.8H397.349V163.616H403.781V158.8H405.381Z" fill="black"/>
<path d="M413.373 170.128C411.88 170.128 410.717 169.701 409.885 168.848C409.053 167.994 408.637 166.768 408.637 165.168V158.8H410.237V165.104C410.237 167.504 411.288 168.704 413.389 168.704C414.413 168.704 415.197 168.41 415.741 167.824C416.285 167.226 416.557 166.32 416.557 165.104V158.8H418.109V165.168C418.109 166.778 417.693 168.01 416.861 168.864C416.029 169.706 414.867 170.128 413.373 170.128Z" fill="black"/>
<path d="M428.926 164.192C429.576 164.373 430.088 164.704 430.462 165.184C430.835 165.653 431.022 166.25 431.022 166.976C431.022 167.946 430.654 168.693 429.918 169.216C429.192 169.738 428.131 170 426.734 170H421.39V158.8H426.414C427.694 158.8 428.68 159.056 429.374 159.568C430.078 160.08 430.43 160.789 430.43 161.696C430.43 162.282 430.291 162.789 430.014 163.216C429.747 163.642 429.384 163.968 428.926 164.192ZM422.99 160.096V163.68H426.27C427.091 163.68 427.72 163.53 428.158 163.232C428.606 162.922 428.83 162.474 428.83 161.888C428.83 161.301 428.606 160.858 428.158 160.56C427.72 160.25 427.091 160.096 426.27 160.096H422.99ZM426.67 168.704C427.576 168.704 428.259 168.554 428.718 168.256C429.176 167.957 429.406 167.488 429.406 166.848C429.406 165.6 428.494 164.976 426.67 164.976H422.99V168.704H426.67Z" fill="black"/>
<path d="M769.085 158.8H773.805C774.989 158.8 776.04 159.035 776.957 159.504C777.874 159.974 778.584 160.635 779.085 161.488C779.597 162.331 779.853 163.302 779.853 164.4C779.853 165.499 779.597 166.475 779.085 167.328C778.584 168.171 777.874 168.827 776.957 169.296C776.04 169.766 774.989 170 773.805 170H769.085V158.8ZM773.709 168.608C774.616 168.608 775.41 168.432 776.093 168.08C776.786 167.728 777.32 167.238 777.693 166.608C778.066 165.968 778.253 165.232 778.253 164.4C778.253 163.568 778.066 162.838 777.693 162.208C777.32 161.568 776.786 161.072 776.093 160.72C775.41 160.368 774.616 160.192 773.709 160.192H770.685V168.608H773.709Z" fill="black"/>
<path d="M789.744 165.808C789.744 165.926 789.733 166.08 789.712 166.272H782.832C782.928 167.019 783.253 167.622 783.808 168.08C784.373 168.528 785.072 168.752 785.904 168.752C786.917 168.752 787.733 168.411 788.352 167.728L789.2 168.72C788.816 169.168 788.336 169.51 787.76 169.744C787.194 169.979 786.56 170.096 785.856 170.096C784.96 170.096 784.165 169.915 783.472 169.552C782.778 169.179 782.24 168.662 781.856 168C781.482 167.339 781.296 166.592 781.296 165.76C781.296 164.939 781.477 164.198 781.84 163.536C782.213 162.875 782.72 162.363 783.36 162C784.01 161.627 784.741 161.44 785.552 161.44C786.362 161.44 787.082 161.627 787.712 162C788.352 162.363 788.848 162.875 789.2 163.536C789.562 164.198 789.744 164.955 789.744 165.808ZM785.552 162.736C784.816 162.736 784.197 162.96 783.696 163.408C783.205 163.856 782.917 164.443 782.832 165.168H788.272C788.186 164.454 787.893 163.872 787.392 163.424C786.901 162.966 786.288 162.736 785.552 162.736Z" fill="black"/>
<path d="M799.224 161.52L795.512 170H793.944L790.232 161.52H791.832L794.744 168.32L797.72 161.52H799.224Z" fill="black"/>
<path d="M800.658 161.52H802.194V170H800.658V161.52ZM801.426 159.888C801.127 159.888 800.877 159.792 800.674 159.6C800.482 159.408 800.386 159.174 800.386 158.896C800.386 158.619 800.482 158.384 800.674 158.192C800.877 157.99 801.127 157.888 801.426 157.888C801.725 157.888 801.97 157.984 802.162 158.176C802.365 158.358 802.466 158.587 802.466 158.864C802.466 159.152 802.365 159.398 802.162 159.6C801.97 159.792 801.725 159.888 801.426 159.888Z" fill="black"/>
<path d="M808.823 170.096C807.959 170.096 807.185 169.91 806.503 169.536C805.831 169.163 805.303 168.651 804.919 168C804.535 167.339 804.343 166.592 804.343 165.76C804.343 164.928 804.535 164.187 804.919 163.536C805.303 162.875 805.831 162.363 806.503 162C807.185 161.627 807.959 161.44 808.823 161.44C809.591 161.44 810.273 161.595 810.871 161.904C811.479 162.214 811.948 162.662 812.279 163.248L811.111 164C810.844 163.595 810.513 163.291 810.119 163.088C809.724 162.886 809.287 162.784 808.807 162.784C808.252 162.784 807.751 162.907 807.303 163.152C806.865 163.398 806.519 163.75 806.263 164.208C806.017 164.656 805.895 165.174 805.895 165.76C805.895 166.358 806.017 166.886 806.263 167.344C806.519 167.792 806.865 168.139 807.303 168.384C807.751 168.63 808.252 168.752 808.807 168.752C809.287 168.752 809.724 168.651 810.119 168.448C810.513 168.246 810.844 167.942 811.111 167.536L812.279 168.272C811.948 168.859 811.479 169.312 810.871 169.632C810.273 169.942 809.591 170.096 808.823 170.096Z" fill="black"/>
<path d="M821.806 165.808C821.806 165.926 821.796 166.08 821.774 166.272H814.894C814.99 167.019 815.316 167.622 815.87 168.08C816.436 168.528 817.134 168.752 817.966 168.752C818.98 168.752 819.796 168.411 820.414 167.728L821.262 168.72C820.878 169.168 820.398 169.51 819.822 169.744C819.257 169.979 818.622 170.096 817.918 170.096C817.022 170.096 816.228 169.915 815.534 169.552C814.841 169.179 814.302 168.662 813.918 168C813.545 167.339 813.358 166.592 813.358 165.76C813.358 164.939 813.54 164.198 813.902 163.536C814.276 162.875 814.782 162.363 815.422 162C816.073 161.627 816.804 161.44 817.614 161.44C818.425 161.44 819.145 161.627 819.774 162C820.414 162.363 820.91 162.875 821.262 163.536C821.625 164.198 821.806 164.955 821.806 165.808ZM817.614 162.736C816.878 162.736 816.26 162.96 815.758 163.408C815.268 163.856 814.98 164.443 814.894 165.168H820.334C820.249 164.454 819.956 163.872 819.454 163.424C818.964 162.966 818.35 162.736 817.614 162.736Z" fill="black"/>
<rect width="30" height="30" transform="translate(204.944 200)" fill="white"/>
<path d="M219.944 201.25C215.79 201.25 212.444 204.595 212.444 208.75V210C211.078 210 209.944 211.134 209.944 212.5V225C209.944 226.366 211.078 227.5 212.444 227.5H227.444C228.811 227.5 229.944 226.366 229.944 225V212.5C229.944 211.134 228.811 210 227.444 210V208.75C227.444 204.595 224.099 201.25 219.944 201.25ZM219.944 203.75C222.79 203.75 224.944 205.905 224.944 208.75V210H214.944V208.75C214.944 205.905 217.099 203.75 219.944 203.75ZM212.444 212.5H227.444V225H212.444V212.5ZM219.944 216.25C218.569 216.25 217.444 217.375 217.444 218.75C217.444 220.125 218.569 221.25 219.944 221.25C221.319 221.25 222.444 220.125 222.444 218.75C222.444 217.375 221.319 216.25 219.944 216.25Z" fill="#376BC3"/>
<rect width="30" height="30" transform="translate(596.944 200)" fill="white"/>
<path d="M611.944 201.25C607.79 201.25 604.444 204.595 604.444 208.75V210C603.078 210 601.944 211.134 601.944 212.5V225C601.944 226.366 603.078 227.5 604.444 227.5H619.444C620.811 227.5 621.944 226.366 621.944 225V212.5C621.944 211.134 620.811 210 619.444 210V208.75C619.444 204.595 616.099 201.25 611.944 201.25ZM611.944 203.75C614.79 203.75 616.944 205.905 616.944 208.75V210H606.944V208.75C606.944 205.905 609.099 203.75 611.944 203.75ZM604.444 212.5H619.444V225H604.444V212.5ZM611.944 216.25C610.569 216.25 609.444 217.375 609.444 218.75C609.444 220.125 610.569 221.25 611.944 221.25C613.319 221.25 614.444 220.125 614.444 218.75C614.444 217.375 613.319 216.25 611.944 216.25Z" fill="#376BC3"/>
<rect width="30" height="30" transform="translate(22.9443 284)" fill="white"/>
<path d="M41.6943 286.812C37.0581 286.812 33.2568 290.614 33.2568 295.25C33.2568 295.737 33.3374 296.166 33.4033 296.598L26.0205 303.951L25.7568 304.244V311.188H32.3193V308.375H35.1318V305.562H37.9443V302.779C39.0503 303.321 40.3394 303.688 41.6943 303.688C46.3306 303.688 50.1318 299.886 50.1318 295.25C50.1318 290.614 46.3306 286.812 41.6943 286.812ZM41.6943 288.688C45.3088 288.688 48.2568 291.635 48.2568 295.25C48.2568 298.865 45.3088 301.812 41.6943 301.812C40.5591 301.812 39.3909 301.479 38.501 300.992L38.2666 300.875H36.0693V303.688H33.2568V306.5H30.4443V309.312H27.6318V305.035L35.0439 297.594L35.3955 297.271L35.3076 296.773C35.2124 296.209 35.1318 295.708 35.1318 295.25C35.1318 291.635 38.0798 288.688 41.6943 288.688ZM43.5693 291.5C42.533 291.5 41.6943 292.339 41.6943 293.375C41.6943 294.411 42.533 295.25 43.5693 295.25C44.6057 295.25 45.4443 294.411 45.4443 293.375C45.4443 292.339 44.6057 291.5 43.5693 291.5Z" fill="#376BC3"/>
<rect width="30" height="30" transform="translate(398.944 284)" fill="white"/>
<path d="M417.694 286.812C413.058 286.812 409.257 290.614 409.257 295.25C409.257 295.737 409.337 296.166 409.403 296.598L402.021 303.951L401.757 304.244V311.188H408.319V308.375H411.132V305.562H413.944V302.779C415.05 303.321 416.339 303.688 417.694 303.688C422.331 303.688 426.132 299.886 426.132 295.25C426.132 290.614 422.331 286.812 417.694 286.812ZM417.694 288.688C421.309 288.688 424.257 291.635 424.257 295.25C424.257 298.865 421.309 301.812 417.694 301.812C416.559 301.812 415.391 301.479 414.501 300.992L414.267 300.875H412.069V303.688H409.257V306.5H406.444V309.312H403.632V305.035L411.044 297.594L411.396 297.271L411.308 296.773C411.212 296.209 411.132 295.708 411.132 295.25C411.132 291.635 414.08 288.688 417.694 288.688ZM419.569 291.5C418.533 291.5 417.694 292.339 417.694 293.375C417.694 294.411 418.533 295.25 419.569 295.25C420.606 295.25 421.444 294.411 421.444 293.375C421.444 292.339 420.606 291.5 419.569 291.5Z" fill="#376BC3"/>
<rect width="30" height="30" transform="translate(779.944 284)" fill="white"/>
<path d="M798.694 286.812C794.058 286.812 790.257 290.614 790.257 295.25C790.257 295.737 790.337 296.166 790.403 296.598L783.021 303.951L782.757 304.244V311.188H789.319V308.375H792.132V305.562H794.944V302.779C796.05 303.321 797.339 303.688 798.694 303.688C803.331 303.688 807.132 299.886 807.132 295.25C807.132 290.614 803.331 286.812 798.694 286.812ZM798.694 288.688C802.309 288.688 805.257 291.635 805.257 295.25C805.257 298.865 802.309 301.812 798.694 301.812C797.559 301.812 796.391 301.479 795.501 300.992L795.267 300.875H793.069V303.688H790.257V306.5H787.444V309.312H784.632V305.035L792.044 297.594L792.396 297.271L792.308 296.773C792.212 296.209 792.132 295.708 792.132 295.25C792.132 291.635 795.08 288.688 798.694 288.688ZM800.569 291.5C799.533 291.5 798.694 292.339 798.694 293.375C798.694 294.411 799.533 295.25 800.569 295.25C801.606 295.25 802.444 294.411 802.444 293.375C802.444 292.339 801.606 291.5 800.569 291.5Z" fill="#376BC3"/>
<path d="M348.944 88H477.944V108H348.944V88Z" fill="white"/>
<path d="M363.542 100.913H357.748L356.549 103.514H354.944L359.882 93.1104H361.424L366.377 103.514H364.741L363.542 100.913ZM362.997 99.724L360.645 94.6263L358.293 99.724H362.997Z" fill="black"/>
<path d="M372.255 93.1104C373.668 93.1104 374.779 93.4324 375.589 94.0764C376.399 94.7205 376.804 95.6072 376.804 96.7367C376.804 97.8662 376.399 98.753 375.589 99.397C374.779 100.041 373.668 100.363 372.255 100.363H369.561V103.514H368.003V93.1104H372.255ZM372.209 99.0701C373.195 99.0701 373.948 98.8719 374.467 98.4756C374.986 98.0694 375.246 97.4897 375.246 96.7367C375.246 95.9837 374.986 95.4091 374.467 95.0127C373.948 94.6065 373.195 94.4034 372.209 94.4034H369.561V99.0701H372.209Z" fill="black"/>
<path d="M379.092 93.1104H380.649V103.514H379.092V93.1104Z" fill="black"/>
<path d="M391.165 91H392.52L387.38 105H386.025L391.165 91Z" fill="black"/>
<path d="M413.159 93.1104L409.515 103.514H407.879L404.904 95.2059L401.929 103.514H400.263L396.618 93.1104H398.222L401.166 101.567L404.235 93.1104H405.668L408.674 101.611L411.68 93.1104H413.159Z" fill="black"/>
<path d="M421.684 99.62C421.684 99.7289 421.673 99.8726 421.653 100.051H414.955C415.049 100.745 415.365 101.304 415.905 101.73C416.456 102.146 417.136 102.355 417.946 102.355C418.932 102.355 419.727 102.038 420.329 101.403L421.154 102.325C420.78 102.741 420.313 103.058 419.752 103.276C419.202 103.494 418.584 103.603 417.899 103.603C417.027 103.603 416.253 103.435 415.578 103.098C414.903 102.751 414.379 102.27 414.005 101.656C413.642 101.042 413.46 100.348 413.46 99.5754C413.46 98.8125 413.636 98.1239 413.989 97.5096C414.353 96.8953 414.846 96.4197 415.469 96.0828C416.103 95.736 416.814 95.5626 417.603 95.5626C418.392 95.5626 419.093 95.736 419.706 96.0828C420.329 96.4197 420.812 96.8953 421.154 97.5096C421.507 98.1239 421.684 98.8273 421.684 99.62ZM417.603 96.7665C416.887 96.7665 416.284 96.9745 415.796 97.3907C415.319 97.8068 415.038 98.3517 414.955 99.0255H420.251C420.168 98.3616 419.882 97.8217 419.394 97.4055C418.917 96.9795 418.32 96.7665 417.603 96.7665Z" fill="black"/>
<path d="M428.137 95.5626C428.936 95.5626 429.653 95.7311 430.286 96.0679C430.92 96.4048 431.413 96.8754 431.766 97.4798C432.129 98.0842 432.311 98.7827 432.311 99.5754C432.311 100.368 432.129 101.071 431.766 101.686C431.413 102.29 430.92 102.761 430.286 103.098C429.653 103.435 428.936 103.603 428.137 103.603C427.524 103.603 426.964 103.489 426.455 103.261C425.946 103.033 425.525 102.701 425.193 102.265V103.514H423.76V92.4862H425.255V96.8259C425.588 96.4098 426.003 96.0977 426.501 95.8896C427 95.6716 427.545 95.5626 428.137 95.5626ZM428.012 102.355C428.542 102.355 429.014 102.241 429.43 102.013C429.855 101.775 430.188 101.448 430.427 101.032C430.676 100.606 430.8 100.12 430.8 99.5754C430.8 99.0304 430.676 98.5499 430.427 98.1338C430.188 97.7077 429.855 97.3808 429.43 97.1529C429.014 96.925 428.542 96.811 428.012 96.811C427.493 96.811 427.021 96.925 426.595 97.1529C426.169 97.3808 425.837 97.7077 425.598 98.1338C425.359 98.5499 425.24 99.0304 425.24 99.5754C425.24 100.12 425.359 100.606 425.598 101.032C425.837 101.448 426.169 101.775 426.595 102.013C427.021 102.241 427.493 102.355 428.012 102.355Z" fill="black"/>
<path d="M438.785 95.5626C439.834 95.5626 440.664 95.8549 441.277 96.4395C441.9 97.0142 442.212 97.8613 442.212 98.9809V103.514H440.716V99.1444C440.716 98.3815 440.524 97.8068 440.14 97.4204C439.756 97.034 439.206 96.8408 438.489 96.8408C437.679 96.8408 437.041 97.0686 436.573 97.5244C436.106 97.9703 435.872 98.6143 435.872 99.4565V103.514H434.377V92.4862H435.872V96.7516C436.184 96.3751 436.589 96.0828 437.087 95.8747C437.596 95.6667 438.162 95.5626 438.785 95.5626Z" fill="black"/>
<path d="M448.56 103.603C447.74 103.603 447.003 103.43 446.348 103.083C445.694 102.736 445.18 102.26 444.806 101.656C444.443 101.042 444.261 100.348 444.261 99.5754C444.261 98.8025 444.443 98.1139 444.806 97.5096C445.18 96.8953 445.694 96.4197 446.348 96.0828C447.003 95.736 447.74 95.5626 448.56 95.5626C449.381 95.5626 450.113 95.736 450.756 96.0828C451.411 96.4197 451.919 96.8953 452.283 97.5096C452.657 98.1139 452.843 98.8025 452.843 99.5754C452.843 100.348 452.657 101.042 452.283 101.656C451.919 102.26 451.411 102.736 450.756 103.083C450.113 103.43 449.381 103.603 448.56 103.603ZM448.56 102.355C449.09 102.355 449.562 102.241 449.978 102.013C450.403 101.775 450.736 101.448 450.974 101.032C451.213 100.606 451.333 100.12 451.333 99.5754C451.333 99.0304 451.213 98.5499 450.974 98.1338C450.736 97.7077 450.403 97.3808 449.978 97.1529C449.562 96.925 449.09 96.811 448.56 96.811C448.031 96.811 447.553 96.925 447.127 97.1529C446.712 97.3808 446.38 97.7077 446.13 98.1338C445.892 98.5499 445.772 99.0304 445.772 99.5754C445.772 100.12 445.892 100.606 446.13 101.032C446.38 101.448 446.712 101.775 447.127 102.013C447.553 102.241 448.031 102.355 448.56 102.355Z" fill="black"/>
<path d="M458.447 103.603C457.627 103.603 456.89 103.43 456.235 103.083C455.581 102.736 455.067 102.26 454.693 101.656C454.33 101.042 454.148 100.348 454.148 99.5754C454.148 98.8025 454.33 98.1139 454.693 97.5096C455.067 96.8953 455.581 96.4197 456.235 96.0828C456.89 95.736 457.627 95.5626 458.447 95.5626C459.267 95.5626 459.999 95.736 460.643 96.0828C461.297 96.4197 461.806 96.8953 462.17 97.5096C462.543 98.1139 462.73 98.8025 462.73 99.5754C462.73 100.348 462.543 101.042 462.17 101.656C461.806 102.26 461.297 102.736 460.643 103.083C459.999 103.43 459.267 103.603 458.447 103.603ZM458.447 102.355C458.977 102.355 459.449 102.241 459.864 102.013C460.29 101.775 460.622 101.448 460.861 101.032C461.1 100.606 461.22 100.12 461.22 99.5754C461.22 99.0304 461.1 98.5499 460.861 98.1338C460.622 97.7077 460.29 97.3808 459.864 97.1529C459.449 96.925 458.977 96.811 458.447 96.811C457.918 96.811 457.44 96.925 457.014 97.1529C456.599 97.3808 456.266 97.7077 456.017 98.1338C455.778 98.5499 455.659 99.0304 455.659 99.5754C455.659 100.12 455.778 100.606 456.017 101.032C456.266 101.448 456.599 101.775 457.014 102.013C457.44 102.241 457.918 102.355 458.447 102.355Z" fill="black"/>
<path d="M468.007 99.8429L466.294 101.359V103.514H464.798V92.4862H466.294V99.5605L470.795 95.6369H472.602L469.128 98.8917L472.944 103.514H471.106L468.007 99.8429Z" fill="black"/>
<defs>
<clipPath id="clip0_302_433">
<rect width="55.7498" height="54.5109" fill="white" transform="translate(385.944)"/>
</clipPath>
<clipPath id="clip1_302_433">
<rect width="55.7498" height="55.7498" fill="white" transform="translate(386.865 186.896)"/>
</clipPath>
</defs>
</svg>
