<svg width="1000" height="861" viewBox="0 0 1000 861" fill="none" xmlns="http://www.w3.org/2000/svg">
<rect x="93" y="723" width="270" height="138" rx="20" fill="#376BC3"/>
<path d="M156.298 802.336C153.498 802.336 151.314 801.561 149.746 800.012C148.196 798.463 147.422 796.251 147.422 793.376V782.4H151.958V793.208C151.958 796.717 153.414 798.472 156.326 798.472C157.744 798.472 158.827 798.052 159.574 797.212C160.32 796.353 160.694 795.019 160.694 793.208V782.4H165.174V793.376C165.174 796.251 164.39 798.463 162.822 800.012C161.272 801.561 159.098 802.336 156.298 802.336Z" fill="white"/>
<path d="M187.632 782.4V802H183.908L174.136 790.1V802H169.656V782.4H173.408L183.152 794.3V782.4H187.632Z" fill="white"/>
<path d="M191.961 786.936H196.329V802H191.961V786.936ZM194.145 784.836C193.343 784.836 192.689 784.603 192.185 784.136C191.681 783.669 191.429 783.091 191.429 782.4C191.429 781.709 191.681 781.131 192.185 780.664C192.689 780.197 193.343 779.964 194.145 779.964C194.948 779.964 195.601 780.188 196.105 780.636C196.609 781.084 196.861 781.644 196.861 782.316C196.861 783.044 196.609 783.651 196.105 784.136C195.601 784.603 194.948 784.836 194.145 784.836Z" fill="white"/>
<path d="M200.691 782.4H209.595C211.723 782.4 213.599 782.811 215.223 783.632C216.866 784.435 218.135 785.573 219.031 787.048C219.946 788.523 220.403 790.24 220.403 792.2C220.403 794.16 219.946 795.877 219.031 797.352C218.135 798.827 216.866 799.975 215.223 800.796C213.599 801.599 211.723 802 209.595 802H200.691V782.4ZM209.371 798.276C211.331 798.276 212.89 797.735 214.047 796.652C215.223 795.551 215.811 794.067 215.811 792.2C215.811 790.333 215.223 788.859 214.047 787.776C212.89 786.675 211.331 786.124 209.371 786.124H205.227V798.276H209.371Z" fill="white"/>
<path d="M246.93 798.36V802H231.754V782.4H246.566V786.04H236.262V790.296H245.362V793.824H236.262V798.36H246.93Z" fill="white"/>
<path d="M250.539 782.4H259.443C261.571 782.4 263.447 782.811 265.071 783.632C266.714 784.435 267.983 785.573 268.879 787.048C269.794 788.523 270.251 790.24 270.251 792.2C270.251 794.16 269.794 795.877 268.879 797.352C267.983 798.827 266.714 799.975 265.071 800.796C263.447 801.599 261.571 802 259.443 802H250.539V782.4ZM259.219 798.276C261.179 798.276 262.738 797.735 263.895 796.652C265.071 795.551 265.659 794.067 265.659 792.2C265.659 790.333 265.071 788.859 263.895 787.776C262.738 786.675 261.179 786.124 259.219 786.124H255.075V798.276H259.219Z" fill="white"/>
<path d="M286.916 791.892H291.06V799.844C289.996 800.647 288.764 801.263 287.364 801.692C285.964 802.121 284.554 802.336 283.136 802.336C281.101 802.336 279.272 801.907 277.648 801.048C276.024 800.171 274.745 798.967 273.812 797.436C272.897 795.887 272.44 794.141 272.44 792.2C272.44 790.259 272.897 788.523 273.812 786.992C274.745 785.443 276.033 784.239 277.676 783.38C279.318 782.503 281.166 782.064 283.22 782.064C284.937 782.064 286.496 782.353 287.896 782.932C289.296 783.511 290.472 784.351 291.424 785.452L288.512 788.14C287.112 786.665 285.422 785.928 283.444 785.928C282.193 785.928 281.082 786.189 280.112 786.712C279.141 787.235 278.385 787.972 277.844 788.924C277.302 789.876 277.032 790.968 277.032 792.2C277.032 793.413 277.302 794.496 277.844 795.448C278.385 796.4 279.132 797.147 280.084 797.688C281.054 798.211 282.156 798.472 283.388 798.472C284.694 798.472 285.87 798.192 286.916 797.632V791.892Z" fill="white"/>
<path d="M310.449 798.36V802H295.273V782.4H310.085V786.04H299.781V790.296H308.881V793.824H299.781V798.36H310.449Z" fill="white"/>
<rect x="413" y="362" width="270" height="138" rx="20" fill="#376BC3"/>
<path d="M484.405 441.336C481.605 441.336 479.421 440.561 477.853 439.012C476.303 437.463 475.529 435.251 475.529 432.376V421.4H480.065V432.208C480.065 435.717 481.521 437.472 484.433 437.472C485.851 437.472 486.934 437.052 487.681 436.212C488.427 435.353 488.801 434.019 488.801 432.208V421.4H493.281V432.376C493.281 435.251 492.497 437.463 490.929 439.012C489.379 440.561 487.205 441.336 484.405 441.336Z" fill="white"/>
<path d="M515.739 421.4V441H512.015L502.243 429.1V441H497.763V421.4H501.515L511.259 433.3V421.4H515.739Z" fill="white"/>
<path d="M520.068 425.936H524.436V441H520.068V425.936ZM522.252 423.836C521.45 423.836 520.796 423.603 520.292 423.136C519.788 422.669 519.536 422.091 519.536 421.4C519.536 420.709 519.788 420.131 520.292 419.664C520.796 419.197 521.45 418.964 522.252 418.964C523.055 418.964 523.708 419.188 524.212 419.636C524.716 420.084 524.968 420.644 524.968 421.316C524.968 422.044 524.716 422.651 524.212 423.136C523.708 423.603 523.055 423.836 522.252 423.836Z" fill="white"/>
<path d="M528.798 421.4H537.702C539.83 421.4 541.706 421.811 543.33 422.632C544.973 423.435 546.242 424.573 547.138 426.048C548.053 427.523 548.51 429.24 548.51 431.2C548.51 433.16 548.053 434.877 547.138 436.352C546.242 437.827 544.973 438.975 543.33 439.796C541.706 440.599 539.83 441 537.702 441H528.798V421.4ZM537.478 437.276C539.438 437.276 540.997 436.735 542.154 435.652C543.33 434.551 543.918 433.067 543.918 431.2C543.918 429.333 543.33 427.859 542.154 426.776C540.997 425.675 539.438 425.124 537.478 425.124H533.334V437.276H537.478Z" fill="white"/>
<path d="M577.837 421.4V441H573.301V432.964H564.397V441H559.861V421.4H564.397V429.128H573.301V421.4H577.837Z" fill="white"/>
<path d="M591.182 441.336C588.382 441.336 586.198 440.561 584.63 439.012C583.081 437.463 582.306 435.251 582.306 432.376V421.4H586.842V432.208C586.842 435.717 588.298 437.472 591.21 437.472C592.629 437.472 593.711 437.052 594.458 436.212C595.205 435.353 595.578 434.019 595.578 432.208V421.4H600.058V432.376C600.058 435.251 599.274 437.463 597.706 439.012C596.157 440.561 593.982 441.336 591.182 441.336Z" fill="white"/>
<path d="M618.933 430.808C620.053 431.163 620.93 431.76 621.565 432.6C622.199 433.421 622.517 434.439 622.517 435.652C622.517 437.369 621.845 438.695 620.501 439.628C619.175 440.543 617.234 441 614.677 441H604.541V421.4H614.117C616.506 421.4 618.335 421.857 619.605 422.772C620.893 423.687 621.537 424.928 621.537 426.496C621.537 427.448 621.303 428.297 620.837 429.044C620.389 429.791 619.754 430.379 618.933 430.808ZM609.049 424.816V429.436H613.557C614.677 429.436 615.526 429.24 616.105 428.848C616.683 428.456 616.973 427.877 616.973 427.112C616.973 426.347 616.683 425.777 616.105 425.404C615.526 425.012 614.677 424.816 613.557 424.816H609.049ZM614.341 437.584C615.535 437.584 616.431 437.388 617.029 436.996C617.645 436.604 617.953 435.997 617.953 435.176C617.953 433.552 616.749 432.74 614.341 432.74H609.049V437.584H614.341Z" fill="white"/>
<rect x="412" y="723" width="270" height="138" rx="20" fill="#376BC3"/>
<path d="M475.297 802.336C472.497 802.336 470.313 801.561 468.745 800.012C467.196 798.463 466.421 796.251 466.421 793.376V782.4H470.957V793.208C470.957 796.717 472.413 798.472 475.325 798.472C476.744 798.472 477.827 798.052 478.573 797.212C479.32 796.353 479.693 795.019 479.693 793.208V782.4H484.173V793.376C484.173 796.251 483.389 798.463 481.821 800.012C480.272 801.561 478.097 802.336 475.297 802.336Z" fill="white"/>
<path d="M506.632 782.4V802H502.908L493.136 790.1V802H488.656V782.4H492.408L502.152 794.3V782.4H506.632Z" fill="white"/>
<path d="M510.961 786.936H515.329V802H510.961V786.936ZM513.145 784.836C512.342 784.836 511.689 784.603 511.185 784.136C510.681 783.669 510.429 783.091 510.429 782.4C510.429 781.709 510.681 781.131 511.185 780.664C511.689 780.197 512.342 779.964 513.145 779.964C513.948 779.964 514.601 780.188 515.105 780.636C515.609 781.084 515.861 781.644 515.861 782.316C515.861 783.044 515.609 783.651 515.105 784.136C514.601 784.603 513.948 784.836 513.145 784.836Z" fill="white"/>
<path d="M519.691 782.4H528.595C530.723 782.4 532.599 782.811 534.223 783.632C535.866 784.435 537.135 785.573 538.031 787.048C538.946 788.523 539.403 790.24 539.403 792.2C539.403 794.16 538.946 795.877 538.031 797.352C537.135 798.827 535.866 799.975 534.223 800.796C532.599 801.599 530.723 802 528.595 802H519.691V782.4ZM528.371 798.276C530.331 798.276 531.89 797.735 533.047 796.652C534.223 795.551 534.811 794.067 534.811 792.2C534.811 790.333 534.223 788.859 533.047 787.776C531.89 786.675 530.331 786.124 528.371 786.124H524.227V798.276H528.371Z" fill="white"/>
<path d="M565.929 798.36V802H550.753V782.4H565.565V786.04H555.261V790.296H564.361V793.824H555.261V798.36H565.929Z" fill="white"/>
<path d="M569.539 782.4H578.443C580.571 782.4 582.447 782.811 584.071 783.632C585.713 784.435 586.983 785.573 587.879 787.048C588.793 788.523 589.251 790.24 589.251 792.2C589.251 794.16 588.793 795.877 587.879 797.352C586.983 798.827 585.713 799.975 584.071 800.796C582.447 801.599 580.571 802 578.443 802H569.539V782.4ZM578.219 798.276C580.179 798.276 581.737 797.735 582.895 796.652C584.071 795.551 584.659 794.067 584.659 792.2C584.659 790.333 584.071 788.859 582.895 787.776C581.737 786.675 580.179 786.124 578.219 786.124H574.075V798.276H578.219Z" fill="white"/>
<path d="M605.915 791.892H610.059V799.844C608.995 800.647 607.763 801.263 606.363 801.692C604.963 802.121 603.554 802.336 602.135 802.336C600.101 802.336 598.271 801.907 596.647 801.048C595.023 800.171 593.745 798.967 592.811 797.436C591.897 795.887 591.439 794.141 591.439 792.2C591.439 790.259 591.897 788.523 592.811 786.992C593.745 785.443 595.033 784.239 596.675 783.38C598.318 782.503 600.166 782.064 602.219 782.064C603.937 782.064 605.495 782.353 606.895 782.932C608.295 783.511 609.471 784.351 610.423 785.452L607.511 788.14C606.111 786.665 604.422 785.928 602.443 785.928C601.193 785.928 600.082 786.189 599.111 786.712C598.141 787.235 597.385 787.972 596.843 788.924C596.302 789.876 596.031 790.968 596.031 792.2C596.031 793.413 596.302 794.496 596.843 795.448C597.385 796.4 598.131 797.147 599.083 797.688C600.054 798.211 601.155 798.472 602.387 798.472C603.694 798.472 604.87 798.192 605.915 797.632V791.892Z" fill="white"/>
<path d="M629.449 798.36V802H614.273V782.4H629.085V786.04H618.781V790.296H627.881V793.824H618.781V798.36H629.449Z" fill="white"/>
<rect x="730" y="723" width="270" height="138" rx="20" fill="#376BC3"/>
<path d="M793.297 802.336C790.497 802.336 788.313 801.561 786.745 800.012C785.196 798.463 784.421 796.251 784.421 793.376V782.4H788.957V793.208C788.957 796.717 790.413 798.472 793.325 798.472C794.744 798.472 795.827 798.052 796.573 797.212C797.32 796.353 797.693 795.019 797.693 793.208V782.4H802.173V793.376C802.173 796.251 801.389 798.463 799.821 800.012C798.272 801.561 796.097 802.336 793.297 802.336Z" fill="white"/>
<path d="M824.632 782.4V802H820.908L811.136 790.1V802H806.656V782.4H810.408L820.152 794.3V782.4H824.632Z" fill="white"/>
<path d="M828.961 786.936H833.329V802H828.961V786.936ZM831.145 784.836C830.342 784.836 829.689 784.603 829.185 784.136C828.681 783.669 828.429 783.091 828.429 782.4C828.429 781.709 828.681 781.131 829.185 780.664C829.689 780.197 830.342 779.964 831.145 779.964C831.948 779.964 832.601 780.188 833.105 780.636C833.609 781.084 833.861 781.644 833.861 782.316C833.861 783.044 833.609 783.651 833.105 784.136C832.601 784.603 831.948 784.836 831.145 784.836Z" fill="white"/>
<path d="M837.691 782.4H846.595C848.723 782.4 850.599 782.811 852.223 783.632C853.866 784.435 855.135 785.573 856.031 787.048C856.946 788.523 857.403 790.24 857.403 792.2C857.403 794.16 856.946 795.877 856.031 797.352C855.135 798.827 853.866 799.975 852.223 800.796C850.599 801.599 848.723 802 846.595 802H837.691V782.4ZM846.371 798.276C848.331 798.276 849.89 797.735 851.047 796.652C852.223 795.551 852.811 794.067 852.811 792.2C852.811 790.333 852.223 788.859 851.047 787.776C849.89 786.675 848.331 786.124 846.371 786.124H842.227V798.276H846.371Z" fill="white"/>
<path d="M883.929 798.36V802H868.753V782.4H883.565V786.04H873.261V790.296H882.361V793.824H873.261V798.36H883.929Z" fill="white"/>
<path d="M887.539 782.4H896.443C898.571 782.4 900.447 782.811 902.071 783.632C903.713 784.435 904.983 785.573 905.879 787.048C906.793 788.523 907.251 790.24 907.251 792.2C907.251 794.16 906.793 795.877 905.879 797.352C904.983 798.827 903.713 799.975 902.071 800.796C900.447 801.599 898.571 802 896.443 802H887.539V782.4ZM896.219 798.276C898.179 798.276 899.737 797.735 900.895 796.652C902.071 795.551 902.659 794.067 902.659 792.2C902.659 790.333 902.071 788.859 900.895 787.776C899.737 786.675 898.179 786.124 896.219 786.124H892.075V798.276H896.219Z" fill="white"/>
<path d="M923.915 791.892H928.059V799.844C926.995 800.647 925.763 801.263 924.363 801.692C922.963 802.121 921.554 802.336 920.135 802.336C918.101 802.336 916.271 801.907 914.647 801.048C913.023 800.171 911.745 798.967 910.811 797.436C909.897 795.887 909.439 794.141 909.439 792.2C909.439 790.259 909.897 788.523 910.811 786.992C911.745 785.443 913.033 784.239 914.675 783.38C916.318 782.503 918.166 782.064 920.219 782.064C921.937 782.064 923.495 782.353 924.895 782.932C926.295 783.511 927.471 784.351 928.423 785.452L925.511 788.14C924.111 786.665 922.422 785.928 920.443 785.928C919.193 785.928 918.082 786.189 917.111 786.712C916.141 787.235 915.385 787.972 914.843 788.924C914.302 789.876 914.031 790.968 914.031 792.2C914.031 793.413 914.302 794.496 914.843 795.448C915.385 796.4 916.131 797.147 917.083 797.688C918.054 798.211 919.155 798.472 920.387 798.472C921.694 798.472 922.87 798.192 923.915 797.632V791.892Z" fill="white"/>
<path d="M947.449 798.36V802H932.273V782.4H947.085V786.04H936.781V790.296H945.881V793.824H936.781V798.36H947.449Z" fill="white"/>
<rect x="93" width="270" height="138" rx="20" fill="#376BC3"/>
<path d="M149.249 79.3361C146.449 79.3361 144.265 78.5614 142.697 77.0121C141.147 75.4628 140.373 73.2508 140.373 70.3761V59.4001H144.909V70.2081C144.909 73.7174 146.365 75.4721 149.277 75.4721C150.695 75.4721 151.778 75.0521 152.525 74.2121C153.271 73.3534 153.645 72.0188 153.645 70.2081V59.4001H158.125V70.3761C158.125 73.2508 157.341 75.4628 155.773 77.0121C154.223 78.5614 152.049 79.3361 149.249 79.3361Z" fill="white"/>
<path d="M180.583 59.4001V79.0001H176.859L167.087 67.1001V79.0001H162.607V59.4001H166.359L176.103 71.3001V59.4001H180.583Z" fill="white"/>
<path d="M184.912 63.9361H189.28V79.0001H184.912V63.9361ZM187.096 61.8361C186.294 61.8361 185.64 61.6028 185.136 61.1361C184.632 60.6694 184.38 60.0908 184.38 59.4001C184.38 58.7094 184.632 58.1308 185.136 57.6641C185.64 57.1974 186.294 56.9641 187.096 56.9641C187.899 56.9641 188.552 57.1881 189.056 57.6361C189.56 58.0841 189.812 58.6441 189.812 59.3161C189.812 60.0441 189.56 60.6508 189.056 61.1361C188.552 61.6028 187.899 61.8361 187.096 61.8361Z" fill="white"/>
<path d="M193.642 59.4001H202.546C204.674 59.4001 206.55 59.8108 208.174 60.6321C209.817 61.4348 211.086 62.5734 211.982 64.0481C212.897 65.5228 213.354 67.2401 213.354 69.2001C213.354 71.1601 212.897 72.8774 211.982 74.3521C211.086 75.8268 209.817 76.9748 208.174 77.7961C206.55 78.5988 204.674 79.0001 202.546 79.0001H193.642V59.4001ZM202.322 75.2761C204.282 75.2761 205.841 74.7348 206.998 73.6521C208.174 72.5508 208.762 71.0668 208.762 69.2001C208.762 67.3334 208.174 65.8588 206.998 64.7761C205.841 63.6748 204.282 63.1241 202.322 63.1241H198.178V75.2761H202.322Z" fill="white"/>
<path d="M231.145 79.3361C229.596 79.3361 228.093 79.1308 226.637 78.7201C225.2 78.2908 224.042 77.7401 223.165 77.0681L224.705 73.6521C225.545 74.2681 226.544 74.7628 227.701 75.1361C228.858 75.5094 230.016 75.6961 231.173 75.6961C232.461 75.6961 233.413 75.5094 234.029 75.1361C234.645 74.7441 234.953 74.2308 234.953 73.5961C234.953 73.1294 234.766 72.7468 234.393 72.4481C234.038 72.1308 233.572 71.8788 232.993 71.6921C232.433 71.5054 231.668 71.3001 230.697 71.0761C229.204 70.7214 227.981 70.3668 227.029 70.0121C226.077 69.6574 225.256 69.0881 224.565 68.3041C223.893 67.5201 223.557 66.4748 223.557 65.1681C223.557 64.0294 223.865 63.0028 224.481 62.0881C225.097 61.1548 226.021 60.4174 227.253 59.8761C228.504 59.3348 230.025 59.0641 231.817 59.0641C233.068 59.0641 234.29 59.2134 235.485 59.5121C236.68 59.8108 237.725 60.2401 238.621 60.8001L237.221 64.2441C235.41 63.2174 233.6 62.7041 231.789 62.7041C230.52 62.7041 229.577 62.9094 228.961 63.3201C228.364 63.7308 228.065 64.2721 228.065 64.9441C228.065 65.6161 228.41 66.1201 229.101 66.4561C229.81 66.7734 230.884 67.0908 232.321 67.4081C233.814 67.7628 235.037 68.1174 235.989 68.4721C236.941 68.8268 237.753 69.3868 238.425 70.1521C239.116 70.9174 239.461 71.9534 239.461 73.2601C239.461 74.3801 239.144 75.4068 238.509 76.3401C237.893 77.2548 236.96 77.9828 235.709 78.5241C234.458 79.0654 232.937 79.3361 231.145 79.3361Z" fill="white"/>
<path d="M251.968 78.2721C251.539 78.5894 251.007 78.8321 250.372 79.0001C249.756 79.1494 249.103 79.2241 248.412 79.2241C246.62 79.2241 245.23 78.7668 244.24 77.8521C243.27 76.9374 242.784 75.5934 242.784 73.8201V67.6321H240.46V64.2721H242.784V60.6041H247.152V64.2721H250.904V67.6321H247.152V73.7641C247.152 74.3988 247.311 74.8934 247.628 75.2481C247.964 75.5841 248.431 75.7521 249.028 75.7521C249.719 75.7521 250.307 75.5654 250.792 75.1921L251.968 78.2721Z" fill="white"/>
<path d="M269.596 63.9361V79.0001H265.452V77.2081C264.874 77.8614 264.183 78.3654 263.38 78.7201C262.578 79.0561 261.71 79.2241 260.776 79.2241C258.798 79.2241 257.23 78.6548 256.072 77.5161C254.915 76.3774 254.336 74.6881 254.336 72.4481V63.9361H258.704V71.8041C258.704 74.2308 259.722 75.4441 261.756 75.4441C262.802 75.4441 263.642 75.1081 264.276 74.4361C264.911 73.7454 265.228 72.7281 265.228 71.3841V63.9361H269.596Z" fill="white"/>
<path d="M288.987 58.2241V79.0001H284.815V77.2641C283.732 78.5708 282.164 79.2241 280.111 79.2241C278.692 79.2241 277.404 78.9068 276.247 78.2721C275.108 77.6374 274.212 76.7321 273.559 75.5561C272.906 74.3801 272.579 73.0174 272.579 71.4681C272.579 69.9188 272.906 68.5561 273.559 67.3801C274.212 66.2041 275.108 65.2988 276.247 64.6641C277.404 64.0294 278.692 63.7121 280.111 63.7121C282.034 63.7121 283.536 64.3188 284.619 65.5321V58.2241H288.987ZM280.867 75.6401C281.968 75.6401 282.883 75.2668 283.611 74.5201C284.339 73.7548 284.703 72.7374 284.703 71.4681C284.703 70.1988 284.339 69.1908 283.611 68.4441C282.883 67.6788 281.968 67.2961 280.867 67.2961C279.747 67.2961 278.823 67.6788 278.095 68.4441C277.367 69.1908 277.003 70.1988 277.003 71.4681C277.003 72.7374 277.367 73.7548 278.095 74.5201C278.823 75.2668 279.747 75.6401 280.867 75.6401Z" fill="white"/>
<path d="M293.03 63.9361H297.398V79.0001H293.03V63.9361ZM295.214 61.8361C294.411 61.8361 293.758 61.6028 293.254 61.1361C292.75 60.6694 292.498 60.0908 292.498 59.4001C292.498 58.7094 292.75 58.1308 293.254 57.6641C293.758 57.1974 294.411 56.9641 295.214 56.9641C296.016 56.9641 296.67 57.1881 297.174 57.6361C297.678 58.0841 297.93 58.6441 297.93 59.3161C297.93 60.0441 297.678 60.6508 297.174 61.1361C296.67 61.6028 296.016 61.8361 295.214 61.8361Z" fill="white"/>
<path d="M308.62 79.2241C307.033 79.2241 305.605 78.8974 304.336 78.2441C303.085 77.5721 302.105 76.6481 301.396 75.4721C300.686 74.2961 300.332 72.9614 300.332 71.4681C300.332 69.9748 300.686 68.6401 301.396 67.4641C302.105 66.2881 303.085 65.3734 304.336 64.7201C305.605 64.0481 307.033 63.7121 308.62 63.7121C310.206 63.7121 311.625 64.0481 312.876 64.7201C314.126 65.3734 315.106 66.2881 315.816 67.4641C316.525 68.6401 316.88 69.9748 316.88 71.4681C316.88 72.9614 316.525 74.2961 315.816 75.4721C315.106 76.6481 314.126 77.5721 312.876 78.2441C311.625 78.8974 310.206 79.2241 308.62 79.2241ZM308.62 75.6401C309.74 75.6401 310.654 75.2668 311.364 74.5201C312.092 73.7548 312.456 72.7374 312.456 71.4681C312.456 70.1988 312.092 69.1908 311.364 68.4441C310.654 67.6788 309.74 67.2961 308.62 67.2961C307.5 67.2961 306.576 67.6788 305.848 68.4441C305.12 69.1908 304.756 70.1988 304.756 71.4681C304.756 72.7374 305.12 73.7548 305.848 74.5201C306.576 75.2668 307.5 75.6401 308.62 75.6401Z" fill="white"/>
<rect x="415" width="270" height="138" rx="20" fill="#F6F6F6"/>
<path d="M469.953 32.4C472.492 32.4 474.489 33.0066 475.945 34.22C477.401 35.4333 478.129 37.104 478.129 39.232C478.129 41.36 477.401 43.0306 475.945 44.244C474.489 45.4573 472.492 46.064 469.953 46.064H465.109V52H462.309V32.4H469.953ZM469.869 43.628C471.642 43.628 472.996 43.2546 473.929 42.508C474.862 41.7426 475.329 40.6506 475.329 39.232C475.329 37.8133 474.862 36.7306 473.929 35.984C472.996 35.2186 471.642 34.836 469.869 34.836H465.109V43.628H469.869Z" fill="black"/>
<path d="M495.956 37.16V52H493.408V49.76C492.867 50.5253 492.148 51.1226 491.252 51.552C490.375 51.9626 489.413 52.168 488.368 52.168C486.389 52.168 484.831 51.6266 483.692 50.544C482.553 49.4426 481.984 47.828 481.984 45.7V37.16H484.672V45.392C484.672 46.8293 485.017 47.9213 485.708 48.668C486.399 49.396 487.388 49.76 488.676 49.76C490.095 49.76 491.215 49.3306 492.036 48.472C492.857 47.6133 493.268 46.4 493.268 44.832V37.16H495.956Z" fill="black"/>
<path d="M508.941 37.02C510.379 37.02 511.667 37.3373 512.805 37.972C513.944 38.6066 514.831 39.4933 515.465 40.632C516.119 41.7706 516.445 43.0866 516.445 44.58C516.445 46.0733 516.119 47.3986 515.465 48.556C514.831 49.6946 513.944 50.5813 512.805 51.216C511.667 51.8506 510.379 52.168 508.941 52.168C507.84 52.168 506.832 51.9533 505.917 51.524C505.003 51.0946 504.247 50.4693 503.649 49.648V52H501.073V31.224H503.761V39.4C504.359 38.616 505.105 38.028 506.001 37.636C506.897 37.2253 507.877 37.02 508.941 37.02ZM508.717 49.816C509.669 49.816 510.519 49.6013 511.265 49.172C512.031 48.724 512.628 48.108 513.057 47.324C513.505 46.5213 513.729 45.6066 513.729 44.58C513.729 43.5533 513.505 42.648 513.057 41.864C512.628 41.0613 512.031 40.4453 511.265 40.016C510.519 39.5866 509.669 39.372 508.717 39.372C507.784 39.372 506.935 39.5866 506.169 40.016C505.404 40.4453 504.807 41.0613 504.377 41.864C503.948 42.648 503.733 43.5533 503.733 44.58C503.733 45.6066 503.948 46.5213 504.377 47.324C504.807 48.108 505.404 48.724 506.169 49.172C506.935 49.6013 507.784 49.816 508.717 49.816Z" fill="black"/>
<path d="M520.159 31.224H522.847V52H520.159V31.224Z" fill="black"/>
<path d="M527.98 37.16H530.668V52H527.98V37.16ZM529.324 34.304C528.801 34.304 528.362 34.136 528.008 33.8C527.672 33.464 527.504 33.0533 527.504 32.568C527.504 32.0826 527.672 31.672 528.008 31.336C528.362 30.9813 528.801 30.804 529.324 30.804C529.846 30.804 530.276 30.972 530.612 31.308C530.966 31.6253 531.144 32.0266 531.144 32.512C531.144 33.016 530.966 33.4453 530.612 33.8C530.276 34.136 529.846 34.304 529.324 34.304Z" fill="black"/>
<path d="M542.268 52.168C540.756 52.168 539.403 51.8413 538.208 51.188C537.032 50.5346 536.108 49.6386 535.436 48.5C534.764 47.3426 534.428 46.036 534.428 44.58C534.428 43.124 534.764 41.8266 535.436 40.688C536.108 39.5306 537.032 38.6346 538.208 38C539.403 37.3466 540.756 37.02 542.268 37.02C543.612 37.02 544.807 37.2906 545.852 37.832C546.916 38.3733 547.737 39.1573 548.316 40.184L546.272 41.5C545.805 40.7906 545.227 40.2586 544.536 39.904C543.845 39.5493 543.08 39.372 542.24 39.372C541.269 39.372 540.392 39.5866 539.608 40.016C538.843 40.4453 538.236 41.0613 537.788 41.864C537.359 42.648 537.144 43.5533 537.144 44.58C537.144 45.6253 537.359 46.5493 537.788 47.352C538.236 48.136 538.843 48.7426 539.608 49.172C540.392 49.6013 541.269 49.816 542.24 49.816C543.08 49.816 543.845 49.6386 544.536 49.284C545.227 48.9293 545.805 48.3973 546.272 47.688L548.316 48.976C547.737 50.0026 546.916 50.796 545.852 51.356C544.807 51.8973 543.612 52.168 542.268 52.168Z" fill="black"/>
<path d="M568.472 52.224C566.512 52.224 564.738 51.7946 563.152 50.936C561.584 50.0586 560.352 48.864 559.456 47.352C558.56 45.8213 558.112 44.104 558.112 42.2C558.112 40.296 558.56 38.588 559.456 37.076C560.352 35.5453 561.593 34.3506 563.18 33.492C564.766 32.6146 566.54 32.176 568.5 32.176C570.03 32.176 571.43 32.4373 572.7 32.96C573.969 33.464 575.052 34.22 575.948 35.228L574.128 36.992C572.653 35.4426 570.814 34.668 568.612 34.668C567.156 34.668 565.84 34.9946 564.664 35.648C563.488 36.3013 562.564 37.2066 561.892 38.364C561.238 39.5026 560.912 40.7813 560.912 42.2C560.912 43.6186 561.238 44.9066 561.892 46.064C562.564 47.2026 563.488 48.0986 564.664 48.752C565.84 49.4053 567.156 49.732 568.612 49.732C570.796 49.732 572.634 48.948 574.128 47.38L575.948 49.144C575.052 50.152 573.96 50.9173 572.672 51.44C571.402 51.9626 570.002 52.224 568.472 52.224Z" fill="black"/>
<path d="M579.55 31.224H582.238V52H579.55V31.224Z" fill="black"/>
<path d="M593.726 52.168C592.252 52.168 590.926 51.8413 589.75 51.188C588.574 50.5346 587.65 49.6386 586.978 48.5C586.325 47.3426 585.998 46.036 585.998 44.58C585.998 43.124 586.325 41.8266 586.978 40.688C587.65 39.5306 588.574 38.6346 589.75 38C590.926 37.3466 592.252 37.02 593.726 37.02C595.201 37.02 596.517 37.3466 597.674 38C598.85 38.6346 599.765 39.5306 600.418 40.688C601.09 41.8266 601.426 43.124 601.426 44.58C601.426 46.036 601.09 47.3426 600.418 48.5C599.765 49.6386 598.85 50.5346 597.674 51.188C596.517 51.8413 595.201 52.168 593.726 52.168ZM593.726 49.816C594.678 49.816 595.528 49.6013 596.274 49.172C597.04 48.724 597.637 48.108 598.066 47.324C598.496 46.5213 598.71 45.6066 598.71 44.58C598.71 43.5533 598.496 42.648 598.066 41.864C597.637 41.0613 597.04 40.4453 596.274 40.016C595.528 39.5866 594.678 39.372 593.726 39.372C592.774 39.372 591.916 39.5866 591.15 40.016C590.404 40.4453 589.806 41.0613 589.358 41.864C588.929 42.648 588.714 43.5533 588.714 44.58C588.714 45.6066 588.929 46.5213 589.358 47.324C589.806 48.108 590.404 48.724 591.15 49.172C591.916 49.6013 592.774 49.816 593.726 49.816Z" fill="black"/>
<path d="M618.976 37.16V52H616.428V49.76C615.886 50.5253 615.168 51.1226 614.272 51.552C613.394 51.9626 612.433 52.168 611.388 52.168C609.409 52.168 607.85 51.6266 606.712 50.544C605.573 49.4426 605.004 47.828 605.004 45.7V37.16H607.692V45.392C607.692 46.8293 608.037 47.9213 608.728 48.668C609.418 49.396 610.408 49.76 611.696 49.76C613.114 49.76 614.234 49.3306 615.056 48.472C615.877 47.6133 616.288 46.4 616.288 44.832V37.16H618.976Z" fill="black"/>
<path d="M638.093 31.224V52H635.517V49.648C634.92 50.4693 634.164 51.0946 633.249 51.524C632.334 51.9533 631.326 52.168 630.225 52.168C628.788 52.168 627.5 51.8506 626.361 51.216C625.222 50.5813 624.326 49.6946 623.673 48.556C623.038 47.3986 622.721 46.0733 622.721 44.58C622.721 43.0866 623.038 41.7706 623.673 40.632C624.326 39.4933 625.222 38.6066 626.361 37.972C627.5 37.3373 628.788 37.02 630.225 37.02C631.289 37.02 632.269 37.2253 633.165 37.636C634.061 38.028 634.808 38.616 635.405 39.4V31.224H638.093ZM630.449 49.816C631.382 49.816 632.232 49.6013 632.997 49.172C633.762 48.724 634.36 48.108 634.789 47.324C635.218 46.5213 635.433 45.6066 635.433 44.58C635.433 43.5533 635.218 42.648 634.789 41.864C634.36 41.0613 633.762 40.4453 632.997 40.016C632.232 39.5866 631.382 39.372 630.449 39.372C629.497 39.372 628.638 39.5866 627.873 40.016C627.126 40.4453 626.529 41.0613 626.081 41.864C625.652 42.648 625.437 43.5533 625.437 44.58C625.437 45.6066 625.652 46.5213 626.081 47.324C626.529 48.108 627.126 48.724 627.873 49.172C628.638 49.6013 629.497 49.816 630.449 49.816Z" fill="black"/>
<path d="M474.439 111.432C473.375 109.715 472.554 107.745 471.975 105.524C471.397 103.284 471.107 100.885 471.107 98.328C471.107 95.7706 471.397 93.372 471.975 91.132C472.554 88.8733 473.375 86.904 474.439 85.224H476.987C475.867 87.184 475.046 89.2373 474.523 91.384C474.001 93.5306 473.739 95.8453 473.739 98.328C473.739 100.811 474.001 103.125 474.523 105.272C475.046 107.419 475.867 109.472 476.987 111.432H474.439Z" fill="black"/>
<path d="M493.309 101.1H482.893L480.737 106H477.853L486.729 86.4H489.501L498.405 106H495.465L493.309 101.1ZM492.329 98.86L488.101 89.256L483.873 98.86H492.329Z" fill="black"/>
<path d="M527.982 86.4L521.43 106H518.49L513.142 90.348L507.794 106H504.798L498.246 86.4H501.13L506.422 102.332L511.938 86.4H514.514L519.918 102.416L525.322 86.4H527.982Z" fill="black"/>
<path d="M537.119 106.224C535.644 106.224 534.216 106 532.835 105.552C531.472 105.085 530.399 104.488 529.615 103.76L530.651 101.576C531.397 102.248 532.349 102.799 533.507 103.228C534.683 103.639 535.887 103.844 537.119 103.844C538.743 103.844 539.956 103.573 540.759 103.032C541.561 102.472 541.963 101.735 541.963 100.82C541.963 100.148 541.739 99.6066 541.291 99.196C540.861 98.7666 540.32 98.44 539.667 98.216C539.032 97.992 538.127 97.74 536.951 97.46C535.476 97.1053 534.281 96.7506 533.367 96.396C532.471 96.0413 531.696 95.5 531.043 94.772C530.408 94.0253 530.091 93.0266 530.091 91.776C530.091 90.7306 530.361 89.788 530.903 88.948C531.463 88.108 532.303 87.436 533.423 86.932C534.543 86.428 535.933 86.176 537.595 86.176C538.752 86.176 539.891 86.3253 541.011 86.624C542.131 86.9226 543.092 87.352 543.895 87.912L542.971 90.152C542.149 89.6293 541.272 89.2373 540.339 88.976C539.405 88.696 538.491 88.556 537.595 88.556C536.008 88.556 534.813 88.8453 534.011 89.424C533.227 90.0026 532.835 90.7493 532.835 91.664C532.835 92.336 533.059 92.8866 533.507 93.316C533.955 93.7266 534.505 94.0533 535.159 94.296C535.831 94.52 536.736 94.7626 537.875 95.024C539.349 95.3786 540.535 95.7333 541.431 96.088C542.327 96.4426 543.092 96.984 543.727 97.712C544.38 98.44 544.707 99.42 544.707 100.652C544.707 101.679 544.427 102.621 543.867 103.48C543.307 104.32 542.457 104.992 541.319 105.496C540.18 105.981 538.78 106.224 537.119 106.224Z" fill="black"/>
<path d="M549.624 102.332C550.147 102.332 550.576 102.519 550.912 102.892C551.267 103.247 551.444 103.695 551.444 104.236C551.444 104.516 551.407 104.787 551.332 105.048C551.276 105.309 551.155 105.711 550.968 106.252L549.652 110.144H547.888L548.924 105.972C548.57 105.841 548.28 105.627 548.056 105.328C547.851 105.011 547.748 104.647 547.748 104.236C547.748 103.676 547.926 103.219 548.28 102.864C548.635 102.509 549.083 102.332 549.624 102.332Z" fill="black"/>
<path d="M576.788 96.088H579.476V103.732C578.505 104.535 577.376 105.151 576.088 105.58C574.8 106.009 573.456 106.224 572.056 106.224C570.077 106.224 568.294 105.795 566.708 104.936C565.121 104.059 563.87 102.864 562.956 101.352C562.06 99.8213 561.612 98.104 561.612 96.2C561.612 94.296 562.06 92.5786 562.956 91.048C563.87 89.5173 565.121 88.3226 566.708 87.464C568.313 86.6053 570.114 86.176 572.112 86.176C573.68 86.176 575.098 86.4373 576.368 86.96C577.656 87.464 578.748 88.2106 579.644 89.2L577.908 90.936C576.34 89.424 574.445 88.668 572.224 88.668C570.73 88.668 569.386 88.9946 568.192 89.6479C567.016 90.2826 566.092 91.1786 565.42 92.336C564.748 93.4746 564.412 94.7626 564.412 96.2C564.412 97.6186 564.748 98.9066 565.42 100.064C566.092 101.203 567.016 102.099 568.192 102.752C569.386 103.405 570.721 103.732 572.196 103.732C573.95 103.732 575.481 103.312 576.788 102.472V96.088Z" fill="black"/>
<path d="M593.6 106.224C591.64 106.224 589.867 105.795 588.28 104.936C586.712 104.059 585.48 102.864 584.584 101.352C583.688 99.8213 583.24 98.104 583.24 96.2C583.24 94.296 583.688 92.588 584.584 91.076C585.48 89.5453 586.722 88.3506 588.308 87.492C589.895 86.6146 591.668 86.176 593.628 86.176C595.159 86.176 596.559 86.4373 597.828 86.96C599.098 87.464 600.18 88.22 601.076 89.228L599.256 90.992C597.782 89.4426 595.943 88.668 593.74 88.668C592.284 88.668 590.968 88.9946 589.792 89.6479C588.616 90.3013 587.692 91.2066 587.02 92.364C586.367 93.5026 586.04 94.7813 586.04 96.2C586.04 97.6186 586.367 98.9066 587.02 100.064C587.692 101.203 588.616 102.099 589.792 102.752C590.968 103.405 592.284 103.732 593.74 103.732C595.924 103.732 597.763 102.948 599.256 101.38L601.076 103.144C600.18 104.152 599.088 104.917 597.8 105.44C596.531 105.963 595.131 106.224 593.6 106.224Z" fill="black"/>
<path d="M612.715 86.4C615.253 86.4 617.251 87.0066 618.707 88.22C620.163 89.4333 620.891 91.104 620.891 93.232C620.891 95.36 620.163 97.0306 618.707 98.244C617.251 99.4573 615.253 100.064 612.715 100.064H607.871V106H605.071V86.4H612.715ZM612.631 97.628C614.404 97.628 615.757 97.2546 616.691 96.508C617.624 95.7426 618.091 94.6506 618.091 93.232C618.091 91.8133 617.624 90.7306 616.691 89.984C615.757 89.2186 614.404 88.836 612.631 88.836H607.871V97.628H612.631Z" fill="black"/>
<path d="M622.988 111.432C624.108 109.472 624.929 107.419 625.452 105.272C625.993 103.125 626.264 100.811 626.264 98.328C626.264 95.8453 625.993 93.5306 625.452 91.384C624.929 89.2373 624.108 87.184 622.988 85.224H625.536C626.618 86.904 627.449 88.864 628.028 91.104C628.606 93.344 628.896 95.752 628.896 98.328C628.896 100.885 628.606 103.284 628.028 105.524C627.449 107.764 626.618 109.733 625.536 111.432H622.988Z" fill="black"/>
<rect x="730" width="270" height="138" rx="20" fill="#F6F6F6"/>
<path d="M782.102 59.3999H784.902V78.9999H782.102V59.3999Z" fill="black"/>
<path d="M796.734 79.1679C795.259 79.1679 793.934 78.8412 792.758 78.1879C791.582 77.5346 790.658 76.6386 789.986 75.4999C789.333 74.3426 789.006 73.0359 789.006 71.5799C789.006 70.1239 789.333 68.8266 789.986 67.6879C790.658 66.5306 791.582 65.6346 792.758 64.9999C793.934 64.3466 795.259 64.0199 796.734 64.0199C798.209 64.0199 799.525 64.3466 800.682 64.9999C801.858 65.6346 802.773 66.5306 803.426 67.6879C804.098 68.8266 804.434 70.1239 804.434 71.5799C804.434 73.0359 804.098 74.3426 803.426 75.4999C802.773 76.6386 801.858 77.5346 800.682 78.1879C799.525 78.8412 798.209 79.1679 796.734 79.1679ZM796.734 76.8159C797.686 76.8159 798.535 76.6012 799.282 76.1719C800.047 75.7239 800.645 75.1079 801.074 74.3239C801.503 73.5212 801.718 72.6066 801.718 71.5799C801.718 70.5532 801.503 69.6479 801.074 68.8639C800.645 68.0612 800.047 67.4452 799.282 67.0159C798.535 66.5866 797.686 66.3719 796.734 66.3719C795.782 66.3719 794.923 66.5866 794.158 67.0159C793.411 67.4452 792.814 68.0612 792.366 68.8639C791.937 69.6479 791.722 70.5532 791.722 71.5799C791.722 72.6066 791.937 73.5212 792.366 74.3239C792.814 75.1079 793.411 75.7239 794.158 76.1719C794.923 76.6012 795.782 76.8159 796.734 76.8159Z" fill="black"/>
<path d="M810.166 61.8359H803.446V59.3999H819.658V61.8359H812.938V78.9999H810.166V61.8359Z" fill="black"/>
<path d="M837.871 59.3999C840.41 59.3999 842.407 60.0066 843.863 61.2199C845.319 62.4332 846.047 64.1039 846.047 66.2319C846.047 68.3599 845.319 70.0306 843.863 71.2439C842.407 72.4572 840.41 73.0639 837.871 73.0639H833.027V78.9999H830.227V59.3999H837.871ZM837.787 70.6279C839.56 70.6279 840.914 70.2546 841.847 69.5079C842.78 68.7426 843.247 67.6506 843.247 66.2319C843.247 64.8132 842.78 63.7306 841.847 62.9839C840.914 62.2186 839.56 61.8359 837.787 61.8359H833.027V70.6279H837.787Z" fill="black"/>
<path d="M850.042 58.2239H852.73V78.9999H850.042V58.2239Z" fill="black"/>
<path d="M863.266 64.0199C865.32 64.0199 866.888 64.5239 867.97 65.5319C869.072 66.5399 869.622 68.0426 869.622 70.0399V78.9999H867.074V77.0399C866.626 77.7306 865.982 78.2626 865.142 78.6359C864.321 78.9906 863.341 79.1679 862.202 79.1679C860.541 79.1679 859.206 78.7666 858.198 77.9639C857.209 77.1612 856.714 76.1066 856.714 74.7999C856.714 73.4932 857.19 72.4479 858.142 71.6639C859.094 70.8612 860.606 70.4599 862.678 70.4599H866.934V69.9279C866.934 68.7706 866.598 67.8839 865.926 67.2679C865.254 66.6519 864.265 66.3439 862.958 66.3439C862.081 66.3439 861.222 66.4932 860.382 66.7919C859.542 67.0719 858.833 67.4546 858.254 67.9399L857.134 65.9239C857.9 65.3079 858.814 64.8412 859.878 64.5239C860.942 64.1879 862.072 64.0199 863.266 64.0199ZM862.65 77.0959C863.677 77.0959 864.564 76.8719 865.31 76.4239C866.057 75.9572 866.598 75.3039 866.934 74.4639V72.3919H862.79C860.513 72.3919 859.374 73.1572 859.374 74.6879C859.374 75.4346 859.664 76.0226 860.242 76.4519C860.821 76.8812 861.624 77.0959 862.65 77.0959Z" fill="black"/>
<path d="M877.173 66.6519C877.639 65.7932 878.33 65.1399 879.245 64.6919C880.159 64.2439 881.27 64.0199 882.577 64.0199V66.6239C882.427 66.6052 882.222 66.5959 881.961 66.5959C880.505 66.5959 879.357 67.0346 878.517 67.9119C877.695 68.7706 877.285 70.0026 877.285 71.6079V78.9999H874.597V64.1599H877.173V66.6519Z" fill="black"/>
<path d="M891.513 60.2679C889.908 60.2679 889.105 61.1359 889.105 62.8719V64.1599H893.417V66.3719H889.161V78.9999H886.473V66.3719H883.953V64.1599H886.473V62.8439C886.473 61.3692 886.902 60.2026 887.761 59.3439C888.62 58.4852 889.824 58.0559 891.373 58.0559C891.97 58.0559 892.53 58.1306 893.053 58.2799C893.576 58.4292 894.024 58.6439 894.397 58.9239L893.585 60.9679C892.969 60.5012 892.278 60.2679 891.513 60.2679Z" fill="black"/>
<path d="M902.089 79.1679C900.615 79.1679 899.289 78.8412 898.113 78.1879C896.937 77.5346 896.013 76.6386 895.341 75.4999C894.688 74.3426 894.361 73.0359 894.361 71.5799C894.361 70.1239 894.688 68.8266 895.341 67.6879C896.013 66.5306 896.937 65.6346 898.113 64.9999C899.289 64.3466 900.615 64.0199 902.089 64.0199C903.564 64.0199 904.88 64.3466 906.037 64.9999C907.213 65.6346 908.128 66.5306 908.781 67.6879C909.453 68.8266 909.789 70.1239 909.789 71.5799C909.789 73.0359 909.453 74.3426 908.781 75.4999C908.128 76.6386 907.213 77.5346 906.037 78.1879C904.88 78.8412 903.564 79.1679 902.089 79.1679ZM902.089 76.8159C903.041 76.8159 903.891 76.6012 904.637 76.1719C905.403 75.7239 906 75.1079 906.429 74.3239C906.859 73.5212 907.073 72.6066 907.073 71.5799C907.073 70.5532 906.859 69.6479 906.429 68.8639C906 68.0612 905.403 67.4452 904.637 67.0159C903.891 66.5866 903.041 66.3719 902.089 66.3719C901.137 66.3719 900.279 66.5866 899.513 67.0159C898.767 67.4452 898.169 68.0612 897.721 68.8639C897.292 69.6479 897.077 70.5532 897.077 71.5799C897.077 72.6066 897.292 73.5212 897.721 74.3239C898.169 75.1079 898.767 75.7239 899.513 76.1719C900.279 76.6012 901.137 76.8159 902.089 76.8159Z" fill="black"/>
<path d="M916.083 66.6519C916.55 65.7932 917.24 65.1399 918.155 64.6919C919.07 64.2439 920.18 64.0199 921.487 64.0199V66.6239C921.338 66.6052 921.132 66.5959 920.871 66.5959C919.415 66.5959 918.267 67.0346 917.427 67.9119C916.606 68.7706 916.195 70.0026 916.195 71.6079V78.9999H913.507V64.1599H916.083V66.6519Z" fill="black"/>
<path d="M943.364 64.0199C945.231 64.0199 946.705 64.5612 947.788 65.6439C948.889 66.7266 949.44 68.3319 949.44 70.4599V78.9999H946.752V70.7679C946.752 69.3306 946.416 68.2479 945.744 67.5199C945.091 66.7919 944.148 66.4279 942.916 66.4279C941.553 66.4279 940.471 66.8572 939.668 67.7159C938.865 68.5559 938.464 69.7692 938.464 71.3559V78.9999H935.776V70.7679C935.776 69.3306 935.44 68.2479 934.768 67.5199C934.115 66.7919 933.172 66.4279 931.94 66.4279C930.577 66.4279 929.495 66.8572 928.692 67.7159C927.889 68.5559 927.488 69.7692 927.488 71.3559V78.9999H924.8V64.1599H927.376V66.3719C927.917 65.6066 928.627 65.0279 929.504 64.6359C930.381 64.2252 931.38 64.0199 932.5 64.0199C933.657 64.0199 934.684 64.2532 935.58 64.7199C936.476 65.1866 937.167 65.8679 937.652 66.7639C938.212 65.9052 938.987 65.2332 939.976 64.7479C940.984 64.2626 942.113 64.0199 943.364 64.0199Z" fill="black"/>
<path d="M550.855 137.65C550.661 137.454 550.344 137.453 550.148 137.647L546.952 140.815C546.756 141.009 546.754 141.326 546.949 141.522C547.143 141.718 547.46 141.719 547.656 141.525L550.497 138.709L553.313 141.55C553.507 141.746 553.824 141.748 554.02 141.553C554.216 141.359 554.217 141.043 554.023 140.846L550.855 137.65ZM549.145 362.354C549.339 362.55 549.656 362.552 549.852 362.357L553.048 359.19C553.244 358.995 553.246 358.679 553.051 358.482C552.857 358.286 552.54 358.285 552.344 358.479L549.503 361.295L546.687 358.454C546.493 358.258 546.176 358.257 545.98 358.451C545.784 358.645 545.783 358.962 545.977 359.158L549.145 362.354ZM550 138L549 362L550 362.004L551 138.004L550 138Z" fill="#7E7E7E"/>
<path d="M550.855 499.65C550.661 499.454 550.344 499.453 550.148 499.647L546.952 502.815C546.756 503.009 546.754 503.326 546.949 503.522C547.143 503.718 547.46 503.719 547.656 503.525L550.497 500.709L553.313 503.55C553.507 503.746 553.824 503.748 554.02 503.553C554.216 503.359 554.217 503.043 554.023 502.846L550.855 499.65ZM549.145 724.354C549.339 724.55 549.656 724.552 549.852 724.357L553.048 721.19C553.244 720.995 553.246 720.679 553.051 720.482C552.857 720.286 552.54 720.285 552.344 720.479L549.503 723.295L546.687 720.454C546.493 720.258 546.176 720.257 545.98 720.451C545.784 720.645 545.783 720.962 545.977 721.158L549.145 724.354ZM550 500L549 724L550 724.004L551 500.004L550 500Z" fill="#646464"/>
<path d="M228.854 137.646C228.658 137.451 228.342 137.451 228.146 137.646L224.964 140.828C224.769 141.024 224.769 141.34 224.964 141.536C225.16 141.731 225.476 141.731 225.672 141.536L228.5 138.707L231.328 141.536C231.524 141.731 231.84 141.731 232.036 141.536C232.231 141.34 232.231 141.024 232.036 140.828L228.854 137.646ZM228 138L228 250L229 250L229 138L228 138Z" fill="#7E7E7E"/>
<path d="M228.146 724.354C228.342 724.549 228.658 724.549 228.854 724.354L232.036 721.172C232.231 720.976 232.231 720.66 232.036 720.464C231.84 720.269 231.524 720.269 231.328 720.464L228.5 723.293L225.672 720.464C225.476 720.269 225.16 720.269 224.964 720.464C224.769 720.66 224.769 720.976 224.964 721.172L228.146 724.354ZM228 612L228 724L229 724L229 612L228 612Z" fill="#646464"/>
<line x1="228" y1="611.5" x2="866" y2="611.5" stroke="#646464"/>
<path d="M866.146 724.354C866.342 724.549 866.658 724.549 866.854 724.354L870.036 721.172C870.231 720.976 870.231 720.66 870.036 720.464C869.84 720.269 869.524 720.269 869.328 720.464L866.5 723.293L863.672 720.464C863.476 720.269 863.16 720.269 862.964 720.464C862.769 720.66 862.769 720.976 862.964 721.172L866.146 724.354ZM866 612L866 724L867 724L867 612L866 612Z" fill="#646464"/>
<line x1="865" y1="250.5" x2="228" y2="250.5" stroke="#7E7E7E"/>
<path d="M866.854 137.646C866.658 137.451 866.342 137.451 866.146 137.646L862.964 140.828C862.769 141.024 862.769 141.34 862.964 141.536C863.16 141.731 863.476 141.731 863.672 141.536L866.5 138.707L869.328 141.536C869.524 141.731 869.84 141.731 870.036 141.536C870.231 141.34 870.231 141.024 870.036 140.828L866.854 137.646ZM866 138L866 250L867 250L867 138L866 138Z" fill="#7E7E7E"/>
<path d="M18.2079 816.948L19.9999 816.948L19.9999 830.808L0.399933 830.808L0.399932 817.368L2.19193 817.368L2.19193 828.736L9.16393 828.736L9.16393 818.6L10.9279 818.6L10.9279 828.736L18.2079 828.736L18.2079 816.948Z" fill="black"/>
<path d="M0.399932 812.078L0.399932 804.098C0.399932 802.026 0.819931 800.196 1.65993 798.61C2.48127 797.023 3.6386 795.791 5.13193 794.914C6.6066 794.036 8.29593 793.598 10.1999 793.598C12.1039 793.598 13.8026 794.036 15.2959 794.914C16.7706 795.791 17.9279 797.023 18.7679 798.61C19.5893 800.196 19.9999 802.026 19.9999 804.098L19.9999 812.078L0.399932 812.078ZM18.2079 804.21C18.2079 802.492 17.8719 800.99 17.1999 799.702C16.5093 798.414 15.5666 797.415 14.3719 796.706C13.1586 795.996 11.7679 795.642 10.1999 795.642C8.63193 795.642 7.2506 795.996 6.05593 796.706C4.8426 797.415 3.89993 798.414 3.22793 799.702C2.53726 800.99 2.19193 802.492 2.19193 804.21L2.19193 810.006L18.2079 810.006L18.2079 804.21Z" fill="black"/>
<path d="M10.1999 775.141L10.1999 773.153L17.6759 773.153C18.4786 774.067 19.0946 775.15 19.5239 776.401C19.9533 777.651 20.1679 778.967 20.1679 780.349C20.1679 782.309 19.7386 784.073 18.8799 785.641C18.0213 787.209 16.8359 788.441 15.3239 789.337C13.7933 790.233 12.0853 790.681 10.1999 790.681C8.3146 790.681 6.61593 790.233 5.10393 789.337C3.57327 788.441 2.3786 787.209 1.51993 785.641C0.661265 784.073 0.231931 782.299 0.231931 780.321C0.231931 778.827 0.474598 777.455 0.959932 776.205C1.4266 774.954 2.1266 773.899 3.05993 773.041L4.37593 774.329C2.84526 775.878 2.07993 777.847 2.07993 780.237C2.07993 781.823 2.4346 783.261 3.14393 784.549C3.8346 785.818 4.80527 786.817 6.05593 787.545C7.28793 788.273 8.66926 788.637 10.1999 788.637C11.7306 788.637 13.1119 788.273 14.3439 787.545C15.5759 786.817 16.5466 785.818 17.2559 784.549C17.9653 783.279 18.3199 781.851 18.3199 780.265C18.3199 778.249 17.8159 776.541 16.8079 775.141L10.1999 775.141Z" fill="black"/>
<path d="M18.2079 753.429L19.9999 753.429L19.9999 767.289L0.39993 767.289L0.399929 753.849L2.19193 753.849L2.19193 765.217L9.16393 765.217L9.16393 755.081L10.9279 755.081L10.9279 765.217L18.2079 765.217L18.2079 753.429Z" fill="black"/>
<path d="M20.6679 110.296C20.6679 112.237 20.2386 113.992 19.3799 115.56C18.5213 117.109 17.3359 118.332 15.8239 119.228C14.2933 120.105 12.5853 120.544 10.6999 120.544C8.8146 120.544 7.11593 120.105 5.60393 119.228C4.07327 118.332 2.8786 117.1 2.01993 115.532C1.16127 113.964 0.731933 112.209 0.731933 110.268C0.731933 108.812 0.9746 107.468 1.45993 106.236C1.94527 105.004 2.6546 103.959 3.58793 103.1L4.90393 104.416C3.3546 105.947 2.57993 107.879 2.57993 110.212C2.57993 111.761 2.9346 113.171 3.64393 114.44C4.35327 115.709 5.32393 116.708 6.55593 117.436C7.78793 118.145 9.16927 118.5 10.6999 118.5C12.2306 118.5 13.6119 118.145 14.8439 117.436C16.0759 116.708 17.0466 115.709 17.7559 114.44C18.4653 113.171 18.8199 111.761 18.8199 110.212C18.8199 107.86 18.0359 105.928 16.4679 104.416L17.7839 103.1C18.7173 103.959 19.4359 105.013 19.9399 106.264C20.4253 107.496 20.6679 108.84 20.6679 110.296Z" fill="black"/>
<path d="M0.899932 98.6829L0.899932 96.6109L18.7079 96.6109L18.7079 85.6349L20.4999 85.6349L20.4999 98.6829L0.899932 98.6829Z" fill="black"/>
<path d="M20.6679 74.0095C20.6679 75.9508 20.2386 77.7148 19.3799 79.3015C18.5026 80.8695 17.3079 82.1015 15.7959 82.9975C14.2839 83.8748 12.5853 84.3135 10.6999 84.3135C8.8146 84.3135 7.11593 83.8748 5.60393 82.9975C4.09193 82.1015 2.9066 80.8695 2.04793 79.3015C1.1706 77.7148 0.731932 75.9508 0.731932 74.0095C0.731931 72.0681 1.16126 70.3228 2.01993 68.7735C2.8786 67.2055 4.07326 65.9735 5.60393 65.0775C7.11593 64.1815 8.8146 63.7335 10.6999 63.7335C12.5853 63.7335 14.2933 64.1815 15.8239 65.0775C17.3359 65.9735 18.5213 67.2055 19.3799 68.7735C20.2386 70.3228 20.6679 72.0681 20.6679 74.0095ZM18.8199 74.0095C18.8199 72.4601 18.4746 71.0601 17.7839 69.8095C17.0746 68.5588 16.1039 67.5788 14.8719 66.8695C13.6213 66.1601 12.2306 65.8055 10.6999 65.8055C9.16926 65.8055 7.78793 66.1601 6.55593 66.8695C5.30527 67.5788 4.3346 68.5588 3.64393 69.8095C2.9346 71.0601 2.57993 72.4601 2.57993 74.0095C2.57993 75.5588 2.9346 76.9681 3.64393 78.2375C4.3346 79.4881 5.30527 80.4775 6.55593 81.2055C7.78793 81.9148 9.16926 82.2695 10.6999 82.2695C12.2306 82.2695 13.6213 81.9148 14.8719 81.2055C16.1039 80.4775 17.0746 79.4881 17.7839 78.2375C18.4746 76.9681 18.8199 75.5588 18.8199 74.0095Z" fill="black"/>
<path d="M20.6679 51.1932C20.6679 53.7319 19.9399 55.7105 18.4839 57.1292C17.0279 58.5479 14.9093 59.2572 12.1279 59.2572L0.89993 59.2572L0.89993 57.1852L12.0439 57.1852C14.3213 57.1852 16.0199 56.6719 17.1399 55.6452C18.2599 54.6185 18.8199 53.1345 18.8199 51.1932C18.8199 49.2332 18.2599 47.7399 17.1399 46.7132C16.0199 45.6865 14.3213 45.1732 12.0439 45.1732L0.89993 45.1732L0.899929 43.1572L12.1279 43.1572C14.9093 43.1572 17.0279 43.8665 18.4839 45.2852C19.9399 46.6852 20.6679 48.6545 20.6679 51.1932Z" fill="black"/>
<path d="M0.899929 36.9134L0.899929 28.9334C0.899929 26.8614 1.31993 25.0321 2.15993 23.4454C2.98126 21.8587 4.1386 20.6267 5.63193 19.7494C7.1066 18.8721 8.79593 18.4334 10.6999 18.4334C12.6039 18.4334 14.3026 18.8721 15.7959 19.7494C17.2706 20.6267 18.4279 21.8587 19.2679 23.4454C20.0893 25.0321 20.4999 26.8614 20.4999 28.9334L20.4999 36.9134L0.899929 36.9134ZM18.7079 29.0454C18.7079 27.3281 18.3719 25.8254 17.6999 24.5374C17.0093 23.2494 16.0666 22.2507 14.8719 21.5414C13.6586 20.8321 12.2679 20.4774 10.6999 20.4774C9.13193 20.4774 7.7506 20.8321 6.55593 21.5414C5.3426 22.2507 4.39993 23.2494 3.72793 24.5374C3.03726 25.8254 2.69193 27.3281 2.69193 29.0454L2.69193 34.8414L18.7079 34.8414L18.7079 29.0454Z" fill="black"/>
<path d="M10.8536 171.646C10.6583 171.451 10.3417 171.451 10.1464 171.646L6.96447 174.828C6.7692 175.024 6.7692 175.34 6.96447 175.536C7.15973 175.731 7.47631 175.731 7.67157 175.536L10.5 172.707L13.3284 175.536C13.5237 175.731 13.8403 175.731 14.0355 175.536C14.2308 175.34 14.2308 175.024 14.0355 174.828L10.8536 171.646ZM10.1465 701.354C10.3417 701.549 10.6583 701.549 10.8536 701.354L14.0356 698.172C14.2308 697.976 14.2308 697.66 14.0356 697.464C13.8403 697.269 13.5237 697.269 13.3285 697.464L10.5 700.293L7.6716 697.464C7.47633 697.269 7.15975 697.269 6.96449 697.464C6.76923 697.66 6.76923 697.976 6.96449 698.172L10.1465 701.354ZM10 172L10 701L11 701L11 172L10 172Z" fill="black"/>
<path d="M597.484 310.764H586.564L584.212 316H582.056L591.016 296.4H593.06L602.02 316H599.836L597.484 310.764ZM596.728 309.084L592.024 298.556L587.32 309.084H596.728Z" fill="black"/>
<path d="M612.598 296.4C615.1 296.4 617.06 296.997 618.478 298.192C619.897 299.387 620.606 301.029 620.606 303.12C620.606 305.211 619.897 306.853 618.478 308.048C617.06 309.224 615.1 309.812 612.598 309.812H607.334V316H605.262V296.4H612.598ZM612.542 307.992C614.484 307.992 615.968 307.572 616.994 306.732C618.021 305.873 618.534 304.669 618.534 303.12C618.534 301.533 618.021 300.32 616.994 299.48C615.968 298.621 614.484 298.192 612.542 298.192H607.334V307.992H612.542Z" fill="black"/>
<path d="M625.087 296.4H627.159V316H625.087V296.4Z" fill="black"/>
<path d="M646.212 292.424H648.032L638.792 318.8H636.972L646.212 292.424Z" fill="black"/>
<path d="M684.479 296.4L677.871 316H675.687L669.947 299.284L664.179 316H662.023L655.415 296.4H657.543L663.199 313.256L669.051 296.4H670.983L676.751 313.34L682.491 296.4H684.479Z" fill="black"/>
<path d="M699.561 309.252H687.241C687.353 310.783 687.941 312.024 689.005 312.976C690.069 313.909 691.413 314.376 693.037 314.376C693.952 314.376 694.792 314.217 695.557 313.9C696.322 313.564 696.985 313.079 697.545 312.444L698.665 313.732C698.012 314.516 697.19 315.113 696.201 315.524C695.23 315.935 694.157 316.14 692.981 316.14C691.469 316.14 690.125 315.823 688.949 315.188C687.792 314.535 686.886 313.639 686.233 312.5C685.58 311.361 685.253 310.073 685.253 308.636C685.253 307.199 685.561 305.911 686.177 304.772C686.812 303.633 687.67 302.747 688.753 302.112C689.854 301.477 691.086 301.16 692.449 301.16C693.812 301.16 695.034 301.477 696.117 302.112C697.2 302.747 698.049 303.633 698.665 304.772C699.281 305.892 699.589 307.18 699.589 308.636L699.561 309.252ZM692.449 302.868C691.03 302.868 689.836 303.325 688.865 304.24C687.913 305.136 687.372 306.312 687.241 307.768H697.685C697.554 306.312 697.004 305.136 696.033 304.24C695.081 303.325 693.886 302.868 692.449 302.868Z" fill="black"/>
<path d="M711.223 301.16C712.605 301.16 713.855 301.477 714.975 302.112C716.095 302.728 716.973 303.605 717.607 304.744C718.242 305.883 718.559 307.18 718.559 308.636C718.559 310.092 718.242 311.389 717.607 312.528C716.973 313.667 716.095 314.553 714.975 315.188C713.855 315.823 712.605 316.14 711.223 316.14C709.991 316.14 708.881 315.879 707.891 315.356C706.921 314.833 706.137 314.077 705.539 313.088V316H703.635V295.224H705.623V304.072C706.239 303.12 707.023 302.401 707.975 301.916C708.946 301.412 710.029 301.16 711.223 301.16ZM711.083 314.376C712.11 314.376 713.043 314.143 713.883 313.676C714.723 313.191 715.377 312.509 715.843 311.632C716.329 310.755 716.571 309.756 716.571 308.636C716.571 307.516 716.329 306.517 715.843 305.64C715.377 304.763 714.723 304.091 713.883 303.624C713.043 303.139 712.11 302.896 711.083 302.896C710.038 302.896 709.095 303.139 708.255 303.624C707.434 304.091 706.781 304.763 706.295 305.64C705.829 306.517 705.595 307.516 705.595 308.636C705.595 309.756 705.829 310.755 706.295 311.632C706.781 312.509 707.434 313.191 708.255 313.676C709.095 314.143 710.038 314.376 711.083 314.376Z" fill="black"/>
<path d="M730.116 301.16C731.964 301.16 733.429 301.701 734.512 302.784C735.613 303.848 736.164 305.407 736.164 307.46V316H734.176V307.656C734.176 306.125 733.793 304.959 733.028 304.156C732.263 303.353 731.171 302.952 729.752 302.952C728.165 302.952 726.905 303.428 725.972 304.38C725.057 305.313 724.6 306.611 724.6 308.272V316H722.612V295.224H724.6V303.848C725.141 302.989 725.888 302.327 726.84 301.86C727.792 301.393 728.884 301.16 730.116 301.16Z" fill="black"/>
<path d="M747.636 316.14C746.217 316.14 744.939 315.823 743.8 315.188C742.661 314.535 741.765 313.639 741.112 312.5C740.459 311.361 740.132 310.073 740.132 308.636C740.132 307.199 740.459 305.911 741.112 304.772C741.765 303.633 742.661 302.747 743.8 302.112C744.939 301.477 746.217 301.16 747.636 301.16C749.055 301.16 750.333 301.477 751.472 302.112C752.611 302.747 753.497 303.633 754.132 304.772C754.785 305.911 755.112 307.199 755.112 308.636C755.112 310.073 754.785 311.361 754.132 312.5C753.497 313.639 752.611 314.535 751.472 315.188C750.333 315.823 749.055 316.14 747.636 316.14ZM747.636 314.376C748.681 314.376 749.615 314.143 750.436 313.676C751.276 313.191 751.929 312.509 752.396 311.632C752.863 310.755 753.096 309.756 753.096 308.636C753.096 307.516 752.863 306.517 752.396 305.64C751.929 304.763 751.276 304.091 750.436 303.624C749.615 303.139 748.681 302.896 747.636 302.896C746.591 302.896 745.648 303.139 744.808 303.624C743.987 304.091 743.333 304.763 742.848 305.64C742.381 306.517 742.148 307.516 742.148 308.636C742.148 309.756 742.381 310.755 742.848 311.632C743.333 312.509 743.987 313.191 744.808 313.676C745.648 314.143 746.591 314.376 747.636 314.376Z" fill="black"/>
<path d="M765.191 316.14C763.772 316.14 762.493 315.823 761.355 315.188C760.216 314.535 759.32 313.639 758.667 312.5C758.013 311.361 757.687 310.073 757.687 308.636C757.687 307.199 758.013 305.911 758.667 304.772C759.32 303.633 760.216 302.747 761.355 302.112C762.493 301.477 763.772 301.16 765.191 301.16C766.609 301.16 767.888 301.477 769.027 302.112C770.165 302.747 771.052 303.633 771.687 304.772C772.34 305.911 772.667 307.199 772.667 308.636C772.667 310.073 772.34 311.361 771.687 312.5C771.052 313.639 770.165 314.535 769.027 315.188C767.888 315.823 766.609 316.14 765.191 316.14ZM765.191 314.376C766.236 314.376 767.169 314.143 767.991 313.676C768.831 313.191 769.484 312.509 769.951 311.632C770.417 310.755 770.651 309.756 770.651 308.636C770.651 307.516 770.417 306.517 769.951 305.64C769.484 304.763 768.831 304.091 767.991 303.624C767.169 303.139 766.236 302.896 765.191 302.896C764.145 302.896 763.203 303.139 762.363 303.624C761.541 304.091 760.888 304.763 760.403 305.64C759.936 306.517 759.703 307.516 759.703 308.636C759.703 309.756 759.936 310.755 760.403 311.632C760.888 312.509 761.541 313.191 762.363 313.676C763.203 314.143 764.145 314.376 765.191 314.376Z" fill="black"/>
<path d="M782.185 308.608L778.713 311.8V316H776.725V295.224H778.713V309.308L787.505 301.272H789.969L783.669 307.292L790.557 316H788.121L782.185 308.608Z" fill="black"/>
<path d="M599.052 564.208V566H585.192V546.4H598.632V548.192H587.264V555.164H597.4V556.928H587.264V564.208H599.052Z" fill="black"/>
<path d="M615.352 564.208V566H601.604V564.572L609.752 556.592C610.778 555.584 611.469 554.716 611.824 553.988C612.197 553.241 612.384 552.495 612.384 551.748C612.384 550.591 611.982 549.695 611.18 549.06C610.396 548.407 609.266 548.08 607.792 548.08C605.496 548.08 603.713 548.808 602.444 550.264L601.016 549.032C601.781 548.136 602.752 547.445 603.928 546.96C605.122 546.475 606.466 546.232 607.96 546.232C609.957 546.232 611.534 546.708 612.692 547.66C613.868 548.593 614.456 549.881 614.456 551.524C614.456 552.532 614.232 553.503 613.784 554.436C613.336 555.369 612.486 556.443 611.236 557.656L604.572 564.208H615.352Z" fill="black"/>
<path d="M633.478 564.208V566H619.618V546.4H633.058V548.192H621.69V555.164H631.826V556.928H621.69V564.208H633.478Z" fill="black"/>
<path d="M651.08 566.168C649.624 566.168 648.224 565.935 646.88 565.468C645.555 565.001 644.528 564.385 643.8 563.62L644.612 562.024C645.322 562.733 646.264 563.312 647.44 563.76C648.616 564.189 649.83 564.404 651.08 564.404C652.835 564.404 654.151 564.087 655.028 563.452C655.906 562.799 656.344 561.959 656.344 560.932C656.344 560.148 656.102 559.523 655.616 559.056C655.15 558.589 654.571 558.235 653.88 557.992C653.19 557.731 652.228 557.451 650.996 557.152C649.522 556.779 648.346 556.424 647.468 556.088C646.591 555.733 645.835 555.201 645.2 554.492C644.584 553.783 644.276 552.821 644.276 551.608C644.276 550.619 644.538 549.723 645.06 548.92C645.583 548.099 646.386 547.445 647.468 546.96C648.551 546.475 649.895 546.232 651.5 546.232C652.62 546.232 653.712 546.391 654.776 546.708C655.859 547.007 656.792 547.427 657.576 547.968L656.876 549.62C656.055 549.079 655.178 548.677 654.244 548.416C653.311 548.136 652.396 547.996 651.5 547.996C649.783 547.996 648.486 548.332 647.608 549.004C646.75 549.657 646.32 550.507 646.32 551.552C646.32 552.336 646.554 552.971 647.02 553.456C647.506 553.923 648.103 554.287 648.812 554.548C649.54 554.791 650.511 555.061 651.724 555.36C653.162 555.715 654.319 556.069 655.196 556.424C656.092 556.76 656.848 557.283 657.464 557.992C658.08 558.683 658.388 559.625 658.388 560.82C658.388 561.809 658.118 562.715 657.576 563.536C657.054 564.339 656.242 564.983 655.14 565.468C654.039 565.935 652.686 566.168 651.08 566.168Z" fill="black"/>
<path d="M675.307 559.252H662.987C663.099 560.783 663.687 562.024 664.751 562.976C665.815 563.909 667.159 564.376 668.783 564.376C669.697 564.376 670.538 564.217 671.303 563.9C672.068 563.564 672.731 563.079 673.291 562.444L674.411 563.732C673.758 564.516 672.936 565.113 671.947 565.524C670.976 565.935 669.903 566.14 668.727 566.14C667.215 566.14 665.871 565.823 664.695 565.188C663.537 564.535 662.632 563.639 661.979 562.5C661.325 561.361 660.999 560.073 660.999 558.636C660.999 557.199 661.307 555.911 661.923 554.772C662.557 553.633 663.416 552.747 664.499 552.112C665.6 551.477 666.832 551.16 668.195 551.16C669.557 551.16 670.78 551.477 671.863 552.112C672.945 552.747 673.795 553.633 674.411 554.772C675.027 555.892 675.335 557.18 675.335 558.636L675.307 559.252ZM668.195 552.868C666.776 552.868 665.581 553.325 664.611 554.24C663.659 555.136 663.117 556.312 662.987 557.768H673.431C673.3 556.312 672.749 555.136 671.779 554.24C670.827 553.325 669.632 552.868 668.195 552.868Z" fill="black"/>
<path d="M685.485 566.14C684.029 566.14 682.723 565.823 681.565 565.188C680.427 564.553 679.531 563.667 678.877 562.528C678.224 561.371 677.897 560.073 677.897 558.636C677.897 557.199 678.224 555.911 678.877 554.772C679.531 553.633 680.427 552.747 681.565 552.112C682.723 551.477 684.029 551.16 685.485 551.16C686.755 551.16 687.884 551.412 688.873 551.916C689.881 552.401 690.675 553.12 691.253 554.072L689.769 555.08C689.284 554.352 688.668 553.811 687.921 553.456C687.175 553.083 686.363 552.896 685.485 552.896C684.421 552.896 683.46 553.139 682.601 553.624C681.761 554.091 681.099 554.763 680.613 555.64C680.147 556.517 679.913 557.516 679.913 558.636C679.913 559.775 680.147 560.783 680.613 561.66C681.099 562.519 681.761 563.191 682.601 563.676C683.46 564.143 684.421 564.376 685.485 564.376C686.363 564.376 687.175 564.199 687.921 563.844C688.668 563.489 689.284 562.948 689.769 562.22L691.253 563.228C690.675 564.18 689.881 564.908 688.873 565.412C687.865 565.897 686.736 566.14 685.485 566.14Z" fill="black"/>
<path d="M708.431 551.272V566H706.527V563.312C706.004 564.208 705.285 564.908 704.371 565.412C703.456 565.897 702.411 566.14 701.235 566.14C699.312 566.14 697.791 565.608 696.671 564.544C695.569 563.461 695.019 561.884 695.019 559.812V551.272H697.007V559.616C697.007 561.165 697.389 562.341 698.155 563.144C698.92 563.947 700.012 564.348 701.431 564.348C702.98 564.348 704.203 563.881 705.099 562.948C705.995 561.996 706.443 560.68 706.443 559V551.272H708.431Z" fill="black"/>
<path d="M715.902 554.156C716.369 553.167 717.06 552.42 717.974 551.916C718.908 551.412 720.056 551.16 721.418 551.16V553.092L720.942 553.064C719.393 553.064 718.18 553.54 717.302 554.492C716.425 555.444 715.986 556.779 715.986 558.496V566H713.998V551.272H715.902V554.156Z" fill="black"/>
<path d="M737.705 559.252H725.385C725.497 560.783 726.085 562.024 727.149 562.976C728.213 563.909 729.557 564.376 731.181 564.376C732.096 564.376 732.936 564.217 733.701 563.9C734.467 563.564 735.129 563.079 735.689 562.444L736.809 563.732C736.156 564.516 735.335 565.113 734.345 565.524C733.375 565.935 732.301 566.14 731.125 566.14C729.613 566.14 728.269 565.823 727.093 565.188C725.936 564.535 725.031 563.639 724.377 562.5C723.724 561.361 723.397 560.073 723.397 558.636C723.397 557.199 723.705 555.911 724.321 554.772C724.956 553.633 725.815 552.747 726.897 552.112C727.999 551.477 729.231 551.16 730.593 551.16C731.956 551.16 733.179 551.477 734.261 552.112C735.344 552.747 736.193 553.633 736.809 554.772C737.425 555.892 737.733 557.18 737.733 558.636L737.705 559.252ZM730.593 552.868C729.175 552.868 727.98 553.325 727.009 554.24C726.057 555.136 725.516 556.312 725.385 557.768H735.829C735.699 556.312 735.148 555.136 734.177 554.24C733.225 553.325 732.031 552.868 730.593 552.868Z" fill="black"/>
<path d="M758.04 566.168C756.098 566.168 754.344 565.739 752.776 564.88C751.226 564.021 750.004 562.836 749.108 561.324C748.231 559.793 747.792 558.085 747.792 556.2C747.792 554.315 748.231 552.616 749.108 551.104C750.004 549.573 751.236 548.379 752.804 547.52C754.372 546.661 756.126 546.232 758.068 546.232C759.524 546.232 760.868 546.475 762.1 546.96C763.332 547.445 764.377 548.155 765.236 549.088L763.92 550.404C762.389 548.855 760.457 548.08 758.124 548.08C756.574 548.08 755.165 548.435 753.896 549.144C752.626 549.853 751.628 550.824 750.9 552.056C750.19 553.288 749.836 554.669 749.836 556.2C749.836 557.731 750.19 559.112 750.9 560.344C751.628 561.576 752.626 562.547 753.896 563.256C755.165 563.965 756.574 564.32 758.124 564.32C760.476 564.32 762.408 563.536 763.92 561.968L765.236 563.284C764.377 564.217 763.323 564.936 762.072 565.44C760.84 565.925 759.496 566.168 758.04 566.168Z" fill="black"/>
<path d="M776.737 551.16C778.585 551.16 780.05 551.701 781.133 552.784C782.234 553.848 782.785 555.407 782.785 557.46V566H780.797V557.656C780.797 556.125 780.414 554.959 779.649 554.156C778.884 553.353 777.791 552.952 776.373 552.952C774.786 552.952 773.526 553.428 772.593 554.38C771.678 555.313 771.221 556.611 771.221 558.272V566H769.233V545.224H771.221V553.848C771.762 552.989 772.509 552.327 773.461 551.86C774.413 551.393 775.505 551.16 776.737 551.16Z" fill="black"/>
<path d="M793.334 551.16C795.257 551.16 796.731 551.645 797.758 552.616C798.785 553.568 799.298 554.987 799.298 556.872V566H797.394V563.704C796.946 564.469 796.283 565.067 795.406 565.496C794.547 565.925 793.521 566.14 792.326 566.14C790.683 566.14 789.377 565.748 788.406 564.964C787.435 564.18 786.95 563.144 786.95 561.856C786.95 560.605 787.398 559.597 788.294 558.832C789.209 558.067 790.655 557.684 792.634 557.684H797.31V556.788C797.31 555.519 796.955 554.557 796.246 553.904C795.537 553.232 794.501 552.896 793.138 552.896C792.205 552.896 791.309 553.055 790.45 553.372C789.591 553.671 788.854 554.091 788.238 554.632L787.342 553.148C788.089 552.513 788.985 552.028 790.03 551.692C791.075 551.337 792.177 551.16 793.334 551.16ZM792.634 564.572C793.754 564.572 794.715 564.32 795.518 563.816C796.321 563.293 796.918 562.547 797.31 561.576V559.168H792.69C790.17 559.168 788.91 560.045 788.91 561.8C788.91 562.659 789.237 563.34 789.89 563.844C790.543 564.329 791.458 564.572 792.634 564.572Z" fill="black"/>
<path d="M812.202 551.16C814.05 551.16 815.515 551.701 816.598 552.784C817.699 553.848 818.25 555.407 818.25 557.46V566H816.262V557.656C816.262 556.125 815.879 554.959 815.114 554.156C814.348 553.353 813.256 552.952 811.838 552.952C810.251 552.952 808.991 553.428 808.058 554.38C807.143 555.313 806.686 556.611 806.686 558.272V566H804.698V551.272H806.602V553.988C807.143 553.092 807.89 552.401 808.842 551.916C809.812 551.412 810.932 551.16 812.202 551.16Z" fill="black"/>
<path d="M831.151 551.16C832.999 551.16 834.464 551.701 835.547 552.784C836.648 553.848 837.199 555.407 837.199 557.46V566H835.211V557.656C835.211 556.125 834.828 554.959 834.063 554.156C833.298 553.353 832.206 552.952 830.787 552.952C829.2 552.952 827.94 553.428 827.007 554.38C826.092 555.313 825.635 556.611 825.635 558.272V566H823.647V551.272H825.551V553.988C826.092 553.092 826.839 552.401 827.791 551.916C828.762 551.412 829.882 551.16 831.151 551.16Z" fill="black"/>
<path d="M855.475 559.252H843.155C843.267 560.783 843.855 562.024 844.919 562.976C845.983 563.909 847.327 564.376 848.951 564.376C849.865 564.376 850.705 564.217 851.471 563.9C852.236 563.564 852.899 563.079 853.459 562.444L854.579 563.732C853.925 564.516 853.104 565.113 852.115 565.524C851.144 565.935 850.071 566.14 848.895 566.14C847.383 566.14 846.039 565.823 844.863 565.188C843.705 564.535 842.8 563.639 842.147 562.5C841.493 561.361 841.167 560.073 841.167 558.636C841.167 557.199 841.475 555.911 842.091 554.772C842.725 553.633 843.584 552.747 844.667 552.112C845.768 551.477 847 551.16 848.363 551.16C849.725 551.16 850.948 551.477 852.031 552.112C853.113 552.747 853.963 553.633 854.579 554.772C855.195 555.892 855.503 557.18 855.503 558.636L855.475 559.252ZM848.363 552.868C846.944 552.868 845.749 553.325 844.779 554.24C843.827 555.136 843.285 556.312 843.155 557.768H853.599C853.468 556.312 852.917 555.136 851.947 554.24C850.995 553.325 849.8 552.868 848.363 552.868Z" fill="black"/>
<path d="M859.549 545.224H861.537V566H859.549V545.224Z" fill="black"/>
</svg>
