<svg width="852" height="427" viewBox="0 0 852 427" fill="none" xmlns="http://www.w3.org/2000/svg">
<rect x="0.5" y="0.5" width="425.5" height="425.5" fill="white" stroke="#B0B0B0"/>
<rect x="426" y="0.5" width="425.5" height="425.5" fill="white" stroke="#B0B0B0"/>
<rect x="23" y="53" width="379" height="344" fill="#F6F6F6"/>
<rect x="450.095" y="120.597" width="377.769" height="276.148" fill="white" stroke="#DADADA" stroke-dasharray="6 6"/>
<rect x="35" y="68" width="352" height="61" fill="white"/>
<rect x="36.8958" y="310.34" width="168.239" height="72.8171" fill="white"/>
<path d="M93.7333 327.824V340.758H92.2183L84.4581 331.113V340.758H82.6105V327.824H84.1255L91.8857 337.469V327.824H93.7333Z" fill="black"/>
<path d="M106.196 335.917C106.196 336.053 106.184 336.231 106.159 336.453H98.2143C98.3252 337.315 98.7009 338.011 99.3414 338.541C99.9942 339.058 100.801 339.317 101.762 339.317C102.932 339.317 103.874 338.923 104.589 338.134L105.568 339.28C105.125 339.797 104.57 340.191 103.905 340.462C103.252 340.733 102.519 340.869 101.706 340.869C100.672 340.869 99.7541 340.659 98.9534 340.241C98.1528 339.81 97.5307 339.212 97.0873 338.448C96.6562 337.685 96.4406 336.823 96.4406 335.862C96.4406 334.913 96.65 334.057 97.0688 333.293C97.4999 332.53 98.085 331.939 98.8241 331.52C99.5754 331.089 100.419 330.873 101.355 330.873C102.291 330.873 103.123 331.089 103.85 331.52C104.589 331.939 105.162 332.53 105.568 333.293C105.987 334.057 106.196 334.932 106.196 335.917ZM101.355 332.37C100.505 332.37 99.791 332.628 99.2121 333.146C98.6455 333.663 98.3129 334.341 98.2143 335.178H104.496C104.398 334.353 104.059 333.682 103.48 333.164C102.914 332.635 102.205 332.37 101.355 332.37Z" fill="black"/>
<path d="M114.165 340.185C113.907 340.407 113.586 340.579 113.204 340.703C112.823 340.813 112.428 340.869 112.022 340.869C111.037 340.869 110.273 340.604 109.731 340.074C109.189 339.545 108.918 338.787 108.918 337.802V332.425H107.255V330.965H108.918V328.822H110.692V330.965H113.5V332.425H110.692V337.728C110.692 338.258 110.821 338.664 111.08 338.947C111.351 339.231 111.732 339.372 112.225 339.372C112.767 339.372 113.229 339.218 113.611 338.91L114.165 340.185Z" fill="black"/>
<path d="M130.947 330.965L127.289 340.758H125.589L122.762 333.33L119.898 340.758H118.199L114.559 330.965H116.24L119.085 338.763L122.042 330.965H123.538L126.439 338.8L129.358 330.965H130.947Z" fill="black"/>
<path d="M136.671 340.869C135.698 340.869 134.823 340.653 134.047 340.222C133.271 339.791 132.661 339.2 132.218 338.448C131.787 337.685 131.571 336.823 131.571 335.862C131.571 334.901 131.787 334.045 132.218 333.293C132.661 332.53 133.271 331.939 134.047 331.52C134.823 331.089 135.698 330.873 136.671 330.873C137.644 330.873 138.512 331.089 139.276 331.52C140.052 331.939 140.656 332.53 141.087 333.293C141.53 334.045 141.752 334.901 141.752 335.862C141.752 336.823 141.53 337.685 141.087 338.448C140.656 339.2 140.052 339.791 139.276 340.222C138.512 340.653 137.644 340.869 136.671 340.869ZM136.671 339.317C137.299 339.317 137.859 339.175 138.352 338.892C138.857 338.596 139.251 338.19 139.535 337.672C139.818 337.143 139.96 336.539 139.96 335.862C139.96 335.184 139.818 334.587 139.535 334.07C139.251 333.54 138.857 333.133 138.352 332.85C137.859 332.567 137.299 332.425 136.671 332.425C136.043 332.425 135.476 332.567 134.971 332.85C134.478 333.133 134.084 333.54 133.788 334.07C133.505 334.587 133.363 335.184 133.363 335.862C133.363 336.539 133.505 337.143 133.788 337.672C134.084 338.19 134.478 338.596 134.971 338.892C135.476 339.175 136.043 339.317 136.671 339.317Z" fill="black"/>
<path d="M145.905 332.61C146.213 332.043 146.668 331.612 147.272 331.317C147.876 331.021 148.608 330.873 149.471 330.873V332.591C149.372 332.579 149.237 332.573 149.064 332.573C148.103 332.573 147.346 332.862 146.792 333.441C146.25 334.008 145.979 334.821 145.979 335.88V340.758H144.205V330.965H145.905V332.61Z" fill="black"/>
<path d="M155.463 336.194L153.431 338.079V340.758H151.657V327.048H153.431V335.843L158.77 330.965H160.914L156.793 335.012L161.32 340.758H159.14L155.463 336.194Z" fill="black"/>
<path d="M110.984 350.92H112.832V363.854H110.984V350.92Z" fill="black"/>
<path d="M120.344 348.296H121.951L115.854 365.701H114.246L120.344 348.296Z" fill="black"/>
<path d="M125.047 352.528V357.036H131.532V358.625H125.047V363.854H123.199V350.92H132.327V352.528H125.047Z" fill="black"/>
<rect x="218.417" y="310.34" width="168.239" height="72.8171" fill="white"/>
<path d="M269.587 340.155V353.088H267.739V347.324H260.312V353.088H258.464V340.155H260.312V345.716H267.739V340.155H269.587Z" fill="black"/>
<path d="M276.766 343.203C278.12 343.203 279.155 343.536 279.87 344.201C280.596 344.866 280.96 345.858 280.96 347.176V353.088H279.278V351.795C278.983 352.251 278.558 352.602 278.003 352.848C277.462 353.082 276.815 353.199 276.063 353.199C274.967 353.199 274.086 352.934 273.421 352.405C272.768 351.875 272.442 351.179 272.442 350.317C272.442 349.455 272.756 348.765 273.384 348.247C274.013 347.718 275.01 347.453 276.378 347.453H279.186V347.102C279.186 346.338 278.964 345.753 278.521 345.347C278.077 344.94 277.425 344.737 276.562 344.737C275.983 344.737 275.417 344.835 274.862 345.033C274.308 345.217 273.84 345.47 273.458 345.79L272.719 344.46C273.224 344.053 273.828 343.745 274.53 343.536C275.232 343.314 275.977 343.203 276.766 343.203ZM276.359 351.832C277.037 351.832 277.622 351.684 278.114 351.388C278.607 351.081 278.964 350.649 279.186 350.095V348.728H276.451C274.949 348.728 274.197 349.233 274.197 350.243C274.197 350.736 274.388 351.124 274.77 351.407C275.152 351.69 275.682 351.832 276.359 351.832Z" fill="black"/>
<path d="M285.942 344.94C286.25 344.374 286.706 343.942 287.309 343.647C287.913 343.351 288.646 343.203 289.508 343.203V344.922C289.409 344.909 289.274 344.903 289.102 344.903C288.141 344.903 287.383 345.193 286.829 345.772C286.287 346.338 286.016 347.151 286.016 348.211V353.088H284.242V343.296H285.942V344.94Z" fill="black"/>
<path d="M300.842 339.379V353.088H299.142V351.536C298.748 352.078 298.249 352.491 297.646 352.774C297.042 353.058 296.377 353.199 295.65 353.199C294.702 353.199 293.852 352.99 293.101 352.571C292.349 352.152 291.758 351.567 291.327 350.816C290.908 350.052 290.699 349.177 290.699 348.192C290.699 347.207 290.908 346.338 291.327 345.587C291.758 344.835 292.349 344.25 293.101 343.832C293.852 343.413 294.702 343.203 295.65 343.203C296.352 343.203 296.999 343.339 297.59 343.61C298.182 343.869 298.674 344.257 299.068 344.774V339.379H300.842ZM295.798 351.647C296.414 351.647 296.974 351.505 297.479 351.222C297.985 350.927 298.379 350.52 298.662 350.003C298.945 349.473 299.087 348.87 299.087 348.192C299.087 347.515 298.945 346.917 298.662 346.4C298.379 345.87 297.985 345.464 297.479 345.18C296.974 344.897 296.414 344.755 295.798 344.755C295.17 344.755 294.603 344.897 294.098 345.18C293.606 345.464 293.211 345.87 292.916 346.4C292.632 346.917 292.491 347.515 292.491 348.192C292.491 348.87 292.632 349.473 292.916 350.003C293.211 350.52 293.606 350.927 294.098 351.222C294.603 351.505 295.17 351.647 295.798 351.647Z" fill="black"/>
<path d="M319.016 343.296L315.358 353.088H313.658L310.831 345.661L307.968 353.088H306.268L302.628 343.296H304.309L307.155 351.093L310.111 343.296H311.607L314.508 351.13L317.427 343.296H319.016Z" fill="black"/>
<path d="M324.076 343.203C325.431 343.203 326.465 343.536 327.18 344.201C327.906 344.866 328.27 345.858 328.27 347.176V353.088H326.588V351.795C326.293 352.251 325.868 352.602 325.314 352.848C324.772 353.082 324.125 353.199 323.373 353.199C322.277 353.199 321.396 352.934 320.731 352.405C320.078 351.875 319.752 351.179 319.752 350.317C319.752 349.455 320.066 348.765 320.694 348.247C321.323 347.718 322.32 347.453 323.688 347.453H326.496V347.102C326.496 346.338 326.274 345.753 325.831 345.347C325.387 344.94 324.735 344.737 323.872 344.737C323.293 344.737 322.727 344.835 322.172 345.033C321.618 345.217 321.15 345.47 320.768 345.79L320.029 344.46C320.534 344.053 321.138 343.745 321.84 343.536C322.542 343.314 323.287 343.203 324.076 343.203ZM323.669 351.832C324.347 351.832 324.932 351.684 325.424 351.388C325.917 351.081 326.274 350.649 326.496 350.095V348.728H323.761C322.259 348.728 321.507 349.233 321.507 350.243C321.507 350.736 321.698 351.124 322.08 351.407C322.462 351.69 322.992 351.832 323.669 351.832Z" fill="black"/>
<path d="M333.252 344.94C333.56 344.374 334.016 343.942 334.619 343.647C335.223 343.351 335.956 343.203 336.818 343.203V344.922C336.719 344.909 336.584 344.903 336.412 344.903C335.451 344.903 334.693 345.193 334.139 345.772C333.597 346.338 333.326 347.151 333.326 348.211V353.088H331.552V343.296H333.252V344.94Z" fill="black"/>
<path d="M347.764 348.247C347.764 348.383 347.752 348.562 347.727 348.783H339.782C339.893 349.646 340.269 350.341 340.909 350.871C341.562 351.388 342.369 351.647 343.33 351.647C344.5 351.647 345.442 351.253 346.157 350.465L347.136 351.61C346.693 352.128 346.138 352.522 345.473 352.793C344.82 353.064 344.087 353.199 343.274 353.199C342.24 353.199 341.322 352.99 340.521 352.571C339.721 352.14 339.099 351.542 338.655 350.779C338.224 350.015 338.009 349.153 338.009 348.192C338.009 347.244 338.218 346.387 338.637 345.624C339.068 344.86 339.653 344.269 340.392 343.85C341.143 343.419 341.987 343.203 342.923 343.203C343.86 343.203 344.691 343.419 345.418 343.85C346.157 344.269 346.73 344.86 347.136 345.624C347.555 346.387 347.764 347.262 347.764 348.247ZM342.923 344.7C342.073 344.7 341.359 344.959 340.78 345.476C340.213 345.993 339.881 346.671 339.782 347.508H346.064C345.966 346.683 345.627 346.012 345.048 345.494C344.482 344.965 343.773 344.7 342.923 344.7Z" fill="black"/>
<rect x="464.643" y="310.34" width="168.239" height="72.8171" fill="#F6F6F6"/>
<rect x="464.643" y="131.764" width="350.215" height="162.972" fill="#F6F6F6"/>
<rect x="646.686" y="310.34" width="168.239" height="72.8171" fill="#F6F6F6"/>
<rect x="35.4146" y="221.718" width="352.594" height="72.3664" fill="white"/>
<path d="M156.473 264.978C155.167 264.978 153.991 264.695 152.944 264.128C151.897 263.549 151.072 262.755 150.468 261.745C149.877 260.735 149.581 259.608 149.581 258.364C149.581 257.12 149.877 255.992 150.468 254.982C151.072 253.972 151.897 253.184 152.944 252.617C153.991 252.038 155.167 251.749 156.473 251.749C157.766 251.749 158.936 252.038 159.983 252.617C161.03 253.184 161.849 253.972 162.441 254.982C163.032 255.98 163.328 257.107 163.328 258.364C163.328 259.62 163.032 260.753 162.441 261.763C161.849 262.761 161.03 263.549 159.983 264.128C158.936 264.695 157.766 264.978 156.473 264.978ZM156.473 263.334C157.421 263.334 158.271 263.118 159.023 262.687C159.786 262.256 160.384 261.665 160.815 260.913C161.258 260.15 161.48 259.3 161.48 258.364C161.48 257.427 161.258 256.584 160.815 255.832C160.384 255.069 159.786 254.471 159.023 254.04C158.271 253.609 157.421 253.393 156.473 253.393C155.524 253.393 154.662 253.609 153.886 254.04C153.122 254.471 152.519 255.069 152.075 255.832C151.644 256.584 151.429 257.427 151.429 258.364C151.429 259.3 151.644 260.15 152.075 260.913C152.519 261.665 153.122 262.256 153.886 262.687C154.662 263.118 155.524 263.334 156.473 263.334Z" fill="black"/>
<path d="M169.921 264.978C168.948 264.978 168.005 264.83 167.094 264.535C166.195 264.227 165.486 263.833 164.969 263.352L165.653 261.911C166.145 262.355 166.774 262.718 167.537 263.001C168.313 263.272 169.108 263.408 169.921 263.408C170.992 263.408 171.793 263.229 172.323 262.872C172.852 262.502 173.117 262.016 173.117 261.412C173.117 260.969 172.969 260.612 172.674 260.341C172.391 260.057 172.033 259.842 171.602 259.694C171.183 259.546 170.586 259.38 169.81 259.195C168.837 258.961 168.049 258.727 167.445 258.493C166.854 258.259 166.343 257.902 165.911 257.421C165.493 256.929 165.283 256.27 165.283 255.444C165.283 254.755 165.462 254.132 165.819 253.578C166.189 253.024 166.743 252.58 167.482 252.248C168.221 251.915 169.139 251.749 170.235 251.749C170.999 251.749 171.75 251.848 172.489 252.045C173.228 252.242 173.862 252.525 174.392 252.895L173.782 254.373C173.24 254.028 172.662 253.769 172.046 253.597C171.43 253.412 170.826 253.319 170.235 253.319C169.188 253.319 168.4 253.51 167.87 253.892C167.353 254.274 167.094 254.767 167.094 255.37C167.094 255.814 167.242 256.177 167.537 256.461C167.833 256.731 168.196 256.947 168.627 257.107C169.071 257.255 169.668 257.415 170.42 257.588C171.393 257.822 172.175 258.056 172.766 258.29C173.357 258.524 173.863 258.881 174.281 259.361C174.712 259.842 174.928 260.488 174.928 261.301C174.928 261.979 174.743 262.601 174.374 263.167C174.004 263.722 173.444 264.165 172.692 264.498C171.941 264.818 171.017 264.978 169.921 264.978Z" fill="black"/>
<path d="M178.173 262.41C178.518 262.41 178.801 262.533 179.023 262.779C179.257 263.014 179.374 263.309 179.374 263.666C179.374 263.851 179.349 264.03 179.3 264.202C179.263 264.375 179.183 264.639 179.06 264.997L178.191 267.565H177.027L177.711 264.812C177.477 264.726 177.286 264.584 177.138 264.387C177.003 264.178 176.935 263.937 176.935 263.666C176.935 263.297 177.052 262.995 177.286 262.761C177.52 262.527 177.816 262.41 178.173 262.41Z" fill="black"/>
<path d="M188.984 253.504V258.013H195.469V259.602H188.984V264.83H187.136V251.897H196.264V253.504H188.984Z" fill="black"/>
<path d="M198.425 255.038H200.199V264.83H198.425V255.038ZM199.312 253.153C198.967 253.153 198.678 253.042 198.444 252.821C198.222 252.599 198.111 252.328 198.111 252.008C198.111 251.687 198.222 251.416 198.444 251.195C198.678 250.961 198.967 250.844 199.312 250.844C199.657 250.844 199.94 250.955 200.162 251.176C200.396 251.386 200.513 251.65 200.513 251.971C200.513 252.303 200.396 252.587 200.162 252.821C199.94 253.042 199.657 253.153 199.312 253.153Z" fill="black"/>
<path d="M205.286 256.682C205.594 256.116 206.049 255.684 206.653 255.389C207.256 255.093 207.989 254.945 208.852 254.945V256.664C208.753 256.651 208.618 256.645 208.445 256.645C207.484 256.645 206.727 256.935 206.173 257.514C205.631 258.08 205.36 258.893 205.36 259.953V264.83H203.586V255.038H205.286V256.682Z" fill="black"/>
<path d="M223.288 254.945C224.519 254.945 225.493 255.303 226.207 256.017C226.934 256.731 227.297 257.791 227.297 259.195V264.83H225.523V259.398C225.523 258.45 225.302 257.735 224.858 257.255C224.427 256.775 223.805 256.534 222.992 256.534C222.093 256.534 221.378 256.818 220.849 257.384C220.319 257.939 220.054 258.739 220.054 259.786V264.83H218.281V259.398C218.281 258.45 218.059 257.735 217.615 257.255C217.184 256.775 216.562 256.534 215.749 256.534C214.85 256.534 214.136 256.818 213.606 257.384C213.076 257.939 212.812 258.739 212.812 259.786V264.83H211.038V255.038H212.738V256.497C213.095 255.992 213.563 255.611 214.142 255.352C214.721 255.081 215.38 254.945 216.119 254.945C216.883 254.945 217.56 255.099 218.151 255.407C218.742 255.715 219.198 256.165 219.518 256.756C219.888 256.19 220.399 255.746 221.052 255.426C221.717 255.106 222.462 254.945 223.288 254.945Z" fill="black"/>
<path d="M245.199 255.038L241.54 264.83H239.84L237.013 257.403L234.15 264.83H232.45L228.81 255.038H230.491L233.337 262.835L236.293 255.038H237.789L240.69 262.872L243.61 255.038H245.199Z" fill="black"/>
<path d="M250.258 254.945C251.613 254.945 252.647 255.278 253.362 255.943C254.088 256.608 254.452 257.6 254.452 258.918V264.83H252.77V263.537C252.475 263.993 252.05 264.344 251.496 264.59C250.954 264.824 250.307 264.941 249.556 264.941C248.459 264.941 247.579 264.676 246.913 264.147C246.261 263.617 245.934 262.921 245.934 262.059C245.934 261.197 246.248 260.507 246.876 259.99C247.505 259.46 248.502 259.195 249.87 259.195H252.678V258.844C252.678 258.08 252.456 257.495 252.013 257.089C251.57 256.682 250.917 256.479 250.054 256.479C249.476 256.479 248.909 256.578 248.355 256.775C247.8 256.959 247.332 257.212 246.95 257.532L246.211 256.202C246.716 255.795 247.32 255.487 248.022 255.278C248.724 255.056 249.469 254.945 250.258 254.945ZM249.851 263.574C250.529 263.574 251.114 263.426 251.606 263.131C252.099 262.823 252.456 262.391 252.678 261.837V260.47H249.944C248.441 260.47 247.689 260.975 247.689 261.985C247.689 262.478 247.88 262.866 248.262 263.149C248.644 263.432 249.174 263.574 249.851 263.574Z" fill="black"/>
<path d="M259.434 256.682C259.742 256.116 260.198 255.684 260.801 255.389C261.405 255.093 262.138 254.945 263 254.945V256.664C262.902 256.651 262.766 256.645 262.594 256.645C261.633 256.645 260.875 256.935 260.321 257.514C259.779 258.08 259.508 258.893 259.508 259.953V264.83H257.734V255.038H259.434V256.682Z" fill="black"/>
<path d="M273.946 259.99C273.946 260.125 273.934 260.304 273.909 260.525H265.964C266.075 261.388 266.451 262.084 267.092 262.613C267.744 263.131 268.551 263.389 269.512 263.389C270.682 263.389 271.624 262.995 272.339 262.207L273.318 263.352C272.875 263.87 272.32 264.264 271.655 264.535C271.002 264.806 270.269 264.941 269.457 264.941C268.422 264.941 267.504 264.732 266.704 264.313C265.903 263.882 265.281 263.285 264.837 262.521C264.406 261.757 264.191 260.895 264.191 259.934C264.191 258.986 264.4 258.13 264.819 257.366C265.25 256.602 265.835 256.011 266.574 255.592C267.326 255.161 268.169 254.945 269.105 254.945C270.042 254.945 270.873 255.161 271.6 255.592C272.339 256.011 272.912 256.602 273.318 257.366C273.737 258.13 273.946 259.004 273.946 259.99ZM269.105 256.442C268.256 256.442 267.541 256.701 266.962 257.218C266.396 257.735 266.063 258.413 265.964 259.25H272.246C272.148 258.425 271.809 257.754 271.23 257.237C270.664 256.707 269.955 256.442 269.105 256.442Z" fill="black"/>
<path d="M632.114 75.864L628.851 70.9915C628.448 71.0217 628.131 71.0368 627.9 71.0368H624.161V75.864H622V60H627.9C629.86 60 631.401 60.491 632.525 61.4731C633.649 62.4551 634.211 63.8074 634.211 65.5297C634.211 66.7535 633.923 67.796 633.346 68.6572C632.77 69.5184 631.949 70.1454 630.883 70.5382L634.47 75.864H632.114ZM627.835 69.1105C629.204 69.1105 630.249 68.8008 630.969 68.1813C631.689 67.5619 632.05 66.678 632.05 65.5297C632.05 64.3815 631.689 63.5052 630.969 62.9009C630.249 62.2814 629.204 61.9717 627.835 61.9717H624.161V69.1105H627.835Z" fill="black"/>
<path d="M642.306 76C641.168 76 640.145 75.7356 639.237 75.2068C638.329 74.678 637.616 73.9528 637.097 73.0312C636.593 72.0944 636.341 71.0368 636.341 69.8584C636.341 68.6799 636.593 67.6298 637.097 66.7082C637.616 65.7715 638.329 65.0463 639.237 64.5326C640.145 64.0038 641.168 63.7394 642.306 63.7394C643.444 63.7394 644.46 64.0038 645.353 64.5326C646.261 65.0463 646.967 65.7715 647.471 66.7082C647.99 67.6298 648.249 68.6799 648.249 69.8584C648.249 71.0368 647.99 72.0944 647.471 73.0312C646.967 73.9528 646.261 74.678 645.353 75.2068C644.46 75.7356 643.444 76 642.306 76ZM642.306 74.0963C643.041 74.0963 643.696 73.9226 644.273 73.5751C644.863 73.2125 645.324 72.7139 645.656 72.0793C645.987 71.4297 646.153 70.6893 646.153 69.8584C646.153 69.0274 645.987 68.2946 645.656 67.6601C645.324 67.0104 644.863 66.5118 644.273 66.1643C643.696 65.8168 643.041 65.6431 642.306 65.6431C641.571 65.6431 640.908 65.8168 640.318 66.1643C639.741 66.5118 639.28 67.0104 638.934 67.6601C638.603 68.2946 638.437 69.0274 638.437 69.8584C638.437 70.6893 638.603 71.4297 638.934 72.0793C639.28 72.7139 639.741 73.2125 640.318 73.5751C640.908 73.9226 641.571 74.0963 642.306 74.0963Z" fill="black"/>
<path d="M652.673 61.9717H647.487V60H660V61.9717H654.813V75.864H652.673V61.9717Z" fill="black"/>
<rect x="35" y="144" width="352" height="61" fill="#376BC3"/>
<rect x="420" y="144" width="13" height="61" fill="#376BC3"/>
<path d="M392.293 174.293C391.902 174.683 391.902 175.317 392.293 175.707L398.657 182.071C399.047 182.462 399.681 182.462 400.071 182.071C400.462 181.681 400.462 181.047 400.071 180.657L394.414 175L400.071 169.343C400.462 168.953 400.462 168.319 400.071 167.929C399.681 167.538 399.047 167.538 398.657 167.929L392.293 174.293ZM460.707 175.707C461.098 175.317 461.098 174.683 460.707 174.293L454.343 167.929C453.953 167.538 453.319 167.538 452.929 167.929C452.538 168.319 452.538 168.953 452.929 169.343L458.586 175L452.929 180.657C452.538 181.047 452.538 181.681 452.929 182.071C453.319 182.462 453.953 182.462 454.343 182.071L460.707 175.707ZM393 176L460 176L460 174L393 174L393 176Z" fill="#376BC3"/>
<path d="M168.93 101.85H162.234L160.848 105H158.994L164.7 92.4H166.482L172.206 105H170.316L168.93 101.85ZM168.3 100.41L165.582 94.236L162.864 100.41H168.3Z" fill="black"/>
<path d="M178.891 95.37C179.815 95.37 180.643 95.574 181.375 95.982C182.107 96.39 182.677 96.96 183.085 97.692C183.505 98.424 183.715 99.27 183.715 100.23C183.715 101.19 183.505 102.042 183.085 102.786C182.677 103.518 182.107 104.088 181.375 104.496C180.643 104.904 179.815 105.108 178.891 105.108C178.207 105.108 177.577 104.976 177.001 104.712C176.437 104.448 175.957 104.064 175.561 103.56V108.492H173.833V95.46H175.489V96.972C175.873 96.444 176.359 96.048 176.947 95.784C177.535 95.508 178.183 95.37 178.891 95.37ZM178.747 103.596C179.359 103.596 179.905 103.458 180.385 103.182C180.877 102.894 181.261 102.498 181.537 101.994C181.825 101.478 181.969 100.89 181.969 100.23C181.969 99.57 181.825 98.988 181.537 98.484C181.261 97.968 180.877 97.572 180.385 97.296C179.905 97.02 179.359 96.882 178.747 96.882C178.147 96.882 177.601 97.026 177.109 97.314C176.629 97.59 176.245 97.98 175.957 98.484C175.681 98.988 175.543 99.57 175.543 100.23C175.543 100.89 175.681 101.478 175.957 101.994C176.233 102.498 176.617 102.894 177.109 103.182C177.601 103.458 178.147 103.596 178.747 103.596Z" fill="black"/>
<path d="M191.161 95.37C192.085 95.37 192.913 95.574 193.645 95.982C194.377 96.39 194.947 96.96 195.355 97.692C195.775 98.424 195.985 99.27 195.985 100.23C195.985 101.19 195.775 102.042 195.355 102.786C194.947 103.518 194.377 104.088 193.645 104.496C192.913 104.904 192.085 105.108 191.161 105.108C190.477 105.108 189.847 104.976 189.271 104.712C188.707 104.448 188.227 104.064 187.831 103.56V108.492H186.103V95.46H187.759V96.972C188.143 96.444 188.629 96.048 189.217 95.784C189.805 95.508 190.453 95.37 191.161 95.37ZM191.017 103.596C191.629 103.596 192.175 103.458 192.655 103.182C193.147 102.894 193.531 102.498 193.807 101.994C194.095 101.478 194.239 100.89 194.239 100.23C194.239 99.57 194.095 98.988 193.807 98.484C193.531 97.968 193.147 97.572 192.655 97.296C192.175 97.02 191.629 96.882 191.017 96.882C190.417 96.882 189.871 97.026 189.379 97.314C188.899 97.59 188.515 97.98 188.227 98.484C187.951 98.988 187.813 99.57 187.813 100.23C187.813 100.89 187.951 101.478 188.227 101.994C188.503 102.498 188.887 102.894 189.379 103.182C189.871 103.458 190.417 103.596 191.017 103.596Z" fill="black"/>
<path d="M198.372 91.644H200.1V105H198.372V91.644Z" fill="black"/>
<path d="M203.4 95.46H205.128V105H203.4V95.46ZM204.264 93.624C203.928 93.624 203.646 93.516 203.418 93.3C203.202 93.084 203.094 92.82 203.094 92.508C203.094 92.196 203.202 91.932 203.418 91.716C203.646 91.488 203.928 91.374 204.264 91.374C204.6 91.374 204.876 91.482 205.092 91.698C205.32 91.902 205.434 92.16 205.434 92.472C205.434 92.796 205.32 93.072 205.092 93.3C204.876 93.516 204.6 93.624 204.264 93.624Z" fill="black"/>
<path d="M212.585 105.108C211.613 105.108 210.743 104.898 209.975 104.478C209.219 104.058 208.625 103.482 208.193 102.75C207.761 102.006 207.545 101.166 207.545 100.23C207.545 99.294 207.761 98.46 208.193 97.728C208.625 96.984 209.219 96.408 209.975 96C210.743 95.58 211.613 95.37 212.585 95.37C213.449 95.37 214.217 95.544 214.889 95.892C215.573 96.24 216.101 96.744 216.473 97.404L215.159 98.25C214.859 97.794 214.487 97.452 214.043 97.224C213.599 96.996 213.107 96.882 212.567 96.882C211.943 96.882 211.379 97.02 210.875 97.296C210.383 97.572 209.993 97.968 209.705 98.484C209.429 98.988 209.291 99.57 209.291 100.23C209.291 100.902 209.429 101.496 209.705 102.012C209.993 102.516 210.383 102.906 210.875 103.182C211.379 103.458 211.943 103.596 212.567 103.596C213.107 103.596 213.599 103.482 214.043 103.254C214.487 103.026 214.859 102.684 215.159 102.228L216.473 103.056C216.101 103.716 215.573 104.226 214.889 104.586C214.217 104.934 213.449 105.108 212.585 105.108Z" fill="black"/>
<path d="M222.184 95.37C223.504 95.37 224.512 95.694 225.208 96.342C225.916 96.99 226.27 97.956 226.27 99.24V105H224.632V103.74C224.344 104.184 223.93 104.526 223.39 104.766C222.862 104.994 222.232 105.108 221.5 105.108C220.432 105.108 219.574 104.85 218.926 104.334C218.29 103.818 217.972 103.14 217.972 102.3C217.972 101.46 218.278 100.788 218.89 100.284C219.502 99.768 220.474 99.51 221.806 99.51H224.542V99.168C224.542 98.424 224.326 97.854 223.894 97.458C223.462 97.062 222.826 96.864 221.986 96.864C221.422 96.864 220.87 96.96 220.33 97.152C219.79 97.332 219.334 97.578 218.962 97.89L218.242 96.594C218.734 96.198 219.322 95.898 220.006 95.694C220.69 95.478 221.416 95.37 222.184 95.37ZM221.788 103.776C222.448 103.776 223.018 103.632 223.498 103.344C223.978 103.044 224.326 102.624 224.542 102.084V100.752H221.878C220.414 100.752 219.682 101.244 219.682 102.228C219.682 102.708 219.868 103.086 220.24 103.362C220.612 103.638 221.128 103.776 221.788 103.776Z" fill="black"/>
<path d="M234.832 104.442C234.58 104.658 234.268 104.826 233.896 104.946C233.524 105.054 233.14 105.108 232.744 105.108C231.784 105.108 231.04 104.85 230.512 104.334C229.984 103.818 229.72 103.08 229.72 102.12V96.882H228.1V95.46H229.72V93.372H231.448V95.46H234.184V96.882H231.448V102.048C231.448 102.564 231.574 102.96 231.826 103.236C232.09 103.512 232.462 103.65 232.942 103.65C233.47 103.65 233.92 103.5 234.292 103.2L234.832 104.442Z" fill="black"/>
<path d="M236.921 95.46H238.649V105H236.921V95.46ZM237.785 93.624C237.449 93.624 237.167 93.516 236.939 93.3C236.723 93.084 236.615 92.82 236.615 92.508C236.615 92.196 236.723 91.932 236.939 91.716C237.167 91.488 237.449 91.374 237.785 91.374C238.121 91.374 238.397 91.482 238.613 91.698C238.841 91.902 238.955 92.16 238.955 92.472C238.955 92.796 238.841 93.072 238.613 93.3C238.397 93.516 238.121 93.624 237.785 93.624Z" fill="black"/>
<path d="M246.034 105.108C245.086 105.108 244.234 104.898 243.478 104.478C242.722 104.058 242.128 103.482 241.696 102.75C241.276 102.006 241.066 101.166 241.066 100.23C241.066 99.294 241.276 98.46 241.696 97.728C242.128 96.984 242.722 96.408 243.478 96C244.234 95.58 245.086 95.37 246.034 95.37C246.982 95.37 247.828 95.58 248.572 96C249.328 96.408 249.916 96.984 250.336 97.728C250.768 98.46 250.984 99.294 250.984 100.23C250.984 101.166 250.768 102.006 250.336 102.75C249.916 103.482 249.328 104.058 248.572 104.478C247.828 104.898 246.982 105.108 246.034 105.108ZM246.034 103.596C246.646 103.596 247.192 103.458 247.672 103.182C248.164 102.894 248.548 102.498 248.824 101.994C249.1 101.478 249.238 100.89 249.238 100.23C249.238 99.57 249.1 98.988 248.824 98.484C248.548 97.968 248.164 97.572 247.672 97.296C247.192 97.02 246.646 96.882 246.034 96.882C245.422 96.882 244.87 97.02 244.378 97.296C243.898 97.572 243.514 97.968 243.226 98.484C242.95 98.988 242.812 99.57 242.812 100.23C242.812 100.89 242.95 101.478 243.226 101.994C243.514 102.498 243.898 102.894 244.378 103.182C244.87 103.458 245.422 103.596 246.034 103.596Z" fill="black"/>
<path d="M258.468 95.37C259.68 95.37 260.64 95.724 261.348 96.432C262.068 97.128 262.428 98.154 262.428 99.51V105H260.7V99.708C260.7 98.784 260.478 98.088 260.034 97.62C259.59 97.152 258.954 96.918 258.126 96.918C257.19 96.918 256.452 97.194 255.912 97.746C255.372 98.286 255.102 99.066 255.102 100.086V105H253.374V95.46H255.03V96.9C255.378 96.408 255.846 96.03 256.434 95.766C257.034 95.502 257.712 95.37 258.468 95.37Z" fill="black"/>
<path d="M678.132 342.144C677.184 342.144 676.266 342 675.378 341.712C674.502 341.412 673.812 341.028 673.308 340.56L673.974 339.156C674.454 339.588 675.066 339.942 675.81 340.218C676.566 340.482 677.34 340.614 678.132 340.614C679.176 340.614 679.956 340.44 680.472 340.092C680.988 339.732 681.246 339.258 681.246 338.67C681.246 338.238 681.102 337.89 680.814 337.626C680.538 337.35 680.19 337.14 679.77 336.996C679.362 336.852 678.78 336.69 678.024 336.51C677.076 336.282 676.308 336.054 675.72 335.826C675.144 335.598 674.646 335.25 674.226 334.782C673.818 334.302 673.614 333.66 673.614 332.856C673.614 332.184 673.788 331.578 674.136 331.038C674.496 330.498 675.036 330.066 675.756 329.742C676.476 329.418 677.37 329.256 678.438 329.256C679.182 329.256 679.914 329.352 680.634 329.544C681.354 329.736 681.972 330.012 682.488 330.372L681.894 331.812C681.366 331.476 680.802 331.224 680.202 331.056C679.602 330.876 679.014 330.786 678.438 330.786C677.418 330.786 676.65 330.972 676.134 331.344C675.63 331.716 675.378 332.196 675.378 332.784C675.378 333.216 675.522 333.57 675.81 333.846C676.098 334.11 676.452 334.32 676.872 334.476C677.304 334.62 677.886 334.776 678.618 334.944C679.566 335.172 680.328 335.4 680.904 335.628C681.48 335.856 681.972 336.204 682.38 336.672C682.8 337.14 683.01 337.77 683.01 338.562C683.01 339.222 682.83 339.828 682.47 340.38C682.11 340.92 681.564 341.352 680.832 341.676C680.1 341.988 679.2 342.144 678.132 342.144Z" fill="black"/>
<path d="M694.01 337.284C694.01 337.416 693.998 337.59 693.974 337.806H686.234C686.342 338.646 686.708 339.324 687.332 339.84C687.968 340.344 688.754 340.596 689.69 340.596C690.83 340.596 691.748 340.212 692.444 339.444L693.398 340.56C692.966 341.064 692.426 341.448 691.778 341.712C691.142 341.976 690.428 342.108 689.636 342.108C688.628 342.108 687.734 341.904 686.954 341.496C686.174 341.076 685.568 340.494 685.136 339.75C684.716 339.006 684.506 338.166 684.506 337.23C684.506 336.306 684.71 335.472 685.118 334.728C685.538 333.984 686.108 333.408 686.828 333C687.56 332.58 688.382 332.37 689.294 332.37C690.206 332.37 691.016 332.58 691.724 333C692.444 333.408 693.002 333.984 693.398 334.728C693.806 335.472 694.01 336.324 694.01 337.284ZM689.294 333.828C688.466 333.828 687.77 334.08 687.206 334.584C686.654 335.088 686.33 335.748 686.234 336.564H692.354C692.258 335.76 691.928 335.106 691.364 334.602C690.812 334.086 690.122 333.828 689.294 333.828Z" fill="black"/>
<path d="M700.568 342.108C699.596 342.108 698.726 341.898 697.958 341.478C697.202 341.058 696.608 340.482 696.176 339.75C695.744 339.006 695.528 338.166 695.528 337.23C695.528 336.294 695.744 335.46 696.176 334.728C696.608 333.984 697.202 333.408 697.958 333C698.726 332.58 699.596 332.37 700.568 332.37C701.432 332.37 702.2 332.544 702.872 332.892C703.556 333.24 704.084 333.744 704.456 334.404L703.142 335.25C702.842 334.794 702.47 334.452 702.026 334.224C701.582 333.996 701.09 333.882 700.55 333.882C699.926 333.882 699.362 334.02 698.858 334.296C698.366 334.572 697.976 334.968 697.688 335.484C697.412 335.988 697.274 336.57 697.274 337.23C697.274 337.902 697.412 338.496 697.688 339.012C697.976 339.516 698.366 339.906 698.858 340.182C699.362 340.458 699.926 340.596 700.55 340.596C701.09 340.596 701.582 340.482 702.026 340.254C702.47 340.026 702.842 339.684 703.142 339.228L704.456 340.056C704.084 340.716 703.556 341.226 702.872 341.586C702.2 341.934 701.432 342.108 700.568 342.108Z" fill="black"/>
<path d="M715.585 332.46V342H713.947V340.56C713.599 341.052 713.137 341.436 712.561 341.712C711.997 341.976 711.379 342.108 710.707 342.108C709.435 342.108 708.433 341.76 707.701 341.064C706.969 340.356 706.603 339.318 706.603 337.95V332.46H708.331V337.752C708.331 338.676 708.553 339.378 708.997 339.858C709.441 340.326 710.077 340.56 710.905 340.56C711.817 340.56 712.537 340.284 713.065 339.732C713.593 339.18 713.857 338.4 713.857 337.392V332.46H715.585Z" fill="black"/>
<path d="M720.53 334.062C720.83 333.51 721.274 333.09 721.862 332.802C722.45 332.514 723.164 332.37 724.004 332.37V334.044C723.908 334.032 723.776 334.026 723.608 334.026C722.672 334.026 721.934 334.308 721.394 334.872C720.866 335.424 720.602 336.216 720.602 337.248V342H718.874V332.46H720.53V334.062Z" fill="black"/>
<path d="M734.668 337.284C734.668 337.416 734.656 337.59 734.632 337.806H726.892C727 338.646 727.366 339.324 727.99 339.84C728.626 340.344 729.412 340.596 730.348 340.596C731.488 340.596 732.406 340.212 733.102 339.444L734.056 340.56C733.624 341.064 733.084 341.448 732.436 341.712C731.8 341.976 731.086 342.108 730.294 342.108C729.286 342.108 728.392 341.904 727.612 341.496C726.832 341.076 726.226 340.494 725.794 339.75C725.374 339.006 725.164 338.166 725.164 337.23C725.164 336.306 725.368 335.472 725.776 334.728C726.196 333.984 726.766 333.408 727.486 333C728.218 332.58 729.04 332.37 729.952 332.37C730.864 332.37 731.674 332.58 732.382 333C733.102 333.408 733.66 333.984 734.056 334.728C734.464 335.472 734.668 336.324 734.668 337.284ZM729.952 333.828C729.124 333.828 728.428 334.08 727.864 334.584C727.312 335.088 726.988 335.748 726.892 336.564H733.012C732.916 335.76 732.586 335.106 732.022 334.602C731.47 334.086 730.78 333.828 729.952 333.828Z" fill="black"/>
<path d="M673.94 364.144C672.992 364.144 672.074 364 671.186 363.712C670.31 363.412 669.62 363.028 669.116 362.56L669.782 361.156C670.262 361.588 670.874 361.942 671.618 362.218C672.374 362.482 673.148 362.614 673.94 362.614C674.984 362.614 675.764 362.44 676.28 362.092C676.796 361.732 677.054 361.258 677.054 360.67C677.054 360.238 676.91 359.89 676.622 359.626C676.346 359.35 675.998 359.14 675.578 358.996C675.17 358.852 674.588 358.69 673.832 358.51C672.884 358.282 672.116 358.054 671.528 357.826C670.952 357.598 670.454 357.25 670.034 356.782C669.626 356.302 669.422 355.66 669.422 354.856C669.422 354.184 669.596 353.578 669.944 353.038C670.304 352.498 670.844 352.066 671.564 351.742C672.284 351.418 673.178 351.256 674.246 351.256C674.99 351.256 675.722 351.352 676.442 351.544C677.162 351.736 677.78 352.012 678.296 352.372L677.702 353.812C677.174 353.476 676.61 353.224 676.01 353.056C675.41 352.876 674.822 352.786 674.246 352.786C673.226 352.786 672.458 352.972 671.942 353.344C671.438 353.716 671.186 354.196 671.186 354.784C671.186 355.216 671.33 355.57 671.618 355.846C671.906 356.11 672.26 356.32 672.68 356.476C673.112 356.62 673.694 356.776 674.426 356.944C675.374 357.172 676.136 357.4 676.712 357.628C677.288 357.856 677.78 358.204 678.188 358.672C678.608 359.14 678.818 359.77 678.818 360.562C678.818 361.222 678.638 361.828 678.278 362.38C677.918 362.92 677.372 363.352 676.64 363.676C675.908 363.988 675.008 364.144 673.94 364.144Z" fill="black"/>
<path d="M686.56 363.442C686.308 363.658 685.996 363.826 685.624 363.946C685.252 364.054 684.868 364.108 684.472 364.108C683.512 364.108 682.768 363.85 682.24 363.334C681.712 362.818 681.448 362.08 681.448 361.12V355.882H679.828V354.46H681.448V352.372H683.176V354.46H685.912V355.882H683.176V361.048C683.176 361.564 683.302 361.96 683.554 362.236C683.818 362.512 684.19 362.65 684.67 362.65C685.198 362.65 685.648 362.5 686.02 362.2L686.56 363.442Z" fill="black"/>
<path d="M692.418 364.108C691.47 364.108 690.618 363.898 689.862 363.478C689.106 363.058 688.512 362.482 688.08 361.75C687.66 361.006 687.45 360.166 687.45 359.23C687.45 358.294 687.66 357.46 688.08 356.728C688.512 355.984 689.106 355.408 689.862 355C690.618 354.58 691.47 354.37 692.418 354.37C693.366 354.37 694.212 354.58 694.956 355C695.712 355.408 696.3 355.984 696.72 356.728C697.152 357.46 697.368 358.294 697.368 359.23C697.368 360.166 697.152 361.006 696.72 361.75C696.3 362.482 695.712 363.058 694.956 363.478C694.212 363.898 693.366 364.108 692.418 364.108ZM692.418 362.596C693.03 362.596 693.576 362.458 694.056 362.182C694.548 361.894 694.932 361.498 695.208 360.994C695.484 360.478 695.622 359.89 695.622 359.23C695.622 358.57 695.484 357.988 695.208 357.484C694.932 356.968 694.548 356.572 694.056 356.296C693.576 356.02 693.03 355.882 692.418 355.882C691.806 355.882 691.254 356.02 690.762 356.296C690.282 356.572 689.898 356.968 689.61 357.484C689.334 357.988 689.196 358.57 689.196 359.23C689.196 359.89 689.334 360.478 689.61 360.994C689.898 361.498 690.282 361.894 690.762 362.182C691.254 362.458 691.806 362.596 692.418 362.596Z" fill="black"/>
<path d="M701.414 356.062C701.714 355.51 702.158 355.09 702.746 354.802C703.334 354.514 704.048 354.37 704.888 354.37V356.044C704.792 356.032 704.66 356.026 704.492 356.026C703.556 356.026 702.818 356.308 702.278 356.872C701.75 357.424 701.486 358.216 701.486 359.248V364H699.758V354.46H701.414V356.062Z" fill="black"/>
<path d="M710.474 354.37C711.794 354.37 712.802 354.694 713.498 355.342C714.206 355.99 714.56 356.956 714.56 358.24V364H712.922V362.74C712.634 363.184 712.22 363.526 711.68 363.766C711.152 363.994 710.522 364.108 709.79 364.108C708.722 364.108 707.864 363.85 707.216 363.334C706.58 362.818 706.262 362.14 706.262 361.3C706.262 360.46 706.568 359.788 707.18 359.284C707.792 358.768 708.764 358.51 710.096 358.51H712.832V358.168C712.832 357.424 712.616 356.854 712.184 356.458C711.752 356.062 711.116 355.864 710.276 355.864C709.712 355.864 709.16 355.96 708.62 356.152C708.08 356.332 707.624 356.578 707.252 356.89L706.532 355.594C707.024 355.198 707.612 354.898 708.296 354.694C708.98 354.478 709.706 354.37 710.474 354.37ZM710.078 362.776C710.738 362.776 711.308 362.632 711.788 362.344C712.268 362.044 712.616 361.624 712.832 361.084V359.752H710.168C708.704 359.752 707.972 360.244 707.972 361.228C707.972 361.708 708.158 362.086 708.53 362.362C708.902 362.638 709.418 362.776 710.078 362.776Z" fill="black"/>
<path d="M726.937 354.46V362.704C726.937 364.372 726.523 365.602 725.695 366.394C724.867 367.198 723.631 367.6 721.987 367.6C721.087 367.6 720.229 367.474 719.413 367.222C718.597 366.982 717.937 366.634 717.433 366.178L718.261 364.846C718.705 365.23 719.251 365.53 719.899 365.746C720.559 365.974 721.237 366.088 721.933 366.088C723.049 366.088 723.871 365.824 724.399 365.296C724.939 364.768 725.209 363.964 725.209 362.884V362.128C724.801 362.62 724.297 362.992 723.697 363.244C723.109 363.484 722.467 363.604 721.771 363.604C720.859 363.604 720.031 363.412 719.287 363.028C718.555 362.632 717.979 362.086 717.559 361.39C717.139 360.682 716.929 359.878 716.929 358.978C716.929 358.078 717.139 357.28 717.559 356.584C717.979 355.876 718.555 355.33 719.287 354.946C720.031 354.562 720.859 354.37 721.771 354.37C722.491 354.37 723.157 354.502 723.769 354.766C724.393 355.03 724.903 355.42 725.299 355.936V354.46H726.937ZM721.969 362.092C722.593 362.092 723.151 361.96 723.643 361.696C724.147 361.432 724.537 361.066 724.813 360.598C725.101 360.118 725.245 359.578 725.245 358.978C725.245 358.054 724.939 357.31 724.327 356.746C723.715 356.17 722.929 355.882 721.969 355.882C720.997 355.882 720.205 356.17 719.593 356.746C718.981 357.31 718.675 358.054 718.675 358.978C718.675 359.578 718.813 360.118 719.089 360.598C719.377 361.066 719.767 361.432 720.259 361.696C720.763 361.96 721.333 362.092 721.969 362.092Z" fill="black"/>
<path d="M738.861 359.284C738.861 359.416 738.849 359.59 738.825 359.806H731.085C731.193 360.646 731.559 361.324 732.183 361.84C732.819 362.344 733.605 362.596 734.541 362.596C735.681 362.596 736.599 362.212 737.295 361.444L738.249 362.56C737.817 363.064 737.277 363.448 736.629 363.712C735.993 363.976 735.279 364.108 734.487 364.108C733.479 364.108 732.585 363.904 731.805 363.496C731.025 363.076 730.419 362.494 729.987 361.75C729.567 361.006 729.357 360.166 729.357 359.23C729.357 358.306 729.561 357.472 729.969 356.728C730.389 355.984 730.959 355.408 731.679 355C732.411 354.58 733.233 354.37 734.145 354.37C735.057 354.37 735.867 354.58 736.575 355C737.295 355.408 737.853 355.984 738.249 356.728C738.657 357.472 738.861 358.324 738.861 359.284ZM734.145 355.828C733.317 355.828 732.621 356.08 732.057 356.584C731.505 357.088 731.181 357.748 731.085 358.564H737.205C737.109 357.76 736.779 357.106 736.215 356.602C735.663 356.086 734.973 355.828 734.145 355.828Z" fill="black"/>
<path d="M523.132 342.144C522.184 342.144 521.266 342 520.378 341.712C519.502 341.412 518.812 341.028 518.308 340.56L518.974 339.156C519.454 339.588 520.066 339.942 520.81 340.218C521.566 340.482 522.34 340.614 523.132 340.614C524.176 340.614 524.956 340.44 525.472 340.092C525.988 339.732 526.246 339.258 526.246 338.67C526.246 338.238 526.102 337.89 525.814 337.626C525.538 337.35 525.19 337.14 524.77 336.996C524.362 336.852 523.78 336.69 523.024 336.51C522.076 336.282 521.308 336.054 520.72 335.826C520.144 335.598 519.646 335.25 519.226 334.782C518.818 334.302 518.614 333.66 518.614 332.856C518.614 332.184 518.788 331.578 519.136 331.038C519.496 330.498 520.036 330.066 520.756 329.742C521.476 329.418 522.37 329.256 523.438 329.256C524.182 329.256 524.914 329.352 525.634 329.544C526.354 329.736 526.972 330.012 527.488 330.372L526.894 331.812C526.366 331.476 525.802 331.224 525.202 331.056C524.602 330.876 524.014 330.786 523.438 330.786C522.418 330.786 521.65 330.972 521.134 331.344C520.63 331.716 520.378 332.196 520.378 332.784C520.378 333.216 520.522 333.57 520.81 333.846C521.098 334.11 521.452 334.32 521.872 334.476C522.304 334.62 522.886 334.776 523.618 334.944C524.566 335.172 525.328 335.4 525.904 335.628C526.48 335.856 526.972 336.204 527.38 336.672C527.8 337.14 528.01 337.77 528.01 338.562C528.01 339.222 527.83 339.828 527.47 340.38C527.11 340.92 526.564 341.352 525.832 341.676C525.1 341.988 524.2 342.144 523.132 342.144Z" fill="black"/>
<path d="M539.01 337.284C539.01 337.416 538.998 337.59 538.974 337.806H531.234C531.342 338.646 531.708 339.324 532.332 339.84C532.968 340.344 533.754 340.596 534.69 340.596C535.83 340.596 536.748 340.212 537.444 339.444L538.398 340.56C537.966 341.064 537.426 341.448 536.778 341.712C536.142 341.976 535.428 342.108 534.636 342.108C533.628 342.108 532.734 341.904 531.954 341.496C531.174 341.076 530.568 340.494 530.136 339.75C529.716 339.006 529.506 338.166 529.506 337.23C529.506 336.306 529.71 335.472 530.118 334.728C530.538 333.984 531.108 333.408 531.828 333C532.56 332.58 533.382 332.37 534.294 332.37C535.206 332.37 536.016 332.58 536.724 333C537.444 333.408 538.002 333.984 538.398 334.728C538.806 335.472 539.01 336.324 539.01 337.284ZM534.294 333.828C533.466 333.828 532.77 334.08 532.206 334.584C531.654 335.088 531.33 335.748 531.234 336.564H537.354C537.258 335.76 536.928 335.106 536.364 334.602C535.812 334.086 535.122 333.828 534.294 333.828Z" fill="black"/>
<path d="M545.568 342.108C544.596 342.108 543.726 341.898 542.958 341.478C542.201 341.058 541.607 340.482 541.175 339.75C540.743 339.006 540.528 338.166 540.528 337.23C540.528 336.294 540.743 335.46 541.175 334.728C541.607 333.984 542.201 333.408 542.958 333C543.726 332.58 544.596 332.37 545.568 332.37C546.431 332.37 547.199 332.544 547.871 332.892C548.556 333.24 549.083 333.744 549.456 334.404L548.141 335.25C547.841 334.794 547.47 334.452 547.026 334.224C546.582 333.996 546.09 333.882 545.549 333.882C544.925 333.882 544.361 334.02 543.857 334.296C543.365 334.572 542.975 334.968 542.688 335.484C542.411 335.988 542.273 336.57 542.273 337.23C542.273 337.902 542.411 338.496 542.688 339.012C542.975 339.516 543.365 339.906 543.857 340.182C544.361 340.458 544.925 340.596 545.549 340.596C546.09 340.596 546.582 340.482 547.026 340.254C547.47 340.026 547.841 339.684 548.141 339.228L549.456 340.056C549.083 340.716 548.556 341.226 547.871 341.586C547.199 341.934 546.431 342.108 545.568 342.108Z" fill="black"/>
<path d="M560.585 332.46V342H558.947V340.56C558.599 341.052 558.137 341.436 557.561 341.712C556.997 341.976 556.379 342.108 555.707 342.108C554.435 342.108 553.433 341.76 552.701 341.064C551.969 340.356 551.603 339.318 551.603 337.95V332.46H553.331V337.752C553.331 338.676 553.553 339.378 553.997 339.858C554.441 340.326 555.077 340.56 555.905 340.56C556.817 340.56 557.537 340.284 558.065 339.732C558.593 339.18 558.857 338.4 558.857 337.392V332.46H560.585Z" fill="black"/>
<path d="M565.53 334.062C565.83 333.51 566.274 333.09 566.862 332.802C567.45 332.514 568.164 332.37 569.004 332.37V334.044C568.908 334.032 568.776 334.026 568.608 334.026C567.672 334.026 566.934 334.308 566.394 334.872C565.866 335.424 565.602 336.216 565.602 337.248V342H563.874V332.46H565.53V334.062Z" fill="black"/>
<path d="M579.668 337.284C579.668 337.416 579.656 337.59 579.632 337.806H571.892C572 338.646 572.366 339.324 572.99 339.84C573.626 340.344 574.412 340.596 575.348 340.596C576.488 340.596 577.406 340.212 578.102 339.444L579.056 340.56C578.624 341.064 578.084 341.448 577.436 341.712C576.8 341.976 576.086 342.108 575.294 342.108C574.286 342.108 573.392 341.904 572.612 341.496C571.832 341.076 571.226 340.494 570.794 339.75C570.374 339.006 570.164 338.166 570.164 337.23C570.164 336.306 570.368 335.472 570.776 334.728C571.196 333.984 571.766 333.408 572.486 333C573.218 332.58 574.04 332.37 574.952 332.37C575.864 332.37 576.674 332.58 577.382 333C578.102 333.408 578.66 333.984 579.056 334.728C579.464 335.472 579.668 336.324 579.668 337.284ZM574.952 333.828C574.124 333.828 573.428 334.08 572.864 334.584C572.312 335.088 571.988 335.748 571.892 336.564H578.012C577.916 335.76 577.586 335.106 577.022 334.602C576.47 334.086 575.78 333.828 574.952 333.828Z" fill="black"/>
<path d="M516.902 351.4V364H515.102V358.384H507.866V364H506.066V351.4H507.866V356.818H515.102V351.4H516.902Z" fill="black"/>
<path d="M523.895 354.37C525.215 354.37 526.223 354.694 526.919 355.342C527.627 355.99 527.981 356.956 527.981 358.24V364H526.343V362.74C526.055 363.184 525.641 363.526 525.101 363.766C524.573 363.994 523.943 364.108 523.211 364.108C522.143 364.108 521.285 363.85 520.637 363.334C520.001 362.818 519.683 362.14 519.683 361.3C519.683 360.46 519.989 359.788 520.601 359.284C521.213 358.768 522.185 358.51 523.517 358.51H526.253V358.168C526.253 357.424 526.037 356.854 525.605 356.458C525.173 356.062 524.537 355.864 523.697 355.864C523.133 355.864 522.581 355.96 522.041 356.152C521.501 356.332 521.045 356.578 520.673 356.89L519.953 355.594C520.445 355.198 521.033 354.898 521.717 354.694C522.401 354.478 523.127 354.37 523.895 354.37ZM523.499 362.776C524.159 362.776 524.729 362.632 525.209 362.344C525.689 362.044 526.037 361.624 526.253 361.084V359.752H523.589C522.125 359.752 521.393 360.244 521.393 361.228C521.393 361.708 521.579 362.086 521.951 362.362C522.323 362.638 522.839 362.776 523.499 362.776Z" fill="black"/>
<path d="M532.835 356.062C533.135 355.51 533.579 355.09 534.167 354.802C534.755 354.514 535.469 354.37 536.309 354.37V356.044C536.213 356.032 536.081 356.026 535.913 356.026C534.977 356.026 534.239 356.308 533.699 356.872C533.171 357.424 532.907 358.216 532.907 359.248V364H531.179V354.46H532.835V356.062Z" fill="black"/>
<path d="M547.351 350.644V364H545.695V362.488C545.311 363.016 544.825 363.418 544.237 363.694C543.649 363.97 543.001 364.108 542.293 364.108C541.369 364.108 540.541 363.904 539.809 363.496C539.077 363.088 538.501 362.518 538.081 361.786C537.673 361.042 537.469 360.19 537.469 359.23C537.469 358.27 537.673 357.424 538.081 356.692C538.501 355.96 539.077 355.39 539.809 354.982C540.541 354.574 541.369 354.37 542.293 354.37C542.977 354.37 543.607 354.502 544.183 354.766C544.759 355.018 545.239 355.396 545.623 355.9V350.644H547.351ZM542.437 362.596C543.037 362.596 543.583 362.458 544.075 362.182C544.567 361.894 544.951 361.498 545.227 360.994C545.503 360.478 545.641 359.89 545.641 359.23C545.641 358.57 545.503 357.988 545.227 357.484C544.951 356.968 544.567 356.572 544.075 356.296C543.583 356.02 543.037 355.882 542.437 355.882C541.825 355.882 541.273 356.02 540.781 356.296C540.301 356.572 539.917 356.968 539.629 357.484C539.353 357.988 539.215 358.57 539.215 359.23C539.215 359.89 539.353 360.478 539.629 360.994C539.917 361.498 540.301 361.894 540.781 362.182C541.273 362.458 541.825 362.596 542.437 362.596Z" fill="black"/>
<path d="M565.056 354.46L561.492 364H559.836L557.082 356.764L554.292 364H552.636L549.09 354.46H550.728L553.5 362.056L556.38 354.46H557.838L560.664 362.092L563.508 354.46H565.056Z" fill="black"/>
<path d="M569.985 354.37C571.305 354.37 572.313 354.694 573.009 355.342C573.717 355.99 574.071 356.956 574.071 358.24V364H572.433V362.74C572.145 363.184 571.731 363.526 571.191 363.766C570.663 363.994 570.033 364.108 569.301 364.108C568.233 364.108 567.375 363.85 566.727 363.334C566.091 362.818 565.773 362.14 565.773 361.3C565.773 360.46 566.079 359.788 566.691 359.284C567.303 358.768 568.275 358.51 569.607 358.51H572.343V358.168C572.343 357.424 572.127 356.854 571.695 356.458C571.263 356.062 570.627 355.864 569.787 355.864C569.223 355.864 568.671 355.96 568.131 356.152C567.591 356.332 567.135 356.578 566.763 356.89L566.043 355.594C566.535 355.198 567.123 354.898 567.807 354.694C568.491 354.478 569.217 354.37 569.985 354.37ZM569.589 362.776C570.249 362.776 570.819 362.632 571.299 362.344C571.779 362.044 572.127 361.624 572.343 361.084V359.752H569.679C568.215 359.752 567.483 360.244 567.483 361.228C567.483 361.708 567.669 362.086 568.041 362.362C568.413 362.638 568.929 362.776 569.589 362.776Z" fill="black"/>
<path d="M578.925 356.062C579.225 355.51 579.669 355.09 580.257 354.802C580.845 354.514 581.559 354.37 582.399 354.37V356.044C582.303 356.032 582.171 356.026 582.003 356.026C581.067 356.026 580.329 356.308 579.789 356.872C579.261 357.424 578.997 358.216 578.997 359.248V364H577.269V354.46H578.925V356.062Z" fill="black"/>
<path d="M593.063 359.284C593.063 359.416 593.051 359.59 593.027 359.806H585.287C585.395 360.646 585.761 361.324 586.385 361.84C587.021 362.344 587.807 362.596 588.743 362.596C589.883 362.596 590.801 362.212 591.497 361.444L592.451 362.56C592.019 363.064 591.479 363.448 590.831 363.712C590.195 363.976 589.481 364.108 588.689 364.108C587.681 364.108 586.787 363.904 586.007 363.496C585.227 363.076 584.621 362.494 584.189 361.75C583.769 361.006 583.559 360.166 583.559 359.23C583.559 358.306 583.763 357.472 584.171 356.728C584.591 355.984 585.161 355.408 585.881 355C586.613 354.58 587.435 354.37 588.347 354.37C589.259 354.37 590.069 354.58 590.777 355C591.497 355.408 592.055 355.984 592.451 356.728C592.859 357.472 593.063 358.324 593.063 359.284ZM588.347 355.828C587.519 355.828 586.823 356.08 586.259 356.584C585.707 357.088 585.383 357.748 585.287 358.564H591.407C591.311 357.76 590.981 357.106 590.417 356.602C589.865 356.086 589.175 355.828 588.347 355.828Z" fill="black"/>
<path d="M614.132 213.144C613.184 213.144 612.266 213 611.378 212.712C610.502 212.412 609.812 212.028 609.308 211.56L609.974 210.156C610.454 210.588 611.066 210.942 611.81 211.218C612.566 211.482 613.34 211.614 614.132 211.614C615.176 211.614 615.956 211.44 616.472 211.092C616.988 210.732 617.246 210.258 617.246 209.67C617.246 209.238 617.102 208.89 616.814 208.626C616.538 208.35 616.19 208.14 615.77 207.996C615.362 207.852 614.78 207.69 614.024 207.51C613.076 207.282 612.308 207.054 611.72 206.826C611.144 206.598 610.646 206.25 610.226 205.782C609.818 205.302 609.614 204.66 609.614 203.856C609.614 203.184 609.788 202.578 610.136 202.038C610.496 201.498 611.036 201.066 611.756 200.742C612.476 200.418 613.37 200.256 614.438 200.256C615.182 200.256 615.914 200.352 616.634 200.544C617.354 200.736 617.972 201.012 618.488 201.372L617.894 202.812C617.366 202.476 616.802 202.224 616.202 202.056C615.602 201.876 615.014 201.786 614.438 201.786C613.418 201.786 612.65 201.972 612.134 202.344C611.63 202.716 611.378 203.196 611.378 203.784C611.378 204.216 611.522 204.57 611.81 204.846C612.098 205.11 612.452 205.32 612.872 205.476C613.304 205.62 613.886 205.776 614.618 205.944C615.566 206.172 616.328 206.4 616.904 206.628C617.48 206.856 617.972 207.204 618.38 207.672C618.8 208.14 619.01 208.77 619.01 209.562C619.01 210.222 618.83 210.828 618.47 211.38C618.11 211.92 617.564 212.352 616.832 212.676C616.1 212.988 615.2 213.144 614.132 213.144Z" fill="black"/>
<path d="M630.01 208.284C630.01 208.416 629.998 208.59 629.974 208.806H622.234C622.342 209.646 622.708 210.324 623.332 210.84C623.968 211.344 624.754 211.596 625.69 211.596C626.83 211.596 627.748 211.212 628.444 210.444L629.398 211.56C628.966 212.064 628.426 212.448 627.778 212.712C627.142 212.976 626.428 213.108 625.636 213.108C624.628 213.108 623.734 212.904 622.954 212.496C622.174 212.076 621.568 211.494 621.136 210.75C620.716 210.006 620.506 209.166 620.506 208.23C620.506 207.306 620.71 206.472 621.118 205.728C621.538 204.984 622.108 204.408 622.828 204C623.56 203.58 624.382 203.37 625.294 203.37C626.206 203.37 627.016 203.58 627.724 204C628.444 204.408 629.002 204.984 629.398 205.728C629.806 206.472 630.01 207.324 630.01 208.284ZM625.294 204.828C624.466 204.828 623.77 205.08 623.206 205.584C622.654 206.088 622.33 206.748 622.234 207.564H628.354C628.258 206.76 627.928 206.106 627.364 205.602C626.812 205.086 626.122 204.828 625.294 204.828Z" fill="black"/>
<path d="M636.568 213.108C635.596 213.108 634.726 212.898 633.958 212.478C633.201 212.058 632.607 211.482 632.175 210.75C631.743 210.006 631.528 209.166 631.528 208.23C631.528 207.294 631.743 206.46 632.175 205.728C632.607 204.984 633.201 204.408 633.958 204C634.726 203.58 635.596 203.37 636.568 203.37C637.431 203.37 638.199 203.544 638.871 203.892C639.556 204.24 640.083 204.744 640.456 205.404L639.141 206.25C638.841 205.794 638.47 205.452 638.026 205.224C637.582 204.996 637.09 204.882 636.549 204.882C635.925 204.882 635.361 205.02 634.857 205.296C634.365 205.572 633.975 205.968 633.688 206.484C633.411 206.988 633.273 207.57 633.273 208.23C633.273 208.902 633.411 209.496 633.688 210.012C633.975 210.516 634.365 210.906 634.857 211.182C635.361 211.458 635.925 211.596 636.549 211.596C637.09 211.596 637.582 211.482 638.026 211.254C638.47 211.026 638.841 210.684 639.141 210.228L640.456 211.056C640.083 211.716 639.556 212.226 638.871 212.586C638.199 212.934 637.431 213.108 636.568 213.108Z" fill="black"/>
<path d="M651.585 203.46V213H649.947V211.56C649.599 212.052 649.137 212.436 648.561 212.712C647.997 212.976 647.379 213.108 646.707 213.108C645.435 213.108 644.433 212.76 643.701 212.064C642.969 211.356 642.603 210.318 642.603 208.95V203.46H644.331V208.752C644.331 209.676 644.553 210.378 644.997 210.858C645.441 211.326 646.077 211.56 646.905 211.56C647.817 211.56 648.537 211.284 649.065 210.732C649.593 210.18 649.857 209.4 649.857 208.392V203.46H651.585Z" fill="black"/>
<path d="M656.53 205.062C656.83 204.51 657.274 204.09 657.862 203.802C658.45 203.514 659.164 203.37 660.004 203.37V205.044C659.908 205.032 659.776 205.026 659.608 205.026C658.672 205.026 657.934 205.308 657.394 205.872C656.866 206.424 656.602 207.216 656.602 208.248V213H654.874V203.46H656.53V205.062Z" fill="black"/>
<path d="M670.668 208.284C670.668 208.416 670.656 208.59 670.632 208.806H662.892C663 209.646 663.366 210.324 663.99 210.84C664.626 211.344 665.412 211.596 666.348 211.596C667.488 211.596 668.406 211.212 669.102 210.444L670.056 211.56C669.624 212.064 669.084 212.448 668.436 212.712C667.8 212.976 667.086 213.108 666.294 213.108C665.286 213.108 664.392 212.904 663.612 212.496C662.832 212.076 662.226 211.494 661.794 210.75C661.374 210.006 661.164 209.166 661.164 208.23C661.164 207.306 661.368 206.472 661.776 205.728C662.196 204.984 662.766 204.408 663.486 204C664.218 203.58 665.04 203.37 665.952 203.37C666.864 203.37 667.674 203.58 668.382 204C669.102 204.408 669.66 204.984 670.056 205.728C670.464 206.472 670.668 207.324 670.668 208.284ZM665.952 204.828C665.124 204.828 664.428 205.08 663.864 205.584C663.312 206.088 662.988 206.748 662.892 207.564H669.012C668.916 206.76 668.586 206.106 668.022 205.602C667.47 205.086 666.78 204.828 665.952 204.828Z" fill="black"/>
<path d="M600.079 223.966V228.358H606.397V229.906H600.079V235H598.279V222.4H607.171V223.966H600.079Z" fill="black"/>
<path d="M609.277 225.46H611.005V235H609.277V225.46ZM610.141 223.624C609.805 223.624 609.523 223.516 609.295 223.3C609.079 223.084 608.971 222.82 608.971 222.508C608.971 222.196 609.079 221.932 609.295 221.716C609.523 221.488 609.805 221.374 610.141 221.374C610.477 221.374 610.753 221.482 610.969 221.698C611.197 221.902 611.311 222.16 611.311 222.472C611.311 222.796 611.197 223.072 610.969 223.3C610.753 223.516 610.477 223.624 610.141 223.624Z" fill="black"/>
<path d="M615.96 227.062C616.26 226.51 616.704 226.09 617.292 225.802C617.88 225.514 618.594 225.37 619.434 225.37V227.044C619.338 227.032 619.206 227.026 619.038 227.026C618.102 227.026 617.364 227.308 616.824 227.872C616.296 228.424 616.032 229.216 616.032 230.248V235H614.304V225.46H615.96V227.062Z" fill="black"/>
<path d="M633.498 225.37C634.698 225.37 635.646 225.718 636.342 226.414C637.05 227.11 637.404 228.142 637.404 229.51V235H635.676V229.708C635.676 228.784 635.46 228.088 635.028 227.62C634.608 227.152 634.002 226.918 633.21 226.918C632.334 226.918 631.638 227.194 631.122 227.746C630.606 228.286 630.348 229.066 630.348 230.086V235H628.62V229.708C628.62 228.784 628.404 228.088 627.972 227.62C627.552 227.152 626.946 226.918 626.154 226.918C625.278 226.918 624.582 227.194 624.066 227.746C623.55 228.286 623.292 229.066 623.292 230.086V235H621.564V225.46H623.22V226.882C623.568 226.39 624.024 226.018 624.588 225.766C625.152 225.502 625.794 225.37 626.514 225.37C627.258 225.37 627.918 225.52 628.494 225.82C629.07 226.12 629.514 226.558 629.826 227.134C630.186 226.582 630.684 226.15 631.32 225.838C631.968 225.526 632.694 225.37 633.498 225.37Z" fill="black"/>
<path d="M654.844 225.46L651.28 235H649.624L646.87 227.764L644.08 235H642.424L638.878 225.46H640.516L643.288 233.056L646.168 225.46H647.626L650.452 233.092L653.296 225.46H654.844Z" fill="black"/>
<path d="M659.772 225.37C661.092 225.37 662.1 225.694 662.796 226.342C663.504 226.99 663.858 227.956 663.858 229.24V235H662.22V233.74C661.932 234.184 661.518 234.526 660.978 234.766C660.45 234.994 659.82 235.108 659.088 235.108C658.02 235.108 657.162 234.85 656.514 234.334C655.878 233.818 655.56 233.14 655.56 232.3C655.56 231.46 655.866 230.788 656.478 230.284C657.09 229.768 658.062 229.51 659.394 229.51H662.13V229.168C662.13 228.424 661.914 227.854 661.482 227.458C661.05 227.062 660.414 226.864 659.574 226.864C659.01 226.864 658.458 226.96 657.918 227.152C657.378 227.332 656.922 227.578 656.55 227.89L655.83 226.594C656.322 226.198 656.91 225.898 657.594 225.694C658.278 225.478 659.004 225.37 659.772 225.37ZM659.376 233.776C660.036 233.776 660.606 233.632 661.086 233.344C661.566 233.044 661.914 232.624 662.13 232.084V230.752H659.466C658.002 230.752 657.27 231.244 657.27 232.228C657.27 232.708 657.456 233.086 657.828 233.362C658.2 233.638 658.716 233.776 659.376 233.776Z" fill="black"/>
<path d="M668.712 227.062C669.012 226.51 669.456 226.09 670.044 225.802C670.632 225.514 671.346 225.37 672.186 225.37V227.044C672.09 227.032 671.958 227.026 671.79 227.026C670.854 227.026 670.116 227.308 669.576 227.872C669.048 228.424 668.784 229.216 668.784 230.248V235H667.056V225.46H668.712V227.062Z" fill="black"/>
<path d="M682.85 230.284C682.85 230.416 682.838 230.59 682.814 230.806H675.074C675.182 231.646 675.548 232.324 676.172 232.84C676.808 233.344 677.594 233.596 678.53 233.596C679.67 233.596 680.588 233.212 681.284 232.444L682.238 233.56C681.806 234.064 681.266 234.448 680.618 234.712C679.982 234.976 679.268 235.108 678.476 235.108C677.468 235.108 676.574 234.904 675.794 234.496C675.014 234.076 674.408 233.494 673.976 232.75C673.556 232.006 673.346 231.166 673.346 230.23C673.346 229.306 673.55 228.472 673.958 227.728C674.378 226.984 674.948 226.408 675.668 226C676.4 225.58 677.222 225.37 678.134 225.37C679.046 225.37 679.856 225.58 680.564 226C681.284 226.408 681.842 226.984 682.238 227.728C682.646 228.472 682.85 229.324 682.85 230.284ZM678.134 226.828C677.306 226.828 676.61 227.08 676.046 227.584C675.494 228.088 675.17 228.748 675.074 229.564H681.194C681.098 228.76 680.768 228.106 680.204 227.602C679.652 227.086 678.962 226.828 678.134 226.828Z" fill="black"/>
<path d="M76.723 181L76.705 172.648L72.565 179.56H71.521L67.381 172.756V181H65.149V168.4H67.075L72.079 176.752L76.993 168.4H78.919L78.937 181H76.723Z" fill="white"/>
<path d="M82.1245 171.388H84.3745V181H82.1245V171.388ZM83.2585 169.804C82.8505 169.804 82.5085 169.678 82.2325 169.426C81.9565 169.162 81.8185 168.838 81.8185 168.454C81.8185 168.07 81.9565 167.752 82.2325 167.5C82.5085 167.236 82.8505 167.104 83.2585 167.104C83.6665 167.104 84.0085 167.23 84.2845 167.482C84.5605 167.722 84.6985 168.028 84.6985 168.4C84.6985 168.796 84.5605 169.132 84.2845 169.408C84.0205 169.672 83.6785 169.804 83.2585 169.804Z" fill="white"/>
<path d="M96.7416 167.644V181H94.5816V179.758C94.2096 180.214 93.7476 180.556 93.1956 180.784C92.6556 181.012 92.0556 181.126 91.3956 181.126C90.4716 181.126 89.6376 180.922 88.8936 180.514C88.1616 180.106 87.5856 179.53 87.1656 178.786C86.7456 178.03 86.5356 177.166 86.5356 176.194C86.5356 175.222 86.7456 174.364 87.1656 173.62C87.5856 172.876 88.1616 172.3 88.8936 171.892C89.6376 171.484 90.4716 171.28 91.3956 171.28C92.0316 171.28 92.6136 171.388 93.1416 171.604C93.6696 171.82 94.1196 172.144 94.4916 172.576V167.644H96.7416ZM91.6656 179.2C92.2056 179.2 92.6916 179.08 93.1236 178.84C93.5556 178.588 93.8976 178.234 94.1496 177.778C94.4016 177.322 94.5276 176.794 94.5276 176.194C94.5276 175.594 94.4016 175.066 94.1496 174.61C93.8976 174.154 93.5556 173.806 93.1236 173.566C92.6916 173.314 92.2056 173.188 91.6656 173.188C91.1256 173.188 90.6396 173.314 90.2076 173.566C89.7756 173.806 89.4336 174.154 89.1816 174.61C88.9296 175.066 88.8036 175.594 88.8036 176.194C88.8036 176.794 88.9296 177.322 89.1816 177.778C89.4336 178.234 89.7756 178.588 90.2076 178.84C90.6396 179.08 91.1256 179.2 91.6656 179.2Z" fill="white"/>
<path d="M109.099 167.644V181H106.939V179.758C106.567 180.214 106.105 180.556 105.553 180.784C105.013 181.012 104.413 181.126 103.753 181.126C102.829 181.126 101.995 180.922 101.251 180.514C100.519 180.106 99.943 179.53 99.523 178.786C99.103 178.03 98.893 177.166 98.893 176.194C98.893 175.222 99.103 174.364 99.523 173.62C99.943 172.876 100.519 172.3 101.251 171.892C101.995 171.484 102.829 171.28 103.753 171.28C104.389 171.28 104.971 171.388 105.499 171.604C106.027 171.82 106.477 172.144 106.849 172.576V167.644H109.099ZM104.023 179.2C104.563 179.2 105.049 179.08 105.481 178.84C105.913 178.588 106.255 178.234 106.507 177.778C106.759 177.322 106.885 176.794 106.885 176.194C106.885 175.594 106.759 175.066 106.507 174.61C106.255 174.154 105.913 173.806 105.481 173.566C105.049 173.314 104.563 173.188 104.023 173.188C103.483 173.188 102.997 173.314 102.565 173.566C102.133 173.806 101.791 174.154 101.539 174.61C101.287 175.066 101.161 175.594 101.161 176.194C101.161 176.794 101.287 177.322 101.539 177.778C101.791 178.234 102.133 178.588 102.565 178.84C102.997 179.08 103.483 179.2 104.023 179.2Z" fill="white"/>
<path d="M112.042 167.644H114.292V181H112.042V167.644Z" fill="white"/>
<path d="M126.282 176.248C126.282 176.404 126.27 176.626 126.246 176.914H118.704C118.836 177.622 119.178 178.186 119.73 178.606C120.294 179.014 120.99 179.218 121.818 179.218C122.874 179.218 123.744 178.87 124.428 178.174L125.634 179.56C125.202 180.076 124.656 180.466 123.996 180.73C123.336 180.994 122.592 181.126 121.764 181.126C120.708 181.126 119.778 180.916 118.974 180.496C118.17 180.076 117.546 179.494 117.102 178.75C116.67 177.994 116.454 177.142 116.454 176.194C116.454 175.258 116.664 174.418 117.084 173.674C117.516 172.918 118.11 172.33 118.866 171.91C119.622 171.49 120.474 171.28 121.422 171.28C122.358 171.28 123.192 171.49 123.924 171.91C124.668 172.318 125.244 172.9 125.652 173.656C126.072 174.4 126.282 175.264 126.282 176.248ZM121.422 173.08C120.702 173.08 120.09 173.296 119.586 173.728C119.094 174.148 118.794 174.712 118.686 175.42H124.14C124.044 174.724 123.75 174.16 123.258 173.728C122.766 173.296 122.154 173.08 121.422 173.08Z" fill="white"/>
<path d="M143.261 171.388L139.715 181H137.555L135.071 174.376L132.551 181H130.391L126.863 171.388H128.987L131.525 178.48L134.171 171.388H136.061L138.653 178.516L141.263 171.388H143.261Z" fill="white"/>
<path d="M148.181 171.28C149.597 171.28 150.677 171.622 151.421 172.306C152.177 172.978 152.555 173.998 152.555 175.366V181H150.431V179.83C150.155 180.25 149.759 180.574 149.243 180.802C148.739 181.018 148.127 181.126 147.407 181.126C146.687 181.126 146.057 181.006 145.517 180.766C144.977 180.514 144.557 180.172 144.257 179.74C143.969 179.296 143.825 178.798 143.825 178.246C143.825 177.382 144.143 176.692 144.779 176.176C145.427 175.648 146.441 175.384 147.821 175.384H150.305V175.24C150.305 174.568 150.101 174.052 149.693 173.692C149.297 173.332 148.703 173.152 147.911 173.152C147.371 173.152 146.837 173.236 146.309 173.404C145.793 173.572 145.355 173.806 144.995 174.106L144.113 172.468C144.617 172.084 145.223 171.79 145.931 171.586C146.639 171.382 147.389 171.28 148.181 171.28ZM147.875 179.488C148.439 179.488 148.937 179.362 149.369 179.11C149.813 178.846 150.125 178.474 150.305 177.994V176.878H147.983C146.687 176.878 146.039 177.304 146.039 178.156C146.039 178.564 146.201 178.888 146.525 179.128C146.849 179.368 147.299 179.488 147.875 179.488Z" fill="white"/>
<path d="M157.585 172.792C158.233 171.784 159.373 171.28 161.005 171.28V173.422C160.813 173.386 160.639 173.368 160.483 173.368C159.607 173.368 158.923 173.626 158.431 174.142C157.939 174.646 157.693 175.378 157.693 176.338V181H155.443V171.388H157.585V172.792Z" fill="white"/>
<path d="M171.862 176.248C171.862 176.404 171.85 176.626 171.826 176.914H164.284C164.416 177.622 164.758 178.186 165.31 178.606C165.874 179.014 166.57 179.218 167.398 179.218C168.454 179.218 169.324 178.87 170.008 178.174L171.214 179.56C170.782 180.076 170.236 180.466 169.576 180.73C168.916 180.994 168.172 181.126 167.344 181.126C166.288 181.126 165.358 180.916 164.554 180.496C163.75 180.076 163.126 179.494 162.682 178.75C162.25 177.994 162.034 177.142 162.034 176.194C162.034 175.258 162.244 174.418 162.664 173.674C163.096 172.918 163.69 172.33 164.446 171.91C165.202 171.49 166.054 171.28 167.002 171.28C167.938 171.28 168.772 171.49 169.504 171.91C170.248 172.318 170.824 172.9 171.232 173.656C171.652 174.4 171.862 175.264 171.862 176.248ZM167.002 173.08C166.282 173.08 165.67 173.296 165.166 173.728C164.674 174.148 164.374 174.712 164.266 175.42H169.72C169.624 174.724 169.33 174.16 168.838 173.728C168.346 173.296 167.734 173.08 167.002 173.08Z" fill="white"/>
<path d="M184.481 174.16C184.481 178.012 186.083 180.892 188.027 182.8L189.737 182.044C187.937 180.1 186.515 177.616 186.515 174.16C186.515 170.704 187.937 168.22 189.737 166.276L188.027 165.52C186.083 167.428 184.481 170.308 184.481 174.16Z" fill="white"/>
<path d="M197.657 181.18C195.917 181.18 194.561 180.694 193.589 179.722C192.617 178.738 192.131 177.334 192.131 175.51V168.4H194.471V175.42C194.471 177.892 195.539 179.128 197.675 179.128C199.799 179.128 200.861 177.892 200.861 175.42V168.4H203.165V175.51C203.165 177.334 202.679 178.738 201.707 179.722C200.747 180.694 199.397 181.18 197.657 181.18Z" fill="white"/>
<path d="M217.638 168.4V181H215.712L208.764 172.468V181H206.442V168.4H208.368L215.316 176.932V168.4H217.638Z" fill="white"/>
<path d="M220.798 171.388H223.048V181H220.798V171.388ZM221.932 169.804C221.524 169.804 221.182 169.678 220.906 169.426C220.63 169.162 220.492 168.838 220.492 168.454C220.492 168.07 220.63 167.752 220.906 167.5C221.182 167.236 221.524 167.104 221.932 167.104C222.34 167.104 222.682 167.23 222.958 167.482C223.234 167.722 223.372 168.028 223.372 168.4C223.372 168.796 223.234 169.132 222.958 169.408C222.694 169.672 222.352 169.804 221.932 169.804Z" fill="white"/>
<path d="M226.217 168.4H231.725C233.069 168.4 234.263 168.664 235.307 169.192C236.351 169.708 237.161 170.446 237.737 171.406C238.313 172.354 238.601 173.452 238.601 174.7C238.601 175.948 238.313 177.052 237.737 178.012C237.161 178.96 236.351 179.698 235.307 180.226C234.263 180.742 233.069 181 231.725 181H226.217V168.4ZM231.617 179.02C232.541 179.02 233.351 178.846 234.047 178.498C234.755 178.138 235.295 177.634 235.667 176.986C236.051 176.326 236.243 175.564 236.243 174.7C236.243 173.836 236.051 173.08 235.667 172.432C235.295 171.772 234.755 171.268 234.047 170.92C233.351 170.56 232.541 170.38 231.617 170.38H228.557V179.02H231.617Z" fill="white"/>
<path d="M255.513 179.038V181H246.063V168.4H255.261V170.362H248.403V173.638H254.487V175.564H248.403V179.038H255.513Z" fill="white"/>
<path d="M258.122 168.4H263.63C264.974 168.4 266.168 168.664 267.212 169.192C268.256 169.708 269.066 170.446 269.642 171.406C270.218 172.354 270.506 173.452 270.506 174.7C270.506 175.948 270.218 177.052 269.642 178.012C269.066 178.96 268.256 179.698 267.212 180.226C266.168 180.742 264.974 181 263.63 181H258.122V168.4ZM263.522 179.02C264.446 179.02 265.256 178.846 265.952 178.498C266.66 178.138 267.2 177.634 267.572 176.986C267.956 176.326 268.148 175.564 268.148 174.7C268.148 173.836 267.956 173.08 267.572 172.432C267.2 171.772 266.66 171.268 265.952 170.92C265.256 170.56 264.446 170.38 263.522 170.38H260.462V179.02H263.522Z" fill="white"/>
<path d="M281.597 174.556H283.811V179.578C283.163 180.094 282.407 180.49 281.543 180.766C280.679 181.042 279.791 181.18 278.879 181.18C277.595 181.18 276.437 180.904 275.405 180.352C274.373 179.788 273.563 179.014 272.975 178.03C272.387 177.046 272.093 175.936 272.093 174.7C272.093 173.464 272.387 172.354 272.975 171.37C273.563 170.386 274.373 169.618 275.405 169.066C276.449 168.502 277.619 168.22 278.915 168.22C279.971 168.22 280.931 168.394 281.795 168.742C282.659 169.09 283.385 169.6 283.973 170.272L282.497 171.712C281.537 170.752 280.379 170.272 279.023 170.272C278.135 170.272 277.343 170.458 276.647 170.83C275.963 171.202 275.423 171.724 275.027 172.396C274.643 173.068 274.451 173.836 274.451 174.7C274.451 175.54 274.643 176.296 275.027 176.968C275.423 177.64 275.963 178.168 276.647 178.552C277.343 178.936 278.129 179.128 279.005 179.128C279.989 179.128 280.853 178.912 281.597 178.48V174.556Z" fill="white"/>
<path d="M296.347 179.038V181H286.897V168.4H296.095V170.362H289.237V173.638H295.321V175.564H289.237V179.038H296.347Z" fill="white"/>
<path d="M307.836 181.18C306.864 181.18 305.922 181.042 305.01 180.766C304.11 180.49 303.396 180.124 302.868 179.668L303.678 177.85C304.194 178.258 304.824 178.594 305.568 178.858C306.324 179.11 307.08 179.236 307.836 179.236C308.772 179.236 309.468 179.086 309.924 178.786C310.392 178.486 310.626 178.09 310.626 177.598C310.626 177.238 310.494 176.944 310.23 176.716C309.978 176.476 309.654 176.29 309.258 176.158C308.862 176.026 308.322 175.876 307.638 175.708C306.678 175.48 305.898 175.252 305.298 175.024C304.71 174.796 304.2 174.442 303.768 173.962C303.348 173.47 303.138 172.81 303.138 171.982C303.138 171.286 303.324 170.656 303.696 170.092C304.08 169.516 304.65 169.06 305.406 168.724C306.174 168.388 307.11 168.22 308.214 168.22C308.982 168.22 309.738 168.316 310.482 168.508C311.226 168.7 311.868 168.976 312.408 169.336L311.67 171.154C311.118 170.83 310.542 170.584 309.942 170.416C309.342 170.248 308.76 170.164 308.196 170.164C307.272 170.164 306.582 170.32 306.126 170.632C305.682 170.944 305.46 171.358 305.46 171.874C305.46 172.234 305.586 172.528 305.838 172.756C306.102 172.984 306.432 173.164 306.828 173.296C307.224 173.428 307.764 173.578 308.448 173.746C309.384 173.962 310.152 174.19 310.752 174.43C311.352 174.658 311.862 175.012 312.282 175.492C312.714 175.972 312.93 176.62 312.93 177.436C312.93 178.132 312.738 178.762 312.354 179.326C311.982 179.89 311.412 180.34 310.644 180.676C309.876 181.012 308.94 181.18 307.836 181.18Z" fill="white"/>
<path d="M315.251 168.4H320.759C322.103 168.4 323.297 168.664 324.341 169.192C325.385 169.708 326.195 170.446 326.771 171.406C327.347 172.354 327.635 173.452 327.635 174.7C327.635 175.948 327.347 177.052 326.771 178.012C326.195 178.96 325.385 179.698 324.341 180.226C323.297 180.742 322.103 181 320.759 181H315.251V168.4ZM320.651 179.02C321.575 179.02 322.385 178.846 323.081 178.498C323.789 178.138 324.329 177.634 324.701 176.986C325.085 176.326 325.277 175.564 325.277 174.7C325.277 173.836 325.085 173.08 324.701 172.432C324.329 171.772 323.789 171.268 323.081 170.92C322.385 170.56 321.575 170.38 320.651 170.38H317.591V179.02H320.651Z" fill="white"/>
<path d="M334.46 175.726L332.462 177.778V181H330.122V168.4H332.462V174.862L338.69 168.4H341.318L336.026 174.034L341.642 181H338.906L334.46 175.726Z" fill="white"/>
<path d="M347.609 174.16C347.609 170.308 346.007 167.428 344.063 165.52L342.353 166.276C344.153 168.22 345.575 170.704 345.575 174.16C345.575 177.616 344.153 180.1 342.353 182.044L344.063 182.8C346.007 180.892 347.609 178.012 347.609 174.16Z" fill="white"/>
<path d="M787.05 331C780.948 331 776 336.075 776 342.333C776 343.723 776.257 345.048 776.703 346.279L766.9 356.333V363H773.4V359H777.3V355H781.2L783.203 352.945C784.403 353.403 785.695 353.667 787.05 353.667C793.152 353.667 798.1 348.592 798.1 342.333C798.1 336.075 793.152 331 787.05 331ZM789.65 336.333C791.445 336.333 792.9 337.825 792.9 339.667C792.9 341.508 791.445 343 789.65 343C787.855 343 786.4 341.508 786.4 339.667C786.4 337.825 787.855 336.333 789.65 336.333Z" fill="#376BC3"/>
<path d="M151.762 32H149.125L143.992 23.5801V32H141.355V19.2031H143.992L149.134 27.6406V19.2031H151.762V32Z" fill="black"/>
<path d="M153.502 27.1572C153.502 26.2139 153.684 25.373 154.047 24.6348C154.41 23.8965 154.932 23.3252 155.611 22.9209C156.297 22.5166 157.091 22.3145 157.993 22.3145C159.276 22.3145 160.322 22.707 161.131 23.4922C161.945 24.2773 162.399 25.3438 162.493 26.6914L162.511 27.3418C162.511 28.8008 162.104 29.9727 161.289 30.8574C160.475 31.7363 159.382 32.1758 158.011 32.1758C156.64 32.1758 155.544 31.7363 154.724 30.8574C153.909 29.9785 153.502 28.7832 153.502 27.2715V27.1572ZM156.042 27.3418C156.042 28.2441 156.212 28.9355 156.552 29.416C156.892 29.8906 157.378 30.1279 158.011 30.1279C158.626 30.1279 159.106 29.8936 159.452 29.4248C159.798 28.9502 159.971 28.1943 159.971 27.1572C159.971 26.2725 159.798 25.5869 159.452 25.1006C159.106 24.6143 158.62 24.3711 157.993 24.3711C157.372 24.3711 156.892 24.6143 156.552 25.1006C156.212 25.5811 156.042 26.3281 156.042 27.3418Z" fill="black"/>
<path d="M166.413 22.4902L166.492 23.5889C167.172 22.7393 168.083 22.3145 169.226 22.3145C170.233 22.3145 170.983 22.6104 171.476 23.2021C171.968 23.7939 172.22 24.6787 172.231 25.8564V32H169.691V25.918C169.691 25.3789 169.574 24.9893 169.34 24.749C169.105 24.5029 168.716 24.3799 168.171 24.3799C167.456 24.3799 166.92 24.6846 166.562 25.2939V32H164.022V22.4902H166.413Z" fill="black"/>
<path d="M179.104 27.5439H174.156V25.4961H179.104V27.5439Z" fill="black"/>
<path d="M187.946 28.6426C187.946 28.1445 187.771 27.7637 187.419 27.5C187.067 27.2305 186.435 26.9492 185.521 26.6562C184.606 26.3574 183.883 26.0645 183.35 25.7773C181.896 24.9922 181.17 23.9346 181.17 22.6045C181.17 21.9131 181.363 21.2979 181.75 20.7588C182.143 20.2139 182.702 19.7891 183.429 19.4844C184.161 19.1797 184.981 19.0273 185.89 19.0273C186.804 19.0273 187.618 19.1943 188.333 19.5283C189.048 19.8564 189.602 20.3223 189.994 20.9258C190.393 21.5293 190.592 22.2148 190.592 22.9824H187.955C187.955 22.3965 187.771 21.9424 187.401 21.6201C187.032 21.292 186.514 21.1279 185.846 21.1279C185.201 21.1279 184.7 21.2656 184.343 21.541C183.985 21.8105 183.807 22.168 183.807 22.6133C183.807 23.0293 184.015 23.3779 184.431 23.6592C184.853 23.9404 185.471 24.2041 186.285 24.4502C187.785 24.9014 188.878 25.4609 189.563 26.1289C190.249 26.7969 190.592 27.6289 190.592 28.625C190.592 29.7324 190.173 30.6025 189.335 31.2354C188.497 31.8623 187.369 32.1758 185.951 32.1758C184.967 32.1758 184.07 31.9971 183.262 31.6396C182.453 31.2764 181.835 30.7812 181.407 30.1543C180.985 29.5273 180.774 28.8008 180.774 27.9746H183.42C183.42 29.3867 184.264 30.0928 185.951 30.0928C186.578 30.0928 187.067 29.9668 187.419 29.7148C187.771 29.457 187.946 29.0996 187.946 28.6426Z" fill="black"/>
<path d="M196.595 32.1758C195.2 32.1758 194.063 31.748 193.185 30.8926C192.312 30.0371 191.875 28.8975 191.875 27.4736V27.2275C191.875 26.2725 192.06 25.4199 192.429 24.6699C192.798 23.9141 193.319 23.334 193.993 22.9297C194.673 22.5195 195.446 22.3145 196.313 22.3145C197.614 22.3145 198.637 22.7246 199.381 23.5449C200.131 24.3652 200.506 25.5283 200.506 27.0342V28.0713H194.45C194.532 28.6924 194.778 29.1904 195.188 29.5654C195.604 29.9404 196.129 30.1279 196.762 30.1279C197.74 30.1279 198.505 29.7734 199.056 29.0645L200.304 30.4619C199.923 31.001 199.407 31.4229 198.757 31.7275C198.106 32.0264 197.386 32.1758 196.595 32.1758ZM196.305 24.3711C195.801 24.3711 195.391 24.541 195.074 24.8809C194.764 25.2207 194.564 25.707 194.477 26.3398H198.01V26.1377C197.998 25.5752 197.846 25.1416 197.553 24.8369C197.26 24.5264 196.844 24.3711 196.305 24.3711Z" fill="black"/>
<path d="M205.911 30.1279C206.38 30.1279 206.761 29.999 207.054 29.7412C207.347 29.4834 207.499 29.1406 207.511 28.7129H209.893C209.887 29.3574 209.711 29.9492 209.365 30.4883C209.02 31.0215 208.545 31.4375 207.941 31.7363C207.344 32.0293 206.682 32.1758 205.955 32.1758C204.596 32.1758 203.523 31.7451 202.738 30.8838C201.953 30.0166 201.561 28.8213 201.561 27.2979V27.1309C201.561 25.666 201.95 24.4971 202.729 23.624C203.509 22.751 204.578 22.3145 205.938 22.3145C207.127 22.3145 208.079 22.6543 208.794 23.334C209.515 24.0078 209.881 24.9072 209.893 26.0322H207.511C207.499 25.54 207.347 25.1416 207.054 24.8369C206.761 24.5264 206.374 24.3711 205.894 24.3711C205.302 24.3711 204.854 24.5879 204.549 25.0215C204.25 25.4492 204.101 26.1465 204.101 27.1133V27.377C204.101 28.3555 204.25 29.0586 204.549 29.4863C204.848 29.9141 205.302 30.1279 205.911 30.1279Z" fill="black"/>
<path d="M217.038 31.0332C216.411 31.7949 215.544 32.1758 214.437 32.1758C213.417 32.1758 212.638 31.8828 212.099 31.2969C211.565 30.7109 211.293 29.8525 211.281 28.7217V22.4902H213.821V28.6338C213.821 29.624 214.272 30.1191 215.175 30.1191C216.036 30.1191 216.628 29.8203 216.95 29.2227V22.4902H219.499V32H217.108L217.038 31.0332Z" fill="black"/>
<path d="M226.759 24.8721C226.413 24.8252 226.108 24.8018 225.845 24.8018C224.884 24.8018 224.254 25.127 223.955 25.7773V32H221.415V22.4902H223.814L223.885 23.624C224.395 22.751 225.101 22.3145 226.003 22.3145C226.284 22.3145 226.548 22.3525 226.794 22.4287L226.759 24.8721Z" fill="black"/>
<path d="M232.19 32.1758C230.796 32.1758 229.659 31.748 228.78 30.8926C227.907 30.0371 227.471 28.8975 227.471 27.4736V27.2275C227.471 26.2725 227.655 25.4199 228.024 24.6699C228.394 23.9141 228.915 23.334 229.589 22.9297C230.269 22.5195 231.042 22.3145 231.909 22.3145C233.21 22.3145 234.232 22.7246 234.977 23.5449C235.727 24.3652 236.102 25.5283 236.102 27.0342V28.0713H230.046C230.128 28.6924 230.374 29.1904 230.784 29.5654C231.2 29.9404 231.725 30.1279 232.357 30.1279C233.336 30.1279 234.101 29.7734 234.651 29.0645L235.899 30.4619C235.519 31.001 235.003 31.4229 234.353 31.7275C233.702 32.0264 232.981 32.1758 232.19 32.1758ZM231.9 24.3711C231.396 24.3711 230.986 24.541 230.67 24.8809C230.359 25.2207 230.16 25.707 230.072 26.3398H233.605V26.1377C233.594 25.5752 233.441 25.1416 233.148 24.8369C232.855 24.5264 232.439 24.3711 231.9 24.3711Z" fill="black"/>
<path d="M244.996 29.8818H251.447V32H241.7V30.4531L248.028 21.3389H241.709V19.2031H251.307V20.7148L244.996 29.8818Z" fill="black"/>
<path d="M252.361 27.1572C252.361 26.2139 252.543 25.373 252.906 24.6348C253.27 23.8965 253.791 23.3252 254.471 22.9209C255.156 22.5166 255.95 22.3145 256.853 22.3145C258.136 22.3145 259.182 22.707 259.99 23.4922C260.805 24.2773 261.259 25.3438 261.353 26.6914L261.37 27.3418C261.37 28.8008 260.963 29.9727 260.148 30.8574C259.334 31.7363 258.241 32.1758 256.87 32.1758C255.499 32.1758 254.403 31.7363 253.583 30.8574C252.769 29.9785 252.361 28.7832 252.361 27.2715V27.1572ZM254.901 27.3418C254.901 28.2441 255.071 28.9355 255.411 29.416C255.751 29.8906 256.237 30.1279 256.87 30.1279C257.485 30.1279 257.966 29.8936 258.312 29.4248C258.657 28.9502 258.83 28.1943 258.83 27.1572C258.83 26.2725 258.657 25.5869 258.312 25.1006C257.966 24.6143 257.479 24.3711 256.853 24.3711C256.231 24.3711 255.751 24.6143 255.411 25.1006C255.071 25.5811 254.901 26.3281 254.901 27.3418Z" fill="black"/>
<path d="M265.272 22.4902L265.352 23.5889C266.031 22.7393 266.942 22.3145 268.085 22.3145C269.093 22.3145 269.843 22.6104 270.335 23.2021C270.827 23.7939 271.079 24.6787 271.091 25.8564V32H268.551V25.918C268.551 25.3789 268.434 24.9893 268.199 24.749C267.965 24.5029 267.575 24.3799 267.03 24.3799C266.315 24.3799 265.779 24.6846 265.422 25.2939V32H262.882V22.4902H265.272Z" fill="black"/>
<path d="M277.401 32.1758C276.007 32.1758 274.87 31.748 273.991 30.8926C273.118 30.0371 272.682 28.8975 272.682 27.4736V27.2275C272.682 26.2725 272.866 25.4199 273.235 24.6699C273.604 23.9141 274.126 23.334 274.8 22.9297C275.479 22.5195 276.253 22.3145 277.12 22.3145C278.421 22.3145 279.443 22.7246 280.188 23.5449C280.938 24.3652 281.312 25.5283 281.312 27.0342V28.0713H275.257C275.339 28.6924 275.585 29.1904 275.995 29.5654C276.411 29.9404 276.936 30.1279 277.568 30.1279C278.547 30.1279 279.312 29.7734 279.862 29.0645L281.11 30.4619C280.729 31.001 280.214 31.4229 279.563 31.7275C278.913 32.0264 278.192 32.1758 277.401 32.1758ZM277.111 24.3711C276.607 24.3711 276.197 24.541 275.881 24.8809C275.57 25.2207 275.371 25.707 275.283 26.3398H278.816V26.1377C278.805 25.5752 278.652 25.1416 278.359 24.8369C278.066 24.5264 277.65 24.3711 277.111 24.3711Z" fill="black"/>
<path d="M596.969 28.6426C596.969 28.1445 596.793 27.7637 596.441 27.5C596.09 27.2305 595.457 26.9492 594.543 26.6562C593.629 26.3574 592.905 26.0645 592.372 25.7773C590.919 24.9922 590.192 23.9346 590.192 22.6045C590.192 21.9131 590.386 21.2979 590.772 20.7588C591.165 20.2139 591.725 19.7891 592.451 19.4844C593.184 19.1797 594.004 19.0273 594.912 19.0273C595.826 19.0273 596.641 19.1943 597.355 19.5283C598.07 19.8564 598.624 20.3223 599.017 20.9258C599.415 21.5293 599.614 22.2148 599.614 22.9824H596.978C596.978 22.3965 596.793 21.9424 596.424 21.6201C596.055 21.292 595.536 21.1279 594.868 21.1279C594.224 21.1279 593.723 21.2656 593.365 21.541C593.008 21.8105 592.829 22.168 592.829 22.6133C592.829 23.0293 593.037 23.3779 593.453 23.6592C593.875 23.9404 594.493 24.2041 595.308 24.4502C596.808 24.9014 597.9 25.4609 598.586 26.1289C599.271 26.7969 599.614 27.6289 599.614 28.625C599.614 29.7324 599.195 30.6025 598.357 31.2354C597.52 31.8623 596.392 32.1758 594.974 32.1758C593.989 32.1758 593.093 31.9971 592.284 31.6396C591.476 31.2764 590.857 30.7812 590.43 30.1543C590.008 29.5273 589.797 28.8008 589.797 27.9746H592.442C592.442 29.3867 593.286 30.0928 594.974 30.0928C595.601 30.0928 596.09 29.9668 596.441 29.7148C596.793 29.457 596.969 29.0996 596.969 28.6426Z" fill="black"/>
<path d="M605.617 32.1758C604.223 32.1758 603.086 31.748 602.207 30.8926C601.334 30.0371 600.897 28.8975 600.897 27.4736V27.2275C600.897 26.2725 601.082 25.4199 601.451 24.6699C601.82 23.9141 602.342 23.334 603.016 22.9297C603.695 22.5195 604.469 22.3145 605.336 22.3145C606.637 22.3145 607.659 22.7246 608.403 23.5449C609.153 24.3652 609.528 25.5283 609.528 27.0342V28.0713H603.473C603.555 28.6924 603.801 29.1904 604.211 29.5654C604.627 29.9404 605.151 30.1279 605.784 30.1279C606.763 30.1279 607.527 29.7734 608.078 29.0645L609.326 30.4619C608.945 31.001 608.43 31.4229 607.779 31.7275C607.129 32.0264 606.408 32.1758 605.617 32.1758ZM605.327 24.3711C604.823 24.3711 604.413 24.541 604.097 24.8809C603.786 25.2207 603.587 25.707 603.499 26.3398H607.032V26.1377C607.021 25.5752 606.868 25.1416 606.575 24.8369C606.282 24.5264 605.866 24.3711 605.327 24.3711Z" fill="black"/>
<path d="M614.934 30.1279C615.402 30.1279 615.783 29.999 616.076 29.7412C616.369 29.4834 616.521 29.1406 616.533 28.7129H618.915C618.909 29.3574 618.733 29.9492 618.388 30.4883C618.042 31.0215 617.567 31.4375 616.964 31.7363C616.366 32.0293 615.704 32.1758 614.978 32.1758C613.618 32.1758 612.546 31.7451 611.761 30.8838C610.976 30.0166 610.583 28.8213 610.583 27.2979V27.1309C610.583 25.666 610.973 24.4971 611.752 23.624C612.531 22.751 613.601 22.3145 614.96 22.3145C616.149 22.3145 617.102 22.6543 617.816 23.334C618.537 24.0078 618.903 24.9072 618.915 26.0322H616.533C616.521 25.54 616.369 25.1416 616.076 24.8369C615.783 24.5264 615.396 24.3711 614.916 24.3711C614.324 24.3711 613.876 24.5879 613.571 25.0215C613.272 25.4492 613.123 26.1465 613.123 27.1133V27.377C613.123 28.3555 613.272 29.0586 613.571 29.4863C613.87 29.9141 614.324 30.1279 614.934 30.1279Z" fill="black"/>
<path d="M626.061 31.0332C625.434 31.7949 624.566 32.1758 623.459 32.1758C622.439 32.1758 621.66 31.8828 621.121 31.2969C620.588 30.7109 620.315 29.8525 620.304 28.7217V22.4902H622.844V28.6338C622.844 29.624 623.295 30.1191 624.197 30.1191C625.059 30.1191 625.65 29.8203 625.973 29.2227V22.4902H628.521V32H626.131L626.061 31.0332Z" fill="black"/>
<path d="M635.781 24.8721C635.436 24.8252 635.131 24.8018 634.867 24.8018C633.906 24.8018 633.276 25.127 632.978 25.7773V32H630.438V22.4902H632.837L632.907 23.624C633.417 22.751 634.123 22.3145 635.025 22.3145C635.307 22.3145 635.57 22.3525 635.816 22.4287L635.781 24.8721Z" fill="black"/>
<path d="M641.213 32.1758C639.818 32.1758 638.682 31.748 637.803 30.8926C636.93 30.0371 636.493 28.8975 636.493 27.4736V27.2275C636.493 26.2725 636.678 25.4199 637.047 24.6699C637.416 23.9141 637.938 23.334 638.611 22.9297C639.291 22.5195 640.064 22.3145 640.932 22.3145C642.232 22.3145 643.255 22.7246 643.999 23.5449C644.749 24.3652 645.124 25.5283 645.124 27.0342V28.0713H639.068C639.15 28.6924 639.396 29.1904 639.807 29.5654C640.223 29.9404 640.747 30.1279 641.38 30.1279C642.358 30.1279 643.123 29.7734 643.674 29.0645L644.922 30.4619C644.541 31.001 644.025 31.4229 643.375 31.7275C642.725 32.0264 642.004 32.1758 641.213 32.1758ZM640.923 24.3711C640.419 24.3711 640.009 24.541 639.692 24.8809C639.382 25.2207 639.183 25.707 639.095 26.3398H642.628V26.1377C642.616 25.5752 642.464 25.1416 642.171 24.8369C641.878 24.5264 641.462 24.3711 640.923 24.3711Z" fill="black"/>
<path d="M654.019 29.8818H660.47V32H650.723V30.4531L657.051 21.3389H650.731V19.2031H660.329V20.7148L654.019 29.8818Z" fill="black"/>
<path d="M661.384 27.1572C661.384 26.2139 661.565 25.373 661.929 24.6348C662.292 23.8965 662.813 23.3252 663.493 22.9209C664.179 22.5166 664.973 22.3145 665.875 22.3145C667.158 22.3145 668.204 22.707 669.013 23.4922C669.827 24.2773 670.281 25.3438 670.375 26.6914L670.393 27.3418C670.393 28.8008 669.985 29.9727 669.171 30.8574C668.356 31.7363 667.264 32.1758 665.893 32.1758C664.521 32.1758 663.426 31.7363 662.605 30.8574C661.791 29.9785 661.384 28.7832 661.384 27.2715V27.1572ZM663.924 27.3418C663.924 28.2441 664.094 28.9355 664.434 29.416C664.773 29.8906 665.26 30.1279 665.893 30.1279C666.508 30.1279 666.988 29.8936 667.334 29.4248C667.68 28.9502 667.853 28.1943 667.853 27.1572C667.853 26.2725 667.68 25.5869 667.334 25.1006C666.988 24.6143 666.502 24.3711 665.875 24.3711C665.254 24.3711 664.773 24.6143 664.434 25.1006C664.094 25.5811 663.924 26.3281 663.924 27.3418Z" fill="black"/>
<path d="M674.295 22.4902L674.374 23.5889C675.054 22.7393 675.965 22.3145 677.107 22.3145C678.115 22.3145 678.865 22.6104 679.357 23.2021C679.85 23.7939 680.102 24.6787 680.113 25.8564V32H677.573V25.918C677.573 25.3789 677.456 24.9893 677.222 24.749C676.987 24.5029 676.598 24.3799 676.053 24.3799C675.338 24.3799 674.802 24.6846 674.444 25.2939V32H671.904V22.4902H674.295Z" fill="black"/>
<path d="M686.424 32.1758C685.029 32.1758 683.893 31.748 683.014 30.8926C682.141 30.0371 681.704 28.8975 681.704 27.4736V27.2275C681.704 26.2725 681.889 25.4199 682.258 24.6699C682.627 23.9141 683.148 23.334 683.822 22.9297C684.502 22.5195 685.275 22.3145 686.143 22.3145C687.443 22.3145 688.466 22.7246 689.21 23.5449C689.96 24.3652 690.335 25.5283 690.335 27.0342V28.0713H684.279C684.361 28.6924 684.607 29.1904 685.018 29.5654C685.434 29.9404 685.958 30.1279 686.591 30.1279C687.569 30.1279 688.334 29.7734 688.885 29.0645L690.133 30.4619C689.752 31.001 689.236 31.4229 688.586 31.7275C687.936 32.0264 687.215 32.1758 686.424 32.1758ZM686.134 24.3711C685.63 24.3711 685.22 24.541 684.903 24.8809C684.593 25.2207 684.394 25.707 684.306 26.3398H687.839V26.1377C687.827 25.5752 687.675 25.1416 687.382 24.8369C687.089 24.5264 686.673 24.3711 686.134 24.3711Z" fill="black"/>
</svg>
