<svg width="646" height="870" viewBox="0 0 646 870" fill="none" xmlns="http://www.w3.org/2000/svg">
<rect x="10" y="723" width="270" height="138" fill="#F6F6F6"/>
<rect x="0.5" y="713.5" width="290" height="156" stroke="black" stroke-dasharray="2 2"/>
<path d="M73.2976 802.336C70.4976 802.336 68.3136 801.561 66.7456 800.012C65.1963 798.463 64.4216 796.251 64.4216 793.376V782.4H68.9576V793.208C68.9576 796.717 70.4136 798.472 73.3256 798.472C74.7443 798.472 75.827 798.052 76.5736 797.212C77.3203 796.353 77.6936 795.019 77.6936 793.208V782.4H82.1736V793.376C82.1736 796.251 81.3896 798.463 79.8216 800.012C78.2723 801.561 76.0976 802.336 73.2976 802.336Z" fill="black"/>
<path d="M104.632 782.4V802H100.908L91.136 790.1V802H86.656V782.4H90.408L100.152 794.3V782.4H104.632Z" fill="black"/>
<path d="M108.961 786.936H113.329V802H108.961V786.936ZM111.145 784.836C110.343 784.836 109.689 784.603 109.185 784.136C108.681 783.669 108.429 783.091 108.429 782.4C108.429 781.709 108.681 781.131 109.185 780.664C109.689 780.197 110.343 779.964 111.145 779.964C111.948 779.964 112.601 780.188 113.105 780.636C113.609 781.084 113.861 781.644 113.861 782.316C113.861 783.044 113.609 783.651 113.105 784.136C112.601 784.603 111.948 784.836 111.145 784.836Z" fill="black"/>
<path d="M117.691 782.4H126.595C128.723 782.4 130.599 782.811 132.223 783.632C133.866 784.435 135.135 785.573 136.031 787.048C136.946 788.523 137.403 790.24 137.403 792.2C137.403 794.16 136.946 795.877 136.031 797.352C135.135 798.827 133.866 799.975 132.223 800.796C130.599 801.599 128.723 802 126.595 802H117.691V782.4ZM126.371 798.276C128.331 798.276 129.89 797.735 131.047 796.652C132.223 795.551 132.811 794.067 132.811 792.2C132.811 790.333 132.223 788.859 131.047 787.776C129.89 786.675 128.331 786.124 126.371 786.124H122.227V798.276H126.371Z" fill="black"/>
<path d="M163.93 798.36V802H148.754V782.4H163.566V786.04H153.262V790.296H162.362V793.824H153.262V798.36H163.93Z" fill="black"/>
<path d="M167.539 782.4H176.443C178.571 782.4 180.447 782.811 182.071 783.632C183.714 784.435 184.983 785.573 185.879 787.048C186.794 788.523 187.251 790.24 187.251 792.2C187.251 794.16 186.794 795.877 185.879 797.352C184.983 798.827 183.714 799.975 182.071 800.796C180.447 801.599 178.571 802 176.443 802H167.539V782.4ZM176.219 798.276C178.179 798.276 179.738 797.735 180.895 796.652C182.071 795.551 182.659 794.067 182.659 792.2C182.659 790.333 182.071 788.859 180.895 787.776C179.738 786.675 178.179 786.124 176.219 786.124H172.075V798.276H176.219Z" fill="black"/>
<path d="M203.916 791.892H208.06V799.844C206.996 800.647 205.764 801.263 204.364 801.692C202.964 802.121 201.554 802.336 200.136 802.336C198.101 802.336 196.272 801.907 194.648 801.048C193.024 800.171 191.745 798.967 190.812 797.436C189.897 795.887 189.44 794.141 189.44 792.2C189.44 790.259 189.897 788.523 190.812 786.992C191.745 785.443 193.033 784.239 194.676 783.38C196.318 782.503 198.166 782.064 200.22 782.064C201.937 782.064 203.496 782.353 204.896 782.932C206.296 783.511 207.472 784.351 208.424 785.452L205.512 788.14C204.112 786.665 202.422 785.928 200.444 785.928C199.193 785.928 198.082 786.189 197.112 786.712C196.141 787.235 195.385 787.972 194.844 788.924C194.302 789.876 194.032 790.968 194.032 792.2C194.032 793.413 194.302 794.496 194.844 795.448C195.385 796.4 196.132 797.147 197.084 797.688C198.054 798.211 199.156 798.472 200.388 798.472C201.694 798.472 202.87 798.192 203.916 797.632V791.892Z" fill="black"/>
<path d="M227.449 798.36V802H212.273V782.4H227.085V786.04H216.781V790.296H225.881V793.824H216.781V798.36H227.449Z" fill="black"/>
<rect x="365" y="723" width="270" height="138" fill="#F6F6F6"/>
<rect x="355.5" y="713.5" width="290" height="156" stroke="black" stroke-dasharray="2 2"/>
<path d="M428.298 802.336C425.498 802.336 423.314 801.561 421.746 800.012C420.196 798.463 419.422 796.251 419.422 793.376V782.4H423.958V793.208C423.958 796.717 425.414 798.472 428.326 798.472C429.744 798.472 430.827 798.052 431.574 797.212C432.32 796.353 432.694 795.019 432.694 793.208V782.4H437.174V793.376C437.174 796.251 436.39 798.463 434.822 800.012C433.272 801.561 431.098 802.336 428.298 802.336Z" fill="black"/>
<path d="M459.632 782.4V802H455.908L446.136 790.1V802H441.656V782.4H445.408L455.152 794.3V782.4H459.632Z" fill="black"/>
<path d="M463.961 786.936H468.329V802H463.961V786.936ZM466.145 784.836C465.343 784.836 464.689 784.603 464.185 784.136C463.681 783.669 463.429 783.091 463.429 782.4C463.429 781.709 463.681 781.131 464.185 780.664C464.689 780.197 465.343 779.964 466.145 779.964C466.948 779.964 467.601 780.188 468.105 780.636C468.609 781.084 468.861 781.644 468.861 782.316C468.861 783.044 468.609 783.651 468.105 784.136C467.601 784.603 466.948 784.836 466.145 784.836Z" fill="black"/>
<path d="M472.691 782.4H481.595C483.723 782.4 485.599 782.811 487.223 783.632C488.866 784.435 490.135 785.573 491.031 787.048C491.946 788.523 492.403 790.24 492.403 792.2C492.403 794.16 491.946 795.877 491.031 797.352C490.135 798.827 488.866 799.975 487.223 800.796C485.599 801.599 483.723 802 481.595 802H472.691V782.4ZM481.371 798.276C483.331 798.276 484.89 797.735 486.047 796.652C487.223 795.551 487.811 794.067 487.811 792.2C487.811 790.333 487.223 788.859 486.047 787.776C484.89 786.675 483.331 786.124 481.371 786.124H477.227V798.276H481.371Z" fill="black"/>
<path d="M518.93 798.36V802H503.754V782.4H518.566V786.04H508.262V790.296H517.362V793.824H508.262V798.36H518.93Z" fill="black"/>
<path d="M522.539 782.4H531.443C533.571 782.4 535.447 782.811 537.071 783.632C538.714 784.435 539.983 785.573 540.879 787.048C541.794 788.523 542.251 790.24 542.251 792.2C542.251 794.16 541.794 795.877 540.879 797.352C539.983 798.827 538.714 799.975 537.071 800.796C535.447 801.599 533.571 802 531.443 802H522.539V782.4ZM531.219 798.276C533.179 798.276 534.738 797.735 535.895 796.652C537.071 795.551 537.659 794.067 537.659 792.2C537.659 790.333 537.071 788.859 535.895 787.776C534.738 786.675 533.179 786.124 531.219 786.124H527.075V798.276H531.219Z" fill="black"/>
<path d="M558.916 791.892H563.06V799.844C561.996 800.647 560.764 801.263 559.364 801.692C557.964 802.121 556.554 802.336 555.136 802.336C553.101 802.336 551.272 801.907 549.648 801.048C548.024 800.171 546.745 798.967 545.812 797.436C544.897 795.887 544.44 794.141 544.44 792.2C544.44 790.259 544.897 788.523 545.812 786.992C546.745 785.443 548.033 784.239 549.676 783.38C551.318 782.503 553.166 782.064 555.22 782.064C556.937 782.064 558.496 782.353 559.896 782.932C561.296 783.511 562.472 784.351 563.424 785.452L560.512 788.14C559.112 786.665 557.422 785.928 555.444 785.928C554.193 785.928 553.082 786.189 552.112 786.712C551.141 787.235 550.385 787.972 549.844 788.924C549.302 789.876 549.032 790.968 549.032 792.2C549.032 793.413 549.302 794.496 549.844 795.448C550.385 796.4 551.132 797.147 552.084 797.688C553.054 798.211 554.156 798.472 555.388 798.472C556.694 798.472 557.87 798.192 558.916 797.632V791.892Z" fill="black"/>
<path d="M582.449 798.36V802H567.273V782.4H582.085V786.04H571.781V790.296H580.881V793.824H571.781V798.36H582.449Z" fill="black"/>
<rect width="646" height="523" fill="#F6F6F6"/>
<rect x="43" y="115" width="262" height="95" fill="white"/>
<path d="M164.873 168.1H154.457L152.301 173H149.417L158.293 153.4H161.065L169.969 173H167.029L164.873 168.1ZM163.893 165.86L159.665 156.256L155.437 165.86H163.893Z" fill="black"/>
<path d="M180.537 153.4C183.076 153.4 185.073 154.007 186.529 155.22C187.985 156.433 188.713 158.104 188.713 160.232C188.713 162.36 187.985 164.031 186.529 165.244C185.073 166.457 183.076 167.064 180.537 167.064H175.693V173H172.893V153.4H180.537ZM180.453 164.628C182.226 164.628 183.58 164.255 184.513 163.508C185.446 162.743 185.913 161.651 185.913 160.232C185.913 158.813 185.446 157.731 184.513 156.984C183.58 156.219 182.226 155.836 180.453 155.836H175.693V164.628H180.453Z" fill="black"/>
<path d="M192.827 153.4H195.627V173H192.827V153.4Z" fill="black"/>
<rect x="43" y="248" width="564" height="95" fill="white"/>
<path d="M225.169 306L225.141 291.72L218.057 303.62H216.769L209.685 291.804V306H206.997V286.4H209.293L217.469 300.176L225.533 286.4H227.829L227.857 306H225.169Z" fill="black"/>
<path d="M246.759 298.664C246.759 298.869 246.74 299.14 246.703 299.476H234.663C234.831 300.783 235.4 301.837 236.371 302.64C237.36 303.424 238.583 303.816 240.039 303.816C241.812 303.816 243.24 303.219 244.323 302.024L245.807 303.76C245.135 304.544 244.295 305.141 243.287 305.552C242.297 305.963 241.187 306.168 239.955 306.168C238.387 306.168 236.996 305.851 235.783 305.216C234.569 304.563 233.627 303.657 232.955 302.5C232.301 301.343 231.975 300.036 231.975 298.58C231.975 297.143 232.292 295.845 232.927 294.688C233.58 293.531 234.467 292.635 235.587 292C236.725 291.347 238.004 291.02 239.423 291.02C240.841 291.02 242.101 291.347 243.203 292C244.323 292.635 245.191 293.531 245.807 294.688C246.441 295.845 246.759 297.171 246.759 298.664ZM239.423 293.288C238.135 293.288 237.052 293.68 236.175 294.464C235.316 295.248 234.812 296.275 234.663 297.544H244.183C244.033 296.293 243.52 295.276 242.643 294.492C241.784 293.689 240.711 293.288 239.423 293.288Z" fill="black"/>
<path d="M254.747 306.168C253.534 306.168 252.367 306.009 251.247 305.692C250.127 305.356 249.25 304.936 248.615 304.432L249.735 302.304C250.389 302.771 251.182 303.144 252.115 303.424C253.049 303.704 253.991 303.844 254.943 303.844C257.295 303.844 258.471 303.172 258.471 301.828C258.471 301.38 258.313 301.025 257.995 300.764C257.678 300.503 257.277 300.316 256.791 300.204C256.325 300.073 255.653 299.933 254.775 299.784C253.581 299.597 252.601 299.383 251.835 299.14C251.089 298.897 250.445 298.487 249.903 297.908C249.362 297.329 249.091 296.517 249.091 295.472C249.091 294.128 249.651 293.055 250.771 292.252C251.891 291.431 253.394 291.02 255.279 291.02C256.269 291.02 257.258 291.141 258.247 291.384C259.237 291.627 260.049 291.953 260.683 292.364L259.535 294.492C258.322 293.708 256.894 293.316 255.251 293.316C254.113 293.316 253.245 293.503 252.647 293.876C252.05 294.249 251.751 294.744 251.751 295.36C251.751 295.845 251.919 296.228 252.255 296.508C252.591 296.788 253.002 296.993 253.487 297.124C253.991 297.255 254.691 297.404 255.587 297.572C256.782 297.777 257.743 298.001 258.471 298.244C259.218 298.468 259.853 298.86 260.375 299.42C260.898 299.98 261.159 300.764 261.159 301.772C261.159 303.116 260.581 304.189 259.423 304.992C258.285 305.776 256.726 306.168 254.747 306.168Z" fill="black"/>
<path d="M268.775 306.168C267.561 306.168 266.395 306.009 265.275 305.692C264.155 305.356 263.277 304.936 262.643 304.432L263.763 302.304C264.416 302.771 265.209 303.144 266.143 303.424C267.076 303.704 268.019 303.844 268.971 303.844C271.323 303.844 272.499 303.172 272.499 301.828C272.499 301.38 272.34 301.025 272.023 300.764C271.705 300.503 271.304 300.316 270.819 300.204C270.352 300.073 269.68 299.933 268.803 299.784C267.608 299.597 266.628 299.383 265.863 299.14C265.116 298.897 264.472 298.487 263.931 297.908C263.389 297.329 263.119 296.517 263.119 295.472C263.119 294.128 263.679 293.055 264.799 292.252C265.919 291.431 267.421 291.02 269.307 291.02C270.296 291.02 271.285 291.141 272.275 291.384C273.264 291.627 274.076 291.953 274.711 292.364L273.563 294.492C272.349 293.708 270.921 293.316 269.279 293.316C268.14 293.316 267.272 293.503 266.675 293.876C266.077 294.249 265.779 294.744 265.779 295.36C265.779 295.845 265.947 296.228 266.283 296.508C266.619 296.788 267.029 296.993 267.515 297.124C268.019 297.255 268.719 297.404 269.615 297.572C270.809 297.777 271.771 298.001 272.499 298.244C273.245 298.468 273.88 298.86 274.403 299.42C274.925 299.98 275.187 300.764 275.187 301.772C275.187 303.116 274.608 304.189 273.451 304.992C272.312 305.776 270.753 306.168 268.775 306.168Z" fill="black"/>
<path d="M283.95 291.02C286.003 291.02 287.571 291.524 288.654 292.532C289.755 293.54 290.306 295.043 290.306 297.04V306H287.758V304.04C287.31 304.731 286.666 305.263 285.826 305.636C285.005 305.991 284.025 306.168 282.886 306.168C281.225 306.168 279.89 305.767 278.882 304.964C277.893 304.161 277.398 303.107 277.398 301.8C277.398 300.493 277.874 299.448 278.826 298.664C279.778 297.861 281.29 297.46 283.362 297.46H287.618V296.928C287.618 295.771 287.282 294.884 286.61 294.268C285.938 293.652 284.949 293.344 283.642 293.344C282.765 293.344 281.906 293.493 281.066 293.792C280.226 294.072 279.517 294.455 278.938 294.94L277.818 292.924C278.583 292.308 279.498 291.841 280.562 291.524C281.626 291.188 282.755 291.02 283.95 291.02ZM283.334 304.096C284.361 304.096 285.247 303.872 285.994 303.424C286.741 302.957 287.282 302.304 287.618 301.464V299.392H283.474C281.197 299.392 280.058 300.157 280.058 301.688C280.058 302.435 280.347 303.023 280.926 303.452C281.505 303.881 282.307 304.096 283.334 304.096Z" fill="black"/>
<path d="M309.558 291.16V303.984C309.558 306.579 308.914 308.492 307.626 309.724C306.338 310.975 304.416 311.6 301.858 311.6C300.458 311.6 299.124 311.404 297.854 311.012C296.585 310.639 295.558 310.097 294.774 309.388L296.062 307.316C296.753 307.913 297.602 308.38 298.61 308.716C299.637 309.071 300.692 309.248 301.774 309.248C303.51 309.248 304.789 308.837 305.61 308.016C306.45 307.195 306.87 305.944 306.87 304.264V303.088C306.236 303.853 305.452 304.432 304.518 304.824C303.604 305.197 302.605 305.384 301.522 305.384C300.104 305.384 298.816 305.085 297.658 304.488C296.52 303.872 295.624 303.023 294.97 301.94C294.317 300.839 293.99 299.588 293.99 298.188C293.99 296.788 294.317 295.547 294.97 294.464C295.624 293.363 296.52 292.513 297.658 291.916C298.816 291.319 300.104 291.02 301.522 291.02C302.642 291.02 303.678 291.225 304.63 291.636C305.601 292.047 306.394 292.653 307.01 293.456V291.16H309.558ZM301.83 303.032C302.801 303.032 303.669 302.827 304.434 302.416C305.218 302.005 305.825 301.436 306.254 300.708C306.702 299.961 306.926 299.121 306.926 298.188C306.926 296.751 306.45 295.593 305.498 294.716C304.546 293.82 303.324 293.372 301.83 293.372C300.318 293.372 299.086 293.82 298.134 294.716C297.182 295.593 296.706 296.751 296.706 298.188C296.706 299.121 296.921 299.961 297.35 300.708C297.798 301.436 298.405 302.005 299.17 302.416C299.954 302.827 300.841 303.032 301.83 303.032Z" fill="black"/>
<path d="M328.106 298.664C328.106 298.869 328.088 299.14 328.05 299.476H316.01C316.178 300.783 316.748 301.837 317.718 302.64C318.708 303.424 319.93 303.816 321.386 303.816C323.16 303.816 324.588 303.219 325.67 302.024L327.154 303.76C326.482 304.544 325.642 305.141 324.634 305.552C323.645 305.963 322.534 306.168 321.302 306.168C319.734 306.168 318.344 305.851 317.13 305.216C315.917 304.563 314.974 303.657 314.302 302.5C313.649 301.343 313.322 300.036 313.322 298.58C313.322 297.143 313.64 295.845 314.274 294.688C314.928 293.531 315.814 292.635 316.934 292C318.073 291.347 319.352 291.02 320.77 291.02C322.189 291.02 323.449 291.347 324.55 292C325.67 292.635 326.538 293.531 327.154 294.688C327.789 295.845 328.106 297.171 328.106 298.664ZM320.77 293.288C319.482 293.288 318.4 293.68 317.522 294.464C316.664 295.248 316.16 296.275 316.01 297.544H325.53C325.381 296.293 324.868 295.276 323.99 294.492C323.132 293.689 322.058 293.288 320.77 293.288Z" fill="black"/>
<path d="M356.607 286.4V306H353.807V297.264H342.551V306H339.751V286.4H342.551V294.828H353.807V286.4H356.607Z" fill="black"/>
<path d="M367.485 291.02C369.539 291.02 371.107 291.524 372.189 292.532C373.291 293.54 373.841 295.043 373.841 297.04V306H371.293V304.04C370.845 304.731 370.201 305.263 369.361 305.636C368.54 305.991 367.56 306.168 366.421 306.168C364.76 306.168 363.425 305.767 362.417 304.964C361.428 304.161 360.933 303.107 360.933 301.8C360.933 300.493 361.409 299.448 362.361 298.664C363.313 297.861 364.825 297.46 366.897 297.46H371.153V296.928C371.153 295.771 370.817 294.884 370.145 294.268C369.473 293.652 368.484 293.344 367.177 293.344C366.3 293.344 365.441 293.493 364.601 293.792C363.761 294.072 363.052 294.455 362.473 294.94L361.353 292.924C362.119 292.308 363.033 291.841 364.097 291.524C365.161 291.188 366.291 291.02 367.485 291.02ZM366.869 304.096C367.896 304.096 368.783 303.872 369.529 303.424C370.276 302.957 370.817 302.304 371.153 301.464V299.392H367.009C364.732 299.392 363.593 300.157 363.593 301.688C363.593 302.435 363.883 303.023 364.461 303.452C365.04 303.881 365.843 304.096 366.869 304.096Z" fill="black"/>
<path d="M386.74 291.02C388.625 291.02 390.118 291.571 391.22 292.672C392.34 293.755 392.9 295.351 392.9 297.46V306H390.212V297.768C390.212 296.331 389.866 295.248 389.176 294.52C388.485 293.792 387.496 293.428 386.208 293.428C384.752 293.428 383.604 293.857 382.764 294.716C381.924 295.556 381.504 296.769 381.504 298.356V306H378.816V291.16H381.392V293.4C381.933 292.635 382.661 292.047 383.576 291.636C384.509 291.225 385.564 291.02 386.74 291.02Z" fill="black"/>
<path d="M411.956 285.224V306H409.38V303.648C408.783 304.469 408.027 305.095 407.112 305.524C406.198 305.953 405.19 306.168 404.088 306.168C402.651 306.168 401.363 305.851 400.224 305.216C399.086 304.581 398.19 303.695 397.536 302.556C396.902 301.399 396.584 300.073 396.584 298.58C396.584 297.087 396.902 295.771 397.536 294.632C398.19 293.493 399.086 292.607 400.224 291.972C401.363 291.337 402.651 291.02 404.088 291.02C405.152 291.02 406.132 291.225 407.028 291.636C407.924 292.028 408.671 292.616 409.268 293.4V285.224H411.956ZM404.312 303.816C405.246 303.816 406.095 303.601 406.86 303.172C407.626 302.724 408.223 302.108 408.652 301.324C409.082 300.521 409.296 299.607 409.296 298.58C409.296 297.553 409.082 296.648 408.652 295.864C408.223 295.061 407.626 294.445 406.86 294.016C406.095 293.587 405.246 293.372 404.312 293.372C403.36 293.372 402.502 293.587 401.736 294.016C400.99 294.445 400.392 295.061 399.944 295.864C399.515 296.648 399.3 297.553 399.3 298.58C399.3 299.607 399.515 300.521 399.944 301.324C400.392 302.108 400.99 302.724 401.736 303.172C402.502 303.601 403.36 303.816 404.312 303.816Z" fill="black"/>
<path d="M417.042 285.224H419.73V306H417.042V285.224Z" fill="black"/>
<path d="M438.274 298.664C438.274 298.869 438.256 299.14 438.218 299.476H426.178C426.346 300.783 426.916 301.837 427.886 302.64C428.876 303.424 430.098 303.816 431.554 303.816C433.328 303.816 434.756 303.219 435.838 302.024L437.322 303.76C436.65 304.544 435.81 305.141 434.802 305.552C433.813 305.963 432.702 306.168 431.47 306.168C429.902 306.168 428.512 305.851 427.298 305.216C426.085 304.563 425.142 303.657 424.47 302.5C423.817 301.343 423.49 300.036 423.49 298.58C423.49 297.143 423.808 295.845 424.442 294.688C425.096 293.531 425.982 292.635 427.102 292C428.241 291.347 429.52 291.02 430.938 291.02C432.357 291.02 433.617 291.347 434.718 292C435.838 292.635 436.706 293.531 437.322 294.688C437.957 295.845 438.274 297.171 438.274 298.664ZM430.938 293.288C429.65 293.288 428.568 293.68 427.69 294.464C426.832 295.248 426.328 296.275 426.178 297.544H435.698C435.549 296.293 435.036 295.276 434.158 294.492C433.3 293.689 432.226 293.288 430.938 293.288Z" fill="black"/>
<path d="M444.583 293.652C445.05 292.793 445.74 292.14 446.655 291.692C447.57 291.244 448.68 291.02 449.987 291.02V293.624C449.838 293.605 449.632 293.596 449.371 293.596C447.915 293.596 446.767 294.035 445.927 294.912C445.106 295.771 444.695 297.003 444.695 298.608V306H442.007V291.16H444.583V293.652Z" fill="black"/>
<rect x="43" y="381" width="564" height="95" fill="white"/>
<path d="M213.387 436.564V439H199.163V419.4H212.995V421.836H201.963V427.856H211.791V430.236H201.963V436.564H213.387Z" fill="black"/>
<path d="M229.909 436.564V439H215.825V437.096L223.805 429.396C224.776 428.463 225.429 427.66 225.765 426.988C226.101 426.297 226.269 425.607 226.269 424.916C226.269 423.889 225.905 423.096 225.177 422.536C224.468 421.957 223.441 421.668 222.097 421.668C219.932 421.668 218.261 422.377 217.085 423.796L215.181 422.144C215.946 421.211 216.945 420.483 218.177 419.96C219.428 419.437 220.818 419.176 222.349 419.176C224.402 419.176 226.036 419.671 227.249 420.66C228.462 421.631 229.069 422.956 229.069 424.636C229.069 425.681 228.845 426.671 228.397 427.604C227.949 428.537 227.1 429.601 225.849 430.796L219.857 436.564H229.909Z" fill="black"/>
<path d="M248.031 436.564V439H233.807V419.4H247.639V421.836H236.607V427.856H246.435V430.236H236.607V436.564H248.031Z" fill="black"/>
<path d="M265.797 439.224C264.322 439.224 262.894 439 261.513 438.552C260.15 438.085 259.077 437.488 258.293 436.76L259.329 434.576C260.075 435.248 261.027 435.799 262.185 436.228C263.361 436.639 264.565 436.844 265.797 436.844C267.421 436.844 268.634 436.573 269.437 436.032C270.239 435.472 270.641 434.735 270.641 433.82C270.641 433.148 270.417 432.607 269.969 432.196C269.539 431.767 268.998 431.44 268.345 431.216C267.71 430.992 266.805 430.74 265.629 430.46C264.154 430.105 262.959 429.751 262.045 429.396C261.149 429.041 260.374 428.5 259.721 427.772C259.086 427.025 258.769 426.027 258.769 424.776C258.769 423.731 259.039 422.788 259.581 421.948C260.141 421.108 260.981 420.436 262.101 419.932C263.221 419.428 264.611 419.176 266.273 419.176C267.43 419.176 268.569 419.325 269.689 419.624C270.809 419.923 271.77 420.352 272.573 420.912L271.649 423.152C270.827 422.629 269.95 422.237 269.017 421.976C268.083 421.696 267.169 421.556 266.273 421.556C264.686 421.556 263.491 421.845 262.689 422.424C261.905 423.003 261.513 423.749 261.513 424.664C261.513 425.336 261.737 425.887 262.185 426.316C262.633 426.727 263.183 427.053 263.837 427.296C264.509 427.52 265.414 427.763 266.553 428.024C268.027 428.379 269.213 428.733 270.109 429.088C271.005 429.443 271.77 429.984 272.405 430.712C273.058 431.44 273.385 432.42 273.385 433.652C273.385 434.679 273.105 435.621 272.545 436.48C271.985 437.32 271.135 437.992 269.997 438.496C268.858 438.981 267.458 439.224 265.797 439.224Z" fill="black"/>
<path d="M290.495 431.664C290.495 431.869 290.476 432.14 290.439 432.476H278.399C278.567 433.783 279.136 434.837 280.107 435.64C281.096 436.424 282.319 436.816 283.775 436.816C285.548 436.816 286.976 436.219 288.059 435.024L289.543 436.76C288.871 437.544 288.031 438.141 287.023 438.552C286.034 438.963 284.923 439.168 283.691 439.168C282.123 439.168 280.732 438.851 279.519 438.216C278.306 437.563 277.363 436.657 276.691 435.5C276.038 434.343 275.711 433.036 275.711 431.58C275.711 430.143 276.028 428.845 276.663 427.688C277.316 426.531 278.203 425.635 279.323 425C280.462 424.347 281.74 424.02 283.159 424.02C284.578 424.02 285.838 424.347 286.939 425C288.059 425.635 288.927 426.531 289.543 427.688C290.178 428.845 290.495 430.171 290.495 431.664ZM283.159 426.288C281.871 426.288 280.788 426.68 279.911 427.464C279.052 428.248 278.548 429.275 278.399 430.544H287.919C287.77 429.293 287.256 428.276 286.379 427.492C285.52 426.689 284.447 426.288 283.159 426.288Z" fill="black"/>
<path d="M300.696 439.168C299.184 439.168 297.83 438.841 296.636 438.188C295.46 437.535 294.536 436.639 293.864 435.5C293.192 434.343 292.856 433.036 292.856 431.58C292.856 430.124 293.192 428.827 293.864 427.688C294.536 426.531 295.46 425.635 296.636 425C297.83 424.347 299.184 424.02 300.696 424.02C302.04 424.02 303.234 424.291 304.28 424.832C305.344 425.373 306.165 426.157 306.744 427.184L304.7 428.5C304.233 427.791 303.654 427.259 302.964 426.904C302.273 426.549 301.508 426.372 300.668 426.372C299.697 426.372 298.82 426.587 298.036 427.016C297.27 427.445 296.664 428.061 296.216 428.864C295.786 429.648 295.572 430.553 295.572 431.58C295.572 432.625 295.786 433.549 296.216 434.352C296.664 435.136 297.27 435.743 298.036 436.172C298.82 436.601 299.697 436.816 300.668 436.816C301.508 436.816 302.273 436.639 302.964 436.284C303.654 435.929 304.233 435.397 304.7 434.688L306.744 435.976C306.165 437.003 305.344 437.796 304.28 438.356C303.234 438.897 302.04 439.168 300.696 439.168Z" fill="black"/>
<path d="M324.056 424.16V439H321.508V436.76C320.966 437.525 320.248 438.123 319.352 438.552C318.474 438.963 317.513 439.168 316.468 439.168C314.489 439.168 312.93 438.627 311.792 437.544C310.653 436.443 310.084 434.828 310.084 432.7V424.16H312.772V432.392C312.772 433.829 313.117 434.921 313.808 435.668C314.498 436.396 315.488 436.76 316.776 436.76C318.194 436.76 319.314 436.331 320.136 435.472C320.957 434.613 321.368 433.4 321.368 431.832V424.16H324.056Z" fill="black"/>
<path d="M331.749 426.652C332.216 425.793 332.906 425.14 333.821 424.692C334.736 424.244 335.846 424.02 337.153 424.02V426.624C337.004 426.605 336.798 426.596 336.537 426.596C335.081 426.596 333.933 427.035 333.093 427.912C332.272 428.771 331.861 430.003 331.861 431.608V439H329.173V424.16H331.749V426.652Z" fill="black"/>
<path d="M353.741 431.664C353.741 431.869 353.723 432.14 353.685 432.476H341.645C341.813 433.783 342.383 434.837 343.353 435.64C344.343 436.424 345.565 436.816 347.021 436.816C348.795 436.816 350.223 436.219 351.305 435.024L352.789 436.76C352.117 437.544 351.277 438.141 350.269 438.552C349.28 438.963 348.169 439.168 346.937 439.168C345.369 439.168 343.979 438.851 342.765 438.216C341.552 437.563 340.609 436.657 339.937 435.5C339.284 434.343 338.957 433.036 338.957 431.58C338.957 430.143 339.275 428.845 339.909 427.688C340.563 426.531 341.449 425.635 342.569 425C343.708 424.347 344.987 424.02 346.405 424.02C347.824 424.02 349.084 424.347 350.185 425C351.305 425.635 352.173 426.531 352.789 427.688C353.424 428.845 353.741 430.171 353.741 431.664ZM346.405 426.288C345.117 426.288 344.035 426.68 343.157 427.464C342.299 428.248 341.795 429.275 341.645 430.544H351.165C351.016 429.293 350.503 428.276 349.625 427.492C348.767 426.689 347.693 426.288 346.405 426.288Z" fill="black"/>
<path d="M371.097 439.224C369.623 439.224 368.195 439 366.813 438.552C365.451 438.085 364.377 437.488 363.593 436.76L364.629 434.576C365.376 435.248 366.328 435.799 367.485 436.228C368.661 436.639 369.865 436.844 371.097 436.844C372.721 436.844 373.935 436.573 374.737 436.032C375.54 435.472 375.941 434.735 375.941 433.82C375.941 433.148 375.717 432.607 375.269 432.196C374.84 431.767 374.299 431.44 373.645 431.216C373.011 430.992 372.105 430.74 370.929 430.46C369.455 430.105 368.26 429.751 367.345 429.396C366.449 429.041 365.675 428.5 365.021 427.772C364.387 427.025 364.069 426.027 364.069 424.776C364.069 423.731 364.34 422.788 364.881 421.948C365.441 421.108 366.281 420.436 367.401 419.932C368.521 419.428 369.912 419.176 371.573 419.176C372.731 419.176 373.869 419.325 374.989 419.624C376.109 419.923 377.071 420.352 377.873 420.912L376.949 423.152C376.128 422.629 375.251 422.237 374.317 421.976C373.384 421.696 372.469 421.556 371.573 421.556C369.987 421.556 368.792 421.845 367.989 422.424C367.205 423.003 366.813 423.749 366.813 424.664C366.813 425.336 367.037 425.887 367.485 426.316C367.933 426.727 368.484 427.053 369.137 427.296C369.809 427.52 370.715 427.763 371.853 428.024C373.328 428.379 374.513 428.733 375.409 429.088C376.305 429.443 377.071 429.984 377.705 430.712C378.359 431.44 378.685 432.42 378.685 433.652C378.685 434.679 378.405 435.621 377.845 436.48C377.285 437.32 376.436 437.992 375.297 438.496C374.159 438.981 372.759 439.224 371.097 439.224Z" fill="black"/>
<path d="M388.74 439.168C387.265 439.168 385.94 438.841 384.764 438.188C383.588 437.535 382.664 436.639 381.992 435.5C381.339 434.343 381.012 433.036 381.012 431.58C381.012 430.124 381.339 428.827 381.992 427.688C382.664 426.531 383.588 425.635 384.764 425C385.94 424.347 387.265 424.02 388.74 424.02C390.215 424.02 391.531 424.347 392.688 425C393.864 425.635 394.779 426.531 395.432 427.688C396.104 428.827 396.44 430.124 396.44 431.58C396.44 433.036 396.104 434.343 395.432 435.5C394.779 436.639 393.864 437.535 392.688 438.188C391.531 438.841 390.215 439.168 388.74 439.168ZM388.74 436.816C389.692 436.816 390.541 436.601 391.288 436.172C392.053 435.724 392.651 435.108 393.08 434.324C393.509 433.521 393.724 432.607 393.724 431.58C393.724 430.553 393.509 429.648 393.08 428.864C392.651 428.061 392.053 427.445 391.288 427.016C390.541 426.587 389.692 426.372 388.74 426.372C387.788 426.372 386.929 426.587 386.164 427.016C385.417 427.445 384.82 428.061 384.372 428.864C383.943 429.648 383.728 430.553 383.728 431.58C383.728 432.607 383.943 433.521 384.372 434.324C384.82 435.108 385.417 435.724 386.164 436.172C386.929 436.601 387.788 436.816 388.74 436.816Z" fill="black"/>
<path d="M406.625 439.168C405.113 439.168 403.76 438.841 402.565 438.188C401.389 437.535 400.465 436.639 399.793 435.5C399.121 434.343 398.785 433.036 398.785 431.58C398.785 430.124 399.121 428.827 399.793 427.688C400.465 426.531 401.389 425.635 402.565 425C403.76 424.347 405.113 424.02 406.625 424.02C407.969 424.02 409.164 424.291 410.209 424.832C411.273 425.373 412.095 426.157 412.673 427.184L410.629 428.5C410.163 427.791 409.584 427.259 408.893 426.904C408.203 426.549 407.437 426.372 406.597 426.372C405.627 426.372 404.749 426.587 403.965 427.016C403.2 427.445 402.593 428.061 402.145 428.864C401.716 429.648 401.501 430.553 401.501 431.58C401.501 432.625 401.716 433.549 402.145 434.352C402.593 435.136 403.2 435.743 403.965 436.172C404.749 436.601 405.627 436.816 406.597 436.816C407.437 436.816 408.203 436.639 408.893 436.284C409.584 435.929 410.163 435.397 410.629 434.688L412.673 435.976C412.095 437.003 411.273 437.796 410.209 438.356C409.164 438.897 407.969 439.168 406.625 439.168Z" fill="black"/>
<path d="M421.73 432.084L418.65 434.94V439H415.962V418.224H418.65V431.552L426.742 424.16H429.99L423.746 430.292L430.606 439H427.302L421.73 432.084Z" fill="black"/>
<path d="M445.999 431.664C445.999 431.869 445.98 432.14 445.943 432.476H433.903C434.071 433.783 434.64 434.837 435.611 435.64C436.6 436.424 437.823 436.816 439.279 436.816C441.052 436.816 442.48 436.219 443.563 435.024L445.047 436.76C444.375 437.544 443.535 438.141 442.527 438.552C441.538 438.963 440.427 439.168 439.195 439.168C437.627 439.168 436.236 438.851 435.023 438.216C433.81 437.563 432.867 436.657 432.195 435.5C431.542 434.343 431.215 433.036 431.215 431.58C431.215 430.143 431.532 428.845 432.167 427.688C432.82 426.531 433.707 425.635 434.827 425C435.966 424.347 437.244 424.02 438.663 424.02C440.082 424.02 441.342 424.347 442.443 425C443.563 425.635 444.431 426.531 445.047 427.688C445.682 428.845 445.999 430.171 445.999 431.664ZM438.663 426.288C437.375 426.288 436.292 426.68 435.415 427.464C434.556 428.248 434.052 429.275 433.903 430.544H443.423C443.274 429.293 442.76 428.276 441.883 427.492C441.024 426.689 439.951 426.288 438.663 426.288Z" fill="black"/>
<path d="M458.076 438.132C457.684 438.468 457.198 438.729 456.62 438.916C456.041 439.084 455.444 439.168 454.828 439.168C453.334 439.168 452.177 438.767 451.356 437.964C450.534 437.161 450.124 436.013 450.124 434.52V426.372H447.604V424.16H450.124V420.912H452.812V424.16H457.068V426.372H452.812V434.408C452.812 435.211 453.008 435.827 453.4 436.256C453.81 436.685 454.389 436.9 455.136 436.9C455.957 436.9 456.657 436.667 457.236 436.2L458.076 438.132Z" fill="black"/>
<rect x="345" y="115" width="262" height="95" fill="white"/>
<path d="M450.981 153.4H453.781V173H450.981V153.4Z" fill="black"/>
<path d="M472.137 168.1H461.721L459.565 173H456.681L465.557 153.4H468.329L477.233 173H474.293L472.137 168.1ZM471.157 165.86L466.929 156.256L462.701 165.86H471.157Z" fill="black"/>
<path d="M498.329 173L498.301 158.72L491.217 170.62H489.929L482.845 158.804V173H480.157V153.4H482.453L490.629 167.176L498.693 153.4H500.989L501.017 173H498.329Z" fill="black"/>
<path d="M145.354 522.646C145.158 522.451 144.842 522.451 144.646 522.646L141.464 525.828C141.269 526.024 141.269 526.34 141.464 526.536C141.66 526.731 141.976 526.731 142.172 526.536L145 523.707L147.828 526.536C148.024 526.731 148.34 526.731 148.536 526.536C148.731 526.34 148.731 526.024 148.536 525.828L145.354 522.646ZM144.646 713.354C144.842 713.549 145.158 713.549 145.354 713.354L148.536 710.172C148.731 709.976 148.731 709.66 148.536 709.464C148.34 709.269 148.024 709.269 147.828 709.464L145 712.293L142.172 709.464C141.976 709.269 141.66 709.269 141.464 709.464C141.269 709.66 141.269 709.976 141.464 710.172L144.646 713.354ZM144.5 523L144.5 713L145.5 713L145.5 523L144.5 523Z" fill="black"/>
<path d="M500.354 522.646C500.158 522.451 499.842 522.451 499.646 522.646L496.464 525.828C496.269 526.024 496.269 526.34 496.464 526.536C496.66 526.731 496.976 526.731 497.172 526.536L500 523.707L502.828 526.536C503.024 526.731 503.34 526.731 503.536 526.536C503.731 526.34 503.731 526.024 503.536 525.828L500.354 522.646ZM499.646 713.354C499.842 713.549 500.158 713.549 500.354 713.354L503.536 710.172C503.731 709.976 503.731 709.66 503.536 709.464C503.34 709.269 503.024 709.269 502.828 709.464L500 712.293L497.172 709.464C496.976 709.269 496.66 709.269 496.464 709.464C496.269 709.66 496.269 709.976 496.464 710.172L499.646 713.354ZM499.5 523L499.5 713L500.5 713L500.5 523L499.5 523Z" fill="black"/>
<path d="M260.405 65.3361C257.605 65.3361 255.421 64.5614 253.853 63.0121C252.304 61.4628 251.529 59.2508 251.529 56.3761V45.4001H256.065V56.2081C256.065 59.7174 257.521 61.4721 260.433 61.4721C261.852 61.4721 262.934 61.0521 263.681 60.2121C264.428 59.3534 264.801 58.0188 264.801 56.2081V45.4001H269.281V56.3761C269.281 59.2508 268.497 61.4628 266.929 63.0121C265.38 64.5614 263.205 65.3361 260.405 65.3361Z" fill="black"/>
<path d="M291.739 45.4001V65.0001H288.015L278.243 53.1001V65.0001H273.763V45.4001H277.515L287.259 57.3001V45.4001H291.739Z" fill="black"/>
<path d="M296.069 49.9361H300.437V65.0001H296.069V49.9361ZM298.253 47.8361C297.45 47.8361 296.797 47.6028 296.293 47.1361C295.789 46.6694 295.537 46.0908 295.537 45.4001C295.537 44.7094 295.789 44.1308 296.293 43.6641C296.797 43.1974 297.45 42.9641 298.253 42.9641C299.055 42.9641 299.709 43.1881 300.213 43.6361C300.717 44.0841 300.969 44.6441 300.969 45.3161C300.969 46.0441 300.717 46.6508 300.213 47.1361C299.709 47.6028 299.055 47.8361 298.253 47.8361Z" fill="black"/>
<path d="M304.799 45.4001H313.703C315.831 45.4001 317.707 45.8108 319.331 46.6321C320.973 47.4348 322.243 48.5734 323.139 50.0481C324.053 51.5228 324.511 53.2401 324.511 55.2001C324.511 57.1601 324.053 58.8774 323.139 60.3521C322.243 61.8268 320.973 62.9748 319.331 63.7961C317.707 64.5988 315.831 65.0001 313.703 65.0001H304.799V45.4001ZM313.479 61.2761C315.439 61.2761 316.997 60.7348 318.155 59.6521C319.331 58.5508 319.919 57.0668 319.919 55.2001C319.919 53.3334 319.331 51.8588 318.155 50.7761C316.997 49.6748 315.439 49.1241 313.479 49.1241H309.335V61.2761H313.479Z" fill="black"/>
<path d="M353.837 45.4001V65.0001H349.301V56.9641H340.397V65.0001H335.861V45.4001H340.397V53.1281H349.301V45.4001H353.837Z" fill="black"/>
<path d="M367.182 65.3361C364.382 65.3361 362.198 64.5614 360.63 63.0121C359.081 61.4628 358.306 59.2508 358.306 56.3761V45.4001H362.842V56.2081C362.842 59.7174 364.298 61.4721 367.21 61.4721C368.629 61.4721 369.712 61.0521 370.458 60.2121C371.205 59.3534 371.578 58.0188 371.578 56.2081V45.4001H376.058V56.3761C376.058 59.2508 375.274 61.4628 373.706 63.0121C372.157 64.5614 369.982 65.3361 367.182 65.3361Z" fill="black"/>
<path d="M394.933 54.8081C396.053 55.1628 396.93 55.7601 397.565 56.6001C398.199 57.4214 398.517 58.4388 398.517 59.6521C398.517 61.3694 397.845 62.6948 396.501 63.6281C395.175 64.5428 393.234 65.0001 390.677 65.0001H380.541V45.4001H390.117C392.506 45.4001 394.335 45.8574 395.605 46.7721C396.893 47.6868 397.537 48.9281 397.537 50.4961C397.537 51.4481 397.303 52.2974 396.837 53.0441C396.389 53.7908 395.754 54.3788 394.933 54.8081ZM385.049 48.8161V53.4361H389.557C390.677 53.4361 391.526 53.2401 392.105 52.8481C392.683 52.4561 392.973 51.8774 392.973 51.1121C392.973 50.3468 392.683 49.7774 392.105 49.4041C391.526 49.0121 390.677 48.8161 389.557 48.8161H385.049ZM390.341 61.5841C391.535 61.5841 392.431 61.3881 393.029 60.9961C393.645 60.6041 393.953 59.9974 393.953 59.1761C393.953 57.5521 392.749 56.7401 390.341 56.7401H385.049V61.5841H390.341Z" fill="black"/>
<path d="M181.164 630.564V633H166.94V613.4H180.772V615.836H169.74V621.856H179.568V624.236H169.74V630.564H181.164Z" fill="black"/>
<path d="M197.686 630.564V633H183.602V631.096L191.582 623.396C192.553 622.463 193.206 621.66 193.542 620.988C193.878 620.297 194.046 619.607 194.046 618.916C194.046 617.889 193.682 617.096 192.954 616.536C192.245 615.957 191.218 615.668 189.874 615.668C187.709 615.668 186.038 616.377 184.862 617.796L182.958 616.144C183.724 615.211 184.722 614.483 185.954 613.96C187.205 613.437 188.596 613.176 190.126 613.176C192.18 613.176 193.813 613.671 195.026 614.66C196.24 615.631 196.846 616.956 196.846 618.636C196.846 619.681 196.622 620.671 196.174 621.604C195.726 622.537 194.877 623.601 193.626 624.796L187.634 630.564H197.686Z" fill="black"/>
<path d="M215.809 630.564V633H201.585V613.4H215.417V615.836H204.385V621.856H214.213V624.236H204.385V630.564H215.809Z" fill="black"/>
<path d="M233.574 633.224C232.099 633.224 230.671 633 229.29 632.552C227.927 632.085 226.854 631.488 226.07 630.76L227.106 628.576C227.853 629.248 228.805 629.799 229.962 630.228C231.138 630.639 232.342 630.844 233.574 630.844C235.198 630.844 236.411 630.573 237.214 630.032C238.017 629.472 238.418 628.735 238.418 627.82C238.418 627.148 238.194 626.607 237.746 626.196C237.317 625.767 236.775 625.44 236.122 625.216C235.487 624.992 234.582 624.74 233.406 624.46C231.931 624.105 230.737 623.751 229.822 623.396C228.926 623.041 228.151 622.5 227.498 621.772C226.863 621.025 226.546 620.027 226.546 618.776C226.546 617.731 226.817 616.788 227.358 615.948C227.918 615.108 228.758 614.436 229.878 613.932C230.998 613.428 232.389 613.176 234.05 613.176C235.207 613.176 236.346 613.325 237.466 613.624C238.586 613.923 239.547 614.352 240.35 614.912L239.426 617.152C238.605 616.629 237.727 616.237 236.794 615.976C235.861 615.696 234.946 615.556 234.05 615.556C232.463 615.556 231.269 615.845 230.466 616.424C229.682 617.003 229.29 617.749 229.29 618.664C229.29 619.336 229.514 619.887 229.962 620.316C230.41 620.727 230.961 621.053 231.614 621.296C232.286 621.52 233.191 621.763 234.33 622.024C235.805 622.379 236.99 622.733 237.886 623.088C238.782 623.443 239.547 623.984 240.182 624.712C240.835 625.44 241.162 626.42 241.162 627.652C241.162 628.679 240.882 629.621 240.322 630.48C239.762 631.32 238.913 631.992 237.774 632.496C236.635 632.981 235.235 633.224 233.574 633.224Z" fill="black"/>
<path d="M258.272 625.664C258.272 625.869 258.254 626.14 258.216 626.476H246.176C246.344 627.783 246.914 628.837 247.884 629.64C248.874 630.424 250.096 630.816 251.552 630.816C253.326 630.816 254.754 630.219 255.837 629.024L257.321 630.76C256.649 631.544 255.808 632.141 254.8 632.552C253.811 632.963 252.7 633.168 251.468 633.168C249.9 633.168 248.51 632.851 247.297 632.216C246.083 631.563 245.14 630.657 244.468 629.5C243.815 628.343 243.489 627.036 243.489 625.58C243.489 624.143 243.806 622.845 244.44 621.688C245.094 620.531 245.981 619.635 247.101 619C248.239 618.347 249.518 618.02 250.937 618.02C252.355 618.02 253.615 618.347 254.716 619C255.836 619.635 256.705 620.531 257.321 621.688C257.955 622.845 258.272 624.171 258.272 625.664ZM250.937 620.288C249.649 620.288 248.566 620.68 247.688 621.464C246.83 622.248 246.326 623.275 246.176 624.544H255.697C255.547 623.293 255.034 622.276 254.157 621.492C253.298 620.689 252.225 620.288 250.937 620.288Z" fill="black"/>
<path d="M268.473 633.168C266.961 633.168 265.608 632.841 264.413 632.188C263.237 631.535 262.313 630.639 261.641 629.5C260.969 628.343 260.633 627.036 260.633 625.58C260.633 624.124 260.969 622.827 261.641 621.688C262.313 620.531 263.237 619.635 264.413 619C265.608 618.347 266.961 618.02 268.473 618.02C269.817 618.02 271.012 618.291 272.057 618.832C273.121 619.373 273.942 620.157 274.521 621.184L272.477 622.5C272.01 621.791 271.432 621.259 270.741 620.904C270.05 620.549 269.285 620.372 268.445 620.372C267.474 620.372 266.597 620.587 265.813 621.016C265.048 621.445 264.441 622.061 263.993 622.864C263.564 623.648 263.349 624.553 263.349 625.58C263.349 626.625 263.564 627.549 263.993 628.352C264.441 629.136 265.048 629.743 265.813 630.172C266.597 630.601 267.474 630.816 268.445 630.816C269.285 630.816 270.05 630.639 270.741 630.284C271.432 629.929 272.01 629.397 272.477 628.688L274.521 629.976C273.942 631.003 273.121 631.796 272.057 632.356C271.012 632.897 269.817 633.168 268.473 633.168Z" fill="black"/>
<path d="M291.833 618.16V633H289.285V630.76C288.744 631.525 288.025 632.123 287.129 632.552C286.252 632.963 285.29 633.168 284.245 633.168C282.266 633.168 280.708 632.627 279.569 631.544C278.43 630.443 277.861 628.828 277.861 626.7V618.16H280.549V626.392C280.549 627.829 280.894 628.921 281.585 629.668C282.276 630.396 283.265 630.76 284.553 630.76C285.972 630.76 287.092 630.331 287.913 629.472C288.734 628.613 289.145 627.4 289.145 625.832V618.16H291.833Z" fill="black"/>
<path d="M299.526 620.652C299.993 619.793 300.684 619.14 301.598 618.692C302.513 618.244 303.624 618.02 304.93 618.02V620.624C304.781 620.605 304.576 620.596 304.314 620.596C302.858 620.596 301.71 621.035 300.87 621.912C300.049 622.771 299.638 624.003 299.638 625.608V633H296.95V618.16H299.526V620.652Z" fill="black"/>
<path d="M321.519 625.664C321.519 625.869 321.5 626.14 321.463 626.476H309.423C309.591 627.783 310.16 628.837 311.131 629.64C312.12 630.424 313.343 630.816 314.799 630.816C316.572 630.816 318 630.219 319.083 629.024L320.567 630.76C319.895 631.544 319.055 632.141 318.047 632.552C317.057 632.963 315.947 633.168 314.715 633.168C313.147 633.168 311.756 632.851 310.543 632.216C309.329 631.563 308.387 630.657 307.715 629.5C307.061 628.343 306.735 627.036 306.735 625.58C306.735 624.143 307.052 622.845 307.687 621.688C308.34 620.531 309.227 619.635 310.347 619C311.485 618.347 312.764 618.02 314.183 618.02C315.601 618.02 316.861 618.347 317.963 619C319.083 619.635 319.951 620.531 320.567 621.688C321.201 622.845 321.519 624.171 321.519 625.664ZM314.183 620.288C312.895 620.288 311.812 620.68 310.935 621.464C310.076 622.248 309.572 623.275 309.423 624.544H318.943C318.793 623.293 318.28 622.276 317.403 621.492C316.544 620.689 315.471 620.288 314.183 620.288Z" fill="black"/>
<path d="M341.927 633.224C339.967 633.224 338.193 632.795 336.607 631.936C335.039 631.059 333.807 629.864 332.911 628.352C332.015 626.821 331.567 625.104 331.567 623.2C331.567 621.296 332.015 619.588 332.911 618.076C333.807 616.545 335.048 615.351 336.635 614.492C338.221 613.615 339.995 613.176 341.955 613.176C343.485 613.176 344.885 613.437 346.155 613.96C347.424 614.464 348.507 615.22 349.403 616.228L347.583 617.992C346.108 616.443 344.269 615.668 342.067 615.668C340.611 615.668 339.295 615.995 338.119 616.648C336.943 617.301 336.019 618.207 335.347 619.364C334.693 620.503 334.367 621.781 334.367 623.2C334.367 624.619 334.693 625.907 335.347 627.064C336.019 628.203 336.943 629.099 338.119 629.752C339.295 630.405 340.611 630.732 342.067 630.732C344.251 630.732 346.089 629.948 347.583 628.38L349.403 630.144C348.507 631.152 347.415 631.917 346.127 632.44C344.857 632.963 343.457 633.224 341.927 633.224Z" fill="black"/>
<path d="M360.929 618.02C362.814 618.02 364.308 618.571 365.409 619.672C366.529 620.755 367.089 622.351 367.089 624.46V633H364.401V624.768C364.401 623.331 364.056 622.248 363.365 621.52C362.674 620.792 361.685 620.428 360.397 620.428C358.941 620.428 357.793 620.857 356.953 621.716C356.113 622.556 355.693 623.769 355.693 625.356V633H353.005V612.224H355.693V620.26C356.253 619.551 356.981 619 357.877 618.608C358.792 618.216 359.809 618.02 360.929 618.02Z" fill="black"/>
<path d="M377.468 618.02C379.521 618.02 381.089 618.524 382.172 619.532C383.273 620.54 383.824 622.043 383.824 624.04V633H381.276V631.04C380.828 631.731 380.184 632.263 379.344 632.636C378.522 632.991 377.542 633.168 376.404 633.168C374.742 633.168 373.408 632.767 372.4 631.964C371.41 631.161 370.916 630.107 370.916 628.8C370.916 627.493 371.392 626.448 372.344 625.664C373.296 624.861 374.808 624.46 376.88 624.46H381.136V623.928C381.136 622.771 380.8 621.884 380.128 621.268C379.456 620.652 378.466 620.344 377.16 620.344C376.282 620.344 375.424 620.493 374.584 620.792C373.744 621.072 373.034 621.455 372.456 621.94L371.336 619.924C372.101 619.308 373.016 618.841 374.08 618.524C375.144 618.188 376.273 618.02 377.468 618.02ZM376.852 631.096C377.878 631.096 378.765 630.872 379.512 630.424C380.258 629.957 380.8 629.304 381.136 628.464V626.392H376.992C374.714 626.392 373.576 627.157 373.576 628.688C373.576 629.435 373.865 630.023 374.444 630.452C375.022 630.881 375.825 631.096 376.852 631.096Z" fill="black"/>
<path d="M396.722 618.02C398.607 618.02 400.101 618.571 401.202 619.672C402.322 620.755 402.882 622.351 402.882 624.46V633H400.194V624.768C400.194 623.331 399.849 622.248 399.158 621.52C398.467 620.792 397.478 620.428 396.19 620.428C394.734 620.428 393.586 620.857 392.746 621.716C391.906 622.556 391.486 623.769 391.486 625.356V633H388.798V618.16H391.374V620.4C391.915 619.635 392.643 619.047 393.558 618.636C394.491 618.225 395.546 618.02 396.722 618.02Z" fill="black"/>
<path d="M415.781 618.02C417.666 618.02 419.159 618.571 420.261 619.672C421.381 620.755 421.941 622.351 421.941 624.46V633H419.253V624.768C419.253 623.331 418.907 622.248 418.217 621.52C417.526 620.792 416.537 620.428 415.249 620.428C413.793 620.428 412.645 620.857 411.805 621.716C410.965 622.556 410.545 623.769 410.545 625.356V633H407.857V618.16H410.433V620.4C410.974 619.635 411.702 619.047 412.617 618.636C413.55 618.225 414.605 618.02 415.781 618.02Z" fill="black"/>
<path d="M440.409 625.664C440.409 625.869 440.391 626.14 440.353 626.476H428.313C428.481 627.783 429.051 628.837 430.021 629.64C431.011 630.424 432.233 630.816 433.689 630.816C435.463 630.816 436.891 630.219 437.973 629.024L439.457 630.76C438.785 631.544 437.945 632.141 436.937 632.552C435.948 632.963 434.837 633.168 433.605 633.168C432.037 633.168 430.647 632.851 429.433 632.216C428.22 631.563 427.277 630.657 426.605 629.5C425.952 628.343 425.625 627.036 425.625 625.58C425.625 624.143 425.943 622.845 426.577 621.688C427.231 620.531 428.117 619.635 429.237 619C430.376 618.347 431.655 618.02 433.073 618.02C434.492 618.02 435.752 618.347 436.853 619C437.973 619.635 438.841 620.531 439.457 621.688C440.092 622.845 440.409 624.171 440.409 625.664ZM433.073 620.288C431.785 620.288 430.703 620.68 429.825 621.464C428.967 622.248 428.463 623.275 428.313 624.544H437.833C437.684 623.293 437.171 622.276 436.293 621.492C435.435 620.689 434.361 620.288 433.073 620.288Z" fill="black"/>
<path d="M444.142 612.224H446.83V633H444.142V612.224Z" fill="black"/>
<path d="M456.218 633.168C455.005 633.168 453.838 633.009 452.718 632.692C451.598 632.356 450.721 631.936 450.086 631.432L451.206 629.304C451.859 629.771 452.653 630.144 453.586 630.424C454.519 630.704 455.462 630.844 456.414 630.844C458.766 630.844 459.942 630.172 459.942 628.828C459.942 628.38 459.783 628.025 459.466 627.764C459.149 627.503 458.747 627.316 458.262 627.204C457.795 627.073 457.123 626.933 456.246 626.784C455.051 626.597 454.071 626.383 453.306 626.14C452.559 625.897 451.915 625.487 451.374 624.908C450.833 624.329 450.562 623.517 450.562 622.472C450.562 621.128 451.122 620.055 452.242 619.252C453.362 618.431 454.865 618.02 456.75 618.02C457.739 618.02 458.729 618.141 459.718 618.384C460.707 618.627 461.519 618.953 462.154 619.364L461.006 621.492C459.793 620.708 458.365 620.316 456.722 620.316C455.583 620.316 454.715 620.503 454.118 620.876C453.521 621.249 453.222 621.744 453.222 622.36C453.222 622.845 453.39 623.228 453.726 623.508C454.062 623.788 454.473 623.993 454.958 624.124C455.462 624.255 456.162 624.404 457.058 624.572C458.253 624.777 459.214 625.001 459.942 625.244C460.689 625.468 461.323 625.86 461.846 626.42C462.369 626.98 462.63 627.764 462.63 628.772C462.63 630.116 462.051 631.189 460.894 631.992C459.755 632.776 458.197 633.168 456.218 633.168Z" fill="black"/>
</svg>
