<svg width="722" height="861" viewBox="0 0 722 861" fill="none" xmlns="http://www.w3.org/2000/svg">
<rect x="0.5" y="0.5" width="721" height="860" stroke="black" stroke-dasharray="2 2"/>
<path d="M319.476 45.4001H328.38C330.508 45.4001 332.384 45.8108 334.008 46.6321C335.651 47.4348 336.92 48.5734 337.816 50.0481C338.731 51.5228 339.188 53.2401 339.188 55.2001C339.188 57.1601 338.731 58.8774 337.816 60.3521C336.92 61.8268 335.651 62.9748 334.008 63.7961C332.384 64.5988 330.508 65.0001 328.38 65.0001H319.476V45.4001ZM328.156 61.2761C330.116 61.2761 331.675 60.7348 332.832 59.6521C334.008 58.5508 334.596 57.0668 334.596 55.2001C334.596 53.3334 334.008 51.8588 332.832 50.7761C331.675 49.6748 330.116 49.1241 328.156 49.1241H324.012V61.2761H328.156Z" fill="black"/>
<path d="M357.057 57.5241C357.057 57.5801 357.029 57.9721 356.973 58.7001H345.577C345.782 59.6334 346.268 60.3708 347.033 60.9121C347.798 61.4534 348.75 61.7241 349.889 61.7241C350.673 61.7241 351.364 61.6121 351.961 61.3881C352.577 61.1454 353.146 60.7721 353.669 60.2681L355.993 62.7881C354.574 64.4121 352.502 65.2241 349.777 65.2241C348.078 65.2241 346.576 64.8974 345.269 64.2441C343.962 63.5721 342.954 62.6481 342.245 61.4721C341.536 60.2961 341.181 58.9614 341.181 57.4681C341.181 55.9934 341.526 54.6681 342.217 53.4921C342.926 52.2974 343.888 51.3734 345.101 50.7201C346.333 50.0481 347.705 49.7121 349.217 49.7121C350.692 49.7121 352.026 50.0294 353.221 50.6641C354.416 51.2988 355.349 52.2134 356.021 53.4081C356.712 54.5841 357.057 55.9561 357.057 57.5241ZM349.245 53.0161C348.256 53.0161 347.425 53.2961 346.753 53.8561C346.081 54.4161 345.67 55.1814 345.521 56.1521H352.941C352.792 55.2001 352.381 54.4441 351.709 53.8841C351.037 53.3054 350.216 53.0161 349.245 53.0161Z" fill="black"/>
<path d="M374.644 49.9361L368.288 65.0001H363.78L357.452 49.9361H361.96L366.132 60.1841L370.444 49.9361H374.644Z" fill="black"/>
<path d="M376.426 49.9361H380.794V65.0001H376.426V49.9361ZM378.61 47.8361C377.807 47.8361 377.154 47.6028 376.65 47.1361C376.146 46.6694 375.894 46.0908 375.894 45.4001C375.894 44.7094 376.146 44.1308 376.65 43.6641C377.154 43.1974 377.807 42.9641 378.61 42.9641C379.413 42.9641 380.066 43.1881 380.57 43.6361C381.074 44.0841 381.326 44.6441 381.326 45.3161C381.326 46.0441 381.074 46.6508 380.57 47.1361C380.066 47.6028 379.413 47.8361 378.61 47.8361Z" fill="black"/>
<path d="M392.128 65.2241C390.523 65.2241 389.076 64.8974 387.788 64.2441C386.519 63.5721 385.52 62.6481 384.792 61.4721C384.083 60.2961 383.728 58.9614 383.728 57.4681C383.728 55.9748 384.083 54.6401 384.792 53.4641C385.52 52.2881 386.519 51.3734 387.788 50.7201C389.076 50.0481 390.523 49.7121 392.128 49.7121C393.715 49.7121 395.096 50.0481 396.272 50.7201C397.467 51.3734 398.335 52.3161 398.876 53.5481L395.488 55.3681C394.704 53.9868 393.575 53.2961 392.1 53.2961C390.961 53.2961 390.019 53.6694 389.272 54.4161C388.525 55.1628 388.152 56.1801 388.152 57.4681C388.152 58.7561 388.525 59.7734 389.272 60.5201C390.019 61.2668 390.961 61.6401 392.1 61.6401C393.593 61.6401 394.723 60.9494 395.488 59.5681L398.876 61.4161C398.335 62.6108 397.467 63.5441 396.272 64.2161C395.096 64.8881 393.715 65.2241 392.128 65.2241Z" fill="black"/>
<path d="M415.956 57.5241C415.956 57.5801 415.928 57.9721 415.872 58.7001H404.476C404.681 59.6334 405.166 60.3708 405.932 60.9121C406.697 61.4534 407.649 61.7241 408.788 61.7241C409.572 61.7241 410.262 61.6121 410.86 61.3881C411.476 61.1454 412.045 60.7721 412.568 60.2681L414.892 62.7881C413.473 64.4121 411.401 65.2241 408.676 65.2241C406.977 65.2241 405.474 64.8974 404.168 64.2441C402.861 63.5721 401.853 62.6481 401.144 61.4721C400.434 60.2961 400.08 58.9614 400.08 57.4681C400.08 55.9934 400.425 54.6681 401.116 53.4921C401.825 52.2974 402.786 51.3734 404 50.7201C405.232 50.0481 406.604 49.7121 408.116 49.7121C409.59 49.7121 410.925 50.0294 412.12 50.6641C413.314 51.2988 414.248 52.2134 414.92 53.4081C415.61 54.5841 415.956 55.9561 415.956 57.5241ZM408.144 53.0161C407.154 53.0161 406.324 53.2961 405.652 53.8561C404.98 54.4161 404.569 55.1814 404.42 56.1521H411.84C411.69 55.2001 411.28 54.4441 410.608 53.8841C409.936 53.3054 409.114 53.0161 408.144 53.0161Z" fill="black"/>
<rect x="45" y="682" width="646" height="138" fill="#F6F6F6"/>
<path d="M206.937 741.4V761H204.893V751.956H192.629V761H190.557V741.4H192.629V750.136H204.893V741.4H206.937Z" fill="black"/>
<path d="M218.067 746.16C219.989 746.16 221.464 746.645 222.491 747.616C223.517 748.568 224.031 749.987 224.031 751.872V761H222.127V758.704C221.679 759.469 221.016 760.067 220.139 760.496C219.28 760.925 218.253 761.14 217.059 761.14C215.416 761.14 214.109 760.748 213.139 759.964C212.168 759.18 211.683 758.144 211.683 756.856C211.683 755.605 212.131 754.597 213.027 753.832C213.941 753.067 215.388 752.684 217.367 752.684H222.043V751.788C222.043 750.519 221.688 749.557 220.979 748.904C220.269 748.232 219.233 747.896 217.871 747.896C216.937 747.896 216.041 748.055 215.183 748.372C214.324 748.671 213.587 749.091 212.971 749.632L212.075 748.148C212.821 747.513 213.717 747.028 214.763 746.692C215.808 746.337 216.909 746.16 218.067 746.16ZM217.367 759.572C218.487 759.572 219.448 759.32 220.251 758.816C221.053 758.293 221.651 757.547 222.043 756.576V754.168H217.423C214.903 754.168 213.643 755.045 213.643 756.8C213.643 757.659 213.969 758.34 214.623 758.844C215.276 759.329 216.191 759.572 217.367 759.572Z" fill="black"/>
<path d="M231.334 749.156C231.801 748.167 232.492 747.42 233.406 746.916C234.34 746.412 235.488 746.16 236.85 746.16V748.092L236.374 748.064C234.825 748.064 233.612 748.54 232.734 749.492C231.857 750.444 231.418 751.779 231.418 753.496V761H229.43V746.272H231.334V749.156Z" fill="black"/>
<path d="M253.753 740.224V761H251.849V758.088C251.252 759.077 250.458 759.833 249.469 760.356C248.498 760.879 247.397 761.14 246.165 761.14C244.784 761.14 243.533 760.823 242.413 760.188C241.293 759.553 240.416 758.667 239.781 757.528C239.146 756.389 238.829 755.092 238.829 753.636C238.829 752.18 239.146 750.883 239.781 749.744C240.416 748.605 241.293 747.728 242.413 747.112C243.533 746.477 244.784 746.16 246.165 746.16C247.36 746.16 248.433 746.412 249.385 746.916C250.356 747.401 251.149 748.12 251.765 749.072V740.224H253.753ZM246.333 759.376C247.36 759.376 248.284 759.143 249.105 758.676C249.945 758.191 250.598 757.509 251.065 756.632C251.55 755.755 251.793 754.756 251.793 753.636C251.793 752.516 251.55 751.517 251.065 750.64C250.598 749.763 249.945 749.091 249.105 748.624C248.284 748.139 247.36 747.896 246.333 747.896C245.288 747.896 244.345 748.139 243.505 748.624C242.684 749.091 242.03 749.763 241.545 750.64C241.078 751.517 240.845 752.516 240.845 753.636C240.845 754.756 241.078 755.755 241.545 756.632C242.03 757.509 242.684 758.191 243.505 758.676C244.345 759.143 245.288 759.376 246.333 759.376Z" fill="black"/>
<path d="M280.906 746.272L275.334 761H273.458L268.81 748.932L264.162 761H262.286L256.742 746.272H258.646L263.266 758.788L267.998 746.272H269.706L274.41 758.788L279.086 746.272H280.906Z" fill="black"/>
<path d="M288.613 746.16C290.536 746.16 292.011 746.645 293.037 747.616C294.064 748.568 294.577 749.987 294.577 751.872V761H292.673V758.704C292.225 759.469 291.563 760.067 290.685 760.496C289.827 760.925 288.8 761.14 287.605 761.14C285.963 761.14 284.656 760.748 283.685 759.964C282.715 759.18 282.229 758.144 282.229 756.856C282.229 755.605 282.677 754.597 283.573 753.832C284.488 753.067 285.935 752.684 287.913 752.684H292.589V751.788C292.589 750.519 292.235 749.557 291.525 748.904C290.816 748.232 289.78 747.896 288.417 747.896C287.484 747.896 286.588 748.055 285.729 748.372C284.871 748.671 284.133 749.091 283.517 749.632L282.621 748.148C283.368 747.513 284.264 747.028 285.309 746.692C286.355 746.337 287.456 746.16 288.613 746.16ZM287.913 759.572C289.033 759.572 289.995 759.32 290.797 758.816C291.6 758.293 292.197 757.547 292.589 756.576V754.168H287.969C285.449 754.168 284.189 755.045 284.189 756.8C284.189 757.659 284.516 758.34 285.169 758.844C285.823 759.329 286.737 759.572 287.913 759.572Z" fill="black"/>
<path d="M301.881 749.156C302.348 748.167 303.038 747.42 303.953 746.916C304.886 746.412 306.034 746.16 307.397 746.16V748.092L306.921 748.064C305.372 748.064 304.158 748.54 303.281 749.492C302.404 750.444 301.965 751.779 301.965 753.496V761H299.977V746.272H301.881V749.156Z" fill="black"/>
<path d="M323.684 754.252H311.364C311.476 755.783 312.064 757.024 313.128 757.976C314.192 758.909 315.536 759.376 317.16 759.376C318.075 759.376 318.915 759.217 319.68 758.9C320.445 758.564 321.108 758.079 321.668 757.444L322.788 758.732C322.135 759.516 321.313 760.113 320.324 760.524C319.353 760.935 318.28 761.14 317.104 761.14C315.592 761.14 314.248 760.823 313.072 760.188C311.915 759.535 311.009 758.639 310.356 757.5C309.703 756.361 309.376 755.073 309.376 753.636C309.376 752.199 309.684 750.911 310.3 749.772C310.935 748.633 311.793 747.747 312.876 747.112C313.977 746.477 315.209 746.16 316.572 746.16C317.935 746.16 319.157 746.477 320.24 747.112C321.323 747.747 322.172 748.633 322.788 749.772C323.404 750.892 323.712 752.18 323.712 753.636L323.684 754.252ZM316.572 747.868C315.153 747.868 313.959 748.325 312.988 749.24C312.036 750.136 311.495 751.312 311.364 752.768H321.808C321.677 751.312 321.127 750.136 320.156 749.24C319.204 748.325 318.009 747.868 316.572 747.868Z" fill="black"/>
<path d="M327.982 758.088C328.412 758.088 328.766 758.237 329.046 758.536C329.326 758.816 329.466 759.171 329.466 759.6C329.466 759.824 329.429 760.067 329.354 760.328C329.298 760.589 329.205 760.888 329.074 761.224L327.898 765.088H326.554L327.506 761.028C327.208 760.935 326.965 760.767 326.778 760.524C326.592 760.263 326.498 759.955 326.498 759.6C326.498 759.171 326.638 758.816 326.918 758.536C327.198 758.237 327.553 758.088 327.982 758.088Z" fill="black"/>
<path d="M350.008 761.168C348.067 761.168 346.303 760.739 344.716 759.88C343.148 759.003 341.916 757.808 341.02 756.296C340.143 754.784 339.704 753.085 339.704 751.2C339.704 749.315 340.143 747.616 341.02 746.104C341.916 744.592 343.148 743.407 344.716 742.548C346.303 741.671 348.067 741.232 350.008 741.232C351.949 741.232 353.695 741.661 355.244 742.52C356.812 743.379 358.044 744.573 358.94 746.104C359.836 747.616 360.284 749.315 360.284 751.2C360.284 753.085 359.836 754.793 358.94 756.324C358.044 757.836 356.812 759.021 355.244 759.88C353.695 760.739 351.949 761.168 350.008 761.168ZM350.008 759.32C351.557 759.32 352.957 758.975 354.208 758.284C355.459 757.575 356.439 756.604 357.148 755.372C357.857 754.121 358.212 752.731 358.212 751.2C358.212 749.669 357.857 748.288 357.148 747.056C356.439 745.805 355.459 744.835 354.208 744.144C352.957 743.435 351.557 743.08 350.008 743.08C348.459 743.08 347.049 743.435 345.78 744.144C344.529 744.835 343.54 745.805 342.812 747.056C342.103 748.288 341.748 749.669 341.748 751.2C341.748 752.731 342.103 754.121 342.812 755.372C343.54 756.604 344.529 757.575 345.78 758.284C347.049 758.975 348.459 759.32 350.008 759.32Z" fill="black"/>
<path d="M370.332 761.168C368.876 761.168 367.476 760.935 366.132 760.468C364.807 760.001 363.78 759.385 363.052 758.62L363.864 757.024C364.574 757.733 365.516 758.312 366.692 758.76C367.868 759.189 369.082 759.404 370.332 759.404C372.087 759.404 373.403 759.087 374.28 758.452C375.158 757.799 375.596 756.959 375.596 755.932C375.596 755.148 375.354 754.523 374.868 754.056C374.402 753.589 373.823 753.235 373.132 752.992C372.442 752.731 371.48 752.451 370.248 752.152C368.774 751.779 367.598 751.424 366.72 751.088C365.843 750.733 365.087 750.201 364.452 749.492C363.836 748.783 363.528 747.821 363.528 746.608C363.528 745.619 363.79 744.723 364.312 743.92C364.835 743.099 365.638 742.445 366.72 741.96C367.803 741.475 369.147 741.232 370.752 741.232C371.872 741.232 372.964 741.391 374.028 741.708C375.111 742.007 376.044 742.427 376.828 742.968L376.128 744.62C375.307 744.079 374.43 743.677 373.496 743.416C372.563 743.136 371.648 742.996 370.752 742.996C369.035 742.996 367.738 743.332 366.86 744.004C366.002 744.657 365.572 745.507 365.572 746.552C365.572 747.336 365.806 747.971 366.272 748.456C366.758 748.923 367.355 749.287 368.064 749.548C368.792 749.791 369.763 750.061 370.976 750.36C372.414 750.715 373.571 751.069 374.448 751.424C375.344 751.76 376.1 752.283 376.716 752.992C377.332 753.683 377.64 754.625 377.64 755.82C377.64 756.809 377.37 757.715 376.828 758.536C376.306 759.339 375.494 759.983 374.392 760.468C373.291 760.935 371.938 761.168 370.332 761.168Z" fill="black"/>
<path d="M382.506 758.088C382.935 758.088 383.29 758.237 383.57 758.536C383.85 758.816 383.99 759.171 383.99 759.6C383.99 759.824 383.952 760.067 383.878 760.328C383.822 760.589 383.728 760.888 383.598 761.224L382.422 765.088H381.078L382.03 761.028C381.731 760.935 381.488 760.767 381.302 760.524C381.115 760.263 381.022 759.955 381.022 759.6C381.022 759.171 381.162 758.816 381.442 758.536C381.722 758.237 382.076 758.088 382.506 758.088Z" fill="black"/>
<path d="M412.343 741.4V761H410.635L398.035 745.096V761H395.963V741.4H397.671L410.299 757.304V741.4H412.343Z" fill="black"/>
<path d="M431.145 754.252H418.825C418.937 755.783 419.525 757.024 420.589 757.976C421.653 758.909 422.997 759.376 424.621 759.376C425.536 759.376 426.375 759.217 427.141 758.9C427.906 758.564 428.569 758.079 429.129 757.444L430.249 758.732C429.595 759.516 428.774 760.113 427.785 760.524C426.814 760.935 425.741 761.14 424.565 761.14C423.053 761.14 421.709 760.823 420.533 760.188C419.375 759.535 418.47 758.639 417.817 757.5C417.164 756.361 416.837 755.073 416.837 753.636C416.837 752.199 417.145 750.911 417.761 749.772C418.396 748.633 419.254 747.747 420.337 747.112C421.438 746.477 422.67 746.16 424.033 746.16C425.395 746.16 426.618 746.477 427.701 747.112C428.784 747.747 429.633 748.633 430.249 749.772C430.865 750.892 431.173 752.18 431.173 753.636L431.145 754.252ZM424.033 747.868C422.614 747.868 421.419 748.325 420.449 749.24C419.497 750.136 418.955 751.312 418.825 752.768H429.269C429.138 751.312 428.587 750.136 427.617 749.24C426.665 748.325 425.47 747.868 424.033 747.868Z" fill="black"/>
<path d="M442.975 760.104C442.602 760.44 442.135 760.701 441.575 760.888C441.034 761.056 440.465 761.14 439.867 761.14C438.486 761.14 437.422 760.767 436.675 760.02C435.929 759.273 435.555 758.219 435.555 756.856V747.952H432.923V746.272H435.555V743.052H437.543V746.272H442.023V747.952H437.543V756.744C437.543 757.621 437.758 758.293 438.187 758.76C438.635 759.208 439.27 759.432 440.091 759.432C440.502 759.432 440.894 759.367 441.267 759.236C441.659 759.105 441.995 758.919 442.275 758.676L442.975 760.104Z" fill="black"/>
<path d="M467.937 746.272L462.365 761H460.489L455.841 748.932L451.193 761H449.317L443.773 746.272H445.677L450.297 758.788L455.029 746.272H456.737L461.441 758.788L466.117 746.272H467.937Z" fill="black"/>
<path d="M476.54 761.14C475.121 761.14 473.843 760.823 472.704 760.188C471.565 759.535 470.669 758.639 470.016 757.5C469.363 756.361 469.036 755.073 469.036 753.636C469.036 752.199 469.363 750.911 470.016 749.772C470.669 748.633 471.565 747.747 472.704 747.112C473.843 746.477 475.121 746.16 476.54 746.16C477.959 746.16 479.237 746.477 480.376 747.112C481.515 747.747 482.401 748.633 483.036 749.772C483.689 750.911 484.016 752.199 484.016 753.636C484.016 755.073 483.689 756.361 483.036 757.5C482.401 758.639 481.515 759.535 480.376 760.188C479.237 760.823 477.959 761.14 476.54 761.14ZM476.54 759.376C477.585 759.376 478.519 759.143 479.34 758.676C480.18 758.191 480.833 757.509 481.3 756.632C481.767 755.755 482 754.756 482 753.636C482 752.516 481.767 751.517 481.3 750.64C480.833 749.763 480.18 749.091 479.34 748.624C478.519 748.139 477.585 747.896 476.54 747.896C475.495 747.896 474.552 748.139 473.712 748.624C472.891 749.091 472.237 749.763 471.752 750.64C471.285 751.517 471.052 752.516 471.052 753.636C471.052 754.756 471.285 755.755 471.752 756.632C472.237 757.509 472.891 758.191 473.712 758.676C474.552 759.143 475.495 759.376 476.54 759.376Z" fill="black"/>
<path d="M489.979 749.156C490.445 748.167 491.136 747.42 492.051 746.916C492.984 746.412 494.132 746.16 495.495 746.16V748.092L495.019 748.064C493.469 748.064 492.256 748.54 491.379 749.492C490.501 750.444 490.063 751.779 490.063 753.496V761H488.075V746.272H489.979V749.156Z" fill="black"/>
<path d="M504.554 753.608L501.082 756.8V761H499.094V740.224H501.082V754.308L509.874 746.272H512.338L506.038 752.292L512.926 761H510.49L504.554 753.608Z" fill="black"/>
<path d="M523.659 741.4H525.731V761H523.659V741.4Z" fill="black"/>
<path d="M534.18 743.192V750.892H544.316V752.684H534.18V761H532.108V741.4H545.548V743.192H534.18Z" fill="black"/>
<rect x="45" y="119" width="646" height="523" fill="#F6F6F6"/>
<rect x="87" y="234" width="262" height="95" fill="white"/>
<path d="M155.812 272.564V275H141.588V255.4H155.42V257.836H144.388V263.856H154.216V266.236H144.388V272.564H155.812Z" fill="black"/>
<path d="M172.335 272.564V275H158.251V273.096L166.231 265.396C167.202 264.463 167.855 263.66 168.191 262.988C168.527 262.297 168.695 261.607 168.695 260.916C168.695 259.889 168.331 259.096 167.603 258.536C166.894 257.957 165.867 257.668 164.523 257.668C162.358 257.668 160.687 258.377 159.511 259.796L157.607 258.144C158.372 257.211 159.371 256.483 160.603 255.96C161.854 255.437 163.244 255.176 164.775 255.176C166.828 255.176 168.462 255.671 169.675 256.66C170.888 257.631 171.495 258.956 171.495 260.636C171.495 261.681 171.271 262.671 170.823 263.604C170.375 264.537 169.526 265.601 168.275 266.796L162.283 272.564H172.335Z" fill="black"/>
<path d="M190.457 272.564V275H176.233V255.4H190.065V257.836H179.033V263.856H188.861V266.236H179.033V272.564H190.457Z" fill="black"/>
<path d="M208.222 275.224C206.748 275.224 205.32 275 203.938 274.552C202.576 274.085 201.502 273.488 200.718 272.76L201.754 270.576C202.501 271.248 203.453 271.799 204.61 272.228C205.786 272.639 206.99 272.844 208.222 272.844C209.846 272.844 211.06 272.573 211.862 272.032C212.665 271.472 213.066 270.735 213.066 269.82C213.066 269.148 212.842 268.607 212.394 268.196C211.965 267.767 211.424 267.44 210.77 267.216C210.136 266.992 209.23 266.74 208.054 266.46C206.58 266.105 205.385 265.751 204.47 265.396C203.574 265.041 202.8 264.5 202.146 263.772C201.512 263.025 201.194 262.027 201.194 260.776C201.194 259.731 201.465 258.788 202.006 257.948C202.566 257.108 203.406 256.436 204.526 255.932C205.646 255.428 207.037 255.176 208.698 255.176C209.856 255.176 210.994 255.325 212.114 255.624C213.234 255.923 214.196 256.352 214.998 256.912L214.074 259.152C213.253 258.629 212.376 258.237 211.442 257.976C210.509 257.696 209.594 257.556 208.698 257.556C207.112 257.556 205.917 257.845 205.114 258.424C204.33 259.003 203.938 259.749 203.938 260.664C203.938 261.336 204.162 261.887 204.61 262.316C205.058 262.727 205.609 263.053 206.262 263.296C206.934 263.52 207.84 263.763 208.978 264.024C210.453 264.379 211.638 264.733 212.534 265.088C213.43 265.443 214.196 265.984 214.83 266.712C215.484 267.44 215.81 268.42 215.81 269.652C215.81 270.679 215.53 271.621 214.97 272.48C214.41 273.32 213.561 273.992 212.422 274.496C211.284 274.981 209.884 275.224 208.222 275.224Z" fill="black"/>
<path d="M232.921 267.664C232.921 267.869 232.902 268.14 232.865 268.476H220.825C220.993 269.783 221.562 270.837 222.533 271.64C223.522 272.424 224.745 272.816 226.201 272.816C227.974 272.816 229.402 272.219 230.485 271.024L231.969 272.76C231.297 273.544 230.457 274.141 229.449 274.552C228.46 274.963 227.349 275.168 226.117 275.168C224.549 275.168 223.158 274.851 221.945 274.216C220.732 273.563 219.789 272.657 219.117 271.5C218.464 270.343 218.137 269.036 218.137 267.58C218.137 266.143 218.454 264.845 219.089 263.688C219.742 262.531 220.629 261.635 221.749 261C222.888 260.347 224.166 260.02 225.585 260.02C227.004 260.02 228.264 260.347 229.365 261C230.485 261.635 231.353 262.531 231.969 263.688C232.604 264.845 232.921 266.171 232.921 267.664ZM225.585 262.288C224.297 262.288 223.214 262.68 222.337 263.464C221.478 264.248 220.974 265.275 220.825 266.544H230.345C230.196 265.293 229.682 264.276 228.805 263.492C227.946 262.689 226.873 262.288 225.585 262.288Z" fill="black"/>
<path d="M243.121 275.168C241.609 275.168 240.256 274.841 239.061 274.188C237.885 273.535 236.961 272.639 236.289 271.5C235.617 270.343 235.281 269.036 235.281 267.58C235.281 266.124 235.617 264.827 236.289 263.688C236.961 262.531 237.885 261.635 239.061 261C240.256 260.347 241.609 260.02 243.121 260.02C244.465 260.02 245.66 260.291 246.705 260.832C247.769 261.373 248.591 262.157 249.169 263.184L247.125 264.5C246.659 263.791 246.08 263.259 245.389 262.904C244.699 262.549 243.933 262.372 243.093 262.372C242.123 262.372 241.245 262.587 240.461 263.016C239.696 263.445 239.089 264.061 238.641 264.864C238.212 265.648 237.997 266.553 237.997 267.58C237.997 268.625 238.212 269.549 238.641 270.352C239.089 271.136 239.696 271.743 240.461 272.172C241.245 272.601 242.123 272.816 243.093 272.816C243.933 272.816 244.699 272.639 245.389 272.284C246.08 271.929 246.659 271.397 247.125 270.688L249.169 271.976C248.591 273.003 247.769 273.796 246.705 274.356C245.66 274.897 244.465 275.168 243.121 275.168Z" fill="black"/>
<path d="M266.482 260.16V275H263.934V272.76C263.392 273.525 262.674 274.123 261.778 274.552C260.9 274.963 259.939 275.168 258.894 275.168C256.915 275.168 255.356 274.627 254.218 273.544C253.079 272.443 252.51 270.828 252.51 268.7V260.16H255.198V268.392C255.198 269.829 255.543 270.921 256.234 271.668C256.924 272.396 257.914 272.76 259.202 272.76C260.62 272.76 261.74 272.331 262.562 271.472C263.383 270.613 263.794 269.4 263.794 267.832V260.16H266.482Z" fill="black"/>
<path d="M274.175 262.652C274.641 261.793 275.332 261.14 276.247 260.692C277.161 260.244 278.272 260.02 279.579 260.02V262.624C279.429 262.605 279.224 262.596 278.963 262.596C277.507 262.596 276.359 263.035 275.519 263.912C274.697 264.771 274.287 266.003 274.287 267.608V275H271.599V260.16H274.175V262.652Z" fill="black"/>
<path d="M296.167 267.664C296.167 267.869 296.148 268.14 296.111 268.476H284.071C284.239 269.783 284.808 270.837 285.779 271.64C286.768 272.424 287.991 272.816 289.447 272.816C291.22 272.816 292.648 272.219 293.731 271.024L295.215 272.76C294.543 273.544 293.703 274.141 292.695 274.552C291.706 274.963 290.595 275.168 289.363 275.168C287.795 275.168 286.404 274.851 285.191 274.216C283.978 273.563 283.035 272.657 282.363 271.5C281.71 270.343 281.383 269.036 281.383 267.58C281.383 266.143 281.7 264.845 282.335 263.688C282.988 262.531 283.875 261.635 284.995 261C286.134 260.347 287.412 260.02 288.831 260.02C290.25 260.02 291.51 260.347 292.611 261C293.731 261.635 294.599 262.531 295.215 263.688C295.85 264.845 296.167 266.171 296.167 267.664ZM288.831 262.288C287.543 262.288 286.46 262.68 285.583 263.464C284.724 264.248 284.22 265.275 284.071 266.544H293.591C293.442 265.293 292.928 264.276 292.051 263.492C291.192 262.689 290.119 262.288 288.831 262.288Z" fill="black"/>
<path d="M178.486 309.224C177.011 309.224 175.583 309 174.202 308.552C172.839 308.085 171.766 307.488 170.982 306.76L172.018 304.576C172.765 305.248 173.717 305.799 174.874 306.228C176.05 306.639 177.254 306.844 178.486 306.844C180.11 306.844 181.323 306.573 182.126 306.032C182.929 305.472 183.33 304.735 183.33 303.82C183.33 303.148 183.106 302.607 182.658 302.196C182.229 301.767 181.687 301.44 181.034 301.216C180.399 300.992 179.494 300.74 178.318 300.46C176.843 300.105 175.649 299.751 174.734 299.396C173.838 299.041 173.063 298.5 172.41 297.772C171.775 297.025 171.458 296.027 171.458 294.776C171.458 293.731 171.729 292.788 172.27 291.948C172.83 291.108 173.67 290.436 174.79 289.932C175.91 289.428 177.301 289.176 178.962 289.176C180.119 289.176 181.258 289.325 182.378 289.624C183.498 289.923 184.459 290.352 185.262 290.912L184.338 293.152C183.517 292.629 182.639 292.237 181.706 291.976C180.773 291.696 179.858 291.556 178.962 291.556C177.375 291.556 176.181 291.845 175.378 292.424C174.594 293.003 174.202 293.749 174.202 294.664C174.202 295.336 174.426 295.887 174.874 296.316C175.322 296.727 175.873 297.053 176.526 297.296C177.198 297.52 178.103 297.763 179.242 298.024C180.717 298.379 181.902 298.733 182.798 299.088C183.694 299.443 184.459 299.984 185.094 300.712C185.747 301.44 186.074 302.42 186.074 303.652C186.074 304.679 185.794 305.621 185.234 306.48C184.674 307.32 183.825 307.992 182.686 308.496C181.547 308.981 180.147 309.224 178.486 309.224Z" fill="black"/>
<path d="M196.129 309.168C194.654 309.168 193.329 308.841 192.153 308.188C190.977 307.535 190.053 306.639 189.381 305.5C188.727 304.343 188.401 303.036 188.401 301.58C188.401 300.124 188.727 298.827 189.381 297.688C190.053 296.531 190.977 295.635 192.153 295C193.329 294.347 194.654 294.02 196.129 294.02C197.603 294.02 198.919 294.347 200.077 295C201.253 295.635 202.167 296.531 202.821 297.688C203.493 298.827 203.829 300.124 203.829 301.58C203.829 303.036 203.493 304.343 202.821 305.5C202.167 306.639 201.253 307.535 200.077 308.188C198.919 308.841 197.603 309.168 196.129 309.168ZM196.129 306.816C197.081 306.816 197.93 306.601 198.677 306.172C199.442 305.724 200.039 305.108 200.469 304.324C200.898 303.521 201.113 302.607 201.113 301.58C201.113 300.553 200.898 299.648 200.469 298.864C200.039 298.061 199.442 297.445 198.677 297.016C197.93 296.587 197.081 296.372 196.129 296.372C195.177 296.372 194.318 296.587 193.553 297.016C192.806 297.445 192.209 298.061 191.761 298.864C191.331 299.648 191.117 300.553 191.117 301.58C191.117 302.607 191.331 303.521 191.761 304.324C192.209 305.108 192.806 305.724 193.553 306.172C194.318 306.601 195.177 306.816 196.129 306.816Z" fill="black"/>
<path d="M214.014 309.168C212.502 309.168 211.149 308.841 209.954 308.188C208.778 307.535 207.854 306.639 207.182 305.5C206.51 304.343 206.174 303.036 206.174 301.58C206.174 300.124 206.51 298.827 207.182 297.688C207.854 296.531 208.778 295.635 209.954 295C211.149 294.347 212.502 294.02 214.014 294.02C215.358 294.02 216.553 294.291 217.598 294.832C218.662 295.373 219.483 296.157 220.062 297.184L218.018 298.5C217.551 297.791 216.973 297.259 216.282 296.904C215.591 296.549 214.826 296.372 213.986 296.372C213.015 296.372 212.138 296.587 211.354 297.016C210.589 297.445 209.982 298.061 209.534 298.864C209.105 299.648 208.89 300.553 208.89 301.58C208.89 302.625 209.105 303.549 209.534 304.352C209.982 305.136 210.589 305.743 211.354 306.172C212.138 306.601 213.015 306.816 213.986 306.816C214.826 306.816 215.591 306.639 216.282 306.284C216.973 305.929 217.551 305.397 218.018 304.688L220.062 305.976C219.483 307.003 218.662 307.796 217.598 308.356C216.553 308.897 215.358 309.168 214.014 309.168Z" fill="black"/>
<path d="M229.119 302.084L226.039 304.94V309H223.351V288.224H226.039V301.552L234.131 294.16H237.379L231.135 300.292L237.995 309H234.691L229.119 302.084Z" fill="black"/>
<path d="M253.388 301.664C253.388 301.869 253.369 302.14 253.332 302.476H241.292C241.46 303.783 242.029 304.837 243 305.64C243.989 306.424 245.212 306.816 246.668 306.816C248.441 306.816 249.869 306.219 250.952 305.024L252.436 306.76C251.764 307.544 250.924 308.141 249.916 308.552C248.926 308.963 247.816 309.168 246.584 309.168C245.016 309.168 243.625 308.851 242.412 308.216C241.198 307.563 240.256 306.657 239.584 305.5C238.93 304.343 238.604 303.036 238.604 301.58C238.604 300.143 238.921 298.845 239.556 297.688C240.209 296.531 241.096 295.635 242.216 295C243.354 294.347 244.633 294.02 246.052 294.02C247.47 294.02 248.73 294.347 249.832 295C250.952 295.635 251.82 296.531 252.436 297.688C253.07 298.845 253.388 300.171 253.388 301.664ZM246.052 296.288C244.764 296.288 243.681 296.68 242.804 297.464C241.945 298.248 241.441 299.275 241.292 300.544H250.812C250.662 299.293 250.149 298.276 249.272 297.492C248.413 296.689 247.34 296.288 246.052 296.288Z" fill="black"/>
<path d="M265.464 308.132C265.072 308.468 264.587 308.729 264.008 308.916C263.43 309.084 262.832 309.168 262.216 309.168C260.723 309.168 259.566 308.767 258.744 307.964C257.923 307.161 257.512 306.013 257.512 304.52V296.372H254.992V294.16H257.512V290.912H260.2V294.16H264.456V296.372H260.2V304.408C260.2 305.211 260.396 305.827 260.788 306.256C261.199 306.685 261.778 306.9 262.524 306.9C263.346 306.9 264.046 306.667 264.624 306.2L265.464 308.132Z" fill="black"/>
<rect x="87" y="367" width="564" height="95" fill="white"/>
<path d="M252.428 416.292L248.844 419.932V425H246.044V405.4H248.844V416.348L259.484 405.4H262.676L254.304 414.22L263.208 425H259.932L252.428 416.292Z" fill="black"/>
<path d="M278.532 417.664C278.532 417.869 278.514 418.14 278.476 418.476H266.436C266.604 419.783 267.174 420.837 268.144 421.64C269.134 422.424 270.356 422.816 271.812 422.816C273.586 422.816 275.014 422.219 276.096 421.024L277.58 422.76C276.908 423.544 276.068 424.141 275.06 424.552C274.071 424.963 272.96 425.168 271.728 425.168C270.16 425.168 268.77 424.851 267.556 424.216C266.343 423.563 265.4 422.657 264.728 421.5C264.075 420.343 263.748 419.036 263.748 417.58C263.748 416.143 264.066 414.845 264.7 413.688C265.354 412.531 266.24 411.635 267.36 411C268.499 410.347 269.778 410.02 271.196 410.02C272.615 410.02 273.875 410.347 274.976 411C276.096 411.635 276.964 412.531 277.58 413.688C278.215 414.845 278.532 416.171 278.532 417.664ZM271.196 412.288C269.908 412.288 268.826 412.68 267.948 413.464C267.09 414.248 266.586 415.275 266.436 416.544H275.956C275.807 415.293 275.294 414.276 274.416 413.492C273.558 412.689 272.484 412.288 271.196 412.288Z" fill="black"/>
<path d="M295.123 410.16L287.927 426.484C287.293 427.996 286.546 429.06 285.687 429.676C284.847 430.292 283.83 430.6 282.635 430.6C281.907 430.6 281.198 430.479 280.507 430.236C279.835 430.012 279.275 429.676 278.827 429.228L279.975 427.212C280.741 427.94 281.627 428.304 282.635 428.304C283.289 428.304 283.83 428.127 284.259 427.772C284.707 427.436 285.109 426.848 285.463 426.008L285.939 424.972L279.387 410.16H282.187L287.367 422.032L292.491 410.16H295.123Z" fill="black"/>
<path d="M323.716 425L323.688 410.72L316.604 422.62H315.316L308.232 410.804V425H305.544V405.4H307.84L316.016 419.176L324.08 405.4H326.376L326.404 425H323.716Z" fill="black"/>
<path d="M337.298 410.02C339.351 410.02 340.919 410.524 342.002 411.532C343.103 412.54 343.654 414.043 343.654 416.04V425H341.106V423.04C340.658 423.731 340.014 424.263 339.174 424.636C338.352 424.991 337.372 425.168 336.234 425.168C334.572 425.168 333.238 424.767 332.23 423.964C331.24 423.161 330.746 422.107 330.746 420.8C330.746 419.493 331.222 418.448 332.174 417.664C333.126 416.861 334.638 416.46 336.71 416.46H340.966V415.928C340.966 414.771 340.63 413.884 339.958 413.268C339.286 412.652 338.296 412.344 336.99 412.344C336.112 412.344 335.254 412.493 334.414 412.792C333.574 413.072 332.864 413.455 332.286 413.94L331.166 411.924C331.931 411.308 332.846 410.841 333.91 410.524C334.974 410.188 336.103 410.02 337.298 410.02ZM336.682 423.096C337.708 423.096 338.595 422.872 339.342 422.424C340.088 421.957 340.63 421.304 340.966 420.464V418.392H336.822C334.544 418.392 333.406 419.157 333.406 420.688C333.406 421.435 333.695 422.023 334.274 422.452C334.852 422.881 335.655 423.096 336.682 423.096Z" fill="black"/>
<path d="M356.552 410.02C358.437 410.02 359.931 410.571 361.032 411.672C362.152 412.755 362.712 414.351 362.712 416.46V425H360.024V416.768C360.024 415.331 359.679 414.248 358.988 413.52C358.297 412.792 357.308 412.428 356.02 412.428C354.564 412.428 353.416 412.857 352.576 413.716C351.736 414.556 351.316 415.769 351.316 417.356V425H348.628V410.16H351.204V412.4C351.745 411.635 352.473 411.047 353.388 410.636C354.321 410.225 355.376 410.02 356.552 410.02Z" fill="black"/>
<path d="M373.091 410.02C375.144 410.02 376.712 410.524 377.795 411.532C378.896 412.54 379.447 414.043 379.447 416.04V425H376.899V423.04C376.451 423.731 375.807 424.263 374.967 424.636C374.145 424.991 373.165 425.168 372.027 425.168C370.365 425.168 369.031 424.767 368.023 423.964C367.033 423.161 366.539 422.107 366.539 420.8C366.539 419.493 367.015 418.448 367.967 417.664C368.919 416.861 370.431 416.46 372.503 416.46H376.759V415.928C376.759 414.771 376.423 413.884 375.751 413.268C375.079 412.652 374.089 412.344 372.783 412.344C371.905 412.344 371.047 412.493 370.207 412.792C369.367 413.072 368.657 413.455 368.079 413.94L366.959 411.924C367.724 411.308 368.639 410.841 369.703 410.524C370.767 410.188 371.896 410.02 373.091 410.02ZM372.475 423.096C373.501 423.096 374.388 422.872 375.135 422.424C375.881 421.957 376.423 421.304 376.759 420.464V418.392H372.615C370.337 418.392 369.199 419.157 369.199 420.688C369.199 421.435 369.488 422.023 370.067 422.452C370.645 422.881 371.448 423.096 372.475 423.096Z" fill="black"/>
<path d="M398.699 410.16V422.984C398.699 425.579 398.055 427.492 396.767 428.724C395.479 429.975 393.556 430.6 390.999 430.6C389.599 430.6 388.264 430.404 386.995 430.012C385.726 429.639 384.699 429.097 383.915 428.388L385.203 426.316C385.894 426.913 386.743 427.38 387.751 427.716C388.778 428.071 389.832 428.248 390.915 428.248C392.651 428.248 393.93 427.837 394.751 427.016C395.591 426.195 396.011 424.944 396.011 423.264V422.088C395.376 422.853 394.592 423.432 393.659 423.824C392.744 424.197 391.746 424.384 390.663 424.384C389.244 424.384 387.956 424.085 386.799 423.488C385.66 422.872 384.764 422.023 384.111 420.94C383.458 419.839 383.131 418.588 383.131 417.188C383.131 415.788 383.458 414.547 384.111 413.464C384.764 412.363 385.66 411.513 386.799 410.916C387.956 410.319 389.244 410.02 390.663 410.02C391.783 410.02 392.819 410.225 393.771 410.636C394.742 411.047 395.535 411.653 396.151 412.456V410.16H398.699ZM390.971 422.032C391.942 422.032 392.81 421.827 393.575 421.416C394.359 421.005 394.966 420.436 395.395 419.708C395.843 418.961 396.067 418.121 396.067 417.188C396.067 415.751 395.591 414.593 394.639 413.716C393.687 412.82 392.464 412.372 390.971 412.372C389.459 412.372 388.227 412.82 387.275 413.716C386.323 414.593 385.847 415.751 385.847 417.188C385.847 418.121 386.062 418.961 386.491 419.708C386.939 420.436 387.546 421.005 388.311 421.416C389.095 421.827 389.982 422.032 390.971 422.032Z" fill="black"/>
<path d="M417.247 417.664C417.247 417.869 417.228 418.14 417.191 418.476H405.151C405.319 419.783 405.888 420.837 406.859 421.64C407.848 422.424 409.071 422.816 410.527 422.816C412.3 422.816 413.728 422.219 414.811 421.024L416.295 422.76C415.623 423.544 414.783 424.141 413.775 424.552C412.786 424.963 411.675 425.168 410.443 425.168C408.875 425.168 407.484 424.851 406.271 424.216C405.058 423.563 404.115 422.657 403.443 421.5C402.79 420.343 402.463 419.036 402.463 417.58C402.463 416.143 402.78 414.845 403.415 413.688C404.068 412.531 404.955 411.635 406.075 411C407.214 410.347 408.492 410.02 409.911 410.02C411.33 410.02 412.59 410.347 413.691 411C414.811 411.635 415.679 412.531 416.295 413.688C416.93 414.845 417.247 416.171 417.247 417.664ZM409.911 412.288C408.623 412.288 407.54 412.68 406.663 413.464C405.804 414.248 405.3 415.275 405.151 416.544H414.671C414.522 415.293 414.008 414.276 413.131 413.492C412.272 412.689 411.199 412.288 409.911 412.288Z" fill="black"/>
<path d="M439.544 410.02C441.41 410.02 442.885 410.561 443.968 411.644C445.069 412.727 445.62 414.332 445.62 416.46V425H442.932V416.768C442.932 415.331 442.596 414.248 441.924 413.52C441.27 412.792 440.328 412.428 439.096 412.428C437.733 412.428 436.65 412.857 435.848 413.716C435.045 414.556 434.644 415.769 434.644 417.356V425H431.956V416.768C431.956 415.331 431.62 414.248 430.948 413.52C430.294 412.792 429.352 412.428 428.12 412.428C426.757 412.428 425.674 412.857 424.872 413.716C424.069 414.556 423.668 415.769 423.668 417.356V425H420.98V410.16H423.556V412.372C424.097 411.607 424.806 411.028 425.684 410.636C426.561 410.225 427.56 410.02 428.68 410.02C429.837 410.02 430.864 410.253 431.76 410.72C432.656 411.187 433.346 411.868 433.832 412.764C434.392 411.905 435.166 411.233 436.156 410.748C437.164 410.263 438.293 410.02 439.544 410.02Z" fill="black"/>
<path d="M464.06 417.664C464.06 417.869 464.041 418.14 464.004 418.476H451.964C452.132 419.783 452.701 420.837 453.672 421.64C454.661 422.424 455.884 422.816 457.34 422.816C459.113 422.816 460.541 422.219 461.624 421.024L463.108 422.76C462.436 423.544 461.596 424.141 460.588 424.552C459.598 424.963 458.488 425.168 457.256 425.168C455.688 425.168 454.297 424.851 453.084 424.216C451.87 423.563 450.928 422.657 450.256 421.5C449.602 420.343 449.276 419.036 449.276 417.58C449.276 416.143 449.593 414.845 450.228 413.688C450.881 412.531 451.768 411.635 452.888 411C454.026 410.347 455.305 410.02 456.724 410.02C458.142 410.02 459.402 410.347 460.504 411C461.624 411.635 462.492 412.531 463.108 413.688C463.742 414.845 464.06 416.171 464.06 417.664ZM456.724 412.288C455.436 412.288 454.353 412.68 453.476 413.464C452.617 414.248 452.113 415.275 451.964 416.544H461.484C461.334 415.293 460.821 414.276 459.944 413.492C459.085 412.689 458.012 412.288 456.724 412.288Z" fill="black"/>
<path d="M475.716 410.02C477.601 410.02 479.095 410.571 480.196 411.672C481.316 412.755 481.876 414.351 481.876 416.46V425H479.188V416.768C479.188 415.331 478.843 414.248 478.152 413.52C477.461 412.792 476.472 412.428 475.184 412.428C473.728 412.428 472.58 412.857 471.74 413.716C470.9 414.556 470.48 415.769 470.48 417.356V425H467.792V410.16H470.368V412.4C470.909 411.635 471.637 411.047 472.552 410.636C473.485 410.225 474.54 410.02 475.716 410.02Z" fill="black"/>
<path d="M495.195 424.132C494.803 424.468 494.317 424.729 493.739 424.916C493.16 425.084 492.563 425.168 491.947 425.168C490.453 425.168 489.296 424.767 488.475 423.964C487.653 423.161 487.243 422.013 487.243 420.52V412.372H484.723V410.16H487.243V406.912H489.931V410.16H494.187V412.372H489.931V420.408C489.931 421.211 490.127 421.827 490.519 422.256C490.929 422.685 491.508 422.9 492.255 422.9C493.076 422.9 493.776 422.667 494.355 422.2L495.195 424.132Z" fill="black"/>
<rect x="87" y="500" width="564" height="95" fill="white"/>
<path d="M292.472 558L288.244 551.98C287.721 552.017 287.31 552.036 287.012 552.036H282.168V558H279.368V538.4H287.012C289.55 538.4 291.548 539.007 293.004 540.22C294.46 541.433 295.188 543.104 295.188 545.232C295.188 546.744 294.814 548.032 294.068 549.096C293.321 550.16 292.257 550.935 290.876 551.42L295.524 558H292.472ZM286.928 549.656C288.701 549.656 290.054 549.273 290.988 548.508C291.921 547.743 292.388 546.651 292.388 545.232C292.388 543.813 291.921 542.731 290.988 541.984C290.054 541.219 288.701 540.836 286.928 540.836H282.168V549.656H286.928Z" fill="black"/>
<path d="M305.675 558.168C304.201 558.168 302.875 557.841 301.699 557.188C300.523 556.535 299.599 555.639 298.927 554.5C298.274 553.343 297.947 552.036 297.947 550.58C297.947 549.124 298.274 547.827 298.927 546.688C299.599 545.531 300.523 544.635 301.699 544C302.875 543.347 304.201 543.02 305.675 543.02C307.15 543.02 308.466 543.347 309.623 544C310.799 544.635 311.714 545.531 312.367 546.688C313.039 547.827 313.375 549.124 313.375 550.58C313.375 552.036 313.039 553.343 312.367 554.5C311.714 555.639 310.799 556.535 309.623 557.188C308.466 557.841 307.15 558.168 305.675 558.168ZM305.675 555.816C306.627 555.816 307.477 555.601 308.223 555.172C308.989 554.724 309.586 554.108 310.015 553.324C310.445 552.521 310.659 551.607 310.659 550.58C310.659 549.553 310.445 548.648 310.015 547.864C309.586 547.061 308.989 546.445 308.223 546.016C307.477 545.587 306.627 545.372 305.675 545.372C304.723 545.372 303.865 545.587 303.099 546.016C302.353 546.445 301.755 547.061 301.307 547.864C300.878 548.648 300.663 549.553 300.663 550.58C300.663 551.607 300.878 552.521 301.307 553.324C301.755 554.108 302.353 554.724 303.099 555.172C303.865 555.601 304.723 555.816 305.675 555.816Z" fill="black"/>
<path d="M319.107 540.836H312.387V538.4H328.599V540.836H321.879V558H319.107V540.836Z" fill="black"/>
<path d="M366.861 538.4L360.309 558H357.369L352.021 542.348L346.673 558H343.677L337.125 538.4H340.009L345.301 554.332L350.817 538.4H353.393L358.797 554.416L364.201 538.4H366.861Z" fill="black"/>
<path d="M371.895 545.652C372.362 544.793 373.053 544.14 373.967 543.692C374.882 543.244 375.993 543.02 377.299 543.02V545.624C377.15 545.605 376.945 545.596 376.683 545.596C375.227 545.596 374.079 546.035 373.239 546.912C372.418 547.771 372.007 549.003 372.007 550.608V558H369.319V543.16H371.895V545.652Z" fill="black"/>
<path d="M385.989 543.02C388.042 543.02 389.61 543.524 390.693 544.532C391.794 545.54 392.345 547.043 392.345 549.04V558H389.797V556.04C389.349 556.731 388.705 557.263 387.865 557.636C387.044 557.991 386.064 558.168 384.925 558.168C383.264 558.168 381.929 557.767 380.921 556.964C379.932 556.161 379.437 555.107 379.437 553.8C379.437 552.493 379.913 551.448 380.865 550.664C381.817 549.861 383.329 549.46 385.401 549.46H389.657V548.928C389.657 547.771 389.321 546.884 388.649 546.268C387.977 545.652 386.988 545.344 385.681 545.344C384.804 545.344 383.945 545.493 383.105 545.792C382.265 546.072 381.556 546.455 380.977 546.94L379.857 544.924C380.622 544.308 381.537 543.841 382.601 543.524C383.665 543.188 384.794 543.02 385.989 543.02ZM385.373 556.096C386.4 556.096 387.286 555.872 388.033 555.424C388.78 554.957 389.321 554.304 389.657 553.464V551.392H385.513C383.236 551.392 382.097 552.157 382.097 553.688C382.097 554.435 382.386 555.023 382.965 555.452C383.544 555.881 384.346 556.096 385.373 556.096Z" fill="black"/>
<path d="M405.187 543.02C406.625 543.02 407.913 543.337 409.051 543.972C410.19 544.607 411.077 545.493 411.711 546.632C412.365 547.771 412.691 549.087 412.691 550.58C412.691 552.073 412.365 553.399 411.711 554.556C411.077 555.695 410.19 556.581 409.051 557.216C407.913 557.851 406.625 558.168 405.187 558.168C404.123 558.168 403.143 557.963 402.247 557.552C401.37 557.141 400.623 556.544 400.007 555.76V563.432H397.319V543.16H399.895V545.512C400.493 544.691 401.249 544.075 402.163 543.664C403.078 543.235 404.086 543.02 405.187 543.02ZM404.963 555.816C405.915 555.816 406.765 555.601 407.511 555.172C408.277 554.724 408.874 554.108 409.303 553.324C409.751 552.521 409.975 551.607 409.975 550.58C409.975 549.553 409.751 548.648 409.303 547.864C408.874 547.061 408.277 546.445 407.511 546.016C406.765 545.587 405.915 545.372 404.963 545.372C404.03 545.372 403.181 545.596 402.415 546.044C401.669 546.473 401.071 547.08 400.623 547.864C400.194 548.648 399.979 549.553 399.979 550.58C399.979 551.607 400.194 552.521 400.623 553.324C401.053 554.108 401.65 554.724 402.415 555.172C403.181 555.601 404.03 555.816 404.963 555.816Z" fill="black"/>
<path d="M424.273 543.02C425.711 543.02 426.999 543.337 428.137 543.972C429.276 544.607 430.163 545.493 430.797 546.632C431.451 547.771 431.777 549.087 431.777 550.58C431.777 552.073 431.451 553.399 430.797 554.556C430.163 555.695 429.276 556.581 428.137 557.216C426.999 557.851 425.711 558.168 424.273 558.168C423.209 558.168 422.229 557.963 421.333 557.552C420.456 557.141 419.709 556.544 419.093 555.76V563.432H416.405V543.16H418.981V545.512C419.579 544.691 420.335 544.075 421.249 543.664C422.164 543.235 423.172 543.02 424.273 543.02ZM424.049 555.816C425.001 555.816 425.851 555.601 426.597 555.172C427.363 554.724 427.96 554.108 428.389 553.324C428.837 552.521 429.061 551.607 429.061 550.58C429.061 549.553 428.837 548.648 428.389 547.864C427.96 547.061 427.363 546.445 426.597 546.016C425.851 545.587 425.001 545.372 424.049 545.372C423.116 545.372 422.267 545.596 421.501 546.044C420.755 546.473 420.157 547.08 419.709 547.864C419.28 548.648 419.065 549.553 419.065 550.58C419.065 551.607 419.28 552.521 419.709 553.324C420.139 554.108 420.736 554.724 421.501 555.172C422.267 555.601 423.116 555.816 424.049 555.816Z" fill="black"/>
<path d="M448.903 550.664C448.903 550.869 448.885 551.14 448.847 551.476H436.807C436.975 552.783 437.545 553.837 438.515 554.64C439.505 555.424 440.727 555.816 442.183 555.816C443.957 555.816 445.385 555.219 446.467 554.024L447.951 555.76C447.279 556.544 446.439 557.141 445.431 557.552C444.442 557.963 443.331 558.168 442.099 558.168C440.531 558.168 439.141 557.851 437.927 557.216C436.714 556.563 435.771 555.657 435.099 554.5C434.446 553.343 434.119 552.036 434.119 550.58C434.119 549.143 434.437 547.845 435.071 546.688C435.725 545.531 436.611 544.635 437.731 544C438.87 543.347 440.149 543.02 441.567 543.02C442.986 543.02 444.246 543.347 445.347 544C446.467 544.635 447.335 545.531 447.951 546.688C448.586 547.845 448.903 549.171 448.903 550.664ZM441.567 545.288C440.279 545.288 439.197 545.68 438.319 546.464C437.461 547.248 436.957 548.275 436.807 549.544H446.327C446.178 548.293 445.665 547.276 444.787 546.492C443.929 545.689 442.855 545.288 441.567 545.288Z" fill="black"/>
<path d="M455.212 545.652C455.679 544.793 456.369 544.14 457.284 543.692C458.199 543.244 459.309 543.02 460.616 543.02V545.624C460.467 545.605 460.261 545.596 460 545.596C458.544 545.596 457.396 546.035 456.556 546.912C455.735 547.771 455.324 549.003 455.324 550.608V558H452.636V543.16H455.212V545.652Z" fill="black"/>
<path d="M297.298 184.336C294.498 184.336 292.314 183.561 290.746 182.012C289.196 180.463 288.422 178.251 288.422 175.376V164.4H292.958V175.208C292.958 178.717 294.414 180.472 297.326 180.472C298.744 180.472 299.827 180.052 300.574 179.212C301.32 178.353 301.694 177.019 301.694 175.208V164.4H306.174V175.376C306.174 178.251 305.39 180.463 303.822 182.012C302.272 183.561 300.098 184.336 297.298 184.336Z" fill="black"/>
<path d="M328.632 164.4V184H324.908L315.136 172.1V184H310.656V164.4H314.408L324.152 176.3V164.4H328.632Z" fill="black"/>
<path d="M332.961 168.936H337.329V184H332.961V168.936ZM335.145 166.836C334.343 166.836 333.689 166.603 333.185 166.136C332.681 165.669 332.429 165.091 332.429 164.4C332.429 163.709 332.681 163.131 333.185 162.664C333.689 162.197 334.343 161.964 335.145 161.964C335.948 161.964 336.601 162.188 337.105 162.636C337.609 163.084 337.861 163.644 337.861 164.316C337.861 165.044 337.609 165.651 337.105 166.136C336.601 166.603 335.948 166.836 335.145 166.836Z" fill="black"/>
<path d="M341.691 164.4H350.595C352.723 164.4 354.599 164.811 356.223 165.632C357.866 166.435 359.135 167.573 360.031 169.048C360.946 170.523 361.403 172.24 361.403 174.2C361.403 176.16 360.946 177.877 360.031 179.352C359.135 180.827 357.866 181.975 356.223 182.796C354.599 183.599 352.723 184 350.595 184H341.691V164.4ZM350.371 180.276C352.331 180.276 353.89 179.735 355.047 178.652C356.223 177.551 356.811 176.067 356.811 174.2C356.811 172.333 356.223 170.859 355.047 169.776C353.89 168.675 352.331 168.124 350.371 168.124H346.227V180.276H350.371Z" fill="black"/>
<path d="M387.93 180.36V184H372.754V164.4H387.566V168.04H377.262V172.296H386.362V175.824H377.262V180.36H387.93Z" fill="black"/>
<path d="M391.539 164.4H400.443C402.571 164.4 404.447 164.811 406.071 165.632C407.714 166.435 408.983 167.573 409.879 169.048C410.794 170.523 411.251 172.24 411.251 174.2C411.251 176.16 410.794 177.877 409.879 179.352C408.983 180.827 407.714 181.975 406.071 182.796C404.447 183.599 402.571 184 400.443 184H391.539V164.4ZM400.219 180.276C402.179 180.276 403.738 179.735 404.895 178.652C406.071 177.551 406.659 176.067 406.659 174.2C406.659 172.333 406.071 170.859 404.895 169.776C403.738 168.675 402.179 168.124 400.219 168.124H396.075V180.276H400.219Z" fill="black"/>
<path d="M427.916 173.892H432.06V181.844C430.996 182.647 429.764 183.263 428.364 183.692C426.964 184.121 425.554 184.336 424.136 184.336C422.101 184.336 420.272 183.907 418.648 183.048C417.024 182.171 415.745 180.967 414.812 179.436C413.897 177.887 413.44 176.141 413.44 174.2C413.44 172.259 413.897 170.523 414.812 168.992C415.745 167.443 417.033 166.239 418.676 165.38C420.318 164.503 422.166 164.064 424.22 164.064C425.937 164.064 427.496 164.353 428.896 164.932C430.296 165.511 431.472 166.351 432.424 167.452L429.512 170.14C428.112 168.665 426.422 167.928 424.444 167.928C423.193 167.928 422.082 168.189 421.112 168.712C420.141 169.235 419.385 169.972 418.844 170.924C418.302 171.876 418.032 172.968 418.032 174.2C418.032 175.413 418.302 176.496 418.844 177.448C419.385 178.4 420.132 179.147 421.084 179.688C422.054 180.211 423.156 180.472 424.388 180.472C425.694 180.472 426.87 180.192 427.916 179.632V173.892Z" fill="black"/>
<path d="M451.449 180.36V184H436.273V164.4H451.085V168.04H440.781V172.296H449.881V175.824H440.781V180.36H451.449Z" fill="black"/>
<rect x="389" y="234" width="262" height="95" fill="white"/>
<path d="M443.028 272.4H451.288C453.36 272.4 455.199 272.811 456.804 273.632C458.409 274.453 459.651 275.611 460.528 277.104C461.424 278.579 461.872 280.277 461.872 282.2C461.872 284.123 461.424 285.831 460.528 287.324C459.651 288.799 458.409 289.947 456.804 290.768C455.199 291.589 453.36 292 451.288 292H443.028V272.4ZM451.12 289.564C452.707 289.564 454.097 289.256 455.292 288.64C456.505 288.024 457.439 287.165 458.092 286.064C458.745 284.944 459.072 283.656 459.072 282.2C459.072 280.744 458.745 279.465 458.092 278.364C457.439 277.244 456.505 276.376 455.292 275.76C454.097 275.144 452.707 274.836 451.12 274.836H445.828V289.564H451.12Z" fill="black"/>
<path d="M479.181 284.664C479.181 284.869 479.162 285.14 479.125 285.476H467.085C467.253 286.783 467.822 287.837 468.793 288.64C469.782 289.424 471.005 289.816 472.461 289.816C474.234 289.816 475.662 289.219 476.745 288.024L478.229 289.76C477.557 290.544 476.717 291.141 475.709 291.552C474.719 291.963 473.609 292.168 472.377 292.168C470.809 292.168 469.418 291.851 468.205 291.216C466.991 290.563 466.049 289.657 465.377 288.5C464.723 287.343 464.397 286.036 464.397 284.58C464.397 283.143 464.714 281.845 465.349 280.688C466.002 279.531 466.889 278.635 468.009 278C469.147 277.347 470.426 277.02 471.845 277.02C473.263 277.02 474.523 277.347 475.625 278C476.745 278.635 477.613 279.531 478.229 280.688C478.863 281.845 479.181 283.171 479.181 284.664ZM471.845 279.288C470.557 279.288 469.474 279.68 468.597 280.464C467.738 281.248 467.234 282.275 467.085 283.544H476.605C476.455 282.293 475.942 281.276 475.065 280.492C474.206 279.689 473.133 279.288 471.845 279.288Z" fill="black"/>
<path d="M495.772 277.16L489.276 292H486.532L480.036 277.16H482.836L487.932 289.06L493.14 277.16H495.772Z" fill="black"/>
<path d="M498.28 277.16H500.968V292H498.28V277.16ZM499.624 274.304C499.102 274.304 498.663 274.136 498.308 273.8C497.972 273.464 497.804 273.053 497.804 272.568C497.804 272.083 497.972 271.672 498.308 271.336C498.663 270.981 499.102 270.804 499.624 270.804C500.147 270.804 500.576 270.972 500.912 271.308C501.267 271.625 501.444 272.027 501.444 272.512C501.444 273.016 501.267 273.445 500.912 273.8C500.576 274.136 500.147 274.304 499.624 274.304Z" fill="black"/>
<path d="M512.569 292.168C511.057 292.168 509.703 291.841 508.509 291.188C507.333 290.535 506.409 289.639 505.737 288.5C505.065 287.343 504.729 286.036 504.729 284.58C504.729 283.124 505.065 281.827 505.737 280.688C506.409 279.531 507.333 278.635 508.509 278C509.703 277.347 511.057 277.02 512.569 277.02C513.913 277.02 515.107 277.291 516.153 277.832C517.217 278.373 518.038 279.157 518.617 280.184L516.573 281.5C516.106 280.791 515.527 280.259 514.837 279.904C514.146 279.549 513.381 279.372 512.541 279.372C511.57 279.372 510.693 279.587 509.909 280.016C509.143 280.445 508.537 281.061 508.089 281.864C507.659 282.648 507.445 283.553 507.445 284.58C507.445 285.625 507.659 286.549 508.089 287.352C508.537 288.136 509.143 288.743 509.909 289.172C510.693 289.601 511.57 289.816 512.541 289.816C513.381 289.816 514.146 289.639 514.837 289.284C515.527 288.929 516.106 288.397 516.573 287.688L518.617 288.976C518.038 290.003 517.217 290.796 516.153 291.356C515.107 291.897 513.913 292.168 512.569 292.168Z" fill="black"/>
<path d="M535.29 284.664C535.29 284.869 535.271 285.14 535.234 285.476H523.194C523.362 286.783 523.931 287.837 524.902 288.64C525.891 289.424 527.114 289.816 528.57 289.816C530.343 289.816 531.771 289.219 532.854 288.024L534.338 289.76C533.666 290.544 532.826 291.141 531.818 291.552C530.829 291.963 529.718 292.168 528.486 292.168C526.918 292.168 525.527 291.851 524.314 291.216C523.101 290.563 522.158 289.657 521.486 288.5C520.833 287.343 520.506 286.036 520.506 284.58C520.506 283.143 520.823 281.845 521.458 280.688C522.111 279.531 522.998 278.635 524.118 278C525.257 277.347 526.535 277.02 527.954 277.02C529.373 277.02 530.633 277.347 531.734 278C532.854 278.635 533.722 279.531 534.338 280.688C534.973 281.845 535.29 283.171 535.29 284.664ZM527.954 279.288C526.666 279.288 525.583 279.68 524.706 280.464C523.847 281.248 523.343 282.275 523.194 283.544H532.714C532.565 282.293 532.051 281.276 531.174 280.492C530.315 279.689 529.242 279.288 527.954 279.288Z" fill="black"/>
<path d="M546.934 272.4H549.734V292H546.934V272.4Z" fill="black"/>
<path d="M568.09 287.1H557.674L555.518 292H552.634L561.51 272.4H564.282L573.186 292H570.246L568.09 287.1ZM567.11 284.86L562.882 275.256L558.654 284.86H567.11Z" fill="black"/>
<path d="M594.282 292L594.254 277.72L587.17 289.62H585.882L578.798 277.804V292H576.11V272.4H578.406L586.582 286.176L594.646 272.4H596.942L596.97 292H594.282Z" fill="black"/>
</svg>
