<svg width="907" height="861" viewBox="0 0 907 861" fill="none" xmlns="http://www.w3.org/2000/svg">
<path d="M156.796 613.4V633H153.996V624.264H142.74V633H139.94V613.4H142.74V621.828H153.996V613.4H156.796Z" fill="black"/>
<path d="M166.555 615.836H159.835V613.4H176.047V615.836H169.327V633H166.555V615.836Z" fill="black"/>
<path d="M183.262 615.836H176.542V613.4H192.754V615.836H186.034V633H183.262V615.836Z" fill="black"/>
<path d="M203.447 613.4C205.986 613.4 207.983 614.006 209.439 615.22C210.895 616.433 211.623 618.104 211.623 620.232C211.623 622.36 210.895 624.03 209.439 625.244C207.983 626.457 205.986 627.064 203.447 627.064H198.603V633H195.803V613.4H203.447ZM203.363 624.628C205.137 624.628 206.49 624.254 207.423 623.508C208.357 622.742 208.823 621.65 208.823 620.232C208.823 618.813 208.357 617.73 207.423 616.984C206.49 616.218 205.137 615.836 203.363 615.836H198.603V624.628H203.363Z" fill="black"/>
<path d="M236.634 633L232.406 626.98C231.883 627.017 231.472 627.036 231.174 627.036H226.33V633H223.53V613.4H231.174C233.712 613.4 235.71 614.006 237.166 615.22C238.622 616.433 239.35 618.104 239.35 620.232C239.35 621.744 238.976 623.032 238.23 624.096C237.483 625.16 236.419 625.934 235.038 626.42L239.686 633H236.634ZM231.09 624.656C232.863 624.656 234.216 624.273 235.15 623.508C236.083 622.742 236.55 621.65 236.55 620.232C236.55 618.813 236.083 617.73 235.15 616.984C234.216 616.218 232.863 615.836 231.09 615.836H226.33V624.656H231.09Z" fill="black"/>
<path d="M256.894 625.664C256.894 625.869 256.875 626.14 256.838 626.476H244.798C244.966 627.782 245.535 628.837 246.506 629.64C247.495 630.424 248.718 630.816 250.174 630.816C251.947 630.816 253.375 630.218 254.458 629.024L255.942 630.76C255.27 631.544 254.43 632.141 253.422 632.552C252.432 632.962 251.322 633.168 250.09 633.168C248.522 633.168 247.131 632.85 245.918 632.216C244.704 631.562 243.762 630.657 243.09 629.5C242.436 628.342 242.11 627.036 242.11 625.58C242.11 624.142 242.427 622.845 243.062 621.688C243.715 620.53 244.602 619.634 245.722 619C246.86 618.346 248.139 618.02 249.558 618.02C250.976 618.02 252.236 618.346 253.338 619C254.458 619.634 255.326 620.53 255.942 621.688C256.576 622.845 256.894 624.17 256.894 625.664ZM249.558 620.288C248.27 620.288 247.187 620.68 246.31 621.464C245.451 622.248 244.947 623.274 244.798 624.544H254.318C254.168 623.293 253.655 622.276 252.778 621.492C251.919 620.689 250.846 620.288 249.558 620.288Z" fill="black"/>
<path d="M274.626 618.16V638.432H271.938V630.76C271.322 631.544 270.566 632.141 269.67 632.552C268.793 632.962 267.822 633.168 266.758 633.168C265.321 633.168 264.033 632.85 262.894 632.216C261.755 631.581 260.859 630.694 260.206 629.556C259.571 628.398 259.254 627.073 259.254 625.58C259.254 624.086 259.571 622.77 260.206 621.632C260.859 620.493 261.755 619.606 262.894 618.972C264.033 618.337 265.321 618.02 266.758 618.02C267.859 618.02 268.867 618.234 269.782 618.664C270.697 619.074 271.453 619.69 272.05 620.512V618.16H274.626ZM266.982 630.816C267.915 630.816 268.765 630.601 269.53 630.172C270.295 629.724 270.893 629.108 271.322 628.324C271.751 627.521 271.966 626.606 271.966 625.58C271.966 624.553 271.742 623.648 271.294 622.864C270.865 622.08 270.267 621.473 269.502 621.044C268.755 620.596 267.915 620.372 266.982 620.372C266.03 620.372 265.171 620.586 264.406 621.016C263.659 621.445 263.062 622.061 262.614 622.864C262.185 623.648 261.97 624.553 261.97 625.58C261.97 626.606 262.185 627.521 262.614 628.324C263.062 629.108 263.659 629.724 264.406 630.172C265.171 630.601 266.03 630.816 266.982 630.816Z" fill="black"/>
<path d="M293.544 618.16V633H290.996V630.76C290.455 631.525 289.736 632.122 288.84 632.552C287.963 632.962 287.001 633.168 285.956 633.168C283.977 633.168 282.419 632.626 281.28 631.544C280.141 630.442 279.572 628.828 279.572 626.7V618.16H282.26V626.392C282.26 627.829 282.605 628.921 283.296 629.668C283.987 630.396 284.976 630.76 286.264 630.76C287.683 630.76 288.803 630.33 289.624 629.472C290.445 628.613 290.856 627.4 290.856 625.832V618.16H293.544Z" fill="black"/>
<path d="M312.073 625.664C312.073 625.869 312.055 626.14 312.017 626.476H299.977C300.145 627.782 300.715 628.837 301.685 629.64C302.675 630.424 303.897 630.816 305.353 630.816C307.127 630.816 308.555 630.218 309.637 629.024L311.121 630.76C310.449 631.544 309.609 632.141 308.601 632.552C307.612 632.962 306.501 633.168 305.269 633.168C303.701 633.168 302.311 632.85 301.097 632.216C299.884 631.562 298.941 630.657 298.269 629.5C297.616 628.342 297.289 627.036 297.289 625.58C297.289 624.142 297.607 622.845 298.241 621.688C298.895 620.53 299.781 619.634 300.901 619C302.04 618.346 303.319 618.02 304.737 618.02C306.156 618.02 307.416 618.346 308.517 619C309.637 619.634 310.505 620.53 311.121 621.688C311.756 622.845 312.073 624.17 312.073 625.664ZM304.737 620.288C303.449 620.288 302.367 620.68 301.489 621.464C300.631 622.248 300.127 623.274 299.977 624.544H309.497C309.348 623.293 308.835 622.276 307.957 621.492C307.099 620.689 306.025 620.288 304.737 620.288Z" fill="black"/>
<path d="M320.062 633.168C318.848 633.168 317.682 633.009 316.562 632.692C315.442 632.356 314.564 631.936 313.93 631.432L315.05 629.304C315.703 629.77 316.496 630.144 317.43 630.424C318.363 630.704 319.306 630.844 320.258 630.844C322.61 630.844 323.786 630.172 323.786 628.828C323.786 628.38 323.627 628.025 323.31 627.764C322.992 627.502 322.591 627.316 322.106 627.204C321.639 627.073 320.967 626.933 320.09 626.784C318.895 626.597 317.915 626.382 317.15 626.14C316.403 625.897 315.759 625.486 315.218 624.908C314.676 624.329 314.406 623.517 314.406 622.472C314.406 621.128 314.966 620.054 316.086 619.252C317.206 618.43 318.708 618.02 320.594 618.02C321.583 618.02 322.572 618.141 323.562 618.384C324.551 618.626 325.363 618.953 325.998 619.364L324.85 621.492C323.636 620.708 322.208 620.316 320.566 620.316C319.427 620.316 318.559 620.502 317.962 620.876C317.364 621.249 317.066 621.744 317.066 622.36C317.066 622.845 317.234 623.228 317.57 623.508C317.906 623.788 318.316 623.993 318.802 624.124C319.306 624.254 320.006 624.404 320.902 624.572C322.096 624.777 323.058 625.001 323.786 625.244C324.532 625.468 325.167 625.86 325.69 626.42C326.212 626.98 326.474 627.764 326.474 628.772C326.474 630.116 325.895 631.189 324.738 631.992C323.599 632.776 322.04 633.168 320.062 633.168Z" fill="black"/>
<path d="M338.177 632.132C337.785 632.468 337.3 632.729 336.721 632.916C336.142 633.084 335.545 633.168 334.929 633.168C333.436 633.168 332.278 632.766 331.457 631.964C330.636 631.161 330.225 630.013 330.225 628.52V620.372H327.705V618.16H330.225V614.912H332.913V618.16H337.169V620.372H332.913V628.408C332.913 629.21 333.109 629.826 333.501 630.256C333.912 630.685 334.49 630.9 335.237 630.9C336.058 630.9 336.758 630.666 337.337 630.2L338.177 632.132Z" fill="black"/>
<path d="M354.854 609.424H357.29L348.05 635.8H345.614L354.854 609.424Z" fill="black"/>
<path d="M394.394 613.4L387.842 633H384.902L379.554 617.348L374.206 633H371.21L364.658 613.4H367.542L372.834 629.332L378.35 613.4H380.926L386.33 629.416L391.734 613.4H394.394Z" fill="black"/>
<path d="M409.718 625.664C409.718 625.869 409.699 626.14 409.662 626.476H397.622C397.79 627.782 398.359 628.837 399.33 629.64C400.319 630.424 401.542 630.816 402.998 630.816C404.771 630.816 406.199 630.218 407.282 629.024L408.766 630.76C408.094 631.544 407.254 632.141 406.246 632.552C405.256 632.962 404.146 633.168 402.914 633.168C401.346 633.168 399.955 632.85 398.742 632.216C397.528 631.562 396.586 630.657 395.914 629.5C395.26 628.342 394.934 627.036 394.934 625.58C394.934 624.142 395.251 622.845 395.886 621.688C396.539 620.53 397.426 619.634 398.546 619C399.684 618.346 400.963 618.02 402.382 618.02C403.8 618.02 405.06 618.346 406.162 619C407.282 619.634 408.15 620.53 408.766 621.688C409.4 622.845 409.718 624.17 409.718 625.664ZM402.382 620.288C401.094 620.288 400.011 620.68 399.134 621.464C398.275 622.248 397.771 623.274 397.622 624.544H407.142C406.992 623.293 406.479 622.276 405.602 621.492C404.743 620.689 403.67 620.288 402.382 620.288Z" fill="black"/>
<path d="M421.318 618.02C422.756 618.02 424.044 618.337 425.182 618.972C426.321 619.606 427.208 620.493 427.842 621.632C428.496 622.77 428.822 624.086 428.822 625.58C428.822 627.073 428.496 628.398 427.842 629.556C427.208 630.694 426.321 631.581 425.182 632.216C424.044 632.85 422.756 633.168 421.318 633.168C420.217 633.168 419.209 632.953 418.294 632.524C417.38 632.094 416.624 631.469 416.026 630.648V633H413.45V612.224H416.138V620.4C416.736 619.616 417.482 619.028 418.378 618.636C419.274 618.225 420.254 618.02 421.318 618.02ZM421.094 630.816C422.046 630.816 422.896 630.601 423.642 630.172C424.408 629.724 425.005 629.108 425.434 628.324C425.882 627.521 426.106 626.606 426.106 625.58C426.106 624.553 425.882 623.648 425.434 622.864C425.005 622.061 424.408 621.445 423.642 621.016C422.896 620.586 422.046 620.372 421.094 620.372C420.161 620.372 419.312 620.586 418.546 621.016C417.781 621.445 417.184 622.061 416.754 622.864C416.325 623.648 416.11 624.553 416.11 625.58C416.11 626.606 416.325 627.521 416.754 628.324C417.184 629.108 417.781 629.724 418.546 630.172C419.312 630.601 420.161 630.816 421.094 630.816Z" fill="black"/>
<path d="M440.46 618.02C442.346 618.02 443.839 618.57 444.94 619.672C446.06 620.754 446.62 622.35 446.62 624.46V633H443.932V624.768C443.932 623.33 443.587 622.248 442.896 621.52C442.206 620.792 441.216 620.428 439.928 620.428C438.472 620.428 437.324 620.857 436.484 621.716C435.644 622.556 435.224 623.769 435.224 625.356V633H432.536V612.224H435.224V620.26C435.784 619.55 436.512 619 437.408 618.608C438.323 618.216 439.34 618.02 440.46 618.02Z" fill="black"/>
<path d="M458.033 633.168C456.558 633.168 455.233 632.841 454.057 632.188C452.881 631.534 451.957 630.638 451.285 629.5C450.632 628.342 450.305 627.036 450.305 625.58C450.305 624.124 450.632 622.826 451.285 621.688C451.957 620.53 452.881 619.634 454.057 619C455.233 618.346 456.558 618.02 458.033 618.02C459.508 618.02 460.824 618.346 461.981 619C463.157 619.634 464.072 620.53 464.725 621.688C465.397 622.826 465.733 624.124 465.733 625.58C465.733 627.036 465.397 628.342 464.725 629.5C464.072 630.638 463.157 631.534 461.981 632.188C460.824 632.841 459.508 633.168 458.033 633.168ZM458.033 630.816C458.985 630.816 459.834 630.601 460.581 630.172C461.346 629.724 461.943 629.108 462.373 628.324C462.802 627.521 463.017 626.606 463.017 625.58C463.017 624.553 462.802 623.648 462.373 622.864C461.943 622.061 461.346 621.445 460.581 621.016C459.834 620.586 458.985 620.372 458.033 620.372C457.081 620.372 456.222 620.586 455.457 621.016C454.71 621.445 454.113 622.061 453.665 622.864C453.236 623.648 453.021 624.553 453.021 625.58C453.021 626.606 453.236 627.521 453.665 628.324C454.113 629.108 454.71 629.724 455.457 630.172C456.222 630.601 457.081 630.816 458.033 630.816Z" fill="black"/>
<path d="M475.806 633.168C474.332 633.168 473.006 632.841 471.83 632.188C470.654 631.534 469.73 630.638 469.058 629.5C468.405 628.342 468.078 627.036 468.078 625.58C468.078 624.124 468.405 622.826 469.058 621.688C469.73 620.53 470.654 619.634 471.83 619C473.006 618.346 474.332 618.02 475.806 618.02C477.281 618.02 478.597 618.346 479.754 619C480.93 619.634 481.845 620.53 482.498 621.688C483.17 622.826 483.506 624.124 483.506 625.58C483.506 627.036 483.17 628.342 482.498 629.5C481.845 630.638 480.93 631.534 479.754 632.188C478.597 632.841 477.281 633.168 475.806 633.168ZM475.806 630.816C476.758 630.816 477.608 630.601 478.354 630.172C479.12 629.724 479.717 629.108 480.146 628.324C480.576 627.521 480.79 626.606 480.79 625.58C480.79 624.553 480.576 623.648 480.146 622.864C479.717 622.061 479.12 621.445 478.354 621.016C477.608 620.586 476.758 620.372 475.806 620.372C474.854 620.372 473.996 620.586 473.23 621.016C472.484 621.445 471.886 622.061 471.438 622.864C471.009 623.648 470.794 624.553 470.794 625.58C470.794 626.606 471.009 627.521 471.438 628.324C471.886 629.108 472.484 629.724 473.23 630.172C473.996 630.601 474.854 630.816 475.806 630.816Z" fill="black"/>
<path d="M492.992 626.084L489.912 628.94V633H487.224V612.224H489.912V625.552L498.004 618.16H501.252L495.008 624.292L501.868 633H498.564L492.992 626.084Z" fill="black"/>
<rect width="568" height="523" fill="#F6F6F6"/>
<rect y="723" width="907" height="138" fill="#F6F6F6"/>
<rect x="42" y="476" width="361" height="95" transform="rotate(-90 42 476)" fill="white"/>
<path d="M80.4 451.06L80.4 442.8C80.4 440.728 80.8106 438.889 81.632 437.284C82.4533 435.679 83.6106 434.437 85.104 433.56C86.5786 432.664 88.2773 432.216 90.2 432.216C92.1226 432.216 93.8306 432.664 95.324 433.56C96.7986 434.437 97.9466 435.679 98.768 437.284C99.5893 438.889 100 440.728 100 442.8L100 451.06L80.4 451.06ZM97.564 442.968C97.564 441.381 97.256 439.991 96.64 438.796C96.024 437.583 95.1653 436.649 94.064 435.996C92.944 435.343 91.656 435.016 90.2 435.016C88.744 435.016 87.4653 435.343 86.364 435.996C85.244 436.649 84.376 437.583 83.76 438.796C83.144 439.991 82.836 441.381 82.836 442.968L82.836 448.26L97.564 448.26L97.564 442.968Z" fill="black"/>
<path d="M92.664 414.907C92.8693 414.907 93.14 414.926 93.476 414.963L93.476 427.003C94.7826 426.835 95.8373 426.266 96.64 425.295C97.424 424.306 97.816 423.083 97.816 421.627C97.816 419.854 97.2186 418.426 96.024 417.343L97.76 415.859C98.544 416.531 99.1413 417.371 99.552 418.379C99.9626 419.369 100.168 420.479 100.168 421.711C100.168 423.279 99.8506 424.67 99.216 425.883C98.5626 427.097 97.6573 428.039 96.5 428.711C95.3426 429.365 94.036 429.691 92.58 429.691C91.1426 429.691 89.8453 429.374 88.688 428.739C87.5306 428.086 86.6346 427.199 86 426.079C85.3466 424.941 85.02 423.662 85.02 422.243C85.02 420.825 85.3466 419.565 86 418.463C86.6346 417.343 87.5306 416.475 88.688 415.859C89.8453 415.225 91.1706 414.907 92.664 414.907ZM87.288 422.243C87.288 423.531 87.68 424.614 88.464 425.491C89.248 426.35 90.2746 426.854 91.544 427.003L91.544 417.483C90.2933 417.633 89.276 418.146 88.492 419.023C87.6893 419.882 87.288 420.955 87.288 422.243Z" fill="black"/>
<path d="M85.16 398.316L100 404.812L100 407.556L85.16 414.052L85.16 411.252L97.06 406.156L85.16 400.948L85.16 398.316Z" fill="black"/>
<path d="M85.16 395.808L85.16 393.12L100 393.12L100 395.808L85.16 395.808ZM82.304 394.464C82.304 394.986 82.136 395.425 81.8 395.78C81.464 396.116 81.0533 396.284 80.568 396.284C80.0826 396.284 79.672 396.116 79.336 395.78C78.9813 395.425 78.804 394.986 78.804 394.464C78.804 393.941 78.972 393.512 79.308 393.176C79.6253 392.821 80.0266 392.644 80.512 392.644C81.016 392.644 81.4453 392.821 81.8 393.176C82.136 393.512 82.304 393.941 82.304 394.464Z" fill="black"/>
<path d="M100.168 381.519C100.168 383.031 99.8413 384.385 99.188 385.579C98.5346 386.755 97.6386 387.679 96.5 388.351C95.3426 389.023 94.036 389.359 92.58 389.359C91.124 389.359 89.8266 389.023 88.688 388.351C87.5306 387.679 86.6346 386.755 86 385.579C85.3466 384.385 85.02 383.031 85.02 381.519C85.02 380.175 85.2906 378.981 85.832 377.935C86.3733 376.871 87.1573 376.05 88.184 375.471L89.5 377.515C88.7906 377.982 88.2586 378.561 87.904 379.251C87.5493 379.942 87.372 380.707 87.372 381.547C87.372 382.518 87.5866 383.395 88.016 384.179C88.4453 384.945 89.0613 385.551 89.864 385.999C90.648 386.429 91.5533 386.643 92.58 386.643C93.6253 386.643 94.5493 386.429 95.352 385.999C96.136 385.551 96.7426 384.945 97.172 384.179C97.6013 383.395 97.816 382.518 97.816 381.547C97.816 380.707 97.6386 379.942 97.284 379.251C96.9293 378.561 96.3973 377.982 95.688 377.515L96.976 375.471C98.0026 376.05 98.796 376.871 99.356 377.935C99.8973 378.981 100.168 380.175 100.168 381.519Z" fill="black"/>
<path d="M92.664 358.798C92.8693 358.798 93.14 358.817 93.476 358.854L93.476 370.894C94.7826 370.726 95.8373 370.157 96.64 369.186C97.424 368.197 97.816 366.974 97.816 365.518C97.816 363.745 97.2186 362.317 96.024 361.234L97.76 359.75C98.544 360.422 99.1413 361.262 99.552 362.27C99.9626 363.259 100.168 364.37 100.168 365.602C100.168 367.17 99.8506 368.561 99.216 369.774C98.5626 370.987 97.6573 371.93 96.5 372.602C95.3426 373.255 94.036 373.582 92.58 373.582C91.1426 373.582 89.8453 373.265 88.688 372.63C87.5306 371.977 86.6346 371.09 86 369.97C85.3466 368.831 85.02 367.553 85.02 366.134C85.02 364.715 85.3466 363.455 86 362.354C86.6346 361.234 87.5306 360.366 88.688 359.75C89.8453 359.115 91.1706 358.798 92.664 358.798ZM87.288 366.134C87.288 367.422 87.68 368.505 88.464 369.382C89.248 370.241 90.2746 370.745 91.544 370.894L91.544 361.374C90.2933 361.523 89.276 362.037 88.492 362.914C87.6893 363.773 87.288 364.846 87.288 366.134Z" fill="black"/>
<path d="M100 328.982L85.7199 329.01L97.62 336.094L97.62 337.382L85.804 344.466L100 344.466L100 347.154L80.4 347.154L80.4 344.858L94.176 336.682L80.3999 328.618L80.3999 326.322L100 326.294L100 328.982Z" fill="black"/>
<path d="M85.0199 315.4C85.0199 313.346 85.5239 311.778 86.5319 310.696C87.5399 309.594 89.0426 309.044 91.0399 309.044L99.9999 309.044L100 311.592L98.04 311.592C98.7306 312.04 99.2626 312.684 99.6359 313.524C99.9906 314.345 100.168 315.325 100.168 316.464C100.168 318.125 99.7666 319.46 98.964 320.468C98.1613 321.457 97.1066 321.952 95.7999 321.952C94.4933 321.952 93.448 321.476 92.6639 320.524C91.8613 319.572 91.4599 318.06 91.4599 315.988L91.4599 311.732L90.9279 311.732C89.7706 311.732 88.884 312.068 88.2679 312.74C87.6519 313.412 87.344 314.401 87.344 315.708C87.344 316.585 87.4933 317.444 87.792 318.284C88.0719 319.124 88.4546 319.833 88.94 320.412L86.924 321.532C86.308 320.766 85.8413 319.852 85.5239 318.788C85.1879 317.724 85.0199 316.594 85.0199 315.4ZM98.096 316.016C98.096 314.989 97.872 314.102 97.4239 313.356C96.9573 312.609 96.304 312.068 95.464 311.732L93.392 311.732L93.392 315.876C93.392 318.153 94.1573 319.292 95.688 319.292C96.4346 319.292 97.0226 319.002 97.4519 318.424C97.8813 317.845 98.096 317.042 98.096 316.016Z" fill="black"/>
<path d="M85.0199 296.145C85.0199 294.26 85.5706 292.767 86.6719 291.665C87.7546 290.545 89.3506 289.985 91.4599 289.985L99.9999 289.985L99.9999 292.673L91.7679 292.673C90.3306 292.673 89.2479 293.019 88.5199 293.709C87.7919 294.4 87.4279 295.389 87.4279 296.677C87.4279 298.133 87.8573 299.281 88.7159 300.121C89.5559 300.961 90.7693 301.381 92.3559 301.381L99.9999 301.381L99.9999 304.069L85.1599 304.069L85.1599 301.493L87.3999 301.493C86.6346 300.952 86.0466 300.224 85.6359 299.309C85.2253 298.376 85.0199 297.321 85.0199 296.145Z" fill="black"/>
<path d="M85.0199 279.607C85.0199 277.553 85.5239 275.985 86.5319 274.903C87.5399 273.801 89.0426 273.251 91.0399 273.251L99.9999 273.251L99.9999 275.799L98.0399 275.799C98.7306 276.247 99.2626 276.891 99.6359 277.731C99.9906 278.552 100.168 279.532 100.168 280.671C100.168 282.332 99.7666 283.667 98.9639 284.675C98.1613 285.664 97.1066 286.159 95.7999 286.159C94.4933 286.159 93.4479 285.683 92.6639 284.731C91.8613 283.779 91.4599 282.267 91.4599 280.195L91.4599 275.939L90.9279 275.939C89.7706 275.939 88.8839 276.275 88.2679 276.947C87.6519 277.619 87.3439 278.608 87.3439 279.915C87.3439 280.792 87.4933 281.651 87.7919 282.491C88.0719 283.331 88.4546 284.04 88.9399 284.619L86.9239 285.739C86.3079 284.973 85.8413 284.059 85.5239 282.995C85.1879 281.931 85.0199 280.801 85.0199 279.607ZM98.0959 280.223C98.0959 279.196 97.8719 278.309 97.4239 277.563C96.9573 276.816 96.3039 276.275 95.4639 275.939L93.3919 275.939L93.3919 280.083C93.3919 282.36 94.1573 283.499 95.6879 283.499C96.4346 283.499 97.0226 283.209 97.4519 282.631C97.8813 282.052 98.0959 281.249 98.0959 280.223Z" fill="black"/>
<path d="M85.1599 253.998L97.9839 253.998C100.579 253.998 102.492 254.642 103.724 255.93C104.975 257.218 105.6 259.141 105.6 261.698C105.6 263.098 105.404 264.433 105.012 265.702C104.639 266.972 104.097 267.998 103.388 268.782L101.316 267.494C101.913 266.804 102.38 265.954 102.716 264.946C103.071 263.92 103.248 262.865 103.248 261.782C103.248 260.046 102.837 258.768 102.016 257.946C101.195 257.106 99.9439 256.686 98.2639 256.686L97.0879 256.686C97.8533 257.321 98.4319 258.105 98.8239 259.038C99.1973 259.953 99.3839 260.952 99.3839 262.034C99.3839 263.453 99.0853 264.741 98.4879 265.898C97.8719 267.037 97.0226 267.933 95.9399 268.586C94.8386 269.24 93.5879 269.566 92.1879 269.566C90.7879 269.566 89.5466 269.24 88.4639 268.586C87.3626 267.933 86.5133 267.037 85.9159 265.898C85.3186 264.741 85.0199 263.453 85.0199 262.034C85.0199 260.914 85.2253 259.878 85.6359 258.926C86.0466 257.956 86.6533 257.162 87.4559 256.546L85.1599 256.546L85.1599 253.998ZM97.0319 261.726C97.0319 260.756 96.8266 259.888 96.4159 259.122C96.0053 258.338 95.4359 257.732 94.7079 257.302C93.9613 256.854 93.1213 256.63 92.1879 256.63C90.7506 256.63 89.5933 257.106 88.7159 258.058C87.8199 259.01 87.3719 260.233 87.3719 261.726C87.3719 263.238 87.8199 264.47 88.7159 265.422C89.5933 266.374 90.7506 266.85 92.1879 266.85C93.1213 266.85 93.9613 266.636 94.7079 266.206C95.4359 265.758 96.0053 265.152 96.4159 264.386C96.8266 263.602 97.0319 262.716 97.0319 261.726Z" fill="black"/>
<path d="M92.6639 235.45C92.8693 235.45 93.1399 235.469 93.4759 235.506L93.4759 247.546C94.7826 247.378 95.8373 246.809 96.6399 245.838C97.4239 244.849 97.8159 243.626 97.8159 242.17C97.8159 240.397 97.2186 238.969 96.0239 237.886L97.7599 236.402C98.5439 237.074 99.1413 237.914 99.5519 238.922C99.9626 239.912 100.168 241.022 100.168 242.254C100.168 243.822 99.8506 245.213 99.2159 246.426C98.5626 247.64 97.6573 248.582 96.4999 249.254C95.3426 249.908 94.0359 250.234 92.5799 250.234C91.1426 250.234 89.8453 249.917 88.6879 249.282C87.5306 248.629 86.6346 247.742 85.9999 246.622C85.3466 245.484 85.0199 244.205 85.0199 242.786C85.0199 241.368 85.3466 240.108 85.9999 239.006C86.6346 237.886 87.5306 237.018 88.6879 236.402C89.8453 235.768 91.1706 235.45 92.6639 235.45ZM87.2879 242.786C87.2879 244.074 87.6799 245.157 88.4639 246.034C89.2479 246.893 90.2746 247.397 91.5439 247.546L91.5439 238.026C90.2933 238.176 89.2759 238.689 88.4919 239.566C87.6893 240.425 87.2879 241.498 87.2879 242.786Z" fill="black"/>
<path d="M85.0199 213.154C85.0199 211.287 85.5613 209.812 86.6439 208.73C87.7266 207.628 89.3319 207.078 91.4599 207.078L99.9999 207.078L99.9999 209.766L91.7679 209.766C90.3306 209.766 89.2479 210.102 88.5199 210.774C87.7919 211.427 87.4279 212.37 87.4279 213.602C87.4279 214.964 87.8573 216.047 88.7159 216.85C89.5559 217.652 90.7693 218.054 92.3559 218.054L99.9999 218.054L99.9999 220.742L91.7679 220.742C90.3306 220.742 89.2479 221.078 88.5199 221.75C87.7919 222.403 87.4279 223.346 87.4279 224.578C87.4279 225.94 87.8573 227.023 88.7159 227.826C89.5559 228.628 90.7693 229.03 92.3559 229.03L99.9999 229.03L99.9999 231.718L85.1599 231.718L85.1599 229.142L87.3719 229.142C86.6066 228.6 86.0279 227.891 85.6359 227.014C85.2253 226.136 85.0199 225.138 85.0199 224.018C85.0199 222.86 85.2533 221.834 85.7199 220.938C86.1866 220.042 86.8679 219.351 87.7639 218.866C86.9053 218.306 86.2333 217.531 85.7479 216.542C85.2626 215.534 85.0199 214.404 85.0199 213.154Z" fill="black"/>
<path d="M92.6639 188.638C92.8693 188.638 93.1399 188.656 93.4759 188.694L93.4759 200.734C94.7826 200.566 95.8373 199.996 96.6399 199.026C97.4239 198.036 97.8159 196.814 97.8159 195.358C97.8159 193.584 97.2186 192.156 96.0239 191.074L97.7599 189.59C98.5439 190.262 99.1413 191.102 99.5519 192.11C99.9626 193.099 100.168 194.21 100.168 195.442C100.168 197.01 99.8506 198.4 99.2159 199.614C98.5626 200.827 97.6573 201.77 96.4999 202.442C95.3426 203.095 94.0359 203.422 92.5799 203.422C91.1426 203.422 89.8453 203.104 88.6879 202.47C87.5306 201.816 86.6346 200.93 85.9999 199.81C85.3466 198.671 85.0199 197.392 85.0199 195.974C85.0199 194.555 85.3466 193.295 85.9999 192.194C86.6346 191.074 87.5306 190.206 88.6879 189.59C89.8453 188.955 91.1706 188.638 92.6639 188.638ZM87.2879 195.974C87.2879 197.262 87.6799 198.344 88.4639 199.222C89.2479 200.08 90.2746 200.584 91.5439 200.734L91.5439 191.214C90.2933 191.363 89.2759 191.876 88.4919 192.754C87.6893 193.612 87.2879 194.686 87.2879 195.974Z" fill="black"/>
<path d="M85.0199 176.981C85.0199 175.096 85.5706 173.603 86.6719 172.501C87.7546 171.381 89.3506 170.821 91.4599 170.821L99.9999 170.821L99.9999 173.509L91.7679 173.509C90.3306 173.509 89.2479 173.855 88.5199 174.545C87.7919 175.236 87.4279 176.225 87.4279 177.513C87.4279 178.969 87.8573 180.117 88.7159 180.957C89.5559 181.797 90.7693 182.217 92.3559 182.217L99.9999 182.217L99.9999 184.905L85.1599 184.905L85.1599 182.329L87.3999 182.329C86.6346 181.788 86.0466 181.06 85.6359 180.145C85.2253 179.212 85.0199 178.157 85.0199 176.981Z" fill="black"/>
<path d="M99.1319 157.503C99.4679 157.895 99.7293 158.38 99.9159 158.959C100.084 159.537 100.168 160.135 100.168 160.751C100.168 162.244 99.7666 163.401 98.9639 164.223C98.1613 165.044 97.0133 165.455 95.5199 165.455L87.3719 165.455L87.3719 167.975L85.1599 167.975L85.1599 165.455L81.9119 165.455L81.9119 162.767L85.1599 162.767L85.1599 158.511L87.3719 158.511L87.3719 162.767L95.4079 162.767C96.2106 162.767 96.8266 162.571 97.2559 162.179C97.6853 161.768 97.8999 161.189 97.8999 160.443C97.8999 159.621 97.6666 158.921 97.1999 158.343L99.1319 157.503Z" fill="black"/>
<rect x="171" y="476" width="361" height="95" transform="rotate(-90 171 476)" fill="white"/>
<path d="M229.224 444.212C229.224 446.191 228.795 447.973 227.936 449.56C227.059 451.147 225.855 452.397 224.324 453.312C222.793 454.208 221.085 454.656 219.2 454.656C217.315 454.656 215.607 454.208 214.076 453.312C212.545 452.397 211.351 451.147 210.492 449.56C209.615 447.973 209.176 446.191 209.176 444.212C209.176 442.252 209.615 440.479 210.492 438.892C211.351 437.305 212.545 436.064 214.076 435.168C215.588 434.272 217.296 433.824 219.2 433.824C221.104 433.824 222.821 434.272 224.352 435.168C225.864 436.064 227.059 437.305 227.936 438.892C228.795 440.479 229.224 442.252 229.224 444.212ZM226.732 444.212C226.732 442.775 226.405 441.487 225.752 440.348C225.099 439.191 224.203 438.285 223.064 437.632C221.907 436.96 220.619 436.624 219.2 436.624C217.781 436.624 216.503 436.96 215.364 437.632C214.207 438.285 213.301 439.191 212.648 440.348C211.995 441.487 211.668 442.775 211.668 444.212C211.668 445.649 211.995 446.956 212.648 448.132C213.301 449.289 214.207 450.204 215.364 450.876C216.503 451.529 217.781 451.856 219.2 451.856C220.619 451.856 221.907 451.529 223.064 450.876C224.203 450.204 225.099 449.289 225.752 448.132C226.405 446.956 226.732 445.649 226.732 444.212Z" fill="black"/>
<path d="M211.836 425.926L211.836 432.646L209.4 432.646L209.4 416.434L211.836 416.434L211.836 423.154L229 423.154L229 425.926L211.836 425.926Z" fill="black"/>
<path d="M224.1 401.881L224.1 412.297L229 414.453L229 417.337L209.4 408.461L209.4 405.689L229 396.785L229 399.725L224.1 401.881ZM221.86 402.861L212.256 407.089L221.86 411.317L221.86 402.861Z" fill="black"/>
<path d="M229.308 372.005L226.704 374.609C228.384 376.345 229.224 378.529 229.224 381.161C229.224 382.468 229.009 383.644 228.58 384.689C228.151 385.735 227.553 386.556 226.788 387.153C226.004 387.732 225.117 388.021 224.128 388.021C222.933 388.021 221.879 387.657 220.964 386.929C220.031 386.183 219.079 384.96 218.108 383.261C217.249 384.12 216.475 384.727 215.784 385.081C215.093 385.436 214.375 385.613 213.628 385.613C212.303 385.613 211.239 385.137 210.436 384.185C209.633 383.215 209.232 381.927 209.232 380.321C209.232 378.828 209.596 377.643 210.324 376.765C211.052 375.888 212.051 375.449 213.32 375.449C214.309 375.449 215.196 375.776 215.98 376.429C216.764 377.064 217.585 378.128 218.444 379.621L223.26 374.777C222.196 374.217 221.011 373.816 219.704 373.573L220.404 371.417C222.121 371.753 223.615 372.323 224.884 373.125L227.516 370.493L229.308 372.005ZM211.192 380.321C211.192 381.199 211.416 381.889 211.864 382.393C212.293 382.879 212.863 383.121 213.572 383.121C214.076 383.121 214.561 382.991 215.028 382.729C215.495 382.449 216.129 381.917 216.932 381.133C216.204 379.845 215.579 378.959 215.056 378.473C214.533 377.969 213.964 377.717 213.348 377.717C212.695 377.717 212.172 377.951 211.78 378.417C211.388 378.865 211.192 379.5 211.192 380.321ZM226.984 380.993C226.984 379.052 226.368 377.456 225.136 376.205L219.592 381.777C220.339 383.121 221.039 384.064 221.692 384.605C222.327 385.128 223.045 385.389 223.848 385.389C224.781 385.389 225.537 384.988 226.116 384.185C226.695 383.364 226.984 382.3 226.984 380.993Z" fill="black"/>
<path d="M229.224 353.914C229.224 355.389 229 356.817 228.552 358.198C228.085 359.561 227.488 360.634 226.76 361.418L224.576 360.382C225.248 359.636 225.799 358.684 226.228 357.526C226.639 356.35 226.844 355.146 226.844 353.914C226.844 352.29 226.573 351.077 226.032 350.274C225.472 349.472 224.735 349.07 223.82 349.07C223.148 349.07 222.607 349.294 222.196 349.742C221.767 350.172 221.44 350.713 221.216 351.366C220.992 352.001 220.74 352.906 220.46 354.082C220.105 355.557 219.751 356.752 219.396 357.666C219.041 358.562 218.5 359.337 217.772 359.99C217.025 360.625 216.027 360.942 214.776 360.942C213.731 360.942 212.788 360.672 211.948 360.13C211.108 359.57 210.436 358.73 209.932 357.61C209.428 356.49 209.176 355.1 209.176 353.438C209.176 352.281 209.325 351.142 209.624 350.022C209.923 348.902 210.352 347.941 210.912 347.138L213.152 348.062C212.629 348.884 212.237 349.761 211.976 350.694C211.696 351.628 211.556 352.542 211.556 353.438C211.556 355.025 211.845 356.22 212.424 357.022C213.003 357.806 213.749 358.198 214.664 358.198C215.336 358.198 215.887 357.974 216.316 357.526C216.727 357.078 217.053 356.528 217.296 355.874C217.52 355.202 217.763 354.297 218.024 353.158C218.379 351.684 218.733 350.498 219.088 349.602C219.443 348.706 219.984 347.941 220.712 347.306C221.44 346.653 222.42 346.326 223.652 346.326C224.679 346.326 225.621 346.606 226.48 347.166C227.32 347.726 227.992 348.576 228.496 349.714C228.981 350.853 229.224 352.253 229.224 353.914Z" fill="black"/>
<path d="M221.664 329.216C221.869 329.216 222.14 329.234 222.476 329.272L222.476 341.312C223.783 341.144 224.837 340.574 225.64 339.604C226.424 338.614 226.816 337.392 226.816 335.936C226.816 334.162 226.219 332.734 225.024 331.652L226.76 330.168C227.544 330.84 228.141 331.68 228.552 332.688C228.963 333.677 229.168 334.788 229.168 336.02C229.168 337.588 228.851 338.978 228.216 340.192C227.563 341.405 226.657 342.348 225.5 343.02C224.343 343.673 223.036 344 221.58 344C220.143 344 218.845 343.682 217.688 343.048C216.531 342.394 215.635 341.508 215 340.388C214.347 339.249 214.02 337.97 214.02 336.552C214.02 335.133 214.347 333.873 215 332.772C215.635 331.652 216.531 330.784 217.688 330.168C218.845 329.533 220.171 329.216 221.664 329.216ZM216.288 336.552C216.288 337.84 216.68 338.922 217.464 339.8C218.248 340.658 219.275 341.162 220.544 341.312L220.544 331.792C219.293 331.941 218.276 332.454 217.492 333.332C216.689 334.19 216.288 335.264 216.288 336.552Z" fill="black"/>
<path d="M229.168 319.015C229.168 320.527 228.841 321.881 228.188 323.075C227.535 324.251 226.639 325.175 225.5 325.847C224.343 326.519 223.036 326.855 221.58 326.855C220.124 326.855 218.827 326.519 217.688 325.847C216.531 325.175 215.635 324.251 215 323.075C214.347 321.881 214.02 320.527 214.02 319.015C214.02 317.671 214.291 316.477 214.832 315.431C215.373 314.367 216.157 313.546 217.184 312.967L218.5 315.011C217.791 315.478 217.259 316.057 216.904 316.747C216.549 317.438 216.372 318.203 216.372 319.043C216.372 320.014 216.587 320.891 217.016 321.675C217.445 322.441 218.061 323.047 218.864 323.495C219.648 323.925 220.553 324.139 221.58 324.139C222.625 324.139 223.549 323.925 224.352 323.495C225.136 323.047 225.743 322.441 226.172 321.675C226.601 320.891 226.816 320.014 226.816 319.043C226.816 318.203 226.639 317.438 226.284 316.747C225.929 316.057 225.397 315.478 224.688 315.011L225.976 312.967C227.003 313.546 227.796 314.367 228.356 315.431C228.897 316.477 229.168 317.671 229.168 319.015Z" fill="black"/>
<path d="M214.16 295.655L229 295.655L229 298.203L226.76 298.203C227.525 298.744 228.123 299.463 228.552 300.359C228.963 301.236 229.168 302.198 229.168 303.243C229.168 305.222 228.627 306.78 227.544 307.919C226.443 309.058 224.828 309.627 222.7 309.627L214.16 309.627L214.16 306.939L222.392 306.939C223.829 306.939 224.921 306.594 225.668 305.903C226.396 305.212 226.76 304.223 226.76 302.935C226.76 301.516 226.331 300.396 225.472 299.575C224.613 298.754 223.4 298.343 221.832 298.343L214.16 298.343L214.16 295.655Z" fill="black"/>
<path d="M216.652 287.962C215.793 287.495 215.14 286.805 214.692 285.89C214.244 284.975 214.02 283.865 214.02 282.558L216.624 282.558C216.605 282.707 216.596 282.913 216.596 283.174C216.596 284.63 217.035 285.778 217.912 286.618C218.771 287.439 220.003 287.85 221.608 287.85L229 287.85L229 290.538L214.16 290.538L214.16 287.962L216.652 287.962Z" fill="black"/>
<path d="M214.16 279.245L214.16 276.557L229 276.557L229 279.245L214.16 279.245ZM211.304 277.901C211.304 278.424 211.136 278.862 210.8 279.217C210.464 279.553 210.053 279.721 209.568 279.721C209.083 279.721 208.672 279.553 208.336 279.217C207.981 278.862 207.804 278.424 207.804 277.901C207.804 277.378 207.972 276.949 208.308 276.613C208.625 276.258 209.027 276.081 209.512 276.081C210.016 276.081 210.445 276.258 210.8 276.613C211.136 276.949 211.304 277.378 211.304 277.901Z" fill="black"/>
<path d="M228.132 263.081C228.468 263.473 228.729 263.958 228.916 264.537C229.084 265.115 229.168 265.713 229.168 266.329C229.168 267.822 228.767 268.979 227.964 269.801C227.161 270.622 226.013 271.033 224.52 271.033L216.372 271.033L216.372 273.553L214.16 273.553L214.16 271.033L210.912 271.033L210.912 268.345L214.16 268.345L214.16 264.089L216.372 264.089L216.372 268.345L224.408 268.345C225.211 268.345 225.827 268.149 226.256 267.757C226.685 267.346 226.9 266.767 226.9 266.021C226.9 265.199 226.667 264.499 226.2 263.921L228.132 263.081Z" fill="black"/>
<path d="M214.16 246.972L230.484 254.168C231.996 254.803 233.06 255.55 233.676 256.408C234.292 257.248 234.6 258.266 234.6 259.46C234.6 260.188 234.479 260.898 234.236 261.588C234.012 262.26 233.676 262.82 233.228 263.268L231.212 262.12C231.94 261.355 232.304 260.468 232.304 259.46C232.304 258.807 232.127 258.266 231.772 257.836C231.436 257.388 230.848 256.987 230.008 256.632L228.972 256.156L214.16 262.708L214.16 259.908L226.032 254.728L214.16 249.604L214.16 246.972Z" fill="black"/>
<path d="M229.224 228.432C229.224 231.046 228.477 233.08 226.984 234.536C225.491 235.992 223.344 236.72 220.544 236.72L209.4 236.72L209.4 233.92L220.432 233.92C224.632 233.92 226.732 232.082 226.732 228.404C226.732 226.612 226.219 225.24 225.192 224.288C224.147 223.336 222.56 222.86 220.432 222.86L209.4 222.86L209.4 220.144L220.544 220.144C223.363 220.144 225.519 220.872 227.012 222.328C228.487 223.784 229.224 225.819 229.224 228.432Z" fill="black"/>
<path d="M214.02 206.928C214.02 205.49 214.337 204.202 214.972 203.064C215.607 201.925 216.493 201.038 217.632 200.404C218.771 199.75 220.087 199.424 221.58 199.424C223.073 199.424 224.399 199.75 225.556 200.404C226.695 201.038 227.581 201.925 228.216 203.064C228.851 204.202 229.168 205.49 229.168 206.928C229.168 207.992 228.963 208.972 228.552 209.868C228.141 210.745 227.544 211.492 226.76 212.108L234.432 212.108L234.432 214.796L214.16 214.796L214.16 212.22L216.512 212.22C215.691 211.622 215.075 210.866 214.664 209.952C214.235 209.037 214.02 208.029 214.02 206.928ZM226.816 207.152C226.816 206.2 226.601 205.35 226.172 204.604C225.724 203.838 225.108 203.241 224.324 202.812C223.521 202.364 222.607 202.14 221.58 202.14C220.553 202.14 219.648 202.364 218.864 202.812C218.061 203.241 217.445 203.838 217.016 204.604C216.587 205.35 216.372 206.2 216.372 207.152C216.372 208.085 216.596 208.934 217.044 209.7C217.473 210.446 218.08 211.044 218.864 211.492C219.648 211.921 220.553 212.136 221.58 212.136C222.607 212.136 223.521 211.921 224.324 211.492C225.108 211.062 225.724 210.465 226.172 209.7C226.601 208.934 226.816 208.085 226.816 207.152Z" fill="black"/>
<path d="M208.224 181.71L229 181.71L229 184.286L226.648 184.286C227.469 184.883 228.095 185.639 228.524 186.554C228.953 187.468 229.168 188.476 229.168 189.578C229.168 191.015 228.851 192.303 228.216 193.442C227.581 194.58 226.695 195.476 225.556 196.13C224.399 196.764 223.073 197.082 221.58 197.082C220.087 197.082 218.771 196.764 217.632 196.13C216.493 195.476 215.607 194.58 214.972 193.442C214.337 192.303 214.02 191.015 214.02 189.578C214.02 188.514 214.225 187.534 214.636 186.638C215.028 185.742 215.616 184.995 216.4 184.398L208.224 184.398L208.224 181.71ZM226.816 189.354C226.816 188.42 226.601 187.571 226.172 186.806C225.724 186.04 225.108 185.443 224.324 185.014C223.521 184.584 222.607 184.37 221.58 184.37C220.553 184.37 219.648 184.584 218.864 185.014C218.061 185.443 217.445 186.04 217.016 186.806C216.587 187.571 216.372 188.42 216.372 189.354C216.372 190.306 216.587 191.164 217.016 191.93C217.445 192.676 218.061 193.274 218.864 193.722C219.648 194.151 220.553 194.366 221.58 194.366C222.607 194.366 223.521 194.151 224.324 193.722C225.108 193.274 225.724 192.676 226.172 191.93C226.601 191.164 226.816 190.306 226.816 189.354Z" fill="black"/>
<path d="M214.02 171.22C214.02 169.167 214.524 167.599 215.532 166.516C216.54 165.415 218.043 164.864 220.04 164.864L229 164.864L229 167.412L227.04 167.412C227.731 167.86 228.263 168.504 228.636 169.344C228.991 170.165 229.168 171.145 229.168 172.284C229.168 173.945 228.767 175.28 227.964 176.288C227.161 177.277 226.107 177.772 224.8 177.772C223.493 177.772 222.448 177.296 221.664 176.344C220.861 175.392 220.46 173.88 220.46 171.808L220.46 167.552L219.928 167.552C218.771 167.552 217.884 167.888 217.268 168.56C216.652 169.232 216.344 170.221 216.344 171.528C216.344 172.405 216.493 173.264 216.792 174.104C217.072 174.944 217.455 175.653 217.94 176.232L215.924 177.352C215.308 176.587 214.841 175.672 214.524 174.608C214.188 173.544 214.02 172.415 214.02 171.22ZM227.096 171.836C227.096 170.809 226.872 169.923 226.424 169.176C225.957 168.429 225.304 167.888 224.464 167.552L222.392 167.552L222.392 171.696C222.392 173.973 223.157 175.112 224.688 175.112C225.435 175.112 226.023 174.823 226.452 174.244C226.881 173.665 227.096 172.863 227.096 171.836Z" fill="black"/>
<path d="M228.132 151.546C228.468 151.938 228.729 152.423 228.916 153.001C229.084 153.58 229.168 154.177 229.168 154.793C229.168 156.287 228.767 157.444 227.964 158.266C227.161 159.087 226.013 159.497 224.52 159.497L216.372 159.497L216.372 162.017L214.16 162.017L214.16 159.497L210.912 159.497L210.912 156.81L214.16 156.81L214.16 152.553L216.372 152.553L216.372 156.81L224.408 156.81C225.211 156.81 225.827 156.613 226.256 156.221C226.685 155.811 226.9 155.232 226.9 154.486C226.9 153.664 226.667 152.964 226.2 152.385L228.132 151.546Z" fill="black"/>
<path d="M221.664 135.376C221.869 135.376 222.14 135.395 222.476 135.432L222.476 147.472C223.783 147.304 224.837 146.735 225.64 145.764C226.424 144.775 226.816 143.552 226.816 142.096C226.816 140.323 226.219 138.895 225.024 137.812L226.76 136.328C227.544 137 228.141 137.84 228.552 138.848C228.963 139.837 229.168 140.948 229.168 142.18C229.168 143.748 228.851 145.139 228.216 146.352C227.563 147.565 226.657 148.508 225.5 149.18C224.343 149.833 223.036 150.16 221.58 150.16C220.143 150.16 218.845 149.843 217.688 149.208C216.531 148.555 215.635 147.668 215 146.548C214.347 145.409 214.02 144.131 214.02 142.712C214.02 141.293 214.347 140.033 215 138.932C215.635 137.812 216.531 136.944 217.688 136.328C218.845 135.693 220.171 135.376 221.664 135.376ZM216.288 142.712C216.288 144 216.68 145.083 217.464 145.96C218.248 146.819 219.275 147.323 220.544 147.472L220.544 137.952C219.293 138.101 218.276 138.615 217.492 139.492C216.689 140.351 216.288 141.424 216.288 142.712Z" fill="black"/>
<rect x="300" y="476" width="361" height="95" transform="rotate(-90 300 476)" fill="white"/>
<path d="M340.836 448.26L347.668 448.26L347.668 438.432L350.076 438.432L350.076 448.26L358 448.26L358 451.06L338.4 451.06L338.4 437.228L340.836 437.228L340.836 448.26Z" fill="black"/>
<path d="M345.652 431.376C344.793 430.909 344.14 430.219 343.692 429.304C343.244 428.389 343.02 427.279 343.02 425.972L345.624 425.972C345.605 426.121 345.596 426.327 345.596 426.588C345.596 428.044 346.035 429.192 346.912 430.032C347.771 430.853 349.003 431.264 350.608 431.264L358 431.264L358 433.952L343.16 433.952L343.16 431.376L345.652 431.376Z" fill="black"/>
<path d="M343.02 417.282C343.02 415.229 343.524 413.661 344.532 412.578C345.54 411.477 347.043 410.926 349.04 410.926L358 410.926L358 413.474L356.04 413.474C356.731 413.922 357.263 414.566 357.636 415.406C357.991 416.228 358.168 417.208 358.168 418.346C358.168 420.008 357.767 421.342 356.964 422.35C356.161 423.34 355.107 423.834 353.8 423.834C352.493 423.834 351.448 423.358 350.664 422.406C349.861 421.454 349.46 419.942 349.46 417.87L349.46 413.614L348.928 413.614C347.771 413.614 346.884 413.95 346.268 414.622C345.652 415.294 345.344 416.284 345.344 417.59C345.344 418.468 345.493 419.326 345.792 420.166C346.072 421.006 346.455 421.716 346.94 422.294L344.924 423.414C344.308 422.649 343.841 421.734 343.524 420.67C343.188 419.606 343.02 418.477 343.02 417.282ZM356.096 417.898C356.096 416.872 355.872 415.985 355.424 415.238C354.957 414.492 354.304 413.95 353.464 413.614L351.392 413.614L351.392 417.758C351.392 420.036 352.157 421.174 353.688 421.174C354.435 421.174 355.023 420.885 355.452 420.306C355.881 419.728 356.096 418.925 356.096 417.898Z" fill="black"/>
<path d="M343.16 392.12L358 392.12L358 394.668L355.76 394.668C356.525 395.209 357.123 395.928 357.552 396.824C357.963 397.701 358.168 398.663 358.168 399.708C358.168 401.687 357.627 403.245 356.544 404.384C355.443 405.523 353.828 406.092 351.7 406.092L343.16 406.092L343.16 403.404L351.392 403.404C352.829 403.404 353.921 403.059 354.668 402.368C355.396 401.677 355.76 400.688 355.76 399.4C355.76 397.981 355.331 396.861 354.472 396.04C353.613 395.219 352.4 394.808 350.832 394.808L343.16 394.808L343.16 392.12Z" fill="black"/>
<path d="M337.224 373.003L358 373.003L358 375.579L355.648 375.579C356.469 376.176 357.095 376.932 357.524 377.847C357.953 378.762 358.168 379.77 358.168 380.871C358.168 382.308 357.851 383.596 357.216 384.735C356.581 385.874 355.695 386.77 354.556 387.423C353.399 388.058 352.073 388.375 350.58 388.375C349.087 388.375 347.771 388.058 346.632 387.423C345.493 386.77 344.607 385.874 343.972 384.735C343.337 383.596 343.02 382.308 343.02 380.871C343.02 379.807 343.225 378.827 343.636 377.931C344.028 377.035 344.616 376.288 345.4 375.691L337.224 375.691L337.224 373.003ZM355.816 380.647C355.816 379.714 355.601 378.864 355.172 378.099C354.724 377.334 354.108 376.736 353.324 376.307C352.521 375.878 351.607 375.663 350.58 375.663C349.553 375.663 348.648 375.878 347.864 376.307C347.061 376.736 346.445 377.334 346.016 378.099C345.587 378.864 345.372 379.714 345.372 380.647C345.372 381.599 345.587 382.458 346.016 383.223C346.445 383.97 347.061 384.567 347.864 385.015C348.648 385.444 349.553 385.659 350.58 385.659C351.607 385.659 352.521 385.444 353.324 385.015C354.108 384.567 354.724 383.97 355.172 383.223C355.601 382.458 355.816 381.599 355.816 380.647Z" fill="black"/>
<path d="M338.4 360.005L338.4 351.745C338.4 349.673 338.811 347.835 339.632 346.229C340.453 344.624 341.611 343.383 343.104 342.505C344.579 341.609 346.277 341.161 348.2 341.161C350.123 341.161 351.831 341.609 353.324 342.505C354.799 343.383 355.947 344.624 356.768 346.229C357.589 347.835 358 349.673 358 351.745L358 360.005L338.4 360.005ZM355.564 351.913C355.564 350.327 355.256 348.936 354.64 347.741C354.024 346.528 353.165 345.595 352.064 344.941C350.944 344.288 349.656 343.961 348.2 343.961C346.744 343.961 345.465 344.288 344.364 344.941C343.244 345.595 342.376 346.528 341.76 347.741C341.144 348.936 340.836 350.327 340.836 351.913L340.836 357.205L355.564 357.205L355.564 351.913Z" fill="black"/>
<path d="M350.664 323.853C350.869 323.853 351.14 323.871 351.476 323.909L351.476 335.949C352.783 335.781 353.837 335.211 354.64 334.241C355.424 333.251 355.816 332.029 355.816 330.573C355.816 328.799 355.219 327.371 354.024 326.289L355.76 324.805C356.544 325.477 357.141 326.317 357.552 327.325C357.963 328.314 358.168 329.425 358.168 330.657C358.168 332.225 357.851 333.615 357.216 334.829C356.563 336.042 355.657 336.985 354.5 337.657C353.343 338.31 352.036 338.637 350.58 338.637C349.143 338.637 347.845 338.319 346.688 337.685C345.531 337.031 344.635 336.145 344 335.025C343.347 333.886 343.02 332.607 343.02 331.189C343.02 329.77 343.347 328.51 344 327.409C344.635 326.289 345.531 325.421 346.688 324.805C347.845 324.17 349.171 323.853 350.664 323.853ZM345.288 331.189C345.288 332.477 345.68 333.559 346.464 334.437C347.248 335.295 348.275 335.799 349.544 335.949L349.544 326.429C348.293 326.578 347.276 327.091 346.492 327.969C345.689 328.827 345.288 329.901 345.288 331.189Z" fill="black"/>
<path d="M357.132 311.776C357.468 312.168 357.729 312.653 357.916 313.232C358.084 313.811 358.168 314.408 358.168 315.024C358.168 316.517 357.767 317.675 356.964 318.496C356.161 319.317 355.013 319.728 353.52 319.728L345.372 319.728L345.372 322.248L343.16 322.248L343.16 319.728L339.912 319.728L339.912 317.04L343.16 317.04L343.16 312.784L345.372 312.784L345.372 317.04L353.408 317.04C354.211 317.04 354.827 316.844 355.256 316.452C355.685 316.041 355.9 315.463 355.9 314.716C355.9 313.895 355.667 313.195 355.2 312.616L357.132 311.776Z" fill="black"/>
<path d="M350.664 295.606C350.869 295.606 351.14 295.625 351.476 295.662L351.476 307.702C352.783 307.534 353.837 306.965 354.64 305.994C355.424 305.005 355.816 303.782 355.816 302.326C355.816 300.553 355.219 299.125 354.024 298.042L355.76 296.558C356.544 297.23 357.141 298.07 357.552 299.078C357.963 300.068 358.168 301.178 358.168 302.41C358.168 303.978 357.851 305.369 357.216 306.582C356.563 307.796 355.657 308.738 354.5 309.41C353.343 310.064 352.036 310.39 350.58 310.39C349.143 310.39 347.845 310.073 346.688 309.438C345.531 308.785 344.635 307.898 344 306.778C343.347 305.64 343.02 304.361 343.02 302.942C343.02 301.524 343.347 300.264 344 299.162C344.635 298.042 345.531 297.174 346.688 296.558C347.845 295.924 349.171 295.606 350.664 295.606ZM345.288 302.942C345.288 304.23 345.68 305.313 346.464 306.19C347.248 307.049 348.275 307.553 349.544 307.702L349.544 298.182C348.293 298.332 347.276 298.845 346.492 299.722C345.689 300.581 345.288 301.654 345.288 302.942Z" fill="black"/>
<path d="M358.168 285.406C358.168 286.918 357.841 288.271 357.188 289.466C356.535 290.642 355.639 291.566 354.5 292.238C353.343 292.91 352.036 293.246 350.58 293.246C349.124 293.246 347.827 292.91 346.688 292.238C345.531 291.566 344.635 290.642 344 289.466C343.347 288.271 343.02 286.918 343.02 285.406C343.02 284.062 343.291 282.867 343.832 281.822C344.373 280.758 345.157 279.937 346.184 279.358L347.5 281.402C346.791 281.869 346.259 282.447 345.904 283.138C345.549 283.829 345.372 284.594 345.372 285.434C345.372 286.405 345.587 287.282 346.016 288.066C346.445 288.831 347.061 289.438 347.864 289.886C348.648 290.315 349.553 290.53 350.58 290.53C351.625 290.53 352.549 290.315 353.352 289.886C354.136 289.438 354.743 288.831 355.172 288.066C355.601 287.282 355.816 286.405 355.816 285.434C355.816 284.594 355.639 283.829 355.284 283.138C354.929 282.447 354.397 281.869 353.688 281.402L354.976 279.358C356.003 279.937 356.796 280.758 357.356 281.822C357.897 282.867 358.168 284.062 358.168 285.406Z" fill="black"/>
<path d="M357.132 267.342C357.468 267.734 357.729 268.22 357.916 268.798C358.084 269.377 358.168 269.974 358.168 270.59C358.168 272.084 357.767 273.241 356.964 274.062C356.161 274.884 355.013 275.294 353.52 275.294L345.372 275.294L345.372 277.814L343.16 277.814L343.16 275.294L339.912 275.294L339.912 272.606L343.16 272.606L343.16 268.35L345.372 268.35L345.372 272.606L353.408 272.606C354.211 272.606 354.827 272.41 355.256 272.018C355.685 271.608 355.9 271.029 355.9 270.282C355.9 269.461 355.667 268.761 355.2 268.182L357.132 267.342Z" fill="black"/>
<path d="M343.16 264.093L343.16 261.405L358 261.405L358 264.093L343.16 264.093ZM340.304 262.749C340.304 263.271 340.136 263.71 339.8 264.065C339.464 264.401 339.053 264.569 338.568 264.569C338.083 264.569 337.672 264.401 337.336 264.065C336.981 263.71 336.804 263.271 336.804 262.749C336.804 262.226 336.972 261.797 337.308 261.461C337.625 261.106 338.027 260.929 338.512 260.929C339.016 260.929 339.445 261.106 339.8 261.461C340.136 261.797 340.304 262.226 340.304 262.749Z" fill="black"/>
<path d="M358.168 249.916C358.168 251.391 357.841 252.716 357.188 253.892C356.535 255.068 355.639 255.992 354.5 256.664C353.343 257.318 352.036 257.644 350.58 257.644C349.124 257.644 347.827 257.318 346.688 256.664C345.531 255.992 344.635 255.068 344 253.892C343.347 252.716 343.02 251.391 343.02 249.916C343.02 248.442 343.347 247.126 344 245.968C344.635 244.792 345.531 243.878 346.688 243.224C347.827 242.552 349.124 242.216 350.58 242.216C352.036 242.216 353.343 242.552 354.5 243.224C355.639 243.878 356.535 244.792 357.188 245.968C357.841 247.126 358.168 248.442 358.168 249.916ZM355.816 249.916C355.816 248.964 355.601 248.115 355.172 247.368C354.724 246.603 354.108 246.006 353.324 245.576C352.521 245.147 351.607 244.932 350.58 244.932C349.553 244.932 348.648 245.147 347.864 245.576C347.061 246.006 346.445 246.603 346.016 247.368C345.587 248.115 345.372 248.964 345.372 249.916C345.372 250.868 345.587 251.727 346.016 252.492C346.445 253.239 347.061 253.836 347.864 254.284C348.648 254.714 349.553 254.928 350.58 254.928C351.607 254.928 352.521 254.714 353.324 254.284C354.108 253.836 354.724 253.239 355.172 252.492C355.601 251.727 355.816 250.868 355.816 249.916Z" fill="black"/>
<path d="M343.02 230.575C343.02 228.69 343.571 227.196 344.672 226.095C345.755 224.975 347.351 224.415 349.46 224.415L358 224.415L358 227.103L349.768 227.103C348.331 227.103 347.248 227.448 346.52 228.139C345.792 228.83 345.428 229.819 345.428 231.107C345.428 232.563 345.857 233.711 346.716 234.551C347.556 235.391 348.769 235.811 350.356 235.811L358 235.811L358 238.499L343.16 238.499L343.16 235.923L345.4 235.923C344.635 235.382 344.047 234.654 343.636 233.739C343.225 232.806 343.02 231.751 343.02 230.575Z" fill="black"/>
<rect x="429" y="476" width="361" height="95" transform="rotate(-90 429 476)" fill="white"/>
<path d="M482.1 438.572L482.1 448.988L487 451.144L487 454.028L467.4 445.152L467.4 442.38L487 433.476L487 436.416L482.1 438.572ZM479.86 439.552L470.256 443.78L479.86 448.008L479.86 439.552Z" fill="black"/>
<path d="M472.02 423.076C472.02 421.639 472.337 420.351 472.972 419.212C473.607 418.074 474.493 417.187 475.632 416.552C476.771 415.899 478.087 415.572 479.58 415.572C481.073 415.572 482.399 415.899 483.556 416.552C484.695 417.187 485.581 418.074 486.216 419.212C486.851 420.351 487.168 421.639 487.168 423.076C487.168 424.14 486.963 425.12 486.552 426.016C486.141 426.894 485.544 427.64 484.76 428.256L492.432 428.256L492.432 430.944L472.16 430.944L472.16 428.368L474.512 428.368C473.691 427.771 473.075 427.015 472.664 426.1C472.235 425.186 472.02 424.178 472.02 423.076ZM484.816 423.3C484.816 422.348 484.601 421.499 484.172 420.752C483.724 419.987 483.108 419.39 482.324 418.96C481.521 418.512 480.607 418.288 479.58 418.288C478.553 418.288 477.648 418.512 476.864 418.96C476.061 419.39 475.445 419.987 475.016 420.752C474.587 421.499 474.372 422.348 474.372 423.3C474.372 424.234 474.596 425.083 475.044 425.848C475.473 426.595 476.08 427.192 476.864 427.64C477.648 428.07 478.553 428.284 479.58 428.284C480.607 428.284 481.521 428.07 482.324 427.64C483.108 427.211 483.724 426.614 484.172 425.848C484.601 425.083 484.816 424.234 484.816 423.3Z" fill="black"/>
<path d="M472.02 403.99C472.02 402.553 472.337 401.265 472.972 400.126C473.607 398.988 474.493 398.101 475.632 397.466C476.771 396.813 478.087 396.486 479.58 396.486C481.073 396.486 482.399 396.813 483.556 397.466C484.695 398.101 485.581 398.988 486.216 400.126C486.851 401.265 487.168 402.553 487.168 403.99C487.168 405.054 486.963 406.034 486.552 406.93C486.141 407.808 485.544 408.554 484.76 409.17L492.432 409.17L492.432 411.858L472.16 411.858L472.16 409.282L474.512 409.282C473.691 408.685 473.075 407.929 472.664 407.014C472.235 406.1 472.02 405.092 472.02 403.99ZM484.816 404.214C484.816 403.262 484.601 402.413 484.172 401.666C483.724 400.901 483.108 400.304 482.324 399.874C481.521 399.426 480.607 399.202 479.58 399.202C478.553 399.202 477.648 399.426 476.864 399.874C476.061 400.304 475.445 400.901 475.016 401.666C474.587 402.413 474.372 403.262 474.372 404.214C474.372 405.148 474.596 405.997 475.044 406.762C475.473 407.509 476.08 408.106 476.864 408.554C477.648 408.984 478.553 409.198 479.58 409.198C480.607 409.198 481.521 408.984 482.324 408.554C483.108 408.125 483.724 407.528 484.172 406.762C484.601 405.997 484.816 405.148 484.816 404.214Z" fill="black"/>
<path d="M466.224 392.772L466.224 390.084L487 390.084L487 392.772L466.224 392.772Z" fill="black"/>
<path d="M472.16 384.952L472.16 382.264L487 382.264L487 384.952L472.16 384.952ZM469.304 383.608C469.304 384.131 469.136 384.569 468.8 384.924C468.464 385.26 468.053 385.428 467.568 385.428C467.083 385.428 466.672 385.26 466.336 384.924C465.981 384.569 465.804 384.131 465.804 383.608C465.804 383.085 465.972 382.656 466.308 382.32C466.625 381.965 467.027 381.788 467.512 381.788C468.016 381.788 468.445 381.965 468.8 382.32C469.136 382.656 469.304 383.085 469.304 383.608Z" fill="black"/>
<path d="M487.168 370.664C487.168 372.176 486.841 373.529 486.188 374.724C485.535 375.9 484.639 376.824 483.5 377.496C482.343 378.168 481.036 378.504 479.58 378.504C478.124 378.504 476.827 378.168 475.688 377.496C474.531 376.824 473.635 375.9 473 374.724C472.347 373.529 472.02 372.176 472.02 370.664C472.02 369.32 472.291 368.125 472.832 367.08C473.373 366.016 474.157 365.194 475.184 364.616L476.5 366.66C475.791 367.126 475.259 367.705 474.904 368.396C474.549 369.086 474.372 369.852 474.372 370.692C474.372 371.662 474.587 372.54 475.016 373.324C475.445 374.089 476.061 374.696 476.864 375.144C477.648 375.573 478.553 375.788 479.58 375.788C480.625 375.788 481.549 375.573 482.352 375.144C483.136 374.696 483.743 374.089 484.172 373.324C484.601 372.54 484.816 371.662 484.816 370.692C484.816 369.852 484.639 369.086 484.284 368.396C483.929 367.705 483.397 367.126 482.688 366.66L483.976 364.616C485.003 365.194 485.796 366.016 486.356 367.08C486.897 368.125 487.168 369.32 487.168 370.664Z" fill="black"/>
<path d="M472.02 355.732C472.02 353.678 472.524 352.11 473.532 351.028C474.54 349.926 476.043 349.376 478.04 349.376L487 349.376L487 351.924L485.04 351.924C485.731 352.372 486.263 353.016 486.636 353.856C486.991 354.677 487.168 355.657 487.168 356.796C487.168 358.457 486.767 359.792 485.964 360.8C485.161 361.789 484.107 362.284 482.8 362.284C481.493 362.284 480.448 361.808 479.664 360.856C478.861 359.904 478.46 358.392 478.46 356.32L478.46 352.064L477.928 352.064C476.771 352.064 475.884 352.4 475.268 353.072C474.652 353.744 474.344 354.733 474.344 356.04C474.344 356.917 474.493 357.776 474.792 358.616C475.072 359.456 475.455 360.165 475.94 360.744L473.924 361.864C473.308 361.098 472.841 360.184 472.524 359.12C472.188 358.056 472.02 356.926 472.02 355.732ZM485.096 356.348C485.096 355.321 484.872 354.434 484.424 353.688C483.957 352.941 483.304 352.4 482.464 352.064L480.392 352.064L480.392 356.208C480.392 358.485 481.157 359.624 482.688 359.624C483.435 359.624 484.023 359.334 484.452 358.756C484.881 358.177 485.096 357.374 485.096 356.348Z" fill="black"/>
<path d="M486.132 336.057C486.468 336.449 486.729 336.935 486.916 337.513C487.084 338.092 487.168 338.689 487.168 339.305C487.168 340.799 486.767 341.956 485.964 342.777C485.161 343.599 484.013 344.009 482.52 344.009L474.372 344.009L474.372 346.529L472.16 346.529L472.16 344.009L468.912 344.009L468.912 341.321L472.16 341.321L472.16 337.065L474.372 337.065L474.372 341.321L482.408 341.321C483.211 341.321 483.827 341.125 484.256 340.733C484.685 340.323 484.9 339.744 484.9 338.997C484.9 338.176 484.667 337.476 484.2 336.897L486.132 336.057Z" fill="black"/>
<path d="M472.16 332.808L472.16 330.12L487 330.12L487 332.808L472.16 332.808ZM469.304 331.464C469.304 331.986 469.136 332.425 468.8 332.78C468.464 333.116 468.053 333.284 467.568 333.284C467.083 333.284 466.672 333.116 466.336 332.78C465.981 332.425 465.804 331.986 465.804 331.464C465.804 330.941 465.972 330.512 466.308 330.176C466.625 329.821 467.027 329.644 467.512 329.644C468.016 329.644 468.445 329.821 468.8 330.176C469.136 330.512 469.304 330.941 469.304 331.464Z" fill="black"/>
<path d="M487.168 318.631C487.168 320.106 486.841 321.431 486.188 322.607C485.535 323.783 484.639 324.707 483.5 325.379C482.343 326.033 481.036 326.359 479.58 326.359C478.124 326.359 476.827 326.033 475.688 325.379C474.531 324.707 473.635 323.783 473 322.607C472.347 321.431 472.02 320.106 472.02 318.631C472.02 317.157 472.347 315.841 473 314.683C473.635 313.507 474.531 312.593 475.688 311.939C476.827 311.267 478.124 310.931 479.58 310.931C481.036 310.931 482.343 311.267 483.5 311.939C484.639 312.593 485.535 313.507 486.188 314.683C486.841 315.841 487.168 317.157 487.168 318.631ZM484.816 318.631C484.816 317.679 484.601 316.83 484.172 316.083C483.724 315.318 483.108 314.721 482.324 314.291C481.521 313.862 480.607 313.647 479.58 313.647C478.553 313.647 477.648 313.862 476.864 314.291C476.061 314.721 475.445 315.318 475.016 316.083C474.587 316.83 474.372 317.679 474.372 318.631C474.372 319.583 474.587 320.442 475.016 321.207C475.445 321.954 476.061 322.551 476.864 322.999C477.648 323.429 478.553 323.643 479.58 323.643C480.607 323.643 481.521 323.429 482.324 322.999C483.108 322.551 483.724 321.954 484.172 321.207C484.601 320.442 484.816 319.583 484.816 318.631Z" fill="black"/>
<path d="M472.02 299.29C472.02 297.404 472.571 295.911 473.672 294.81C474.755 293.69 476.351 293.13 478.46 293.13L487 293.13L487 295.818L478.768 295.818C477.331 295.818 476.248 296.163 475.52 296.854C474.792 297.544 474.428 298.534 474.428 299.822C474.428 301.278 474.857 302.426 475.716 303.266C476.556 304.106 477.769 304.526 479.356 304.526L487 304.526L487 307.214L472.16 307.214L472.16 304.638L474.4 304.638C473.635 304.096 473.047 303.368 472.636 302.454C472.225 301.52 472.02 300.466 472.02 299.29Z" fill="black"/>
<path d="M474.484 268.372L479.916 269.044L479.916 265.152L481.96 265.152L481.96 269.296L487 269.912L487 271.9L481.96 271.284L481.96 276.576L487 277.192L487 279.18L481.96 278.564L481.96 282.428L479.916 282.428L479.916 278.312L474.484 277.612L474.484 281.532L472.44 281.532L472.44 277.36L467.4 276.744L467.4 274.756L472.44 275.372L472.44 270.108L467.4 269.492L467.4 267.504L472.44 268.12L472.44 264.256L474.484 264.256L474.484 268.372ZM474.484 270.36L474.484 275.624L479.916 276.324L479.916 271.032L474.484 270.36Z" fill="black"/>
<path d="M467.4 256.076L487 256.076L487 258.848L469.836 258.848L469.836 263.272L467.4 263.272L467.4 256.076Z" fill="black"/>
<path d="M392.405 802.336C389.605 802.336 387.421 801.561 385.853 800.012C384.304 798.463 383.529 796.251 383.529 793.376V782.4H388.065V793.208C388.065 796.717 389.521 798.472 392.433 798.472C393.852 798.472 394.934 798.052 395.681 797.212C396.428 796.353 396.801 795.019 396.801 793.208V782.4H401.281V793.376C401.281 796.251 400.497 798.463 398.929 800.012C397.38 801.561 395.205 802.336 392.405 802.336Z" fill="black"/>
<path d="M423.739 782.4V802H420.015L410.243 790.1V802H405.763V782.4H409.515L419.259 794.3V782.4H423.739Z" fill="black"/>
<path d="M428.069 786.936H432.437V802H428.069V786.936ZM430.253 784.836C429.45 784.836 428.797 784.603 428.293 784.136C427.789 783.669 427.537 783.091 427.537 782.4C427.537 781.709 427.789 781.131 428.293 780.664C428.797 780.197 429.45 779.964 430.253 779.964C431.055 779.964 431.709 780.188 432.213 780.636C432.717 781.084 432.969 781.644 432.969 782.316C432.969 783.044 432.717 783.651 432.213 784.136C431.709 784.603 431.055 784.836 430.253 784.836Z" fill="black"/>
<path d="M436.799 782.4H445.703C447.831 782.4 449.707 782.811 451.331 783.632C452.973 784.435 454.243 785.573 455.139 787.048C456.053 788.523 456.511 790.24 456.511 792.2C456.511 794.16 456.053 795.877 455.139 797.352C454.243 798.827 452.973 799.975 451.331 800.796C449.707 801.599 447.831 802 445.703 802H436.799V782.4ZM445.479 798.276C447.439 798.276 448.997 797.735 450.155 796.652C451.331 795.551 451.919 794.067 451.919 792.2C451.919 790.333 451.331 788.859 450.155 787.776C448.997 786.675 447.439 786.124 445.479 786.124H441.335V798.276H445.479Z" fill="black"/>
<path d="M485.837 782.4V802H481.301V793.964H472.397V802H467.861V782.4H472.397V790.128H481.301V782.4H485.837Z" fill="black"/>
<path d="M499.182 802.336C496.382 802.336 494.198 801.561 492.63 800.012C491.081 798.463 490.306 796.251 490.306 793.376V782.4H494.842V793.208C494.842 796.717 496.298 798.472 499.21 798.472C500.629 798.472 501.712 798.052 502.458 797.212C503.205 796.353 503.578 795.019 503.578 793.208V782.4H508.058V793.376C508.058 796.251 507.274 798.463 505.706 800.012C504.157 801.561 501.982 802.336 499.182 802.336Z" fill="black"/>
<path d="M526.933 791.808C528.053 792.163 528.93 792.76 529.565 793.6C530.199 794.421 530.517 795.439 530.517 796.652C530.517 798.369 529.845 799.695 528.501 800.628C527.175 801.543 525.234 802 522.677 802H512.541V782.4H522.117C524.506 782.4 526.335 782.857 527.605 783.772C528.893 784.687 529.537 785.928 529.537 787.496C529.537 788.448 529.303 789.297 528.837 790.044C528.389 790.791 527.754 791.379 526.933 791.808ZM517.049 785.816V790.436H521.557C522.677 790.436 523.526 790.24 524.105 789.848C524.683 789.456 524.973 788.877 524.973 788.112C524.973 787.347 524.683 786.777 524.105 786.404C523.526 786.012 522.677 785.816 521.557 785.816H517.049ZM522.341 798.584C523.535 798.584 524.431 798.388 525.029 797.996C525.645 797.604 525.953 796.997 525.953 796.176C525.953 794.552 524.749 793.74 522.341 793.74H517.049V798.584H522.341Z" fill="black"/>
<path d="M90.8536 522.646C90.6583 522.451 90.3417 522.451 90.1464 522.646L86.9645 525.828C86.7692 526.024 86.7692 526.34 86.9645 526.536C87.1597 526.731 87.4763 526.731 87.6716 526.536L90.5 523.707L93.3284 526.536C93.5237 526.731 93.8403 526.731 94.0355 526.536C94.2308 526.34 94.2308 526.024 94.0355 525.828L90.8536 522.646ZM90.1465 723.354C90.3417 723.549 90.6583 723.549 90.8536 723.354L94.0355 720.172C94.2308 719.976 94.2308 719.66 94.0355 719.464C93.8403 719.269 93.5237 719.269 93.3284 719.464L90.5 722.293L87.6716 719.464C87.4763 719.269 87.1597 719.269 86.9645 719.464C86.7692 719.66 86.7692 719.976 86.9645 720.172L90.1465 723.354ZM90 523L90 723L91 723L91 523L90 523Z" fill="black"/>
<path d="M757.354 522.646C757.158 522.451 756.842 522.451 756.646 522.646L753.464 525.828C753.269 526.024 753.269 526.34 753.464 526.536C753.66 526.731 753.976 526.731 754.172 526.536L757 523.707L759.828 526.536C760.024 526.731 760.34 526.731 760.536 526.536C760.731 526.34 760.731 526.024 760.536 525.828L757.354 522.646ZM756.646 723.354C756.842 723.549 757.158 723.549 757.354 723.354L760.536 720.172C760.731 719.976 760.731 719.66 760.536 719.464C760.34 719.269 760.024 719.269 759.828 719.464L757 722.293L754.172 719.464C753.976 719.269 753.66 719.269 753.464 719.464C753.269 719.66 753.269 719.976 753.464 720.172L756.646 723.354ZM756.5 523L756.5 723L757.5 723L757.5 523L756.5 523Z" fill="black"/>
<path d="M205.249 65.3361C202.449 65.3361 200.265 64.5614 198.697 63.0121C197.147 61.4628 196.373 59.2508 196.373 56.3761V45.4001H200.909V56.2081C200.909 59.7174 202.365 61.4721 205.277 61.4721C206.695 61.4721 207.778 61.0521 208.525 60.2121C209.271 59.3534 209.645 58.0188 209.645 56.2081V45.4001H214.125V56.3761C214.125 59.2508 213.341 61.4628 211.773 63.0121C210.223 64.5614 208.049 65.3361 205.249 65.3361Z" fill="black"/>
<path d="M236.583 45.4001V65.0001H232.859L223.087 53.1001V65.0001H218.607V45.4001H222.359L232.103 57.3001V45.4001H236.583Z" fill="black"/>
<path d="M240.912 49.9361H245.28V65.0001H240.912V49.9361ZM243.096 47.8361C242.294 47.8361 241.64 47.6028 241.136 47.1361C240.632 46.6694 240.38 46.0908 240.38 45.4001C240.38 44.7094 240.632 44.1308 241.136 43.6641C241.64 43.1974 242.294 42.9641 243.096 42.9641C243.899 42.9641 244.552 43.1881 245.056 43.6361C245.56 44.0841 245.812 44.6441 245.812 45.3161C245.812 46.0441 245.56 46.6508 245.056 47.1361C244.552 47.6028 243.899 47.8361 243.096 47.8361Z" fill="black"/>
<path d="M249.642 45.4001H258.546C260.674 45.4001 262.55 45.8108 264.174 46.6321C265.817 47.4348 267.086 48.5734 267.982 50.0481C268.897 51.5228 269.354 53.2401 269.354 55.2001C269.354 57.1601 268.897 58.8774 267.982 60.3521C267.086 61.8268 265.817 62.9748 264.174 63.7961C262.55 64.5988 260.674 65.0001 258.546 65.0001H249.642V45.4001ZM258.322 61.2761C260.282 61.2761 261.841 60.7348 262.998 59.6521C264.174 58.5508 264.762 57.0668 264.762 55.2001C264.762 53.3334 264.174 51.8588 262.998 50.7761C261.841 49.6748 260.282 49.1241 258.322 49.1241H254.178V61.2761H258.322Z" fill="black"/>
<path d="M287.145 65.3361C285.596 65.3361 284.093 65.1308 282.637 64.7201C281.2 64.2908 280.042 63.7401 279.165 63.0681L280.705 59.6521C281.545 60.2681 282.544 60.7628 283.701 61.1361C284.858 61.5094 286.016 61.6961 287.173 61.6961C288.461 61.6961 289.413 61.5094 290.029 61.1361C290.645 60.7441 290.953 60.2308 290.953 59.5961C290.953 59.1294 290.766 58.7468 290.393 58.4481C290.038 58.1308 289.572 57.8788 288.993 57.6921C288.433 57.5054 287.668 57.3001 286.697 57.0761C285.204 56.7214 283.981 56.3668 283.029 56.0121C282.077 55.6574 281.256 55.0881 280.565 54.3041C279.893 53.5201 279.557 52.4748 279.557 51.1681C279.557 50.0294 279.865 49.0028 280.481 48.0881C281.097 47.1548 282.021 46.4174 283.253 45.8761C284.504 45.3348 286.025 45.0641 287.817 45.0641C289.068 45.0641 290.29 45.2134 291.485 45.5121C292.68 45.8108 293.725 46.2401 294.621 46.8001L293.221 50.2441C291.41 49.2174 289.6 48.7041 287.789 48.7041C286.52 48.7041 285.577 48.9094 284.961 49.3201C284.364 49.7308 284.065 50.2721 284.065 50.9441C284.065 51.6161 284.41 52.1201 285.101 52.4561C285.81 52.7734 286.884 53.0908 288.321 53.4081C289.814 53.7628 291.037 54.1174 291.989 54.4721C292.941 54.8268 293.753 55.3868 294.425 56.1521C295.116 56.9174 295.461 57.9534 295.461 59.2601C295.461 60.3801 295.144 61.4068 294.509 62.3401C293.893 63.2548 292.96 63.9828 291.709 64.5241C290.458 65.0654 288.937 65.3361 287.145 65.3361Z" fill="black"/>
<path d="M307.968 64.2721C307.539 64.5894 307.007 64.8321 306.372 65.0001C305.756 65.1494 305.103 65.2241 304.412 65.2241C302.62 65.2241 301.23 64.7668 300.24 63.8521C299.27 62.9374 298.784 61.5934 298.784 59.8201V53.6321H296.46V50.2721H298.784V46.6041H303.152V50.2721H306.904V53.6321H303.152V59.7641C303.152 60.3988 303.311 60.8934 303.628 61.2481C303.964 61.5841 304.431 61.7521 305.028 61.7521C305.719 61.7521 306.307 61.5654 306.792 61.1921L307.968 64.2721Z" fill="black"/>
<path d="M325.596 49.9361V65.0001H321.452V63.2081C320.874 63.8614 320.183 64.3654 319.38 64.7201C318.578 65.0561 317.71 65.2241 316.776 65.2241C314.798 65.2241 313.23 64.6548 312.072 63.5161C310.915 62.3774 310.336 60.6881 310.336 58.4481V49.9361H314.704V57.8041C314.704 60.2308 315.722 61.4441 317.756 61.4441C318.802 61.4441 319.642 61.1081 320.276 60.4361C320.911 59.7454 321.228 58.7281 321.228 57.3841V49.9361H325.596Z" fill="black"/>
<path d="M344.987 44.2241V65.0001H340.815V63.2641C339.732 64.5708 338.164 65.2241 336.111 65.2241C334.692 65.2241 333.404 64.9068 332.247 64.2721C331.108 63.6374 330.212 62.7321 329.559 61.5561C328.906 60.3801 328.579 59.0174 328.579 57.4681C328.579 55.9188 328.906 54.5561 329.559 53.3801C330.212 52.2041 331.108 51.2988 332.247 50.6641C333.404 50.0294 334.692 49.7121 336.111 49.7121C338.034 49.7121 339.536 50.3188 340.619 51.5321V44.2241H344.987ZM336.867 61.6401C337.968 61.6401 338.883 61.2668 339.611 60.5201C340.339 59.7548 340.703 58.7374 340.703 57.4681C340.703 56.1988 340.339 55.1908 339.611 54.4441C338.883 53.6788 337.968 53.2961 336.867 53.2961C335.747 53.2961 334.823 53.6788 334.095 54.4441C333.367 55.1908 333.003 56.1988 333.003 57.4681C333.003 58.7374 333.367 59.7548 334.095 60.5201C334.823 61.2668 335.747 61.6401 336.867 61.6401Z" fill="black"/>
<path d="M349.03 49.9361H353.398V65.0001H349.03V49.9361ZM351.214 47.8361C350.411 47.8361 349.758 47.6028 349.254 47.1361C348.75 46.6694 348.498 46.0908 348.498 45.4001C348.498 44.7094 348.75 44.1308 349.254 43.6641C349.758 43.1974 350.411 42.9641 351.214 42.9641C352.016 42.9641 352.67 43.1881 353.174 43.6361C353.678 44.0841 353.93 44.6441 353.93 45.3161C353.93 46.0441 353.678 46.6508 353.174 47.1361C352.67 47.6028 352.016 47.8361 351.214 47.8361Z" fill="black"/>
<path d="M364.62 65.2241C363.033 65.2241 361.605 64.8974 360.336 64.2441C359.085 63.5721 358.105 62.6481 357.396 61.4721C356.686 60.2961 356.332 58.9614 356.332 57.4681C356.332 55.9748 356.686 54.6401 357.396 53.4641C358.105 52.2881 359.085 51.3734 360.336 50.7201C361.605 50.0481 363.033 49.7121 364.62 49.7121C366.206 49.7121 367.625 50.0481 368.876 50.7201C370.126 51.3734 371.106 52.2881 371.816 53.4641C372.525 54.6401 372.88 55.9748 372.88 57.4681C372.88 58.9614 372.525 60.2961 371.816 61.4721C371.106 62.6481 370.126 63.5721 368.876 64.2441C367.625 64.8974 366.206 65.2241 364.62 65.2241ZM364.62 61.6401C365.74 61.6401 366.654 61.2668 367.364 60.5201C368.092 59.7548 368.456 58.7374 368.456 57.4681C368.456 56.1988 368.092 55.1908 367.364 54.4441C366.654 53.6788 365.74 53.2961 364.62 53.2961C363.5 53.2961 362.576 53.6788 361.848 54.4441C361.12 55.1908 360.756 56.1988 360.756 57.4681C360.756 58.7374 361.12 59.7548 361.848 60.5201C362.576 61.2668 363.5 61.6401 364.62 61.6401Z" fill="black"/>
<rect x="602" width="305" height="523" fill="#F6F6F6"/>
<path d="M723.747 65.3361C721.75 65.3361 719.939 64.9068 718.315 64.0481C716.71 63.1708 715.44 61.9668 714.507 60.4361C713.592 58.8868 713.135 57.1415 713.135 55.2001C713.135 53.2588 713.592 51.5228 714.507 49.9921C715.44 48.4428 716.71 47.2388 718.315 46.3801C719.939 45.5028 721.759 45.0641 723.775 45.0641C725.474 45.0641 727.004 45.3628 728.367 45.9601C729.748 46.5575 730.906 47.4161 731.839 48.5361L728.927 51.2241C727.602 49.6935 725.959 48.9281 723.999 48.9281C722.786 48.9281 721.703 49.1988 720.751 49.7401C719.799 50.2628 719.052 51.0001 718.511 51.9521C717.988 52.9041 717.727 53.9868 717.727 55.2001C717.727 56.4135 717.988 57.4961 718.511 58.4481C719.052 59.4001 719.799 60.1468 720.751 60.6881C721.703 61.2108 722.786 61.4721 723.999 61.4721C725.959 61.4721 727.602 60.6975 728.927 59.1481L731.839 61.8361C730.906 62.9748 729.748 63.8428 728.367 64.4401C726.986 65.0375 725.446 65.3361 723.747 65.3361Z" fill="black"/>
<path d="M734.594 44.2241H738.962V65.0001H734.594V44.2241Z" fill="black"/>
<path d="M750.184 65.2241C748.597 65.2241 747.169 64.8975 745.9 64.2441C744.649 63.5721 743.669 62.6481 742.96 61.4721C742.251 60.2961 741.896 58.9615 741.896 57.4681C741.896 55.9748 742.251 54.6401 742.96 53.4641C743.669 52.2881 744.649 51.3735 745.9 50.7201C747.169 50.0481 748.597 49.7121 750.184 49.7121C751.771 49.7121 753.189 50.0481 754.44 50.7201C755.691 51.3735 756.671 52.2881 757.38 53.4641C758.089 54.6401 758.444 55.9748 758.444 57.4681C758.444 58.9615 758.089 60.2961 757.38 61.4721C756.671 62.6481 755.691 63.5721 754.44 64.2441C753.189 64.8975 751.771 65.2241 750.184 65.2241ZM750.184 61.6401C751.304 61.6401 752.219 61.2668 752.928 60.5201C753.656 59.7548 754.02 58.7375 754.02 57.4681C754.02 56.1988 753.656 55.1908 752.928 54.4441C752.219 53.6788 751.304 53.2961 750.184 53.2961C749.064 53.2961 748.14 53.6788 747.412 54.4441C746.684 55.1908 746.32 56.1988 746.32 57.4681C746.32 58.7375 746.684 59.7548 747.412 60.5201C748.14 61.2668 749.064 61.6401 750.184 61.6401Z" fill="black"/>
<path d="M776.54 49.9361V65.0001H772.396V63.2081C771.817 63.8615 771.126 64.3655 770.324 64.7201C769.521 65.0561 768.653 65.2241 767.72 65.2241C765.741 65.2241 764.173 64.6548 763.016 63.5161C761.858 62.3775 761.28 60.6881 761.28 58.4481V49.9361H765.648V57.8041C765.648 60.2308 766.665 61.4441 768.7 61.4441C769.745 61.4441 770.585 61.1081 771.22 60.4361C771.854 59.7455 772.172 58.7281 772.172 57.3841V49.9361H776.54Z" fill="black"/>
<path d="M795.93 44.2241V65.0001H791.758V63.2641C790.676 64.5708 789.108 65.2241 787.054 65.2241C785.636 65.2241 784.348 64.9068 783.19 64.2721C782.052 63.6375 781.156 62.7321 780.502 61.5561C779.849 60.3801 779.522 59.0175 779.522 57.4681C779.522 55.9188 779.849 54.5561 780.502 53.3801C781.156 52.2041 782.052 51.2988 783.19 50.6641C784.348 50.0295 785.636 49.7121 787.054 49.7121C788.977 49.7121 790.48 50.3188 791.562 51.5321V44.2241H795.93ZM787.81 61.6401C788.912 61.6401 789.826 61.2668 790.554 60.5201C791.282 59.7548 791.646 58.7375 791.646 57.4681C791.646 56.1988 791.282 55.1908 790.554 54.4441C789.826 53.6788 788.912 53.2961 787.81 53.2961C786.69 53.2961 785.766 53.6788 785.038 54.4441C784.31 55.1908 783.946 56.1988 783.946 57.4681C783.946 58.7375 784.31 59.7548 785.038 60.5201C785.766 61.2668 786.69 61.6401 787.81 61.6401Z" fill="black"/>
<rect x="625" y="381" width="262" height="95" fill="white"/>
<path d="M737.44 434.1H727.024L724.868 439H721.984L730.86 419.4H733.632L742.536 439H739.596L737.44 434.1ZM736.46 431.86L732.232 422.256L728.004 431.86H736.46Z" fill="black"/>
<path d="M772.112 419.4L765.56 439H762.62L757.272 423.348L751.924 439H748.928L742.376 419.4H745.26L750.552 435.332L756.068 419.4H758.644L764.048 435.416L769.452 419.4H772.112Z" fill="black"/>
<path d="M781.25 439.224C779.775 439.224 778.347 439 776.966 438.552C775.603 438.085 774.53 437.488 773.746 436.76L774.782 434.576C775.528 435.248 776.48 435.799 777.638 436.228C778.814 436.639 780.018 436.844 781.25 436.844C782.874 436.844 784.087 436.573 784.89 436.032C785.692 435.472 786.094 434.735 786.094 433.82C786.094 433.148 785.87 432.607 785.422 432.196C784.992 431.767 784.451 431.44 783.798 431.216C783.163 430.992 782.258 430.74 781.082 430.46C779.607 430.105 778.412 429.751 777.498 429.396C776.602 429.041 775.827 428.5 775.174 427.772C774.539 427.025 774.222 426.027 774.222 424.776C774.222 423.731 774.492 422.788 775.034 421.948C775.594 421.108 776.434 420.436 777.554 419.932C778.674 419.428 780.064 419.176 781.726 419.176C782.883 419.176 784.022 419.325 785.142 419.624C786.262 419.923 787.223 420.352 788.026 420.912L787.102 423.152C786.28 422.629 785.403 422.237 784.47 421.976C783.536 421.696 782.622 421.556 781.726 421.556C780.139 421.556 778.944 421.845 778.142 422.424C777.358 423.003 776.966 423.749 776.966 424.664C776.966 425.336 777.19 425.887 777.638 426.316C778.086 426.727 778.636 427.053 779.29 427.296C779.962 427.52 780.867 427.763 782.006 428.024C783.48 428.379 784.666 428.733 785.562 429.088C786.458 429.443 787.223 429.984 787.858 430.712C788.511 431.44 788.838 432.42 788.838 433.652C788.838 434.679 788.558 435.621 787.998 436.48C787.438 437.32 786.588 437.992 785.45 438.496C784.311 438.981 782.911 439.224 781.25 439.224Z" fill="black"/>
<rect x="625" y="248" width="262" height="95" fill="white"/>
<path d="M741.985 296.088H744.673V303.732C743.702 304.535 742.573 305.151 741.285 305.58C739.997 306.009 738.653 306.224 737.253 306.224C735.274 306.224 733.492 305.795 731.905 304.936C730.318 304.059 729.068 302.864 728.153 301.352C727.257 299.821 726.809 298.104 726.809 296.2C726.809 294.296 727.257 292.579 728.153 291.048C729.068 289.517 730.318 288.323 731.905 287.464C733.51 286.605 735.312 286.176 737.309 286.176C738.877 286.176 740.296 286.437 741.565 286.96C742.853 287.464 743.945 288.211 744.841 289.2L743.105 290.936C741.537 289.424 739.642 288.668 737.421 288.668C735.928 288.668 734.584 288.995 733.389 289.648C732.213 290.283 731.289 291.179 730.617 292.336C729.945 293.475 729.609 294.763 729.609 296.2C729.609 297.619 729.945 298.907 730.617 300.064C731.289 301.203 732.213 302.099 733.389 302.752C734.584 303.405 735.918 303.732 737.393 303.732C739.148 303.732 740.678 303.312 741.985 302.472V296.088Z" fill="black"/>
<path d="M758.798 306.224C756.838 306.224 755.064 305.795 753.478 304.936C751.91 304.059 750.678 302.864 749.782 301.352C748.886 299.821 748.438 298.104 748.438 296.2C748.438 294.296 748.886 292.588 749.782 291.076C750.678 289.545 751.919 288.351 753.506 287.492C755.092 286.615 756.866 286.176 758.826 286.176C760.356 286.176 761.756 286.437 763.026 286.96C764.295 287.464 765.378 288.22 766.274 289.228L764.454 290.992C762.979 289.443 761.14 288.668 758.938 288.668C757.482 288.668 756.166 288.995 754.99 289.648C753.814 290.301 752.89 291.207 752.218 292.364C751.564 293.503 751.238 294.781 751.238 296.2C751.238 297.619 751.564 298.907 752.218 300.064C752.89 301.203 753.814 302.099 754.99 302.752C756.166 303.405 757.482 303.732 758.938 303.732C761.122 303.732 762.96 302.948 764.454 301.38L766.274 303.144C765.378 304.152 764.286 304.917 762.998 305.44C761.728 305.963 760.328 306.224 758.798 306.224Z" fill="black"/>
<path d="M777.912 286.4C780.451 286.4 782.448 287.007 783.904 288.22C785.36 289.433 786.088 291.104 786.088 293.232C786.088 295.36 785.36 297.031 783.904 298.244C782.448 299.457 780.451 300.064 777.912 300.064H773.068V306H770.268V286.4H777.912ZM777.828 297.628C779.601 297.628 780.955 297.255 781.888 296.508C782.821 295.743 783.288 294.651 783.288 293.232C783.288 291.813 782.821 290.731 781.888 289.984C780.955 289.219 779.601 288.836 777.828 288.836H773.068V297.628H777.828Z" fill="black"/>
<rect x="625" y="115" width="262" height="95" fill="white"/>
<path d="M673.047 153.4H675.847V173H673.047V153.4Z" fill="black"/>
<path d="M687.679 173.168C686.205 173.168 684.879 172.841 683.703 172.188C682.527 171.535 681.603 170.639 680.931 169.5C680.278 168.343 679.951 167.036 679.951 165.58C679.951 164.124 680.278 162.827 680.931 161.688C681.603 160.531 682.527 159.635 683.703 159C684.879 158.347 686.205 158.02 687.679 158.02C689.154 158.02 690.47 158.347 691.627 159C692.803 159.635 693.718 160.531 694.371 161.688C695.043 162.827 695.379 164.124 695.379 165.58C695.379 167.036 695.043 168.343 694.371 169.5C693.718 170.639 692.803 171.535 691.627 172.188C690.47 172.841 689.154 173.168 687.679 173.168ZM687.679 170.816C688.631 170.816 689.481 170.601 690.227 170.172C690.993 169.724 691.59 169.108 692.019 168.324C692.449 167.521 692.663 166.607 692.663 165.58C692.663 164.553 692.449 163.648 692.019 162.864C691.59 162.061 690.993 161.445 690.227 161.016C689.481 160.587 688.631 160.372 687.679 160.372C686.727 160.372 685.869 160.587 685.103 161.016C684.357 161.445 683.759 162.061 683.311 162.864C682.882 163.648 682.667 164.553 682.667 165.58C682.667 166.607 682.882 167.521 683.311 168.324C683.759 169.108 684.357 169.724 685.103 170.172C685.869 170.601 686.727 170.816 687.679 170.816Z" fill="black"/>
<path d="M701.111 155.836H694.391V153.4H710.603V155.836H703.883V173H701.111V155.836Z" fill="black"/>
<path d="M728.816 153.4C731.355 153.4 733.352 154.007 734.808 155.22C736.264 156.433 736.992 158.104 736.992 160.232C736.992 162.36 736.264 164.031 734.808 165.244C733.352 166.457 731.355 167.064 728.816 167.064H723.972V173H721.172V153.4H728.816ZM728.732 164.628C730.506 164.628 731.859 164.255 732.792 163.508C733.726 162.743 734.192 161.651 734.192 160.232C734.192 158.813 733.726 157.731 732.792 156.984C731.859 156.219 730.506 155.836 728.732 155.836H723.972V164.628H728.732Z" fill="black"/>
<path d="M740.987 152.224H743.675V173H740.987V152.224Z" fill="black"/>
<path d="M754.212 158.02C756.265 158.02 757.833 158.524 758.916 159.532C760.017 160.54 760.568 162.043 760.568 164.04V173H758.02V171.04C757.572 171.731 756.928 172.263 756.088 172.636C755.266 172.991 754.286 173.168 753.148 173.168C751.486 173.168 750.152 172.767 749.144 171.964C748.154 171.161 747.66 170.107 747.66 168.8C747.66 167.493 748.136 166.448 749.088 165.664C750.04 164.861 751.552 164.46 753.624 164.46H757.88V163.928C757.88 162.771 757.544 161.884 756.872 161.268C756.2 160.652 755.21 160.344 753.904 160.344C753.026 160.344 752.168 160.493 751.328 160.792C750.488 161.072 749.778 161.455 749.2 161.94L748.08 159.924C748.845 159.308 749.76 158.841 750.824 158.524C751.888 158.188 753.017 158.02 754.212 158.02ZM753.596 171.096C754.622 171.096 755.509 170.872 756.256 170.424C757.002 169.957 757.544 169.304 757.88 168.464V166.392H753.736C751.458 166.392 750.32 167.157 750.32 168.688C750.32 169.435 750.609 170.023 751.188 170.452C751.766 170.881 752.569 171.096 753.596 171.096Z" fill="black"/>
<path d="M773.886 172.132C773.494 172.468 773.009 172.729 772.43 172.916C771.851 173.084 771.254 173.168 770.638 173.168C769.145 173.168 767.987 172.767 767.166 171.964C766.345 171.161 765.934 170.013 765.934 168.52V160.372H763.414V158.16H765.934V154.912H768.622V158.16H772.878V160.372H768.622V168.408C768.622 169.211 768.818 169.827 769.21 170.256C769.621 170.685 770.199 170.9 770.946 170.9C771.767 170.9 772.467 170.667 773.046 170.2L773.886 172.132Z" fill="black"/>
<path d="M782.568 154.268C780.962 154.268 780.16 155.136 780.16 156.872V158.16H784.472V160.372H780.216V173H777.528V160.372H775.008V158.16H777.528V156.844C777.528 155.369 777.957 154.203 778.816 153.344C779.674 152.485 780.878 152.056 782.428 152.056C783.025 152.056 783.585 152.131 784.108 152.28C784.63 152.429 785.078 152.644 785.452 152.924L784.64 154.968C784.024 154.501 783.333 154.268 782.568 154.268Z" fill="black"/>
<path d="M793.144 173.168C791.67 173.168 790.344 172.841 789.168 172.188C787.992 171.535 787.068 170.639 786.396 169.5C785.743 168.343 785.416 167.036 785.416 165.58C785.416 164.124 785.743 162.827 786.396 161.688C787.068 160.531 787.992 159.635 789.168 159C790.344 158.347 791.67 158.02 793.144 158.02C794.619 158.02 795.935 158.347 797.092 159C798.268 159.635 799.183 160.531 799.836 161.688C800.508 162.827 800.844 164.124 800.844 165.58C800.844 167.036 800.508 168.343 799.836 169.5C799.183 170.639 798.268 171.535 797.092 172.188C795.935 172.841 794.619 173.168 793.144 173.168ZM793.144 170.816C794.096 170.816 794.946 170.601 795.692 170.172C796.458 169.724 797.055 169.108 797.484 168.324C797.914 167.521 798.128 166.607 798.128 165.58C798.128 164.553 797.914 163.648 797.484 162.864C797.055 162.061 796.458 161.445 795.692 161.016C794.946 160.587 794.096 160.372 793.144 160.372C792.192 160.372 791.334 160.587 790.568 161.016C789.822 161.445 789.224 162.061 788.776 162.864C788.347 163.648 788.132 164.553 788.132 165.58C788.132 166.607 788.347 167.521 788.776 168.324C789.224 169.108 789.822 169.724 790.568 170.172C791.334 170.601 792.192 170.816 793.144 170.816Z" fill="black"/>
<path d="M807.138 160.652C807.604 159.793 808.295 159.14 809.21 158.692C810.124 158.244 811.235 158.02 812.542 158.02V160.624C812.392 160.605 812.187 160.596 811.926 160.596C810.47 160.596 809.322 161.035 808.482 161.912C807.66 162.771 807.25 164.003 807.25 165.608V173H804.562V158.16H807.138V160.652Z" fill="black"/>
<path d="M834.419 158.02C836.285 158.02 837.76 158.561 838.843 159.644C839.944 160.727 840.495 162.332 840.495 164.46V173H837.807V164.768C837.807 163.331 837.471 162.248 836.799 161.52C836.145 160.792 835.203 160.428 833.971 160.428C832.608 160.428 831.525 160.857 830.723 161.716C829.92 162.556 829.519 163.769 829.519 165.356V173H826.831V164.768C826.831 163.331 826.495 162.248 825.823 161.52C825.169 160.792 824.227 160.428 822.995 160.428C821.632 160.428 820.549 160.857 819.747 161.716C818.944 162.556 818.543 163.769 818.543 165.356V173H815.855V158.16H818.431V160.372C818.972 159.607 819.681 159.028 820.559 158.636C821.436 158.225 822.435 158.02 823.555 158.02C824.712 158.02 825.739 158.253 826.635 158.72C827.531 159.187 828.221 159.868 828.707 160.764C829.267 159.905 830.041 159.233 831.031 158.748C832.039 158.263 833.168 158.02 834.419 158.02Z" fill="black"/>
</svg>
