<?xml version="1.0" encoding="UTF-8"?>
<svg id="_レイヤー_2" data-name="レイヤー 2" xmlns="http://www.w3.org/2000/svg" xmlns:xlink="http://www.w3.org/1999/xlink" viewBox="0 0 144.95 158.28">
  <defs>
    <style>
      .cls-1 {
        fill: url(#_名称未設定グラデーション_19-7);
      }

      .cls-1, .cls-2, .cls-3, .cls-4, .cls-5, .cls-6, .cls-7, .cls-8 {
        stroke-width: 0px;
      }

      .cls-2 {
        fill: url(#_名称未設定グラデーション_19-6);
      }

      .cls-3 {
        fill: url(#_名称未設定グラデーション_19-2);
      }

      .cls-4 {
        fill: url(#_名称未設定グラデーション_19-3);
      }

      .cls-5 {
        fill: url(#_名称未設定グラデーション_19-5);
      }

      .cls-6 {
        fill: url(#_名称未設定グラデーション_19-8);
      }

      .cls-7 {
        fill: url(#_名称未設定グラデーション_19-4);
      }

      .cls-8 {
        fill: url(#_名称未設定グラデーション_19);
      }
    </style>
    <linearGradient id="_名称未設定グラデーション_19" data-name="名称未設定グラデーション 19" x1="128.73" y1="45.07" x2="45.42" y2="148.98" gradientUnits="userSpaceOnUse">
      <stop offset="0" stop-color="#00a0e9"/>
      <stop offset="1" stop-color="#0068b7"/>
    </linearGradient>
    <linearGradient id="_名称未設定グラデーション_19-2" data-name="名称未設定グラデーション 19" x1="87.01" y1="11.62" x2="3.71" y2="115.53" xlink:href="#_名称未設定グラデーション_19"/>
    <linearGradient id="_名称未設定グラデーション_19-3" data-name="名称未設定グラデーション 19" x1="74.12" y1="1.28" x2="-9.19" y2="105.19" xlink:href="#_名称未設定グラデーション_19"/>
    <linearGradient id="_名称未設定グラデーション_19-4" data-name="名称未設定グラデーション 19" x1="87.71" y1="12.18" x2="4.4" y2="116.09" xlink:href="#_名称未設定グラデーション_19"/>
    <linearGradient id="_名称未設定グラデーション_19-5" data-name="名称未設定グラデーション 19" x1="137.83" y1="52.36" x2="54.52" y2="156.27" xlink:href="#_名称未設定グラデーション_19"/>
    <linearGradient id="_名称未設定グラデーション_19-6" data-name="名称未設定グラデーション 19" x1="150.72" y1="62.7" x2="67.42" y2="166.61" xlink:href="#_名称未設定グラデーション_19"/>
    <linearGradient id="_名称未設定グラデーション_19-7" data-name="名称未設定グラデーション 19" x1="137.13" y1="51.8" x2="53.83" y2="155.72" xlink:href="#_名称未設定グラデーション_19"/>
    <linearGradient id="_名称未設定グラデーション_19-8" data-name="名称未設定グラデーション 19" x1="94.85" y1="17.9" x2="11.54" y2="121.82" xlink:href="#_名称未設定グラデーション_19"/>
  </defs>
  <path class="cls-8" d="m72.47,158.28c-.67,0-1.31-.31-1.72-.84l-33.22-42.96,3.44-2.66,31.5,40.74,31.5-40.74,3.44,2.66-33.22,42.96c-.41.53-1.05.84-1.72.84Z"/>
  <path class="cls-3" d="m49.33,129.17H12.25c-.82,0-1.57-.46-1.94-1.19-.37-.73-.3-1.61.19-2.27l32.28-43.96L10.5,37.78c-.48-.66-.56-1.54-.19-2.27.37-.73,1.12-1.19,1.94-1.19h37.08c.69,0,1.34.33,1.75.89l33.22,45.25c.56.77.56,1.81,0,2.57l-33.22,45.25c-.41.56-1.06.89-1.75.89Zm-32.79-4.35h31.69l31.63-43.08-31.63-43.08h-31.69l30.68,41.79c.56.77.56,1.81,0,2.57l-30.68,41.79Z"/>
  <path class="cls-4" d="m39.25,115.32H2.17c-.82,0-1.57-.46-1.94-1.19-.37-.73-.3-1.61.19-2.27l32.28-43.96L.42,23.93c-.48-.66-.56-1.54-.19-2.27.37-.73,1.12-1.19,1.94-1.19h37.08c.69,0,1.34.33,1.75.89l33.22,45.25c.56.77.56,1.81,0,2.57l-33.22,45.25c-.41.56-1.06.89-1.75.89Zm-32.79-4.35h31.69l31.63-43.08-31.63-43.08H6.47l30.68,41.79c.56.77.56,1.81,0,2.57L6.47,110.97Z"/>
  <path class="cls-7" d="m39.25,143.16H2.17c-.82,0-1.57-.46-1.94-1.19-.37-.73-.3-1.61.19-2.27l32.28-43.96L.42,51.78c-.48-.66-.56-1.54-.19-2.27.37-.73,1.12-1.19,1.94-1.19h37.08c.69,0,1.34.33,1.75.89l33.22,45.25c.56.77.56,1.81,0,2.57l-33.22,45.25c-.41.56-1.06.89-1.75.89Zm-32.79-4.35h31.69l31.63-43.08-31.63-43.08H6.47l30.68,41.79c.56.77.56,1.81,0,2.57l-30.68,41.79Z"/>
  <path class="cls-5" d="m132.69,129.31h-37.08c-.69,0-1.34-.33-1.75-.89l-33.22-45.25c-.56-.77-.56-1.81,0-2.57l33.22-45.25c.41-.56,1.06-.89,1.75-.89h37.08c.82,0,1.57.46,1.94,1.19.37.73.3,1.61-.19,2.27l-32.28,43.96,32.28,43.96c.48.66.56,1.54.19,2.27-.37.73-1.12,1.19-1.94,1.19Zm-35.98-4.35h31.69l-30.68-41.79c-.56-.77-.56-1.81,0-2.57l30.68-41.79h-31.69l-31.63,43.08,31.63,43.08Z"/>
  <path class="cls-2" d="m142.77,143.16h-37.08c-.69,0-1.34-.33-1.75-.89l-33.22-45.25c-.56-.77-.56-1.81,0-2.57l33.22-45.25c.41-.56,1.06-.89,1.75-.89h37.08c.82,0,1.57.46,1.94,1.19.37.73.3,1.61-.19,2.27l-32.28,43.96,32.28,43.96c.48.66.56,1.54.19,2.27-.37.73-1.12,1.19-1.94,1.19Zm-35.98-4.35h31.69l-30.68-41.79c-.56-.77-.56-1.81,0-2.57l30.68-41.79h-31.69l-31.63,43.08,31.63,43.08Z"/>
  <path class="cls-1" d="m142.77,115.32h-37.08c-.69,0-1.34-.33-1.75-.89l-33.22-45.25c-.56-.77-.56-1.81,0-2.57l33.22-45.25c.41-.56,1.06-.89,1.75-.89h37.08c.82,0,1.57.46,1.94,1.19.37.73.3,1.61-.19,2.27l-32.28,43.96,32.28,43.96c.48.66.56,1.54.19,2.27-.37.73-1.12,1.19-1.94,1.19Zm-35.98-4.35h31.69l-30.68-41.79c-.56-.77-.56-1.81,0-2.57l30.68-41.79h-31.69l-31.63,43.08,31.63,43.08Z"/>
  <path class="cls-6" d="m103.9,51.72L72.47,6.01l-31.43,45.71-3.58-2.46L70.68.94c.41-.59,1.08-.94,1.79-.94s1.39.35,1.79.94l33.22,48.32-3.58,2.46Z"/>
</svg>
