<svg width="1486" height="233" viewBox="0 0 1486 233" fill="none" xmlns="http://www.w3.org/2000/svg">
<path fill-rule="evenodd" clip-rule="evenodd" d="M693.305 217.467C672.975 217.467 655.187 213.213 639.939 204.704C624.873 196.196 613.075 184.338 604.544 169.132C596.194 153.744 592.019 135.913 592.019 115.637C592.019 95.1808 596.194 77.3493 604.544 62.1427C613.075 46.9361 624.873 35.0787 639.939 26.5702C655.187 18.0618 672.975 13.8076 693.305 13.8076C713.454 13.8076 731.151 18.0618 746.399 26.5702C761.646 35.0787 773.445 46.9361 781.795 62.1427C790.144 77.3493 794.319 95.1808 794.319 115.637C794.319 135.913 790.144 153.744 781.795 169.132C773.445 184.338 761.646 196.196 746.399 204.704C731.151 213.213 713.454 217.467 693.305 217.467ZM693.305 204.976C710.912 204.976 726.251 201.265 739.32 193.842C752.389 186.42 762.554 176.011 769.815 162.615C777.075 149.218 780.706 133.559 780.706 115.637C780.706 97.7152 777.075 82.0561 769.815 68.6598C762.554 55.2635 752.389 44.8543 739.32 37.4321C726.251 30.0098 710.912 26.2987 693.305 26.2987C675.698 26.2987 660.269 30.0098 647.018 37.4321C633.949 44.8543 623.784 55.2635 616.524 68.6598C609.445 82.0561 605.905 97.7152 605.905 115.637C605.905 133.559 609.445 149.218 616.524 162.615C623.784 176.011 633.949 186.42 647.018 193.842C660.269 201.265 675.698 204.976 693.305 204.976ZM358.996 214.751V16.523H375.333L495.406 194.929H495.95V16.523H509.564V214.751H493.228L372.882 36.3459H372.338V214.751H358.996ZM876.744 108V214.751H921.942C956.793 214.751 983.022 206.424 1000.63 189.769C1018.42 173.114 1027.31 148.404 1027.31 115.637C1027.31 82.8707 1018.42 58.16 1000.63 41.5052C983.022 24.8504 956.793 16.523 921.942 16.523H876.744V29H892V29.0141H922.759C943.089 29.0141 959.97 32.2727 973.402 38.7898C986.834 45.1259 996.908 54.7205 1003.62 67.5736C1010.34 80.2458 1013.7 96.267 1013.7 115.637C1013.7 135.007 1010.34 151.119 1003.62 163.972C996.908 176.644 986.834 186.239 973.402 192.756C959.97 199.092 943.089 202.26 922.759 202.26H890.086V108H876.744ZM1123.17 214.751V202.26H1231.26V214.751H1123.17ZM1123.17 115.637V103.418H1225.82V115.637H1123.17ZM1123.17 29.0141V16.523H1231.26V29.0141H1123.17ZM1395.12 114.823L1323.79 214.751H1339.58L1404.38 123.784H1404.93L1469.46 214.751H1485.25L1413.91 114.823L1483.89 16.523H1468.09L1404.93 105.59H1404.38L1340.94 16.523H1325.15L1395.12 114.823Z" fill="#00143B"/>
<path fill-rule="evenodd" clip-rule="evenodd" d="M62.9762 12.9959C25.5645 32.3815 0 71.4553 0 116.5C0 132.362 3.16989 147.483 8.91074 161.265L110.078 60.0976L62.9762 12.9959ZM117.149 67.1687L13.4419 170.876C32.9765 207.823 71.7981 233 116.5 233C161.545 233 200.619 207.435 220.004 170.024L117.149 67.1687ZM224.468 160.345L124.22 60.0976L170.876 13.4419C207.823 32.9765 233 71.7981 233 116.5C233 132.01 229.969 146.811 224.468 160.345ZM117.149 53.0265L72.6548 8.53232C86.1887 3.03076 100.99 0 116.5 0C132.362 0 147.483 3.16989 161.265 8.91074L117.149 53.0265Z" fill="#00143B"/>
</svg>
