<?xml version="1.0" encoding="UTF-8" standalone="no"?>
<!DOCTYPE svg PUBLIC "-//W3C//DTD SVG 1.1//EN" "http://www.w3.org/Graphics/SVG/1.1/DTD/svg11.dtd">
<svg width="100%" height="100%" viewBox="0 0 251 82" version="1.1" xmlns="http://www.w3.org/2000/svg" xmlns:xlink="http://www.w3.org/1999/xlink" xml:space="preserve" xmlns:serif="http://www.serif.com/" style="fill-rule:evenodd;clip-rule:evenodd;stroke-linejoin:round;stroke-miterlimit:2;">
    <g transform="matrix(0.533333,0,0,0.533333,0,0)">
        <g id="Artboard1" transform="matrix(1.01871,0,0,1.05144,-272.045,-443.259)">
            <rect x="267.049" y="421.574" width="460.886" height="145.675" style="fill:none;"/>
            <g id="soft_text" transform="matrix(0.981635,0,0,0.951079,15.5183,17.1932)">
                <path id="text_U" d="M443.082,505.671L443.082,469.861C443.082,468.41 443.584,467.183 444.588,466.179C445.592,465.175 446.819,464.673 448.269,464.673C449.719,464.673 450.947,465.175 451.951,466.179C452.955,467.183 453.457,468.41 453.457,469.861L453.457,505.671C453.457,509.799 454.238,513.704 455.799,517.385C457.361,520.955 459.481,524.134 462.158,526.923C464.947,529.601 468.127,531.72 471.697,533.282C475.378,534.844 479.283,535.625 483.41,535.625C487.538,535.625 491.387,534.844 494.957,533.282C498.638,531.72 501.818,529.601 504.495,526.923C507.284,524.134 509.459,520.955 511.021,517.385C512.583,513.704 513.364,509.799 513.364,505.671L513.364,469.861C513.364,468.41 513.866,467.183 514.87,466.179C515.874,465.175 517.101,464.673 518.552,464.673C520.002,464.673 521.229,465.175 522.233,466.179C523.237,467.183 523.739,468.41 523.739,469.861L523.739,505.671C523.739,511.249 522.679,516.492 520.56,521.401C518.44,526.31 515.539,530.605 511.858,534.286C508.288,537.856 504.049,540.701 499.14,542.821C494.232,544.94 488.988,546 483.41,546C477.832,546 472.589,544.94 467.68,542.821C462.772,540.701 458.477,537.856 454.795,534.286C451.225,530.605 448.381,526.31 446.261,521.401C444.141,516.492 443.082,511.249 443.082,505.671Z" style="fill-rule:nonzero;"/>
                <path id="text_N" d="M533.724,540.812L533.724,505.002C533.724,499.424 534.783,494.181 536.903,489.272C539.023,484.363 541.867,480.124 545.437,476.554C549.119,472.873 553.414,469.972 558.322,467.853C563.231,465.733 568.474,464.673 574.052,464.673C579.63,464.673 584.874,465.733 589.782,467.853C594.691,469.972 598.93,472.873 602.5,476.554C606.181,480.124 609.082,484.363 611.202,489.272C613.321,494.181 614.381,499.424 614.381,505.002L614.381,540.812C614.381,542.263 613.879,543.49 612.875,544.494C611.871,545.498 610.644,546 609.194,546C607.743,546 606.516,545.498 605.512,544.494C604.508,543.49 604.006,542.263 604.006,540.812L604.006,505.002C604.006,500.874 603.225,497.025 601.663,493.455C600.101,489.774 597.926,486.595 595.137,483.917C592.46,481.128 589.28,478.953 585.599,477.391C582.029,475.829 578.18,475.048 574.052,475.048C569.925,475.048 566.02,475.829 562.339,477.391C558.769,478.953 555.589,481.128 552.8,483.917C550.123,486.595 548.003,489.774 546.441,493.455C544.88,497.025 544.099,500.874 544.099,505.002L544.099,540.812C544.099,542.263 543.597,543.49 542.593,544.494C541.589,545.498 540.361,546 538.911,546C537.461,546 536.234,545.498 535.23,544.494C534.226,543.49 533.724,542.263 533.724,540.812Z" style="fill-rule:nonzero;"/>
                <path id="text_I" d="M635,470C635,467.24 632.76,465 630,465C627.24,465 625,467.24 625,470L625,541C625,543.76 627.24,546 630,546C632.76,546 635,543.76 635,541L635,470Z"/>
                <circle id="text_dot" cx="630.329" cy="446.304" r="7.441" style="fill:rgb(1,191,165);"/>
                <path id="text_D" d="M682.671,545.615L646.861,545.615C645.41,545.615 644.183,545.113 643.179,544.109C642.175,543.105 641.673,541.878 641.673,540.427C641.673,538.977 642.175,537.75 643.179,536.746C644.183,535.742 645.41,535.24 646.861,535.24L682.671,535.24C686.799,535.24 690.704,534.459 694.385,532.897C697.955,531.335 701.134,529.216 703.923,526.538C706.601,523.749 708.72,520.57 710.282,517C711.844,513.318 712.625,509.414 712.625,505.286C712.625,501.158 711.844,497.31 710.282,493.74C708.72,490.058 706.601,486.879 703.923,484.201C701.134,481.412 697.955,479.237 694.385,477.675C690.704,476.113 686.799,475.332 682.671,475.332L646.861,475.332C645.41,475.332 644.183,474.83 643.179,473.826C642.175,472.822 641.673,471.595 641.673,470.145C641.673,468.695 642.175,467.467 643.179,466.463C644.183,465.459 645.41,464.957 646.861,464.957L682.671,464.957C688.249,464.957 693.493,466.017 698.401,468.137C703.31,470.256 707.605,473.157 711.286,476.838C714.856,480.408 717.701,484.648 719.82,489.556C721.94,494.465 723,499.708 723,505.286C723,510.864 721.94,516.107 719.82,521.016C717.701,525.925 714.856,530.22 711.286,533.901C707.605,537.471 703.31,540.316 698.401,542.435C693.493,544.555 688.249,545.615 682.671,545.615Z" style="fill-rule:nonzero;"/>
            </g>
            <g id="Logo" transform="matrix(1.2673,0,0,1.22785,-81.0622,-123.851)">
                <path id="big_dot-1" serif:id="big_dot 1" d="M330.757,469.774C324.005,467.965 320.009,461.044 321.818,454.292C323.628,447.54 330.548,443.544 337.3,445.354C344.052,447.163 348.048,454.083 346.239,460.835C344.429,467.588 337.509,471.583 330.757,469.774Z" style="fill:rgb(1,191,165);"/>
                <path id="big_dot-2" serif:id="big_dot 2" d="M284.901,513.754C278.149,511.945 274.153,505.025 275.963,498.273C277.772,491.52 284.692,487.525 291.444,489.334C298.197,491.143 302.192,498.064 300.383,504.816C298.574,511.568 291.653,515.564 284.901,513.754Z" style="fill:rgb(1,191,165);"/>
                <path id="big_dot-3" serif:id="big_dot 3" d="M322.953,551.806C324.762,558.558 331.682,562.554 338.434,560.744C345.187,558.935 349.182,552.015 347.373,545.263C345.564,538.51 338.643,534.515 331.891,536.324C325.139,538.133 321.143,545.054 322.953,551.806Z" style="fill:rgb(1,191,165);"/>
                <path id="big_dot-4" serif:id="big_dot 4" d="M366.933,505.95C368.742,512.702 375.663,516.698 382.415,514.889C389.167,513.079 393.163,506.159 391.354,499.407C389.544,492.655 382.624,488.659 375.872,490.468C369.119,492.278 365.124,499.198 366.933,505.95Z" style="fill:rgb(1,191,165);"/>
                <path id="connector-1_2" serif:id="connector 1_2" d="M335.707,451.153L339.05,454.496L283.895,509.65L280.553,506.307L335.707,451.153Z" style="fill:rgb(1,191,165);"/>
                <path id="connector-3_4" serif:id="connector 3_4" d="M341.888,552.873L338.545,556.216L283.391,501.061L286.734,497.719L341.888,552.873Z" style="fill:rgb(1,191,165);"/>
                <path id="connector-5_6" serif:id="connector 5_6" d="M385.554,501L382.211,497.657L327.057,552.812L330.4,556.154L385.554,501Z" style="fill:rgb(1,191,165);"/>
                <path id="triangle_1" d="M315.316,475.717L325.224,452.631L337.709,465.233L315.316,475.717Z" style="fill:rgb(1,191,165);"/>
                <path id="triangle_2" d="M307.376,482.765L297.468,505.852L284.983,493.249L307.376,482.765Z" style="fill:rgb(1,191,165);"/>
                <path id="trinagle_3" d="M306.888,520.522L283.801,510.614L296.404,498.129L306.888,520.522Z" style="fill:rgb(1,191,165);"/>
                <path id="triangle_4" d="M314.529,528.856L337.615,538.764L325.013,551.249L314.529,528.856Z" style="fill:rgb(1,191,165);"/>
                <path id="triangle_5" d="M353.942,529.331L330.855,539.239L343.458,551.724L353.942,529.331Z" style="fill:rgb(1,191,165);"/>
                <path id="triangle_6" d="M360.99,521.391L384.076,511.483L371.474,498.998L360.99,521.391Z" style="fill:rgb(1,191,165);"/>
                <path id="dot_center" d="M334.503,509.297C330.635,509.297 327.508,506.17 327.508,502.302C327.508,498.433 330.635,495.307 334.503,495.307C338.371,495.307 341.498,498.433 341.498,502.302C341.498,506.17 338.371,509.297 334.503,509.297Z" style="fill:rgb(1,191,165);"/>
                <path id="dot_top_right" d="M379.976,463.441C376.107,463.441 372.981,460.314 372.981,456.446C372.981,452.578 376.107,449.451 379.976,449.451C383.844,449.451 386.97,452.578 386.97,456.446C386.97,460.314 383.844,463.441 379.976,463.441Z" style="fill:rgb(1,191,165);"/>
                <path id="dot_bottom_right" d="M379.976,555.152C376.107,555.152 372.981,552.026 372.981,548.158C372.981,544.289 376.107,541.163 379.976,541.163C383.844,541.163 386.97,544.289 386.97,548.158C386.97,552.026 383.844,555.152 379.976,555.152Z" style="fill:rgb(1,191,165);"/>
                <path id="dot_top_left" d="M288.264,463.441C284.396,463.441 281.269,460.314 281.269,456.446C281.269,452.578 284.396,449.451 288.264,449.451C292.132,449.451 295.259,452.578 295.259,456.446C295.259,460.314 292.132,463.441 288.264,463.441Z" style="fill:rgb(1,191,165);"/>
                <path id="dot_bottom_left" d="M288.264,555.152C284.396,555.152 281.269,552.026 281.269,548.158C281.269,544.289 284.396,541.163 288.264,541.163C292.132,541.163 295.259,544.289 295.259,548.158C295.259,552.026 292.132,555.152 288.264,555.152Z" style="fill:rgb(1,191,165);"/>
            </g>
        </g>
    </g>
</svg>
